<?xml version="1.0" encoding="utf-8"?>
<!-- Generator: Adobe Illustrator 25.0.1, SVG Export Plug-In . SVG Version: 6.00 Build 0)  -->
<svg version="1.1" id="Layer_1" xmlns="http://www.w3.org/2000/svg" xmlns:xlink="http://www.w3.org/1999/xlink" x="0px" y="0px"
	 viewBox="0 0 91.73 66.04" style="enable-background:new 0 0 91.73 66.04;" xml:space="preserve">
<style type="text/css">
	.st0{fill:#F2F5F7;}
	.st1{fill:#F0F0F4;}
	.st2{fill:#F5F7F9;}
	.st3{fill:#F0F2F6;}
	.st4{fill:#FAFCFE;}
	.st5{fill:#EDF0F2;}
	.st6{fill:#F9FBFB;}
	.st7{fill:#F2F3F2;}
	.st8{fill:#FDFEFF;}
	.st9{fill:#F9FBFC;}
	.st10{fill:#F6F7F9;}
	.st11{fill:#FAFAFB;}
	.st12{fill:#F6FAFB;}
	.st13{fill:#EFF1F2;}
	.st14{fill:#F1F2F4;}
	.st15{fill:#F2F2F2;}
	.st16{fill:#F3F3F4;}
	.st17{fill:#F8F5F1;}
	.st18{fill:#F1EFF3;}
	.st19{fill:#E8E6E5;}
	.st20{fill:#F3F5F8;}
	.st21{fill:#FCFDFD;}
</style>
<g id="VWJ7lv_1_">
	<g>
		<path class="st0" d="M66.05,18.11c-0.91,0.21-0.73,1.1-0.82,1.63c-0.21,1.32-1.04,1.9-2.14,2.31c0.18,0.18,0.37,0.2,0.55,0.06
			c-0.52,0.28-1.25,0.33-1.48,1.06c-0.02,0.31,0.13,0.58,0.18,0.88c0.04,0.24,0.08,0.48-0.13,0.68c-0.68,0.66-0.57,1.13-0.05,1.91
			c0.44,0.65,1.16,1.07,1.42,1.86c-0.27-0.51-0.68-0.71-1.24-0.77c-0.55-0.06-1.1-0.03-1.63,0.03c-0.34,0.04-0.34,0.35-0.31,0.65
			c0.03,0.53-0.07,0.98-0.78,0.72c-0.22-0.08-0.37-0.01-0.5,0.16c-0.24,0.34-0.52,0.63-0.83,0.9c-0.31,0.27-0.35,0.61-0.18,0.97
			c0.2,0.42,0.47,0.18,0.75,0.09c0.6-0.19,1.81,0.61,1.93,1.23c0.26,1.34,0.04,1.66-1.54,2.06c0.03-0.52,0.33-0.84,0.65-1.18
			c0.52-0.54,0.54-1.12,0.06-1.49c-0.37-0.29-0.93-0.13-1.34,0.4c-0.25,0.32-0.44,0.69-0.7,1.01c-0.11,0.12-0.25,0.33-0.14,0.44
			c0.55,0.62-0.02,0.9-0.34,1.27c-0.55,0.62-0.45,1.13,0.35,1.34c0.6,0.15,0.54,0.4,0.44,0.87c-0.11,0.5-0.07,1.04-0.5,1.43
			c-0.19,0.4-0.16,0.68,0.36,0.75c0.63,0.1,0.83,0.49,0.54,1.05c-0.05,0.1-0.13,0.18-0.19,0.26c-0.28,0.35-0.43,0.72-0.09,1.1
			c0.27,0.29,1.03,0.19,1.35-0.15c0.13-0.14,0.2-0.32,0.31-0.48c0.16-0.22,0.31-0.2,0.42,0.04c0.17,0.4,0.31,0.81,0.34,1.25
			c0.05,0.52,0.29,0.88,0.85,0.93c0.53,0.04,0.43,0.28,0.2,0.58c-0.31,0.43-0.81,0.65-1.16,1.03c-0.5,0.54-0.47,0.93,0.06,1.29
			c0.91-0.44,1.16-0.26,1.16,0.85c-0.14,0.67,0.01,1.35-0.02,2.02c-0.03,0.52,0.33,0.55,0.71,0.31c0.21-0.28,0.16-0.66,0.36-0.94
			c0.14-0.29,0.31-0.1,0.45-0.01c0.28,0.17,0.57,0.32,0.91,0.32c0.43-0.01,0.75-0.17,0.68-0.68c-0.03-0.22-0.03-0.43,0.03-0.64
			c0.1-0.32,0.19-0.49,0.55-0.2c0.58,0.47,1.47,0.39,1.95,1.08c0.13,0.19,0.45,0.15,0.68,0.01c0.09-0.09,0.12-0.2,0.14-0.31
			c0.04-0.5,0.41-0.81,0.68-1.18c0.63-0.84,0.56-1.3-0.33-1.87c-0.27-0.17-0.57-0.32-0.85-0.49c-0.34-0.2-0.61-0.41-0.41-0.91
			c0.14-0.35-0.02-0.76-0.43-0.84c-1.07-0.21-1.45-0.92-1.52-1.9c0-0.08-0.08-0.13-0.16-0.18c-0.15-0.06-0.31-0.02-0.46-0.02
			c-0.14,0-0.27-0.05-0.29-0.19c-0.03-0.21,0.12-0.25,0.29-0.29c0.66,0.26,1.3,0.58,2.02,0.15c0.18-0.11,0.26,0.06,0.36,0.22
			c0.29,0.53,0.31,0.52,0.93,0.31c-0.38,0.45-0.77,0.38-1.2,0.09c-0.29-0.19-0.65-0.45-0.93-0.03c-0.26,0.4-0.09,0.8,0.25,1.09
			c0.37,0.32,0.86,0.48,1.28,0.72c0.43,0.25,0.79,0.5,0.56,1.09c-0.11,0.27,0.01,0.54,0.15,0.78c0.1,0.17,0.22,0.33,0.44,0.32
			c0.25-0.01,0.42-0.19,0.43-0.42c0.03-0.56,0.37-0.71,0.83-0.93c0.54-0.26,0.76-0.91,0.86-1.51c0.07-0.43,0.01-0.87,0.01-1.31
			c0-0.22-0.02-0.46-0.28-0.54c-0.22-0.06-0.35,0.11-0.49,0.24c-0.18,0.17-0.31,0.38-0.6,0.57c0.58-1.14,0.41-2.35,0.65-3.48
			c0.09-0.44-0.21-0.78-0.45-1.11c-0.23-0.31-0.55-0.37-0.87-0.2c-0.31,0.15-0.28,0.44-0.2,0.72c0.11,0.42,0.31,0.86-0.28,1.1
			c-0.49,0.03-1.02,0.17-1.28-0.46c-0.13-0.71-0.63-1.12-1.2-1.48c-0.13-0.08-0.35-0.14-0.31-0.34c0.06-0.25,0.29-0.19,0.48-0.19
			c1.06-0.02,1.88-0.44,2.29-1.46c0.15-0.01,0.22,0.07,0.3,0.15c0.28,0.28,0.5,0.73,0.99,0.31c0.44-0.37,0.61-1.02,0.35-1.46
			c-0.12-0.21-0.28-0.4-0.44-0.59c-0.16-0.19-0.4-0.29-0.56-0.5c1.06-0.17,1.22-0.48,0.88-1.7c0.6-0.08,1.26-0.03,1.53-0.79
			c0.08-0.23,0.39-0.04,0.57,0.07c0.24,0.15,0.36,0.38,0.2,0.63c-0.29,0.48-0.31,1.04-0.52,1.55c-0.22,0.54,0.04,0.96,0.44,1.3
			c0.45,0.38,0.7-0.07,1.06-0.21c0.89-0.35,0.99-1.17,1.28-1.89c0.2-0.49-0.32-0.46-0.55-0.66c0.81,0.07,1.18,1.01,0.68,1.72
			c-0.46,0.65-1.02,1.19-1.76,1.54c-0.84,0.4-1,0.9-0.54,1.68c0.17,0.29,0.11,0.44-0.09,0.63c-0.18,0.17-0.39,0.3-0.59,0.45
			c-0.18,0.13-0.44,0.31-0.39,0.49c0.29,1.08-0.2,2.35,0.79,3.25c0.27,0.25,0.58,0.3,0.75-0.05c0.23-0.5,0.59-1.02,0.25-1.62
			c-0.14-0.26-0.36-0.64,0.15-0.65c0.36,0,0.97-0.5,1.12,0.32c0.02,0.11,0.03,0.22,0.04,0.32c0.05,0.31,0.21,0.51,0.55,0.5
			c0.31-0.01,0.52-0.19,0.59-0.48c0.14-0.57,0.06-1.14-0.08-1.7c-0.07-0.27-0.29-0.38-0.56-0.37c-0.17,0-0.32,0.06-0.49,0.09
			c-0.25,0.04-0.43-0.04-0.54-0.27c-0.06-0.12-0.04-0.37,0.09-0.3c0.37,0.2,0.31-0.67,0.75-0.24c0.47,0.45,0.87,0.98,1.46,1.3
			c0.09,0.05,0.09-0.01,0.06,0.02c-0.51,0.75,0.42,0.93,0.5,1.37c0.1,0.51-0.38,0.93-0.93,1.07c-0.51,0.12-0.92,0.54-0.68,0.91
			c0.39,0.6,0.65,1.17,0.76,1.89c0.06,0.45,1.04,0.47,1.38,0.07c0.16-0.19,0.27-0.43,0.51-0.52c0.55-0.23,1.09-0.43,0.09-0.82
			c-0.08-0.03-0.19-0.1-0.14-0.16c0.4-0.51,0.06-1.02,0.04-1.54c-0.01-0.3,0.21-0.68,0.6-0.66c0.38,0.02,0.4,0.38,0.44,0.68
			c0.08,0.57,0,1.16,0.1,1.71c0.07,0.42,0.15,1.09,0.69,1.07c0.52-0.02,0.57-0.64,0.63-1.11c0.05-0.32-0.03-0.66,0.04-0.98
			c0.05-0.21,0.07-0.48,0.33-0.51c0.37-0.05,0.32,0.3,0.4,0.5c0.2,0.43,0.28,0.93,0.69,1.24c0.3,0.2,0.6,0.5,0.87-0.04
			c0.07-0.13-0.09-0.26,0-0.39c0.07,0.11,0.16,0.19,0.29,0.23c0.08,0,0.14-0.03,0.2-0.09c0.14-0.29,0.25-0.56,0.61-0.72
			c0.48-0.22,0.55-0.78,0.71-1.24c0.05-0.13,0-0.28-0.14-0.34c-0.18-0.08-0.31,0.04-0.43,0.14c-0.18,0.14-0.3,0.43-0.6,0.3
			c-0.11-0.05-0.1-0.19-0.06-0.3c0.12-0.33,0.37-0.45,0.7-0.46c0.19,0,0.45,0,0.54,0.14c0.46,0.7,1.13,0.3,1.72,0.37
			c0.16,0.02,0.33-0.05,0.45-0.17c0.3-0.29,0.52-0.6,0.56-1.06c0.01-0.1,0.49-0.15,0.54-0.52c0.06-0.44,0.15-0.83-0.5-0.84
			c-0.17,0-0.47-0.15-0.3-0.36c0.44-0.53,0.07-0.83-0.26-1.18c0.4,0.31,0.64,0.71,0.82,1.17c0.23,0.61,0.32,0.62,0.93,0.3
			c0.08-0.04,0.04,0.05,0.06,0.07c0.42,0.5,0.78,1.11,1.56,0.49c0.23-0.19,0.3,0.13,0.43,0.23c0.5,0.34,0.84,1.08,1.65,0.7
			c0-2.19,0-4.38,0-6.57c-0.4-0.09-0.51,0.23-0.67,0.47c-0.21,0.31-0.43,0.37-0.59-0.01c-0.25-0.56-0.72-0.51-1.18-0.47
			c-0.49,0.05-0.68,0.38-0.72,0.62c0.01-0.06,0.03-0.32,0.07-0.58c0.04-0.31,0.07-0.66-0.31-0.74c-0.37-0.08-0.51,0.24-0.63,0.52
			c-0.08,0.18-0.06,0.37-0.06,0.6c-0.03-0.21-0.03-0.4-0.11-0.56c-0.13-0.29-0.05-0.77-0.43-0.81c-0.43-0.05-0.67,0.4-0.77,0.73
			c-0.23,0.75-0.58,0.66-1.06,0.27c-0.31-0.25-0.65-0.3-0.98-0.07c-0.3,0.21-0.2,0.46-0.08,0.78c0.17,0.44-0.32,0.5-0.6,0.56
			c-0.46,0.1-0.82-0.23-0.79-0.61c0.07-0.78-0.23-1.05-0.95-1.06c-0.35-0.01-0.41-0.31-0.46-0.59c-0.12-0.61-0.13-1.24-0.55-1.73
			c0.08-0.09,0.12-0.11,0.19-0.08c0.31,0.13,0.62,0.44,0.98,0.14c0.27-0.24,0.17-0.55,0.04-0.83c-0.18-0.4-0.41-0.71-0.91-0.68
			c-0.34,0.02-0.64,0.12-0.88,0.37c-0.57,0.62-0.57,0.62-2.62,1.11c0.63-0.31,0.74-0.7,0.44-1.13c-0.23-0.33,0.12-0.96-0.43-1.05
			c-0.58-0.09-0.56,0.58-0.84,0.87c-0.2,0.21-0.39,0.44-0.36,0.81c-0.11-0.78,0.47-1.61-0.31-2.26c-0.32-0.27-0.33-0.3-0.99-0.24
			c0.13-0.15,0.31-0.24,0.48-0.25c0.64-0.03,1.07-0.19,0.78-0.98c-0.08-0.21,0.12-0.41,0.21-0.61c0.1-0.23,0.09-0.43-0.12-0.58
			c-0.21-0.16-0.42-0.08-0.6,0.06c-0.46,0.33-0.64,0.86-0.87,1.35c0.32-1.2,1.21-2.12,2.34-2.39c0.31-0.07,0.56-0.21,0.81-0.37
			c0.22-0.14,0.62-0.11,0.61-0.45c-0.02-0.44-0.49-0.21-0.72-0.37c0.5-0.58,0.54-0.59,1.17-0.18c0.36,0.24,0.57,0.12,0.65-0.26
			c0.07-0.35,0.06-0.71-0.03-1.06c-0.2-0.71-0.6-0.83-1.18-0.35c-0.17,0.14-0.32,0.3-0.52,0.4c-0.46,0.24-0.8-0.06-1.11-0.31
			c-0.38-0.31,0-0.53,0.16-0.75c0.26-0.36,0.47-0.74,0.62-1.15c0.11-0.32,0.07-0.61-0.29-0.74c-0.32-0.12-0.58,0.06-0.66,0.33
			c-0.15,0.52-0.37,0.52-0.88,0.43c-0.5-0.09-1.21-0.22-1.53,0.51c-0.09,0.2-0.25,0.31-0.41,0.02c-0.14-0.25-0.32-0.12-0.48,0
			c-0.19,0.15-0.36,0.38-0.64,0.2c-0.26-0.17-0.21-0.43-0.13-0.67c0.08-0.28,0.12-0.62,0.52-0.64c0.33-0.01,0.66,0,0.98-0.08
			c0.17-0.04,0.31-0.15,0.32-0.32c0.01-0.15-0.14-0.22-0.27-0.27c-0.15-0.06-0.3-0.12-0.41-0.25c-0.55-0.67-0.55-0.67-1.21-0.47
			c-0.37-0.75,0.43-1.28,0.37-1.97c-0.12-0.18-0.06-0.4-0.12-0.59c-0.16,0-0.37,0.03-0.44-0.12c-0.27-0.62-0.75-1.16-0.87-1.85
			c-0.6-0.13-0.54,0.33-0.49,0.63c0.12,0.64-0.17,1.23-0.17,1.85c0,0.13-0.05,0.3-0.13,0.38c-0.6,0.52-0.82,1.04-0.2,1.72
			c0.13,0.15-0.03,0.41-0.27,0.38c-1.01-0.13-1.07,0.48-0.91,1.42c-0.37-0.74-0.87-0.66-1.1-0.26
			C67.95,17.8,67.01,17.94,66.05,18.11z"/>
		<path class="st1" d="M80.5,27.48c0.83-0.54,1.16-0.47,1.52,0.31c0.1,0.21,0.2,0.43,0,0.59c-0.2,0.16-0.41,0.08-0.56-0.13
			c-0.16-0.23-0.36-0.32-0.63-0.19c-0.23,0.11-0.41,0.3-0.14,0.48c0.65,0.44,0.5,1.15,0.62,1.76c0.1,0.48,0.18,0.85,0.82,0.67
			c0.43-0.12,0.82,0.16,0.62,0.55c-0.38,0.74,0.27,1.04,0.56,1.14c0.57,0.2,1.08-0.21,1.45-0.68c0.11-0.13,0.09-0.3-0.09-0.3
			c-0.32,0.01-0.53-0.06-0.31-0.39c0.19-0.29,0.6-0.33,0.78-0.08c0.2,0.28,0.43,0.36,0.72,0.44c0.37,0.11,0.68,0.25,0.61-0.41
			c-0.05-0.45,0.45-0.69,0.72-1.05c0,0.56,0.43,0.99,0.37,1.55c-0.02,0.19,0.06,0.44,0.29,0.41c0.31-0.04,0.12-0.28,0.1-0.45
			c-0.02-0.21-0.08-0.44-0.02-0.64c0.07-0.23,0.13-0.63,0.48-0.53c0.3,0.09,0.04,0.41,0.07,0.6c0.08,0.51-0.22,1-0.04,1.5
			c0.35-0.01,0.24-0.26,0.25-0.42c0.05-0.42,0.1-0.87,0.61-0.93c0.45-0.06,0.95-0.2,1.12,0.55c0.12,0.49,0.56,0.5,0.81,0.02
			c0.15-0.29,0.24-0.61,0.57-0.75c0-2.36,0-4.71,0-7.07c-0.08-0.12-0.36,0.04-0.3-0.08c0.19-0.4,0-0.87,0.3-1.24
			c0-0.11,0-0.22,0-0.33c-0.5-0.3-0.89-0.02-1.24,0.29c-0.33,0.31-0.23,0.68-0.07,1.06c0.13,0.3,0.28,0.66,0,0.92
			c-0.31,0.29-0.73,0.06-1.11,0.08c-0.21,0.01-0.22-0.19-0.17-0.37c0.07-0.21,0.22-0.37,0.31-0.57c0.33-0.71,0.1-1.03-0.72-1.02
			c0.77-0.63,0.84-1.34,0.19-1.97c-0.57-0.56-0.53-1.04,0.12-1.45c0.12-0.08,0.21-0.03,0.28,0.04c0.66,0.66,1.17,0.01,1.66-0.25
			c0.42-0.22,0.03-1.07-0.59-1.31c0.5-0.39,0.75,0.25,1.12,0.31c0.31-0.37-0.1-0.83,0.2-1.18c0-1.37,0-2.74,0-4.11
			c-0.47,0.1-0.64,0.54-0.94,0.83c-0.43,0.4-0.83,0.42-1.41,0.31c-0.91-0.17-1.34-0.69-1.89-1.37c-0.67-0.82-1.69-1.32-2.57-1.96
			c-0.64-0.46-0.66-0.58-0.17-1.17c0.12-0.14,0.34-0.21,0.25-0.46c-0.63-0.33-1.21,0.04-1.81,0.14c-0.38,0.06-0.95,0.58-0.96-0.39
			c0-0.23-0.34-0.33-0.59-0.35c-0.28-0.02-0.47,0.11-0.58,0.36C81,9.15,80.9,9.51,80.76,9.87c-0.81-0.62-1.52-0.35-2.01,0.75
			c-0.39,0.88-0.39,0.88-1,0.15c-0.48-0.57-0.8-0.54-1.16,0.14c-0.22,0.41-0.72,0.71-0.57,1.29c0.12,0.13,0.31,0.22,0.44,0.15
			c0.91-0.47,1.49,0.32,2.22,0.56c0.27,0.09,0.35,0.58,0.78,0.43c0.04,0.26,0.41,0.41,0.36,0.62c-0.27,0.99,0.45,1.06,1.08,1.24
			c0.3,0.08,0.53,0.29,0.79,0.43c0.4,0.22,0.81,0.33,1.2-0.03c0.11,0.15,0,0.31,0.05,0.47c0.15,0.43-0.02,0.57-0.45,0.57
			c-0.38,0-0.76,0.1-1.09,0.31c-0.24,0.16-0.44,0.38-0.31,0.68c0.14,0.36,0.41,0.11,0.62,0.06c0.11-0.02,0.2-0.08,0.34-0.08
			c0.09,0.21-0.07,0.56,0.31,0.63c0.29,0.05,0.51-0.01,0.72-0.25c0.25-0.29,1.14-0.1,1.31,0.24c0.06,0.13,0.07,0.27-0.03,0.38
			s-0.26,0.12-0.37,0.05c-0.86-0.61-1.37-0.2-1.86,0.55c-0.24,0.37-0.64,0.67-1.11,0.81c-0.31,0.09-0.74,0.12-0.54,0.61
			c0.16,0.37,0.38,0.75,0.92,0.58c0.4-0.12,0.79-0.13,1.29,0.1c-0.37,0.19-0.49,0.68-0.98,0.19c-0.26-0.26-0.67,0.06-0.99,0.19
			c-0.35,0.14-0.66,0.41-1.07,0.16c-0.16-0.1-0.33-0.01-0.4,0.17c-0.19,0.45-0.04,0.85,0.25,1.22c0.27,0.36,0.57,0.49,0.99,0.25
			c0.17-0.09,0.33-0.2,0.53-0.18c0.14,0.02,0.27,0.07,0.35,0.19c0.1,0.15-0.02,0.25-0.12,0.35c-0.28,0.26-0.55,0.54-0.57,0.96
			c0.2,0.77-0.31,0.82-0.85,0.84c-0.39,0.06-0.49,0.36-0.56,0.68c-0.02,0.07-0.03,0.15-0.03,0.23c0.02,0.22,0.14,0.34,0.35,0.39
			c0.16,0.04,0.33,0.06,0.43,0.22C80.14,27.35,80.23,27.57,80.5,27.48z"/>
		<path class="st2" d="M91.84,37.66c-0.74-0.1-1.36-0.41-1.62-1.12c-0.15-0.4-0.26-0.3-0.5-0.12c-0.19,0.14-0.31,0.56-0.5,0.43
			c-0.3-0.21-0.73-0.26-0.9-0.65c-0.12-0.27-0.25-0.54-0.59-0.62c-0.03,0.08-0.06,0.14-0.05,0.17c0.08,0.18,0.43,0.21,0.29,0.51
			c-0.02,0.05-0.15,0.07-0.22,0.06c-0.26-0.06-0.29-0.27-0.34-0.5c-0.15-0.74-0.77-1.11-1.23-1.71c-0.19,0.39-0.1,0.62,0.06,0.79
			c0.29,0.3,0.96,0.45,0.03,0.91c-0.36,0.18,0.33,0.57,0.48,0.59c0.78,0.12,0.53,0.57,0.43,1.01c-0.39,0.06-0.21-0.6-0.69-0.45
			c0.08,0.39,0.46,0.76,0.06,1.23c-0.28,0.33-0.51,0.55-0.94,0.45c-0.44-0.1-0.87,0.12-1.31-0.39c-0.42-0.49-1.35-0.13-1.56,0.43
			c-0.11,0.27-0.14,0.55,0.14,0.73c0.27,0.17,0.46-0.03,0.63-0.21c0.15-0.15,0.28-0.31,0.45-0.5c-0.01,0.76-0.23,1.1-0.8,1.35
			c-0.41,0.18-0.34,0.57-0.35,0.92c-0.36,0.58-0.82,1.09-1.14,1.69c-0.14,0.27-0.28,0.53-0.33,0.84c-0.12,0.72-0.63,1.12-1.37,1.01
			c-0.3-0.04-0.5,0.01-0.56,0.31c-0.16,0.89-0.38,1.78-0.28,2.7c0.16,0.12,0.31,0.04,0.45-0.03c0.2-0.1,0.38-0.37,0.64-0.11
			c0.25,0.25,0.23,0.54,0.12,0.84c-0.03,0.08-0.07,0.14-0.12,0.22c-0.17,0.29-0.6,0.48-0.42,0.9c0.17,0.42,0.56,0.2,0.86,0.24
			c0.29,0.03,0.45,0.3,0.68,0.43c0.2,0.12,0.41,0.19,0.61,0.03c0.23-0.2,0.19-0.48,0-0.65c-0.4-0.39-0.27-0.62,0.15-0.87
			c0.44-0.26,0.6-0.67,0.54-1.18c-0.12-1.08,0.48-1.53,1.49-1.14c0.52-0.63,1.56-0.93,1.33-2.06c-0.07-0.35,0.03-0.59,0.47-0.53
			c0.69,0.1,1.06-0.3,1.28-0.89c0.16-0.41,0.31-0.83,0.87-0.84c0.11,0,0.29-0.1,0.27-0.14c-0.31-0.79,0.79-1.12,0.61-1.86
			c-0.07-0.29,0.03-0.54,0.29-0.78c0.71,1.11,1.73,0.21,2.6,0.41C91.84,38.86,91.84,38.26,91.84,37.66z"/>
		<path class="st3" d="M85.1,9.08c-0.2,0.23-0.59,0.21-0.69,0.62c-0.12,0.47-0.26,0.73,0.35,1.06c0.91,0.49,1.67,1.25,2.57,1.8
			c0.31,0.19,0.47,0.52,0.56,0.88c0.14,0.53,0.5,0.74,1.03,0.6c0.1-0.02,0.17-0.11,0.3-0.06c1.41,0.47,1.83,0.29,2.62-1.12
			c0-2.74,0-5.47,0-8.21c-0.57-0.47-0.75-1.09-0.73-1.8c0.01-0.26,0.1-0.65-0.42-0.5c-0.33,0.5-0.76,0.91-1.2,1.31
			c-0.35,0.32-0.98,0.71-0.25,1.3c0.05,0.04,0.06,0.21,0.06,0.21c-0.92,0.29-1.12,1.57-2.22,1.61c-0.21,0.1-0.48-0.07-0.66,0.16
			c-0.21,0.27-0.39,0.03-0.56-0.04c-0.19-0.08-0.4-0.15-0.48,0.08c-0.06,0.16-0.04,0.37,0.02,0.54c0.07,0.19,0.06,0.31-0.12,0.4
			c0.22,0.17,0.31,0.34,0.1,0.59C85.24,8.67,85.11,8.85,85.1,9.08z"/>
		<path class="st4" d="M91.84,39.47c-0.47-0.22-0.89-0.34-1.43-0.07c-0.54,0.27-0.77,0.03-0.97-0.87c-0.38,0.49-1.12,0.73-0.62,1.54
			c0.13,0.21-0.02,0.36-0.26,0.38c-0.58,0.05-0.78,0.25-0.33,0.76c0.19,0.21,0.12,0.53-0.13,0.47c-0.82-0.22-0.86,0.41-1.03,0.87
			c-0.24,0.65-0.56,1.05-1.34,0.78c-0.42-0.14-0.63,0-0.52,0.49c0.06,0.29,0.05,0.6,0.06,0.89c0,0.11-0.03,0.31-0.03,0.31
			c-0.75-0.06-0.8,0.63-1.12,1.03c0.16,0.71-0.01,1.3-0.52,1.84c-0.4,0.43-0.42,1.19-1.16,1.35c-0.04,0.01-0.07,0.09-0.07,0.14
			c0.02,1.39-1.27,2.23-1.5,3.55c-0.12,0.66-0.5-0.05-0.77-0.1c-0.25-0.03-0.54-0.13-0.58,0.28c0.4,0.23,0.42,0.55,0.17,0.88
			c-0.24,0.32-0.2,0.68-0.15,1.02c0.06,0.37,0.15,0.78,0.62,0.86c0.45,0.07,0.45-0.38,0.67-0.59c0.66-0.62,0.84-1.55,1.48-2.17
			c0.35-0.46,0.72-0.92,1.15-1.31c0.19-0.22,0.39-0.45,0.59-0.67c0.36-0.41,0.55-0.79,0.05-1.26c-0.32-0.3-0.39-0.67-0.06-1.08
			c0.35-0.44,0.63-0.95,0.91-1.45c0.23-0.42,0.75-0.12,1.05-0.56c0.53-0.75,1.25-1.36,1.5-2.31c0.08-0.32,0.99-0.23,0.37-0.89
			c0.4-0.05,0.57,0.55,0.86,0.2c0.27-0.35,0.67-0.72,0.6-1.2c-0.09-0.64,0.05-0.74,0.57-0.38c0.12,0.08,0.3,0.13,0.38,0.02
			c0.42-0.55,1.03-0.34,1.56-0.43C91.84,41,91.84,40.23,91.84,39.47z"/>
		<path class="st5" d="M91.84,16.96c-0.64,0.2,0.11,0.68-0.27,0.97c-0.26-0.48-0.67-0.64-1.18-0.31c-0.23,0.15-0.25,0.38-0.12,0.57
			c0.18,0.27,0.21-0.06,0.31-0.1c0.44-0.13,0.26,0.33,0.42,0.5c0.1,0.1,0.31,0.31-0.09,0.46c-0.56,0.21-1.07,0.78-1.6-0.05
			c-0.09-0.13-0.44-0.01-0.42,0.04c0.31,0.75-1.01,0.65-0.67,1.28c0.11,0.19,0.37,0.45,0.62,0.59c0.39,0.21,0.52,0.45,0.39,0.92
			c-0.11,0.35-0.05,0.69-0.6,0.66c-0.25-0.02-0.3,0.31-0.2,0.52c0.1,0.23,0.26,0.09,0.39,0c0.22-0.15,0.48-0.25,0.65,0.01
			c0.13,0.21,0.1,0.48-0.06,0.69c-0.11,0.15-0.27,0.29-0.33,0.46c-0.07,0.22-0.29,0.47-0.12,0.69c0.17,0.22,0.44,0.1,0.68,0.08
			c1.4-0.16,1.4-0.15,0.93-1.57c-0.12-0.35,0.04-0.61,0.33-0.75c0.29-0.14,0.6-0.27,0.94-0.25C91.84,20.58,91.84,18.77,91.84,16.96z
			"/>
		<path class="st6" d="M90.69,2.34c0.35,0.03,0.24,0.24,0.21,0.46c-0.13,1.09,0.12,1.56,0.94,1.84c0-1.26,0-2.52,0-3.78
			C91.36,1.27,91.05,1.83,90.69,2.34z"/>
		<path class="st5" d="M91.84,22.71c-0.57,0.43-0.24,1.18-0.81,1.67c0.49,0.02,0.56-0.3,0.81-0.36
			C91.84,23.59,91.84,23.15,91.84,22.71z"/>
		<path class="st7" d="M28.43,175c-0.07-0.18,0.28-0.46,0-0.52c-0.28-0.06-0.34,0.26-0.32,0.52C28.2,175,28.32,175,28.43,175z"/>
		<path class="st8" d="M22.67,38.32c-0.06-0.47-0.47-0.72-0.69-1.09c-0.25-0.39-0.37-0.72,0.1-0.99c-0.12-0.23-0.3-0.2-0.46-0.23
			c-0.96-0.14-0.98-0.14-0.91,0.83c0.05,0.72-0.27,1.33-0.59,1.93c-0.22,0.42-0.56,0.47-0.93,0.09c-0.51-0.53-1-1.08-1.7-1.38
			c-0.59-0.25-1-0.17-1.2,0.5c-0.05,0.15-0.11,0.31-0.21,0.43c-0.16,0.18-0.31,0.43-0.6,0.36c-0.25-0.06-0.3-0.31-0.34-0.52
			c-0.06-0.26-0.05-0.54-0.34-0.67c-0.19,0.06-0.18,0.23-0.18,0.35c0.02,0.77-0.01,1.49-0.94,1.78c-0.21,0.06-0.19,0.37-0.2,0.59
			c-0.01,0.31-0.19,0.53-0.47,0.61c-0.27,0.07-0.57-0.05-0.75-0.24c-0.19-0.22-0.1-0.51,0.03-0.77c0.19-0.38,0.47-0.82,0.84-0.85
			c0.83-0.04,0.81-0.46,0.69-1.06c-0.07-0.34,0.12-0.63,0.33-0.9c0.18-0.24,0.78-0.37,0.29-0.8c-0.41-0.35-0.91-0.53-1.38-0.04
			c-0.09,0.1-0.14,0.25-0.25,0.32c-0.25,0.18-0.49,0.11-0.58-0.18c-0.06-0.19,0.2-0.56-0.25-0.51c-0.37,0.04-0.82,0.15-0.93,0.56
			c-0.16,0.61-0.74,0.82-1.11,0.81c-0.87-0.03-0.62,0.4-0.51,0.86c0.28,1.19,0.29,2.42,0.29,3.63c0,0.64-0.35,1.06-0.87,1.38
			c-0.19,0.11-0.35,0.26-0.49,0.43C8.14,43.8,7.62,44,7.81,44.36c0.18,0.35,0.58-0.14,0.85-0.07c0.68,0.19,1.18-0.02,1.67-0.51
			c0.25-0.25,0.44-0.05,0.44,0.27c0,0.13-0.04,0.28-0.11,0.39c-0.45,0.78-0.88,1.57-1.79,1.97c-0.49,0.21-0.35,0.59-0.06,0.93
			c0.14,0.17,0.59,0.19,0.42,0.49c-0.18,0.33-0.54,0.17-0.8,0.01c-0.43-0.25-0.74-0.04-1.01,0.24c-0.6,0.62-1.17,1.27-1.75,1.91
			c-0.31,0.33-0.42,0.63-0.12,1.08c0.32,0.49,0.25,1.01-0.14,1.51c-0.35,0.44-0.69,0.89-0.89,1.46c-0.16,0.46-0.71,0.54-1.2,0.77
			c0.62,0.5,1.39,0.01,1.9,0.5c0.08,0.07,0.19-0.07,0.21-0.18c0.19-0.71,1.03-0.7,1.33-1.32c0.19,0.5,0.21,0.89-0.08,1.28
			c-0.14,0.18-0.16,0.44,0.02,0.61c0.27,0.24,0.37-0.08,0.5-0.22c0.11-0.12,0.2-0.29,0.39-0.19c0.18,0.09,0.15,0.27,0.12,0.43
			c-0.04,0.2-0.24,0.48,0.09,0.53c0.28,0.05,0.23-0.31,0.32-0.49c0.31-0.63-0.21-1.35,0.23-1.99c0.17-0.25-0.03-0.87,0.5-0.72
			c0.37,0.11,0.71,0.51,0.6,1.04c-0.11,0.54-0.17,1.08,0.08,1.6c0.09,0.19,0.27,0.52,0.44,0.39c0.78-0.61,1.2,0.16,1.75,0.4
			c0.51,0.22,1,0.67,1.54,0.04c0.07-0.09,0.22-0.13,0.28-0.04c0.06,0.1,0.1,0.26,0.06,0.38c-0.23,0.83,0.07,1.07,0.87,0.86
			c0.4-0.11,0.63,0.11,0.63,0.53c0,0.25,0.06,0.52-0.03,0.73c-0.19,0.45-0.32,0.8,0.36,0.93c0.57,0.12,1.05,0.18,1.16-0.58
			c0-0.03,0-0.07,0.01-0.08c0.89-0.56,0.56-1.12,0.07-1.76c-0.24-0.31,0.03-0.57,0.31-0.72c0.24-0.13,0.5-0.1,0.62,0.19
			c0.23,0.61,0.78,0.8,1.29,1.06c0.24,0.12,0.56,0.24,0.67,0.45c0.5,0.96,1.16,0.51,1.72,0.16c0.63-0.39,1.12-0.34,1.6,0.18
			c0.21,0.23,0.43,0.36,0.7,0.13c0.8-0.66,1.51-0.37,2.21,0.16c1.03,0.77,1.26,0.75,2.17-0.19c0.1-0.1,0.19-0.22,0.34-0.18
			c0.22,0.06,0.26,0.25,0.27,0.46c0.01,0.53,0.27,0.8,0.89,0.78c-0.11-0.45-0.69-0.64-0.56-1.14c0.61-0.2,1.24-0.33,1.81-0.64
			c0.27-0.14,0.59-0.15,0.8,0.17c0.16,0.25,0.35,0.5,0.64,0.22c0.29-0.27,0.22-0.6-0.01-0.88c-0.18-0.22-0.44-0.32-0.68-0.43
			c-0.25-0.12-0.5-0.22-0.69-0.43c-0.11-0.12-0.23-0.25-0.15-0.43c0.07-0.19,0.25-0.22,0.41-0.19c0.8,0.14,0.87-0.41,0.86-0.95
			c-0.01-0.6-0.2-1.2-0.43-1.74c-0.33-0.81-0.76-0.12-1.14,0.11c-0.18-0.93,0.22-1.41,1.08-1.34c0.47,0.03,0.89-0.43,0.9-1.03
			c0.01-0.42-0.12-0.81-0.32-1.18c-0.22-0.43-0.51-0.65-0.97-0.29c-0.37,0.3-0.68,0.19-1.01-0.12c-0.71-0.67-0.83-0.64-1.49,0.13
			c-0.12,0.15-0.22,0.5-0.47,0.33c-0.3-0.2-0.09-0.49,0.06-0.72c0.12-0.19,0.31-0.28,0.54-0.35c0.77-0.24,0.87-0.45,0.8-1.5
			c-0.04-0.58-0.25-0.85-0.88-0.75c-0.32,0.05-0.48-0.22-0.51-0.52c-0.03-0.25-0.03-0.53-0.37-0.54c-0.37-0.01-0.51,0.25-0.63,0.55
			c-0.12,0.3,0.02,0.59,0.01,0.89c0,0.23-0.1,0.45-0.33,0.52c-0.22,0.06-0.24-0.17-0.29-0.31c-0.12-0.35-0.34-0.56-0.73-0.53
			c-0.35,0.03-0.49,0.29-0.62,0.58c-0.39,0.89-1.44,1.03-1.97,0.25c-0.16-0.23-0.39-0.26-0.56-0.4c0.01-0.15,0.13-0.24,0.22-0.2
			c1.01,0.45,1.84-0.24,2.75-0.43c0.16-0.04,0.31-0.13,0.3-0.33c-0.01-0.16-0.12-0.25-0.26-0.28c-0.44-0.08-0.57-0.34-0.5-0.77
			c0.06-0.45-0.33-0.73-0.5-1.18c0.77,0.02,1.13-0.51,1.5-1.05c0.37-0.54,0.94-0.92,1.32-1.45c0.15-0.26,0.24-0.54,0.24-0.84
			c0-0.17-0.03-0.33-0.12-0.48c-0.24-0.23-0.57-0.31-0.84-0.5c-0.23-0.16-0.39-0.07-0.48,0.21c-0.2,0.62-0.86,1.14-1.45,1.06
			c-0.51-0.07-0.9-0.01-1.02,0.52c-0.13,0.56,0.21,0.86,0.72,1.01c0.06,0.02,0.09,0.06,0.12,0.11c0,0.23-0.19,0.32-0.35,0.4
			c-0.95,0.52-1.82,1.18-2.82,1.61c-0.27,0.12-0.45,0.28-0.52,0.58c-0.1,0.43-0.24,0.84-0.28,1.28c-0.07,0.81-0.12,1.64-0.83,2.22
			c-0.17,0.14-0.19,0.39-0.15,0.62c0.05,0.22,0,0.36-0.25,0.42c-0.63,0.16-0.52,0.63-0.36,1.05c0.22,0.56,0.65,0.93,1.21,1.17
			c0.23,0.1,0.49,0.13,0.64,0.34c0.19,0.26,0.48,0.59-0.17,0.65c-0.08,0.01-0.18,0.01-0.24,0.06c-0.6,0.52-1.06,0.61-1.32-0.33
			c-0.08-0.29-0.41-0.37-0.7-0.26c-0.3,0.1-0.69,0.17-0.66,0.6c0.03,0.45-0.23,0.41-0.44,0.26c-0.45-0.31-0.8-0.12-1.13,0.19
			c-0.2-0.28-0.07-0.52-0.07-0.76c0-0.38,0.14-0.66,0.61-0.5c0.24,0.08,0.44,0.04,0.57-0.18c0.15-0.25,0.06-0.47-0.16-0.65
			c-0.43-0.36-0.19-0.58,0.19-0.68c0.75-0.2,1.11-0.64,1.25-1.42c0.18-0.96,0.52-1.87,0.38-2.88c-0.05-0.34-0.02-0.6-0.42-0.64
			c-0.41-0.04-0.84-0.08-1.01,0.45c-0.04,0.12,0.1,0.27-0.09,0.39c-0.46-0.14-0.66-0.94-1.37-0.6c0.06-0.54,0-1.1,0-1.65
			c0.38-0.07,0.47,0.25,0.66,0.42c0.23,0.2,0.5,0.24,0.76,0.09c0.31-0.19,0.14-0.42,0-0.63c-0.14-0.23-0.13-0.47-0.07-0.71
			c0.12-0.51,0.29-0.97-0.36-1.34c-0.34-0.19-0.01-0.58,0.2-0.89c0.08,0.26,0.16,0.48,0.35,0.64c0.33,0.3,0.35,0.63,0.16,1.03
			c-0.23,0.47-0.35,0.8,0.5,0.82c0.77,0.02,1.35,0.63,1.74,1.34c0.14,0.25,0.17,0.79,0.6,0.58c0.41-0.2,0.27-0.65,0.08-1.02
			c-0.31-0.61-0.28-1.4-1.1-1.71c-0.28-0.11-0.32-0.5-0.22-0.81c0.05-0.16,0.18-0.37,0.34-0.25c0.93,0.69,2.3,0.35,3.09,1.38
			c0.24,0.31,0.57,0.27,0.79-0.12c0.2-0.37,0.31-0.72-0.17-0.97c-0.88-0.46-0.9-0.47-0.28-1.25c0.33-0.42,0.55-0.89,0.75-1.36
			c0.26-0.58,0.07-0.93-0.58-1.04C23.03,38.61,22.84,38.52,22.67,38.32z"/>
		<path class="st9" d="M22.67,38.32c-0.04,0.42,0.2,0.49,0.56,0.5c0.64,0.03,0.69,0.36,0.45,0.89c-0.31,0.68-0.79,1.23-1.15,1.86
			c-0.29,0.51-0.3,0.9,0.47,0.86c0.25-0.01,0.58-0.02,0.57,0.3c0,0.24-0.15,0.59-0.34,0.69c-0.25,0.14-0.37-0.21-0.54-0.38
			c-0.33-0.35-0.62-0.8-1.24-0.52c-0.22,0.1-0.34-0.1-0.44-0.27c-0.12-0.2-0.27-0.38-0.52-0.19c-0.29,0.23-0.37,0.12-0.51-0.18
			c-0.21-0.42-0.52-0.35-0.75,0.02c-0.31,0.51-0.3,1.13,0.19,1.38c0.6,0.3,0.81,0.69,0.87,1.29c0.01,0.15,0.15,0.29,0.25,0.42
			c0.19,0.25,0.18,0.5-0.04,0.84c-0.33-0.62-0.5-1.34-1.09-1.6c-0.5-0.21-0.84-1.12-1.61-0.48c-0.12-0.13-0.11-0.31-0.01-0.43
			c0.51-0.61,0.48-1.13-0.21-1.56c-0.39-0.25,0.05-0.45,0.01-0.72c-0.66,0.11-0.87,0.55-0.96,1.11c-0.04,0.23,0,0.41,0.25,0.41
			c0.7,0,0.45,0.4,0.37,0.77c-0.11,0.49-0.46,1.02,0.43,1.37c-1.01,0.46-1.15-1.01-1.99-0.53c0.24,0.76,0.35,1.58-0.04,2.35
			c0.14,0.15,0.26,0.11,0.31,0.01c0.34-0.65,0.66-0.34,0.96,0.02c0.42,0.52,0.41,0.53,1.07,0.15c0.02-0.25-0.51-0.17-0.32-0.45
			c0.26-0.39,0.68-0.19,1.14-0.19c-0.2,0.39-0.17,0.72-0.05,1.12c0.19,0.62-0.27,1.23-0.33,1.87c-0.09,0.92-0.52,1.54-1.53,1.62
			c-0.21,0.02-0.31,0.22-0.31,0.43c-0.01,0.22-0.03,0.46,0.28,0.5c0.26,0.04,0.44,0.15,0.3,0.43c-0.16,0.3-0.29,0.15-0.49-0.02
			c-0.3-0.26-0.7,0.14-0.72,0.22c-0.1,0.5-0.19,1.05-0.09,1.54c0.06,0.27,0.53,0.18,0.64-0.11c0.18-0.46,0.35-0.39,0.62-0.11
			c0.25,0.25,0.53,0.24,0.82,0.08c0.38-0.21,0.09-0.33-0.02-0.55c-0.13-0.26,0.24-0.26,0.39-0.36c0.27-0.17,0.53-0.16,0.68,0.17
			c0.06,0.15,0.06,0.32,0.11,0.48c0.17,0.53,0.48,0.62,0.92,0.28c0.27-0.2,0.43-0.62,0.94-0.32c0.26,0.16,0.41-0.23,0.36-0.48
			c-0.1-0.47-0.31-0.83-0.88-0.94c-0.69-0.13-1.15-0.63-1.36-1.29c-0.09-0.27-0.18-0.71,0.42-0.59c0.55,0.11,0.6-0.13,0.31-0.54
			c-0.15-0.21-0.15-0.46,0.06-0.58c1.03-0.63,0.81-1.72,0.95-2.64c0.11-0.75,0.21-1.24,1.06-1.56c0.99-0.37,1.85-1.09,2.76-1.65
			c0.17-0.11,0.32-0.23,0.28-0.45c-0.05-0.32-0.28-0.21-0.5-0.23c-0.47-0.03-0.7-0.35-0.58-0.79c0.11-0.37,0.32-0.53,0.8-0.29
			c0.65,0.33,1.81-0.66,1.7-1.48c0.35,0.25,0.63,0.58,1.07,0.45c0.32,0.04,0.58,0.29,0.92,0.25c0.07-0.02,0.13-0.06,0.19-0.11
			c0.24-0.3,0.62-0.38,0.88-0.24c0.63,0.32,1.24,0.31,1.86,0.09c0.06,0.08,0.1,0.18,0.13,0.27c0.13,0.43,0.05,0.78-0.38,1
			c-0.33,0.17-0.51,0.45-0.58,0.81c-0.01,0.08,0,0.16,0.02,0.24c0.19,0.3,0.41,0.5,0.77,0.22c0.12-0.14,0.2-0.32,0.31-0.47
			c0.65-0.36,0.76-1.26,1.52-1.51c0.22-0.03,0.44-0.02,0.66-0.08c0.17,0,0.36-0.26,0.49,0.06c-0.53,1.05,0.42,1.65,0.77,2.41
			c0.13,0.27,0.5,0.01,0.71-0.13c0.26-0.18,0.48-0.43,0.25-0.75c-0.25-0.36-0.22-0.71-0.11-1.09c0.2-0.73,0.59-1.07,1.34-1.02
			c0.5,0.04,0.75-0.06,0.65-0.61c-0.04-0.22,0-0.43,0.09-0.64c0.14-0.35,0.14-0.62-0.37-0.48c-0.22,0.06-0.3-0.07-0.31-0.26
			c-0.01-0.24,0.16-0.24,0.33-0.24c0.33,0.01,0.65,0.07,0.9,0.32c0.26,0.27,0.56,0.31,0.88,0.1c0.32-0.2,0.39-0.51,0.33-0.86
			c-0.06-0.38-0.18-0.74-0.38-1.07c-0.4-0.3-0.63-0.01-0.88,0.25c0.22-0.45,0.44-1.02,0.99-1.02c0.42,0,0.13,0.55,0.27,0.82
			c0.82,0.4,1.35,0,1.29-1.07c0.42,0.69,0.79,0.45,1.23,0.08c0.72-0.61,1.03-1.53,1.77-2.11c0.2-0.16,0.16-0.45,0.22-0.84
			c0.46,1.06,1.04,0.43,1.59,0.26c0.43,0.21,0.85,0.23,1.22-0.11c0.49-0.43,1.12-0.37,1.68-0.54c0.05-0.01,0.12-0.06,0.16-0.02
			c0.99,0.91,1.26-0.03,1.66-0.64c0.05-0.07,0.1-0.13,0.25-0.23c-0.15,1.08,0.7,0.89,1.25,1.03c0.04,0.11,0.02,0.17-0.03,0.2
			c-0.29,0.16-0.75,0.12-0.76,0.61c0,0.21,0.22,0.37,0.4,0.32c0.4-0.11,0.93,0.54,1.19-0.19c0.14-0.37,0.29-0.24,0.46-0.07
			c0.32,0.29,0.69,0.51,0.61,1.06c-0.06,0.46,0.21,0.79,0.68,0.87c0.44,0.07,0.73-0.17,0.9-0.56c0.31-0.72,0.49-1.51,1.3-1.9
			c0.17-0.08,0.19-0.33,0.15-0.52c-0.06-0.35,0.05-0.52,0.4-0.68c0.46-0.22,0.48-1.32,0.09-1.67c-0.17-0.15-0.35-0.18-0.5,0
			c-0.23,0.27-0.46,0.21-0.72,0.05c-0.33-0.2-0.15-0.38-0.01-0.6c0.19-0.31-0.05-0.51-0.23-0.71c-0.17-0.19-0.34-0.4-0.22-0.66
			c0.14-0.29,0.38-0.06,0.58-0.05c0.44,0.04,1.3-0.71,1.43-1.27c0.13-0.58-0.3-0.75-0.71-0.93c-0.07-0.03-0.14-0.07-0.16-0.18
			c0.09-0.21,0.3-0.2,0.49-0.21c0.21-0.01,0.48,0.04,0.52-0.26c0.04-0.29-0.19-0.43-0.41-0.55c-0.19-0.11-0.42-0.13-0.63-0.17
			c-0.17-0.02-0.35-0.06-0.42-0.23c-0.54-1.33-1.53-0.93-2.48-0.65c-0.13,0.04-0.25,0.1-0.39,0.1c-0.38,0.03-0.84-0.1-0.88-0.4
			c-0.05-0.35,0.29-0.68,0.72-0.77c0.13-0.03,0.25-0.09,0.38-0.13c0.41-0.14,0.73-0.42,0.86-0.81c0.08-0.25-0.23-0.35-0.42-0.42
			c-0.44-0.14-0.89-0.49-1.35,0.02c-0.35,0.39-0.7,0.89-1.06-0.06c-0.14-0.38-0.63-0.27-0.94-0.08c-0.23,0.14-0.72,0.06-0.65,0.44
			c0.06,0.29,0.09,0.78,0.66,0.77c0.21,0,0.73,0.07,0.6,0.35c-0.16,0.34-0.56,0.81-0.99,0.68c-1-0.32-1.49,0.19-1.98,0.93
			c-0.27,0.41-0.68,0.65-1.17,0.84c-0.73,0.29-1.56,0.53-1.72,1.53c-0.05,0.3-0.27,0.48-0.58,0.62c-0.87,0.4-1.55,1.05-1.81,2
			c-0.11,0.4-0.52,0.56-0.67,0.92c-0.43,0.63-0.89,1.24-1.71,1.42c-0.3,0.06-0.46,0.33-0.53,0.58c-0.15,0.62-0.5,1.14-0.77,1.71
			c-0.17,0.35-0.31,0.69-0.69,0.87c-0.15,0.07-0.28,0.2-0.33,0.36c-0.24,0.82-0.6,1.18-1.45,0.59c-0.34-0.23-0.71,0.05-0.83,0.42
			c-0.09,0.29-0.3,0.33-0.49,0.46c-0.34,0.23-0.49,0.22-0.64-0.19c-0.18-0.49-0.61-0.57-1.08-0.51c-0.14,0.13-0.12,0.27-0.03,0.47
			c-0.42-0.27-0.16-0.91-0.65-1.08c-0.87,0.02-1.58,0.68-2.57,0.68c0.23-0.47,0.44-0.78,0.86-0.93c0.16-0.06,0.25-0.22,0.19-0.4
			c-0.08-0.21-0.25-0.17-0.41-0.11c-1.76,0.58-3.59,0.83-5.43,0.96c-0.03,0-0.06,0.07-0.18,0.24c0.74-0.21,1.07,0.88,1.86,0.33
			c0.12-0.09,0.26,0.16,0.29,0.32c0.06,0.28-0.18,0.22-0.31,0.22c-0.38-0.01-0.63,0.02-0.75,0.51c-0.13,0.54,0.27,0.58,0.52,0.77
			c0.12,0.09,0.35,0.07,0.32,0.3c-0.03,0.24-0.26,0.16-0.39,0.18c-0.48,0.07-0.99,0.22-1.28-0.38c-0.08-0.16-0.23-0.2-0.42-0.14
			c-0.42,0.14-0.41,0.5-0.43,0.95C24.36,37.71,23.48,38.78,22.67,38.32z"/>
		<path class="st10" d="M53.56,23.53c0.38,0.23,0.71-0.07,1.07-0.11c0.69-0.09,1.42-0.24,1.56,0.77c0.05,0.35,0.31,0.33,0.55,0.33
			c0.42,0,0.81,0.06,1.09,0.54c-0.45,0.06-0.92-0.19-1.22,0.25c-0.18,0.26-0.38,0.45,0.14,0.52c0.42,0.06,0.99,0.08,0.83,0.71
			c-0.07,0.31-0.43,0.55-0.62,0.85c-0.25,0.38-0.5,0.42-0.87,0.15c-0.18-0.12-0.62-0.17-0.61,0.08c0.02,0.31-0.21,0.73,0.17,0.97
			c0.44,0.28,0.77,0.52,0.03,0.83c-0.1,0.04-0.15,0.22-0.06,0.28c0.35,0.25,0.7,0.53,1.1,0.68c0.38,0.14,0.18-0.45,0.47-0.51
			c0.55,0.78,0.45,1.2-0.28,1.46c-0.38,0.13-0.2,0.46-0.19,0.7c0.01,0.23,0.22,0.56-0.1,0.64c-0.94,0.23-0.96,1.08-1.23,1.74
			c-0.17,0.41-0.37,0.71-0.82,0.59c-0.43-0.12-0.57-0.45-0.44-0.91c0.09-0.34-0.9-1.47-1.24-1.41c-0.56,0.1-0.07,0.55-0.24,0.8
			c-0.31,0.03-0.54-0.41-0.9-0.17c-0.16,0.11-0.35,0.03-0.36-0.17c-0.01-0.17,0.15-0.29,0.32-0.31c0.16-0.02,0.33,0.05,0.47,0
			c0.19-0.06,0.29-0.26,0.3-0.46c0.01-0.27-0.22-0.27-0.4-0.29c-0.11-0.01-0.22-0.01-0.33,0c-0.54,0.04-0.97,0-0.66-0.74
			c0.06-0.13-0.01-0.31-0.03-0.6c-0.43,0.43-0.84,0.71-0.98,1.24c-0.06,0.25-0.21,0.43-0.52,0.42c-0.28-0.01-0.42-0.08-0.31-0.39
			c0.06-0.16-0.09-0.18-0.19-0.13c-0.69,0.31-1.57,0.11-2.14,0.73c-0.4,0.43-0.71,0.22-1.06-0.04c-0.23,0.16-0.42,0.36-0.52,0.62
			c-0.16,0.42-0.17,0.75,0.4,0.83c0.27,0.04,0.54,0.09,0.67,0.37c0,0.07-0.03,0.13-0.09,0.12c-1.26-0.17-1.28-0.16-0.96,1.08
			c0.13,0.52-0.19,0.76-0.48,1.03c-0.25,0.24-0.6,0.41-0.73,0.76c-0.22,0.56-0.4,0.93-0.89,0.15c-0.2-0.31-0.62-0.19-0.62,0.22
			c0,0.5-0.2,0.9-0.46,1.28c-0.61,0.93-0.27,1.88-0.09,2.84c0.08,0.42,0.45,0.53,0.75,0.7c0.28,0.17,0.12,0.92,0.75,0.59
			c0.48-0.26,0.46-0.69,0.26-1.14c-0.11-0.26-0.05-0.53,0.22-0.62c0.31-0.1,0.31,0.24,0.4,0.41c0.56,0.99,0.52,1.33-0.35,2.28
			c-0.2,0.22-0.57,0.46-0.37,0.73c0.31,0.43,0.9,0.31,1.37,0.33c0.34,0.02,0.41-0.3,0.44-0.58c0.04-0.26-0.04-0.55,0.25-0.92
			c0.12,0.48,0.43,0.74,0.07,1.26c-0.33,0.48,0.06,1.05,0.25,1.54c0.08,0.21,0.32,0.18,0.46-0.02c0.11-0.16,0.11-0.37,0.16-0.55
			c0.06-0.23,0.17-0.45,0.43-0.39c0.3,0.06,0.28,0.34,0.18,0.53c-0.16,0.31,0.1,0.83-0.49,0.93c-0.12,0.02-0.15,0.21-0.14,0.36
			c0.03,0.35,1.04,1.18,1.38,1.15c0.47-0.05,0.92-0.89,0.77-1.45c-0.06-0.21-0.17-0.4-0.31-0.68c0.25,0.23,0.44,0.4,0.65,0.57
			c0.46,0.36,0.85,0.49,1.17-0.17c0.16-0.32,1.13-0.28,1.56,0.06c0.24,0.19,0.49,0.35,0.73,0.53c0.42,0.31,0.81,0.45,1.18-0.09
			c0.14-0.21,0.39-0.36,0.62-0.09c0.66,0.76,1.07,1.68,1.64,2.51c0.05,0.07-0.02,0.21-0.02,0.32c0.01,0.08,0.03,0.15,0.08,0.21
			c0.82,0.05,1.21-0.24,1.02-0.87c-0.18-0.58-0.04-0.78,0.53-0.76c0.16,0,0.32-0.05,0.46-0.13c0.66-0.51,0.39-1.25,0.45-1.89
			c0.04-0.43-0.1-0.87-0.14-1.3c-0.02-0.26-0.15-0.49-0.43-0.53c-0.28-0.04-0.56-0.01-0.75,0.24c-0.18,0.24-0.08,0.48,0.09,0.67
			c0.43,0.46,0.15,0.75-0.19,1.06c-0.12-0.09-0.12-0.18-0.1-0.25c0.19-0.58,0.11-0.9-0.62-0.75c-0.64,0.14-1.05-0.5-1.67-0.55
			c-0.21-0.01-0.26-0.45-0.16-0.73c0.09-0.25,0.29-0.18,0.48-0.1c0.71,0.28,0.63-0.35,0.77-0.69c0.05,0,0.08-0.02,0.1-0.01
			c0.37,0.24,0.71,0.73,1.19,0.19c0.33-0.37,0.2-1.44-0.24-1.73c-0.41-0.26-0.74-0.55-0.89-1.02c-0.04-0.12-0.14-0.23-0.28-0.29
			c-0.77-0.31-0.77-0.31-1.01-0.89c0.43-0.26,0.76-0.09,1.08,0.23c0.4,0.4,0.67,0.27,0.8-0.24c0.04-0.16,0.07-0.32,0.11-0.48
			c0.22-0.94,0.22-0.94,1.07-0.7c0.45-0.07,0.61-0.51,0.57-0.79c-0.05-0.41,0.06-0.73,0.18-1.09c0.12-0.39,0-0.7-0.53-0.57
			c-0.38,0.09-0.62-0.18-0.79-0.42c-0.16-0.25,0.14-0.47,0.3-0.61c0.28-0.26,0.56-0.51,0.75-0.85c0.08-0.14,0.23-0.34-0.01-0.39
			c-0.77-0.17-0.26-0.43-0.07-0.68c0.24-0.33,0.44-0.69,0.69-1c0.26-0.32,0.65-0.53,0.98-0.18c0.29,0.31,0.44,0.77-0.04,1.11
			c-0.57,0.41-0.86,0.95-0.87,1.76c0.88-0.36,1.99-0.45,2.17-1.43c0.09-0.48,0.24-1.56-0.57-1.8c-0.67-0.19-1.2-1.48-2.11-0.41
			c-0.43-0.6-0.44-0.67,0.1-1.06c0.37-0.27,0.57-0.65,0.81-1.01c0.31,0.06,0.53,0.6,0.85,0.23c0.26-0.3,0.73-0.62,0.33-1.17
			c-0.15-0.2-0.04-0.38,0.22-0.37c0.64,0.01,1.29,0.03,1.93,0.09c0.25,0.02,0.56,0.12,0.5,0.51c-0.03,0.15-0.14,0.33,0.09,0.41
			c0.16,0.06,0.32,0.02,0.46-0.1c0.16-0.15,0.2-0.36,0.1-0.53c-0.14-0.23-0.3-0.56-0.52-0.61c-0.76-0.2-0.55-1.3-1.4-1.44
			c-0.2-0.03,0.24-0.45-0.01-0.79c-0.34-0.45,0.16-0.4,0.42-0.46c0.25-0.06,0.24-0.25,0.25-0.45c0.04-0.48-0.14-0.91-0.33-1.34
			c-0.72-0.25-1.21,0.4-1.86,0.49c-0.43,0.06-0.79,0.43-1.09-0.24c-0.14-0.31-0.57-0.25-0.89-0.22c-0.18,0.02-0.29,0.02-0.26-0.2
			c-0.28-0.02-0.67-0.01-0.29-0.43c0.25-0.27,0.57-0.47,0.87-0.71c-0.17-0.42-0.57,0.17-0.75-0.18c-0.27-0.26,0.3-0.69-0.12-0.86
			c-0.38-0.15-0.6,0.28-0.89,0.46c-0.05,0.03-0.09,0.05-0.15,0.06c-0.54,0.09-0.7,0.67-1.13,0.95
			C55.02,22.8,54.18,22.98,53.56,23.53z"/>
		<path class="st11" d="M56.19,50.15c0-0.06,0-0.11,0-0.17c-0.62-0.03-0.95,0.59-1.54,0.66c-0.36,0.05-0.66,0.22-1.09,0.13
			c-0.68-0.14-0.51,0.42-0.46,0.81c-0.94-0.26-1.18-1.11-1.5-1.86c-0.2-0.46-0.44-0.8-0.99-0.84c-0.54-0.04-0.77,0.31-0.99,0.7
			c-0.16,0.29-0.37,0.55-0.59,0.78c-0.14,0.14-0.3,0.28-0.5,0.11c-0.16-0.14-0.06-0.28,0-0.43c0.37-0.81,0.33-0.92-0.52-1.23
			c-0.25-0.09-0.46-0.19-0.51-0.47c-0.08-0.53-0.68-0.59-0.91-1c-0.08-0.14-0.41-0.04-0.62,0.05c-0.24,0.11-0.35,0.33-0.25,0.54
			c0.43,0.91-0.47,1.15-0.81,1.66c-0.09,0.13-0.25,0.12-0.32-0.04c-0.16-0.36-0.36-0.68-0.78-0.3c-0.38,0.35-0.18,0.69,0.08,1
			c0.05,0.06,0.12,0.1,0.17,0.17c0.01,0.06-0.03,0.01-0.09,0.03c-0.85,0.21-1.12-0.17-1.18-0.98c-0.04-0.63-0.58-1.03-1.03-1.43
			c-0.31-0.27-0.66-0.48-0.92-0.81c-0.27-0.36-0.65-0.32-0.78,0.05c-0.3,0.83-0.93,1.67-0.19,2.58c0.14,0.1,0.3,0.1,0.45,0.06
			c0.35-0.18,0.65-0.43,1.04-0.71c0.13,0.51-0.15,0.83-0.3,1.18c-0.03,0.07-0.06,0.14-0.09,0.21c-0.2,0.61-0.42,1.05-1.25,0.78
			c-0.6-0.19-1.27,0.72-1.31,1.6c0.14,0.16,0.42,0.12,0.55,0.31c-0.74,0.26-0.8,0.46-0.31,0.99c0.19,0.2,0.45,0.33,0.5,0.62
			c0.06,0.32,0.11,0.63,0.54,0.52c0.4-0.1,0.82-0.19,0.81-0.75c-0.01-0.38,0.09-0.75,0.11-1.14c0.68-0.09,0.69,1.16,1.53,0.69
			c0.51-0.29,1.18-0.37,1.19-0.89c-0.24,0.54,0.1,0.97,0.85,1.19c0.34,0.1,0.62,0.32,0.9,0.56c0.56,0.46,1.38,0.37,1.81-0.21
			c0.36-0.49,0.93-0.4,1.39-0.61c0.84-0.56,1.29,0.2,1.74,0.62c0.33,0.31,0.64,0.5,0.98,0.27c0.35-0.24,0.85-0.47,0.81-1.03
			c-0.02-0.28-0.24-0.69,0.19-0.72c0.37-0.02,0.4,0.47,0.48,0.77c0.04,0.16-0.07,0.36-0.15,0.53c-0.15,0.31,0.03,0.49,0.25,0.6
			c0.27,0.15,0.38-0.06,0.46-0.29c0.08-0.22,0.11-0.55,0.4-0.54c0.38,0.01,0.2,0.37,0.26,0.58c0.08,0.3,0.91,0.7,1.18,0.58
			c0.2-0.09,0.33-0.22,0.15-0.43c-0.12-0.16-0.2-0.32-0.19-0.53c0.02-0.24-0.07-0.58,0.24-0.61c0.27-0.02,0.25,0.31,0.25,0.52
			c0.01,0.38,0.2,0.43,0.55,0.37c0.44-0.07,0.63,0.12,0.39,0.56c-0.31,0.57,0.24,0.75,0.48,1.07c0.29,0.39,0.5,0.12,0.72-0.08
			c0.06-0.05,0.15-0.06,0.22-0.08c0.01,0.72,1.09,0.49,1.09,1.22c0,0.22,0.03,0.46,0.31,0.5c0.24,0.03,0.29-0.2,0.4-0.35
			c0.47-0.61,0.48-1.38,0.77-2.05c-0.02-0.07-0.05-0.14-0.09-0.2c-0.03-0.49,0.06-0.95,0.23-1.41c0.23-0.63,0.04-0.95-0.63-0.93
			c-0.37,0.01-0.6,0.02-0.73-0.4c-0.11-0.36-0.5-0.25-0.78-0.31c-0.94-0.19-1.05-0.26-1.12-1.24
			C57.14,50.59,56.51,50.52,56.19,50.15z"/>
		<path class="st9" d="M38.44,52.94c0.17-0.31,0.3-0.64,0.52-0.91c0.3-0.37,0.6-0.8,1.19-0.32c0.29,0.23,0.62,0.08,0.75-0.32
			c0.08-0.25,0.22-0.5,0.32-0.74c-0.37-0.26-0.56,0.17-0.85,0.21c-0.27-0.01-0.28-0.26-0.4-0.42c-0.06-0.1-0.15-0.17-0.25-0.23
			c-0.11-0.05-0.22-0.07-0.34-0.08c-0.38-0.03-0.81,0.06-1.09-0.24c-0.48-0.5-0.9-0.4-1.37,0.15c-0.2-0.74-0.58-1.13-1.24-1.33
			c-0.45-0.14-0.36-0.77-0.66-1.08c-0.15-0.23-0.34-0.42-0.56-0.57c-0.37-0.3-0.76-0.57-1.08-0.93c-0.04-0.06-0.08-0.12-0.12-0.19
			c-0.17-0.3-0.88-0.36-0.39-0.97c0.12-0.14-0.14-0.37-0.32-0.51c-0.17-0.1-0.35-0.17-0.55-0.18c-0.79,0.18-1.71-0.15-2.31,0.65
			c-0.31-0.23-0.06-0.49-0.13-0.7c-0.01-0.08-0.03-0.15-0.06-0.22c-0.19-0.5-0.06-1.08-0.57-1.53c-0.48-0.41-0.76-0.55-1.16,0
			c-0.06,0.08-0.13,0.18-0.28,0.16c-0.18-0.26,0.05-0.57-0.07-0.85c-0.03-0.07-0.07-0.13-0.14-0.19c-0.65,0.51-1.24,1.07-1.68,1.77
			c-0.21,0.34-0.4,0.67-0.89,0.41c-0.15-0.08-0.33-0.02-0.43,0.12c-0.16,0.21,0,0.36,0.14,0.49c0.39,0.35,0.57,0.73,0.43,1.3
			c-0.19,0.73,0.63,0.35,0.92,0.7c-0.69,0.23-1.34,0.44-1.99,0.68c-0.19,0.07-0.37,0.11-0.52-0.06c-0.5-0.58-0.73-0.02-1.03,0.24
			c-0.16,0.14-0.1,0.4,0.06,0.36c0.53-0.14,0.56,0.29,0.8,0.54c0.69,0.71,1.95,0.3,2.23-0.68c0.08-0.28,0.21-0.43,0.5-0.43
			c0.3,0,0.45,0.17,0.47,0.46c0.03,0.33,0.07,0.81,0.5,0.59c0.29-0.15,0.77-0.54,0.55-1.03c-0.13-0.28-0.15-0.49-0.06-0.76
			c0.08-0.22,0.18-0.44,0.44-0.38c0.32,0.07,0.04,0.31,0.09,0.46c0.15,0.48,0.31,0.97,1,0.68c0.1-0.04,0.21-0.16,0.29-0.05
			c0.32,0.47,0.12,1,0.14,1.51c0.01,0.3-0.22,0.42-0.51,0.37c-0.73-0.12-0.83,0.53-1.06,0.93c-0.14,0.25,0.08,0.6,0.36,0.75
			c0.36,0.19,0.37-0.17,0.49-0.36c0.1-0.16,0.27-0.28,0.35-0.45c0.3-0.56,0.6-0.45,0.92-0.03c0.42,0.56,0.86,0.87,1.44,0.19
			c0.1-0.12,0.22-0.24,0.41-0.08c0.47,0.37,0.61,1.71,0.21,2.19c-0.09,0.11-0.18,0.24-0.33,0.17c-0.19-0.09-0.13-0.55-0.59-0.27
			c-0.68,0.42-0.87,1.07-1.07,1.74c-0.05,0.16,0.14,0.29,0.29,0.35c0.23,0.09,0.34-0.11,0.47-0.24c0.16-0.16,0.19-0.53,0.51-0.43
			c0.33,0.11,0.27,0.45,0.25,0.71c-0.04,0.51,0.47,0.87,0.34,1.4c-0.09,0.37-0.02,0.83-0.66,0.53c-0.32-0.15-0.59,0.06-0.75,0.32
			c-0.17,0.27,0.09,0.43,0.24,0.63c0.28,0.38,0.74,0.44,1.12,0.65c0.24,0.13,0.52,0.21,0.54,0.55c0.01,0.17,0,0.35-0.18,0.42
			c-0.17,0.07-0.25-0.08-0.3-0.19c-0.26-0.57-0.75-0.59-1.15-0.31c-0.52,0.35-1.22,0.29-1.65,0.8c0.64,0.12,1.23,0.12,1.8-0.35
			c0.47-0.39,0.71,0,0.82,0.46c0.05,0.21-0.25,0.55,0.11,0.63c0.36,0.08,0.48-0.26,0.57-0.56c0.02-0.07,0.1-0.12,0.14-0.19
			c0.43-0.26,0.69-0.68,0.6-1.16c-0.1-0.51,0.16-0.75,0.5-1.01c0.61-0.46,1.16-0.96,1.49-1.69c0.28-0.62,0.02-1.24,0.18-1.85
			c0.04-0.15-0.04-0.32,0.05-0.5c0.54,0.29,0.94,0.77,1.52,0.95c0.3,0.06,0.59,0.06,0.89,0C37.92,53.44,38.36,53.42,38.44,52.94z"/>
		<path class="st8" d="M38.44,52.94c-0.27,0.17-0.55,0.33-0.82,0.5c-0.33,0.26-0.66,0.16-0.99,0c-0.36-0.39-0.96-0.5-1.22-1.02
			c-0.08-0.16-0.3-0.15-0.44-0.06c-0.19,0.12-0.11,0.32-0.11,0.51c0,0.8,0.16,1.62-0.24,2.38c-0.35,0.67-1.02,1.03-1.56,1.51
			c-0.25,0.22-0.54,0.37-0.3,0.84c0.24,0.47-0.27,0.83-0.41,1.26c0.7,0.12,1.24,0.78,2.11,0.43c0.34-0.13,0.65,0.5,0.49,0.96
			c-0.08,0.24-0.13,0.46-0.14,0.71c-0.02,0.51,0.12,0.74,0.67,0.45c0.73-0.39,1.72-0.38,2.06-1.39c0.09-0.28,0.44-0.43,0.77-0.29
			c0.35,0.15,0.34,0.5,0.25,0.78c-0.23,0.68-0.1,0.72,0.65,0.76c0.7,0.04,1.58-0.15,2.12,0.19c0.68,0.43,1.29,0.26,1.94,0.29
			c0.25,0.01,0.26-0.17,0.25-0.32c-0.03-0.27,0.13-0.58-0.28-0.75c-0.94-0.39-1.93-0.78-2.05-2.01c-0.01-0.09-0.11-0.19-0.18-0.26
			c-0.78-0.92-0.78-0.92,0.09-1.89c0.28,0.11,0.25,0.44,0.4,0.64c0.08-0.03,0.16-0.03,0.17-0.06c0.08-0.46,0.13-0.99,0.81-0.83
			c0.7,0.18,0.62,0.64,0.33,1.14c-0.08,0.15-0.11,0.33,0.07,0.43c0.18,0.09,0.42,0.08,0.53-0.08c0.97-1.44,2.26-0.71,3.42-0.45
			c0.42,0.09,0.89,0.19,1.3,0.42c0.25,0.13,0.49,0.2,0.58-0.14c0.09-0.32,0.66-0.55,0.2-0.98c-0.22-0.21-0.42-0.43-0.63-0.64
			c-0.56-0.57-0.09-1.12,0.04-1.67c-0.64-0.17-1.22-0.06-1.61,0.5c-0.25,0.35-1.1,0.54-1.39,0.21c-0.23-0.25-0.5-0.43-0.8-0.56
			c-0.57-0.24-1.35-0.31-0.83-1.28c0.11-0.21-0.08-0.46-0.37-0.56c-0.25,0.39-0.06,0.91-0.67,1.25c-0.91,0.51-1.24-0.08-1.72-0.54
			c-0.11-0.11-0.17-0.32-0.37-0.24c-0.19,0.07-0.16,0.29-0.13,0.43c0.09,0.44-0.13,0.84-0.12,1.29c0.02,0.53-0.55,0.4-1,0.65
			c0.47-0.9-0.26-1.02-0.61-1.36c-0.12-0.12-0.25-0.23-0.14-0.41c0.07-0.12,0.2-0.19,0.34-0.08c0.17,0.14,0.38,0.35,0.46-0.01
			c0.04-0.19-0.02-0.52-0.33-0.58C38.83,52.92,38.64,52.95,38.44,52.94z"/>
		<path class="st11" d="M79.52,53.1c0.17-0.24,0.43-0.14,0.66-0.17c0.56-0.12,0.53-0.54,0.45-0.93c-0.06-0.32-0.31-0.34-0.57-0.21
			c-0.26,0.13-0.46,0.39-0.82,0.38c-0.09-0.21,0.14-0.38,0.07-0.59c-0.09-0.31-0.28-0.53-0.57-0.65c-0.29-0.12-0.47,0.06-0.6,0.28
			c-0.43,0.75-1.04,0.12-1.55,0.17c-0.43,0.04-0.26-0.44-0.31-0.71c-0.1-0.6-0.87-1.09-1.47-0.92c-0.42,0.12-0.45,0.39-0.34,0.76
			c0.07,0.23,0.4,0.59-0.19,0.65c-0.42-0.34-0.81-0.83-1.4-0.25c-0.25,0.53-0.12,1.02,0.18,1.48c0.25,0.37,0.27,0.7-0.07,1.02
			c-0.42,0.39-0.46,0.99-0.75,1.45c-0.31,0.5-0.5,0.48-0.82,0.01c-0.47-0.7-1.03-1.3-1.95-1.36c-0.23-0.01-0.3-0.21-0.47-0.31
			c-0.12-0.05-0.24-0.04-0.35,0.02c-0.09,0.09-0.12,0.2-0.14,0.33c0.02,0.54,0.39,0.79,0.81,1.03c0.31,0.19,1.01,0.14,0.62,0.87
			c-0.06,0.12,0.16,0.26,0.29,0.36c0.29,0.2,0.61,0.34,0.94,0.5c-0.63,0.67-0.69,0.67-1.04-0.02c-0.05-0.1-0.12-0.28-0.17-0.25
			c-0.9,0.37-1.33-1.05-2.24-0.59c-0.05,0.02-0.11,0.02-0.16,0.01c-0.38-0.03-0.82-0.38-1.14,0.04c-0.37,0.48-0.55,1.07-0.5,1.68
			c0.03,0.35-0.03,0.5-0.37,0.53c-0.22,1.17-1.1,1.98-1.6,2.99c-0.08,0.17-0.46,0.27-0.18,0.51c0.24,0.21,0.37-0.08,0.54-0.21
			c0.17-0.13,0.26-0.36,0.51-0.39c0.18,0.3-0.23,0.56-0.01,0.92c0.38-0.18,0.76-0.52,1.24-0.03c0.27,0.29,0.28-0.12,0.32-0.31
			c0.22-0.89,0.36-0.96,1.2-0.56c0.15-0.43,0.25-0.87,0.56-1.22c0.1-0.11,0.14-0.34,0.35-0.26c0.18,0.06,0.18,0.25,0.18,0.42
			c0,0.16,0.04,0.34,0,0.49c-0.25,0.82,0.15,1.15,0.89,1.27c0.36,0.06,0.35,0.25,0.33,0.59c-0.05,0.84-0.57,1.42-1.17,2.23
			c0.62-0.25,0.91-0.41,1.23-0.8c0.92-1.12,1.09-2.53,1.73-3.74c0.09-0.17,0.14-0.39,0.34-0.44c1.41-0.31,1.67-1.61,2.07-2.64
			c0.21-0.55,0.38-0.41,0.87-0.32c-0.45-0.87-0.49-1.65,0.37-2.08c0.58-0.29,1.25-0.39,1.89-0.55c0.18-0.05,0.41,0.04,0.56-0.04
			c0.65-0.36,0.97-0.24,0.93,0.55c-0.01,0.18,0.08,0.34,0.3,0.28c0.2-0.06,0.22-0.27,0.16-0.41C78.97,53.53,79.16,53.29,79.52,53.1z
			"/>
		<path class="st12" d="M68.68,53.26c0.11,0,0.22,0,0.33,0c0.98,0.26,1.83,0.73,2.55,1.46c0.22,0.22,0.52,0.12,0.62-0.13
			c0.24-0.61,0.56-1.18,0.87-1.75c0.13-0.24-0.04-0.48-0.12-0.71c-0.14-0.39-0.27-0.78,0.02-1.17c0.71-0.55,0.88,0.3,1.31,0.49
			c0.66-0.55,0.1-1.07-0.04-1.6c-0.43-0.37-0.81-1.03-1.4-0.18c-0.08,0.12-0.12-0.02-0.16-0.06c-0.47-0.48-0.79-0.07-1.1,0.21
			c-0.37,0.35-0.12,0.68,0.14,0.91c0.5,0.45,0.11,0.82-0.06,1.24c-0.15-0.08-0.11-0.26-0.16-0.39c-0.11-0.29-0.22-0.61-0.62-0.5
			c-0.35,0.1-0.26,0.41-0.25,0.69c0.06,0.87,0.01,0.87-0.94,0.79c-0.41-0.04-0.84,0.11-0.86-0.52c-0.04-0.07-0.09-0.12-0.15-0.17
			c-0.91-0.16-1.49,0.14-1.8,0.97c-0.08,0.2-0.12,0.42-0.25,0.6c-0.22,0.28-0.44,0.57-0.75,0.75c-0.42,0.23-0.5-0.31-0.79-0.42
			c-0.43-0.17-0.84-0.39-1.24-0.62c-0.25-0.14-0.52-0.22-0.74,0.05c-0.21,0.25-0.13,0.5,0.03,0.75c0.12,0.18,0.31,0.3,0.43,0.47
			c-0.64-0.22-1.01-0.5-1.19-1.33c-0.19-0.89-0.92-1.72-1.86-2.15c-0.32-0.14-0.6-0.27-0.52-0.69c-0.46-0.77-0.87-1.6-1.81-1.91
			c-0.16,0-0.33,0-0.49,0c-0.61,0.03-1.25-0.06-0.68,0.94c0.4,0.7-0.37,0.71-0.8,0.86c0,0.24,0.12,0.46,0.32,0.53
			c0.49,0.18,0.56,0.46,0.43,0.95c-0.19,0.68,0.45,0.76,0.84,0.96c0.25,0.13,0.58,0.17,0.87,0.15c0.27-0.02,0.34,0.07,0.33,0.3
			c-0.01,0.47,0.12,0.72,0.61,0.37c0.28-0.2,0.56-0.04,0.75,0.11c0.27,0.23-0.12,0.42-0.13,0.61c-0.03,0.53-0.59,1.06-0.07,1.61
			c0.18-0.13,0.39-0.26,0.6-0.17c0.37,0.15,0.72,0.21,1.08-0.03c0.13-0.09,0.26-0.02,0.34,0.12c0.11,0.19-0.05,0.22-0.17,0.27
			c-0.43,0.22-0.31,0.44,0,0.66c0.18,0.12,0.35,0.26,0.51,0.4c0.64,0.51,0.83,0.49,1.32-0.13c0.46-0.59,0.56-0.59,0.99,0.03
			c0.17,0.25,0.31,0.51,0.58,0.66c0.06,0.06,0.11,0.11,0.17,0.17c0.24,0.07,0.41,0.48,0.7,0.24c0.21-0.18-0.06-0.39-0.13-0.58
			c-0.2-0.61,0.25-1.09,0.31-1.65c0.02-0.16,2.17-0.2,2.17-0.05c0.02,0.87,0.42,0.71,0.99,0.47c0.43-0.18,0.38,0.24,0.39,0.5
			c0.01,0.38,0.13,0.57,0.55,0.43c0.44-0.15,0.88-0.32,1.01-0.83c0.04-0.16-0.19-0.16-0.32-0.16c-0.5-0.01-0.77-0.45-1.21-0.56
			c0.19-0.41,0.54,0.1,0.66-0.34c-0.51-0.21-0.85-0.75-1.5-0.87c-0.25-0.05-0.49-0.34-0.5-0.69c-0.12-0.08-0.25-0.01-0.37-0.03
			C68.35,53.37,68.6,53.42,68.68,53.26z"/>
		<path class="st10" d="M66.05,18.11c0.63-0.11,1.33,0.29,1.9-0.31c0.14-0.15,0.35-0.22,0.41-0.46c0.11-0.38,0.43-0.66,0.77-0.62
			c0.41,0.04,0.07,0.53,0.31,0.79c0.39-0.3,0.46-0.68,0.34-1.13c-0.13-0.49,0.08-0.62,0.51-0.5c0.31,0.09,0.61,0.19,0.79-0.16
			c0.17-0.34,0-0.62-0.25-0.87c-0.35-0.37-0.24-0.28,0.16-0.68c0.27-0.27,0.48-0.8,0.46-1.29c-0.01-0.62,0.25-1.23,0.04-1.86
			c-0.06-0.18,0.13-0.28,0.31-0.3c-0.19-0.31-0.17-0.65-0.16-0.99c-0.43-0.24-0.75,0.2-1.15,0.17c-0.19,1.05-0.54,2.05-0.99,3.02
			c-0.18,0.37-0.22,0.83-0.66,1.05c0-0.47,0-0.89,0-1.31c0-0.37-0.14-0.69-0.5-0.74c-0.37-0.05-0.7,0.2-0.79,0.56
			c-0.19,0.76-0.49,1.49-0.54,2.3c-0.03,0.55-0.27,1.08-0.43,1.62c-0.11,0.39-0.31,0.79-0.18,1.19
			C66.54,17.98,66.14,17.92,66.05,18.11z"/>
		<path class="st8" d="M34.01,35.69c0.49,0.18,1.12,0.2,1.02,0.99c-0.01,0.06,0.07,0.17,0.13,0.19c0.09,0.04,0.29,0.04,0.29,0.03
			c0.09-0.53,0.83-0.22,0.89-0.61c0.04-0.3,0.09-0.52,0.33-0.68c0.26-0.17,0.43,0.02,0.62,0.19c0.54,0.44,1,0.28,1.22-0.42
			c0.13-0.4,0.24-0.8,0.75-0.85c0.3-0.03,0.27-0.26,0.34-0.47c0.25-0.79,0.86-1.43,0.97-2.3c0.03-0.2,0.21-0.23,0.43-0.25
			c0.64-0.04,1.49-0.95,1.54-1.59c-0.6-0.22-0.98-0.26-1.28,0.56c-0.18,0.46-0.78,0.91-1.21,1.34c-0.41,0.41-0.49-0.09-0.53-0.34
			c-0.14-0.84-0.28-0.93-0.96-0.46c-0.54,0.37-1.26,0.52-1.4,1.43c-0.05,0.32-0.75,0.81-1.33,0.84c-0.8,0.05-1.52,0.49-1.83,1.24
			C33.95,34.92,33.66,35.31,34.01,35.69z"/>
		<path class="st11" d="M65.39,57.54c-0.2-0.36-0.42-0.7-0.61-1.06c-0.32-0.6-0.65-0.47-0.98-0.02c-0.6,0.83-0.6,0.83-1.37,0.18
			c-0.18-0.15-0.38-0.26-0.59-0.4c0.18-0.34,0.62-0.02,0.79-0.37c-0.02-0.21-0.35-0.17-0.37-0.44c-0.04-0.43-0.27-0.43-0.52-0.11
			c-0.2,0.25-0.52,0.38-0.71,0.17c-0.54-0.61-0.67-0.07-0.9,0.25c0.06,0,0.11,0,0.17,0c0.41,0.82,0.81,1.65,1.4,2.36
			c0.1,0.12-0.04,0.25-0.06,0.38c-0.02,0.24-0.56,0.44-0.16,0.66c0.39,0.21,0.73-0.02,0.87-0.6c0.25,0.5,0.52,0.73,0.95,0.31
			c0.18-0.17,0.45-0.17,0.7-0.15c0.59,0.04,0.96-0.11,0.82-0.83C64.74,57.36,65.18,57.61,65.39,57.54z"/>
		<path class="st2" d="M81.98,8.09c0.58-0.12,0.75,0.47,1.15,0.66c-0.31-0.77,0.31-1.24,0.62-1.8c0.29-0.53,0.19-0.68-0.37-0.67
			c-0.3,0-0.6-0.02-0.89,0.01c-0.78,0.09-0.97,0.45-0.48,1.04C82.28,7.66,82.16,7.84,81.98,8.09z"/>
		<path class="st13" d="M58.16,23.04c-0.47,0.56,0.26,0.26,0.32,0.44c0.48-0.22,0.77-0.03,0.95,0.43c0.09,0.23,0.27,0.26,0.46,0.15
			c0.62-0.38,1.46-0.19,1.99-0.8c0.06-0.08,0.26-0.05,0.39-0.06c0.31-0.61,1-0.66,1.58-1c-0.25-0.23-0.52-0.12-0.75-0.15
			c-1.06,0.53-2.05,1.18-3.15,1.62c-0.34,0.13-0.25-0.12-0.37-0.22C59.18,23.08,58.78,22.65,58.16,23.04z"/>
		<path class="st14" d="M56.85,21.4c0.53,0.32,0.55-0.47,1.01-0.39c0.1,0.2-0.16,0.37-0.17,0.57c-0.01,0.29,0.17,0.19,0.31,0.14
			c0.14-0.36,0.38-0.65,0.66-0.91c0.14-0.14,0.4-0.28,0.23-0.53c-0.17-0.24-0.53-0.37-0.71-0.22C57.68,20.44,57,20.67,56.85,21.4z"
			/>
		<path class="st15" d="M34.01,35.69c0.02-0.31-0.06-0.63,0.17-0.92c0.14-0.17-0.03-0.21-0.17-0.23c-0.33,0.01-0.51,0.23-0.66,0.5
			c0.41,1.21,0.41,1.21,1.06,1.39C34.42,36.09,33.93,36.04,34.01,35.69z"/>
		<path class="st12" d="M83.46,51.79c-0.61,0.24-1.07,0.61-1.15,1.31C82.98,52.92,83.24,52.37,83.46,51.79z"/>
		<path class="st16" d="M-47.31,83.5c-0.08,0.28-0.43,0.31-0.61,0.63c0.5-0.03,1.11,0.23,0.78-0.63
			C-47.21,83.5-47.26,83.5-47.31,83.5z"/>
		<path class="st17" d="M-64.52-6.55c0.17,0,0.25-0.08,0.25-0.24c0-0.12-0.09-0.19-0.21-0.2c-0.15-0.01-0.29,0.05-0.31,0.2
			C-64.79-6.64-64.66-6.57-64.52-6.55z"/>
		<path class="st18" d="M48.03,106.86c0.05,0.13,0.12,0.24,0.28,0.23c0.12-0.01,0.22-0.08,0.21-0.19c-0.01-0.15-0.14-0.22-0.29-0.22
			C48.13,106.68,48.03,106.73,48.03,106.86z"/>
		<path class="st19" d="M48.02,107.8c0.02,0.23,0.08,0.3,0.17,0.26c0.09-0.04,0.19-0.12,0.22-0.2c0.04-0.12-0.06-0.19-0.18-0.16
			C48.12,107.74,48.03,107.8,48.02,107.8z"/>
		<path class="st20" d="M79.19,47.52c0.21-0.87,0.21-1.76,0.42-2.63c0.12-0.48,0.21-0.37,0.41-0.12c0.29,0.35,0.41,0.03,0.66-0.04
			c0.99-0.27,0.7-1.17,1.04-1.74c0.3-0.5,0.47-1.12,1.02-1.44c0.27-0.16,0.04-0.4,0.06-0.6c-0.06,0-0.11,0-0.16,0
			c-0.14,0-0.25,0.06-0.33,0.17c-0.22,0.5-0.44,0.06-0.66,0c-0.28,0.15-0.06,0.7-0.43,0.68c-0.4-0.03-0.43-0.49-0.57-0.8
			c-0.19-0.43-0.06-0.78,0.34-1.03c0-0.39,0.03-0.79-0.54-0.82c-0.57-0.03-0.47,0.47-0.54,0.75c-0.1,0.38-0.06,0.8-0.06,1.21
			c0,0.38-0.17,0.66-0.46,0.88c-0.74-0.81-0.38-1.81-0.51-2.71c-0.07-0.44-0.13-0.81-0.58-0.98c-0.4-0.15-0.59,0.19-0.68,0.43
			c-0.13,0.34-0.8,0.69-0.06,1.14c0.35,0.21-0.06,0.46-0.14,0.69c-0.07,0.19-0.37,0.33-0.24,0.56c0.16,0.26,0.39,0.01,0.59,0.01
			c0.15,0,0.26,0.06,0.36,0.27c-0.56,0.11-0.99,0.33-1.25,0.9c-0.22,0.49-0.55-0.07-0.84-0.06c-0.3,0.01-0.34-0.24-0.28-0.47
			c0.06-0.24,0.16-0.47,0.23-0.7c0.07-0.25,0.08-0.46-0.29-0.36c-0.38,0.11-0.61-0.03-0.61-0.41c0-0.31,0.1-0.68,0.47-0.65
			c0.6,0.05,0.8-0.39,1.08-0.74c0.42-0.52,0.56-0.96-0.35-1.12c-0.48-0.08-0.33-0.32-0.07-0.54c0.16-0.13,0.41-0.18,0.43-0.45
			c-1.12,0.09-1.43-0.99-2.15-1.47c-0.14-0.1-0.2-0.38-0.44-0.26c-0.28,0.15-0.05,0.38-0.04,0.6c-0.24,0.14-0.54-0.4-0.67-0.02
			c-0.08,0.23,0.12,0.56,0.23,0.84c0.11,0.28,0.3,0.3,0.6,0.23c0.3-0.07,0.78-0.5,0.9,0.01c0.15,0.6,0.35,1.28,0,1.9
			c-0.09,0.15-0.27,0.17-0.44,0.13c-0.25-0.06-0.23-0.27-0.24-0.46c-0.01-0.35-0.02-0.95-0.33-0.89c-0.49,0.09-1.01-0.03-1.45,0.19
			c-0.28,0.14-0.28,0.52-0.05,0.71c0.72,0.61-0.04,1.15-0.05,1.71c0,0.13-0.18,0.17-0.33,0.1c-0.23-0.1-0.82-1.36-0.7-1.58
			c0.2-0.37,0.11-0.7-0.09-1c-0.33-0.49-0.14-0.79,0.3-1.07c0.28-0.17,0.52-0.39,0.77-0.6c0.26-0.23,0.38-0.44-0.03-0.69
			c-0.4-0.25-0.41-0.95-0.06-1.23c0.1-0.07,0.26-0.05,0.38-0.1c1.09-0.5,2.41-1.77,2.14-2.82c-0.19-0.74-0.81-1.23-1.28-0.9
			c-0.12,0.08-0.35,0.13-0.26,0.34c0.04,0.09,0.22,0.17,0.34,0.18c0.42,0.01,0.68-0.16,0.36,0.56c-0.3,0.66-0.44,1.26-1.19,1.55
			c-0.22,0.08-0.28,0.62-0.67,0.27c-0.3-0.26-0.7-0.57-0.46-1.03c0.27-0.51,0.22-1.11,0.57-1.61c0.47-0.66-0.23-0.86-0.64-1.13
			c-0.51-0.35-0.64,0.07-0.7,0.42c-0.11,0.62-0.57,0.37-0.9,0.41c-0.42,0.05-1.07-0.12-0.41,0.63c0.24,0.27,0.2,0.61-0.01,0.91
			c-0.21,0.29-0.44,0.24-0.69,0.03c-0.13-0.11-0.33-0.13-0.41,0.07c-0.09,0.23,0.03,0.49,0.21,0.57c0.37,0.16,0.57,0.47,0.84,0.73
			c0.42,0.42,0.3,0.75,0.05,1.15c-0.25,0.4-0.48,0.72-0.83,0.06c-0.11-0.2-0.35-0.34-0.56-0.46c-0.19-0.11-0.34-0.1-0.36,0.22
			c-0.05,0.8-0.95,1.49-1.77,1.41c-0.22-0.02-0.43-0.05-0.65-0.04c-0.29,0.02-0.28,0.3-0.35,0.49c-0.08,0.22,0.08,0.25,0.25,0.31
			c0.71,0.26,1.24,0.72,1.47,1.48c0.27-0.2,0.15-0.82,0.73-0.69c0.57,0.13,0.65,0.56,0.63,1.06c0,0.11,0.03,0.21,0.11,0.29
			c0.66-0.25,0.75-0.7,0.46-1.28c-0.12-0.24-0.24-0.49,0.05-0.64c0.25-0.13,0.52-0.09,0.7,0.21c0.27,0.45,0.37,0.84,0.29,1.42
			c-0.17,1.15-0.22,2.32-0.74,3.42c0.07,0.03,0.14,0.06,0.21,0.09c0.38-0.41,0.76-0.81,1.24-1.32c0.14,1.18,0.18,2.17-0.43,3.07
			c-0.12,0.18-0.26,0.32-0.47,0.25c-0.6-0.21-0.64,0.15-0.65,0.58c0,0.26,0.07,0.67-0.28,0.67c-0.36,0-0.56-0.54-0.47-0.73
			c0.65-1.24-0.47-1.31-1.07-1.71c-0.27-0.18-0.61-0.27-0.86-0.47c-0.26-0.21-0.43-0.57-0.19-0.87c0.25-0.31,0.46,0.06,0.69,0.14
			c0.32,0.11,0.52,0.64,0.98,0.26c0.32-0.26,0.81-0.4,0.64-0.98c-0.18-0.03-0.25,0.1-0.35,0.19c-0.16,0.14-0.3,0.37-0.54,0.3
			c-0.33-0.11-0.11-0.35-0.1-0.55c0.02-0.28-0.24-0.49-0.4-0.35c-0.81,0.68-1.56,0.2-2.33-0.05c-0.01,0.38,0.3,0.57,0.5,0.82
			c-0.03,0.63,0.17,1.13,0.61,1.62c0.27,0.31,0.45,0.52,0.9,0.54c0.56,0.02,0.74,0.37,0.33,0.81c-0.31,0.33,0.03,0.41,0.14,0.57
			c0.39,0.6,1.16,0.62,1.67,1.12c0.52,0.51,0.37,0.82,0.04,1.29c-0.29,0.4-0.86,0.65-0.73,1.29c0.09,0.09,0.19,0.13,0.31,0.13
			c0.34-0.06,0.68,0,1.01,0c0.13-0.02,0.24-0.04,0.33,0.12c0.55,0.93,1.22,0.98,1.84,0.12c0.17,0.38,0.36,0.73,0.85,0.52
			c0.26-0.11,0.49-0.26,0.52-0.57c0.03-0.3-0.16-0.44-0.39-0.56c-0.36-0.19-0.8-0.31-0.5-0.93c0.31,0.14,0.37,0.48,0.58,0.66
			c0.26,0.22,0.47,0.55,0.89,0.21c0.36-0.29,0.65,0.11,0.98,0.2c0.37,0.1,0.66,0.01,0.82-0.33c0.17-0.36-0.08-0.49-0.37-0.57
			c0.43-0.29,0.87-0.57,1.06-1.1c-0.16-0.32-0.68-0.55-0.28-1.03c0.15-0.18,0.36-0.28,0.57-0.15c0.48,0.28,0.4,0.7,0.26,1.13
			c-0.31,0.57-0.26,1.18-0.2,1.8c0.37,0.31,0.54,0.71,0.51,1.2c0.18,0.29,0.53,0.37,0.75,0.62c0.25,0.26,0.51,0.31,0.76,0
			c0.22-0.27,0.24-0.61-0.05-0.8c-0.62-0.4-0.51-0.85-0.25-1.4c0.19-0.39,0.38-0.89-0.37-0.99c0.13-0.22,0.33-0.44,0.62-0.33
			c0.33,0.13,0.2,0.45,0.16,0.72c-0.06,0.33-0.2,0.61-0.38,0.89c-0.24,0.35-0.06,0.65,0.25,0.81c0.34,0.18,0.7,0.26,0.78-0.31
			C79.24,47.88,79.31,47.69,79.19,47.52z"/>
		<path class="st3" d="M76.07,12.2c-0.53-0.05-1.03,0-1.4,0.45c-0.41,0.49-1.08,0.23-1.55,0.54c0.11,0.58-0.25,0.85-0.72,1.02
			c0.06,0.34,0.67,0.61,0.08,0.97c-0.15,0.09-0.13,0.22,0.02,0.32c0.17,0.11,0.33,0.16,0.52,0.01c0.41-0.32,0.75-0.5,0.8,0.29
			c0.03,0.46,0.56,0.27,0.97,0.48c-0.52,0.18-0.92,0.27-1.29,0.17c-0.84-0.23-0.58,0.51-0.76,0.83c-0.2,0.36-0.19,0.71,0.27,0.96
			c0.62,0.35,0.69-0.3,0.97-0.53c0.26,0.23-0.07,0.44,0.1,0.68c0.29-0.04,0.47-0.27,0.7-0.44c0.17-0.12,0.06-1.06,0.62-0.25
			c0.05,0.07,0.16-0.07,0.21-0.18c0.19-0.35,0.45-0.26,0.68-0.09c0.49,0.36,0.78,0.39,0.8-0.35c0-0.28,0.16-0.58,0.51-0.49
			c0.46,0.13,0.26,0.46,0.12,0.72c-0.18,0.34-0.31,0.69-0.58,0.99c-0.22,0.24-0.71,0.59-0.33,0.83c0.44,0.27,0.88,0.94,1.58,0.5
			c0.16-0.1,0.28-0.27,0.45-0.36c0.23-0.12,0.29-0.58,0.62-0.42c0.35,0.17,0.41,0.55,0.41,0.93c0,0.16,0,0.33,0,0.49
			c0,0.13,0.03,0.3-0.12,0.36c-0.2,0.09-0.27-0.1-0.37-0.23c-0.12-0.16-0.22-0.57-0.4-0.4c-0.36,0.34-0.99,0.25-1.17,0.78
			c-0.1,0.28,0.11,0.4,0.36,0.41c0.2,0.01,0.39-0.2,0.7,0c-0.8,0.4-1.53,0.8-2.36,0.89c-0.3,0.03-0.54,0.21-0.57,0.39
			c-0.11,0.74-0.73,1.12-1.08,1.69c-0.14,0.22-0.35,0.41-0.02,0.6c0.28,0.16,0.46-0.02,0.59-0.26c0.21-0.4,0.18-0.92,0.63-1.2
			c0.18-0.11,0.31-0.36,0.55-0.12c0.19,0.19,0.05,0.36-0.09,0.49c-0.47,0.41-0.2,0.82,0.06,1.28c-0.82-0.28-1.26,0.33-1.98,0.56
			c0.34,0.2,0.57,0.15,0.8,0.13c0.73-0.08,1.14,0.39,1.09,1.12c-0.04,0.55-0.33,1.18,0.22,1.68c-0.24-0.88,0.71-1.23,0.81-1.94
			c0.01-0.06,0.18-0.12,0.27-0.12c0.11,0,0.24,0.13,0.16,0.22c-0.35,0.4,0.01,0.62,0.19,0.91c0.16,0.25,0.17,0.54-0.24,0.61
			c-0.26,0.05-0.55,0.16-0.43,0.46c0.13,0.36,0.48,0.09,0.62,0.01c0.8-0.4,1.93-0.12,2.44-1.12c-0.22-0.09-0.33-0.25-0.33-0.5
			c-0.15-0.11-0.43,0.19-0.49-0.16c-0.21,0-0.32-0.12-0.33-0.34c-0.28-0.36-0.5-0.21-0.72-0.06c0.25-0.19,0.5-0.31,0.72,0.06
			c0.28-0.12,0.04-0.65,0.5-0.65c0.28-0.37,0.45-0.86,0.99-0.99c0.06-0.37,0.28-0.64,0.57-0.85c0.21-0.15,0.62-0.34,0.29-0.57
			c-0.23-0.16-0.5-0.57-0.94-0.35c-0.28,0.14-0.51,0.62-0.89,0.27c-0.37-0.35-0.72-0.76-0.37-1.43c0.32,0.48,0.6,0.37,1.05,0.12
			c0.35-0.19,0.9-0.93,1.44-0.07c0.11,0.17,0.4-0.33,0.73-0.32c0.19,0,0.26-0.25,0.24-0.46c-0.04-0.31-0.31-0.12-0.46-0.19
			c-0.33-0.16-0.75-0.21-1.03-0.03c-0.46,0.29-0.56-0.08-0.75-0.29c-0.2-0.2-0.22-0.37,0.13-0.43c0.77-0.14,1.32-0.54,1.69-1.28
			c0.19-0.37,0.62-0.75,1.13-0.25c0.25,0.24,0.53,0.4,0.87,0.17c0.18-0.12,0.26-0.28,0.2-0.49c-0.09-0.37-0.25-0.61-0.68-0.68
			c-0.22-0.04-0.5,0.11-0.68-0.14c-0.26-0.35-0.35-0.1-0.39,0.13c-0.04,0.25-0.12,0.42-0.41,0.4c-0.13-0.01-0.3,0.03-0.34-0.14
			c-0.07-0.26,0.29-0.29,0.33-0.57c-0.52-0.24-0.9,0.17-1.49,0.31c0.52-1.08,1.47-0.78,2.28-0.96c-0.3-0.4-0.2-0.87-0.24-1.31
			c-0.01-0.17-0.08-0.35-0.27-0.35c-0.23,0-0.08,0.19-0.12,0.3c-0.19,0.5-0.57,0.31-0.83,0.13c-0.5-0.35-1.02-0.61-1.62-0.68
			c-0.08-0.01-0.22-0.07-0.22-0.08c0.17-0.62-0.19-1.19-0.37-1.8c-0.14,0.05-0.58,0.73-0.75-0.22c-0.03-0.14-0.74-0.37-1.14-0.48
			c-0.36-0.1-0.53-0.33-0.82-0.67C76.95,12.27,76.5,12.22,76.07,12.2z"/>
		<path class="st20" d="M58.16,48.34c0.62,0.35,0.75,1.17,1.43,1.48c0.12,0.05,0.14,0.32,0.21,0.5c0.35,0.54,0.98,0.65,1.65,0.26
			c0.28-0.16,0.51-0.37,0.88-0.23c0.27,0.11,0.48-0.1,0.54-0.35c0.06-0.27,0.16-0.59-0.28-0.67c-0.37,0.16-0.71,0.36-0.52-0.37
			c0.16-0.63-0.16-1.29,0.03-1.93c-0.75,0.22-1.1-0.19-1.31-0.82c-0.65-0.32-0.31-0.7-0.03-1.02c0.41-0.47,1.02-0.71,1.38-1.23
			c0.11-0.15,0.32-0.25,0.21-0.48c-0.11-0.2-0.25-0.32-0.53-0.26c-0.6,0.12-0.9-0.21-0.86-0.78c0.04-0.5-0.29-0.87-0.34-1.33
			c-0.03-0.24-0.13-0.43-0.39-0.44s-0.37,0.18-0.43,0.41c-0.12,0.42-0.31,0.77-0.84,0.71c-0.23-0.03-0.53,0.08-0.61-0.26
			c-0.06-0.25-0.04-0.5,0.2-0.66c0.66-0.41,0.47-0.96,0.27-1.51c-0.09-0.25-0.24-0.4-0.56-0.22c-0.73,0.4-0.43-0.18-0.43-0.47
			c-0.23-0.2-0.35-0.58-0.78-0.47c-0.44,0.12-0.33,0.5-0.4,0.81c-0.09,0.41-0.2,0.81-0.37,1.47c-0.43-1.15-1.2-0.99-2.02-0.84
			c0.3,0.36,0.66,0.68,0.53,1.25c-0.05,0.22,0.35,0.31,0.58,0.12c0.42-0.33,0.56,0,0.6,0.29c0.06,0.37,0.2,0.59,0.54,0.75
			c0.58,0.27,0.88,1,0.61,1.55c-0.3,0.58-0.62,0.19-0.88-0.07c-0.12-0.12-0.07-0.43-0.35-0.37c-0.28,0.06-0.3,0.36-0.28,0.53
			c0.1,0.65-0.09,0.73-0.58,0.35c-0.12-0.1-0.26-0.26-0.38-0.01c-0.11,0.23-0.57,0.38-0.34,0.65c0.25,0.29,0.07,0.56,0.14,0.86
			c0.49-0.09,0.92-0.24,1.31,0.31c0.25,0.34,0.8,0.02,1.2-0.03c0.02,0.06,0.06,0.12,0.05,0.16c-0.13,0.36-0.34,0.7-0.09,1.09
			c0.03,0.05,0.19,0.08,0.2,0.06c0.28-0.33,0.59-0.65,0.79-1.03c0.15-0.29-0.26-0.36-0.4-0.54c-0.12-0.15-0.29-0.34-0.12-0.49
			c0.15-0.12,0.4-0.16,0.61-0.18c0.2-0.02,0.31,0.18,0.27,0.33c-0.15,0.63,0.31,1.22,0.02,1.92C58.23,47.34,58.24,47.92,58.16,48.34
			z"/>
		<path class="st2" d="M76.07,45.87c-0.5,0.26-0.65,1.16-1.54,0.71c0,0.41,0.2,0.53,0.48,0.6c0.18,0.04,0.44,0.03,0.29,0.32
			c-0.1,0.19-0.26,0.37-0.53,0.25c-0.23-0.1-0.44-0.22-0.66-0.32c-0.14-0.06-0.4-0.18-0.44-0.14c-0.75,0.93-0.77-0.17-1.09-0.39
			c-0.16-0.11-0.04-0.49-0.35-0.47c-0.19,0.01-0.34,0.2-0.38,0.39c-0.06,0.29-0.16,0.61,0.14,0.83c0.15,0.11,0.35,0.14,0.52,0.22
			c0.19,0.09,0.45,0.13,0.41,0.43c-0.05,0.33-0.35,0.41-0.6,0.48c-0.31,0.08-0.34-0.19-0.35-0.41c-0.01-0.23-0.11-0.36-0.35-0.35
			c-0.16,0.01-0.24,0.09-0.29,0.24c-0.07,0.22,0.04,0.75-0.31,0.56c-0.36-0.19-1.32,0.02-0.97-0.95c0.01-0.03-0.03-0.08-0.06-0.16
			c-0.16,0.1-0.32,0.2-0.48,0.3c-0.15,0.28,0,0.58-0.07,0.87c-0.05,0.19-0.1,0.38-0.31,0.42c-0.26,0.04-0.37-0.15-0.48-0.35
			c-0.15-0.3,0.05-0.64-0.12-0.93c-0.11,0-0.22,0-0.33,0c0,0.11,0,0.22,0,0.33c-0.27,0.28-0.17,0.61-0.15,0.93
			c0.02,0.22-0.02,0.4-0.3,0.36c-0.3-0.04-0.69-0.18-0.58,0.34c0.08,0.35,0.3,0.75,0.79,0.66c0.36-0.06,0.77-0.47,1.06-0.17
			c0.29,0.31-0.17,0.68-0.26,1.04c-0.05,0.21,0.13,0.43-0.07,0.62c0.15,0.21-0.01,0.43,0.03,0.63c0.04,0.2,0.27,0.43,0.38,0.26
			c0.36-0.54,0.68-0.16,1.03-0.06c0.5,0.13,0.86-0.34,0.77-0.99c-0.03-0.25-0.41-0.65,0.06-0.74c0.4-0.07,0.31,0.41,0.36,0.68
			c0.04,0.2,0.17,0.34,0.33,0.45c0.1,0.07,0.21,0.07,0.3-0.01c0.22-0.21,0.12-1.44-0.11-1.74c-0.12-0.16-0.44-0.28-0.25-0.52
			c0.18-0.22,0.44-0.43,0.71-0.5c0.26-0.06,0.3,0.25,0.33,0.46c0.02,0.12,0.08,0.23,0.2,0.2c0.09-0.02,0.23-0.14,0.22-0.2
			c-0.12-1.12,0.49-0.4,0.83-0.32c0.08,0.02,0.15,0.07,0.22,0.11c0.03,0,0.08,0.01,0.08,0.01c0.26-1.25,1.48-1.42,2.31-2.01
			c0.04-0.03,0.06-0.09,0.07-0.14c0.22-0.58-0.07-1.26,0.33-1.81C76.62,45.76,76.34,45.68,76.07,45.87z"/>
		<path class="st2" d="M62.6,49.32c0.25,0.25,0.25,0.57,0.05,0.8c-0.33,0.37-0.31-0.16-0.48-0.22c-0.26-0.09-0.37,0.16-0.52,0.3
			c-0.59,0.56-1.2,0.5-1.84,0.11c-0.11,0.36-0.16,0.58,0.37,0.72c0.79,0.2,1.26,0.86,1.65,1.57c0.2,0.37,0.62,0.59,0.32,1.12
			c-0.09,0.16,0.19,0.38,0.38,0.48c0.48,0.22,0.98,0.41,1.56,0.65c-0.12-0.56-0.59-0.67-0.81-0.99c-0.13-0.19-0.25-0.37-0.09-0.59
			c0.2-0.25,0.37-0.09,0.56,0.05c0.57,0.43,1.43,0.43,1.74,1.23c0.05,0.12,0.19,0.12,0.28,0.03c0.42-0.46,1.03-0.78,1.24-1.39
			c0.36-1.04,0.56-1.23,1.67-1.25c-0.11-0.39,0.08-0.73,0.22-1.07c0.06-0.15,0.06-0.33-0.1-0.44c-0.13-0.08-0.26-0.03-0.38,0.04
			c-0.05,0.03-0.09,0.07-0.13,0.09c-1.37,0.67-1.86,0.5-2.47-0.88c-0.34-0.77-0.38-0.8-0.97-0.24c-0.28,0.27-0.65,0.4-0.92,0.68
			c-0.41,0.43-0.38,0.75,0.13,1.03c0.54,0.3,0.93,0.73,1.26,1.26c-0.54,0.01-0.55,0.02-0.72-0.47c-0.08-0.24-0.14-0.51-0.44-0.5
			c-0.26,0.01-0.34,0.25-0.34,0.48c0,0.32-0.22,0.32-0.45,0.33c-0.25,0.01-0.31-0.11-0.34-0.34c-0.06-0.4-0.2-0.75,0.07-1.17
			c0.3-0.47,0.25-1.06,0.29-1.6c0.03-0.37-0.12-0.7-0.61-0.66C62.54,48.74,62.48,49.02,62.6,49.32z"/>
		<path class="st20" d="M62.76,48.5c0.46,0.4,0.53,1.95,0.01,2.38c-0.31,0.26-0.29,0.36-0.09,0.62c0.24,0.31,0.31,0.64-0.34,1.04
			c0.63-0.05,0.94-0.12,1.24-0.08c0.4,0.05,0.59,0,0.43-0.44c-0.07-0.19-0.13-0.43,0.15-0.43c0.24,0,0.22,0.26,0.24,0.44
			c0.03,0.31-0.08,0.75,0.45,0.67c0.27-0.04,0.51,0.44,0.71,0.08c0.17-0.31-0.08-0.75-0.28-0.86c-0.47-0.27-0.64-0.86-1.26-0.98
			c-0.5-0.1-0.21-0.44,0-0.65c0.35-0.36,0.94-0.42,1.17-0.96c0.07-0.17,0.34-0.14,0.33,0.09c-0.04,0.57,0.43,0.87,0.65,1.28
			c0.29,0.52,0.73,0.77,1.34,0.37c0.37-0.24,0.96,0.04,1.14-0.8c0.25,0.76-0.74,1.19,0.02,1.68c0,0.06,0,0.11,0,0.17
			c0.25-0.54,0.72-1.09,0.71-1.62c-0.01-0.58-0.72-0.43-1.05-0.23c-0.69,0.45-0.84-0.06-1.12-0.45c0.22-0.2,0.32,0,0.46,0.05
			c0.49,0.2,0.71,0,0.59-0.48c-0.09-0.36-0.07-0.7-0.09-1.06c-0.11,0-0.28,0.04-0.32-0.01c-0.58-0.78-1.66-0.69-2.31-1.32
			c-0.14-0.13-0.23-0.33-0.45-0.27c-0.25,0.06-0.18,0.3-0.21,0.47c-0.06,0.36-0.44,0.67-0.07,1.12c0.13,0.15-0.19,0.33-0.43,0.34
			c-0.43,0.01-0.79-0.19-1.1-0.46c-0.13-0.12-0.2-0.39-0.43-0.24C62.69,48.08,62.78,48.32,62.76,48.5z"/>
		<path class="st9" d="M68.35,38.32c0.19-0.46,0.19-0.94-0.13-1.3c-0.25-0.27-0.67-0.43-1.05-0.29c-0.44,0.16-0.26,0.6-0.3,0.93
			C67.01,38.67,67.81,38.21,68.35,38.32z"/>
		<path class="st2" d="M81,39.96c-0.39-0.25-0.55,0-0.62,0.32c-0.14,0.63,0.19,1.14,0.52,1.61c0.08,0.11,0.31,0.4,0.53,0.26
			c0.41-0.25,0.17-0.69,0.23-1.05C81.27,40.82,81.33,40.28,81,39.96z"/>
		<path class="st4" d="M60.79,46.2c0,0.4-0.06,0.82,0.37,1.07c0.39,0.22,0.65-0.08,0.94-0.25c0.03-0.48,0.01-0.93-0.52-1.16
			C61.18,45.68,60.91,45.75,60.79,46.2z"/>
		<path class="st4" d="M78.86,32.27c-0.05,0.52,0.33,0.73,0.81,0.76c0.46,0.04,0.64-0.36,0.64-0.7c-0.01-0.57-0.55-0.63-0.96-0.71
			C78.93,31.54,78.87,31.89,78.86,32.27z"/>
		<path class="st21" d="M66.54,30.59c0.02,0.16,0.02,0.44,0.26,0.37c0.31-0.08,0.57-0.35,0.65-0.67c0.06-0.25-0.2-0.35-0.44-0.34
			C66.63,29.97,66.53,30.23,66.54,30.59z"/>
		<path class="st4" d="M65.22,40.78c0.09-0.43-0.25-0.59-0.5-0.82c-0.42,0.04-0.59,0.31-0.44,0.67
			C64.48,41.12,64.88,40.94,65.22,40.78z"/>
		<path class="st2" d="M82.31,41.11c0.13,0,0.26-0.03,0.33-0.17c-0.03-0.07-0.06-0.15-0.11-0.21c-0.1-0.13-0.01-0.46-0.3-0.36
			c-0.32,0.12-0.09,0.35-0.03,0.53C82.23,40.97,82.28,41.04,82.31,41.11z"/>
		<path class="st11" d="M80.83,24.85c-0.93-0.28-0.85,0.47-0.99,0.99C80.98,25.81,81.11,25.68,80.83,24.85z"/>
		<path class="st0" d="M79.68,26.82c-0.05,0.17-0.26,0.37-0.04,0.49c0.3,0.16,0.27-0.34,0.53-0.33
			C80.06,26.79,79.87,26.82,79.68,26.82z"/>
		<path class="st12" d="M76.56,47.68c-0.83,0-1.27,0.96-2.16,0.88c-0.24-0.02-0.28,0.25-0.2,0.5c0.08,0.25,0.15,0.53-0.11,0.75
			c0.05,0.55,0.56,1.05,0.17,1.64c0.65-0.08,0.77-0.4,0.44-0.94c-0.08-0.14-0.3-0.35-0.08-0.49c0.16-0.1,0.37-0.21,0.61-0.12
			c0.56,0.22,1,0.47,0.85,1.2c-0.1,0.48,0.06,0.75,0.61,0.5c0.23-0.1,0.38,0.01,0.59,0.11c0.37,0.18,0.77,0.22,0.97-0.31
			c0.09-0.24,0.21-0.6,0.56-0.25c0.21,0.21,0.71,0.44,0.12,0.8c-0.13,0.08-0.22,0.16-0.16,0.32c0.06,0.16,0.21,0.15,0.34,0.16
			c0.22,0,0.42,0,0.62-0.12c0.23-0.14,0.41-0.65,0.68-0.38c0.28,0.29,0.07,0.71-0.23,1c0.04,0.29,0.14,0.57,0.48,0.54
			c0.29-0.02,0.49-0.22,0.5-0.55c0.04-0.87,0.54-1.54,1-2.19c0.32-0.45,0.58-0.84,0.25-1.48c0.68,0.17,0.97-0.16,1.02-0.68
			c0.04-0.48,0.42-0.69,0.66-1c0.4-0.53,0.49-1.02,0.02-1.54c-0.31-0.13-0.6-0.7-0.95-0.23c-0.3,0.41-1.28,0.47-0.74,1.4
			c0.22,0.37,0.06,0.85-0.41,1.12c-0.28,0.16-0.53,0.36-0.83,0.56c0.27,0.24,0.5,0.42,0.7,0.63c0.1,0.1,0.12,0.25,0,0.37
			c-0.11,0.12-0.25,0.09-0.37,0.01c-0.43-0.28-0.68-1-1.4-0.48c-0.07,0.06-0.27-0.17-0.19-0.36c0.04-0.1,0.12-0.18,0.2-0.25
			c0.52-0.43,0.78-0.97,0.33-1.55c-0.52-0.68-0.86,0.1-1.27,0.25c-0.06,0.17-0.11,0.33-0.17,0.5c0.12,0.1,0.3,0.14,0.36,0.32
			c0.1,0.33-0.36,1.74-0.65,1.94c-0.13,0.1-0.27,0.19-0.44,0.18c-0.53-0.02-1.34-1.08-1.24-1.62C77.28,48.28,77.3,47.82,76.56,47.68
			z"/>
		<path class="st12" d="M32.04,44.39c0.17,0.06,0.33,0.11,0.5,0.17c0.64,0.31,0.5,0.95,0.66,1.48c0,0.06,0,0.11,0,0.17
			c0.45,0.25,0.88,0.52,1.15,0.99c0.22,0.11,0.38,0.27,0.5,0.5c0.42,0.79,1.3,1.13,1.81,1.79c0.3,0.38,0.29,0.76,0.76,0.19
			c0.17-0.21,0.44-0.41,0.68,0.07c0.26,0.53,0.88,0.42,1.36,0.58c0.11,0,0.22,0,0.33,0c0.17-0.12,0.27-0.27,0.17-0.5
			c-0.37-0.79,0.1-1.5,0.19-2.25c0.02-0.2,0.15-0.37,0.34-0.42c0.21-0.05,0.23,0.16,0.31,0.3c0.28,0.49,0.85,0.66,1.23,1.05
			c0.47,0.48,0.75,0.99,0.73,1.66c-0.02,0.5-0.01,0.93,0.69,0.53c0.14-0.08,0.41-0.2,0.61-0.02c0.14,0.13,0.24,0.35,0.4,0.02
			c0.13-0.26-0.03-0.31-0.21-0.41c-0.15-0.09-0.26-0.27-0.37-0.42c-0.21-0.3,0.02-0.49,0.24-0.58c0.3-0.13,0.28,0.14,0.29,0.32
			c0.02,0.23,0.04,0.46,0.32,0.5c0.22,0.02,0.34-0.17,0.43-0.32c0.2-0.33,0.43-0.61,0.81-0.78c0.47-0.21,0.17-0.54,0.07-0.83
			c-0.07-0.22-0.3-0.48,0.08-0.6c0.2-0.06,0.45-0.23,0.64,0.2c0.16,0.35,0.69,0.48,0.67,1.05c-0.01,0.28,0.4,0.16,0.63,0.2
			c0.24,0.05,0.5,0.1,0.58,0.37c0.08,0.28-0.06,0.47-0.3,0.61s-0.44,0.37-0.12,0.55c0.23,0.12,0.46,0.71,0.85,0.15
			c0.28-0.4,0.64-0.75,0.87-1.18c0.17-0.3,0.32-0.53,0.67-0.43c0.28,0.08,0.57,0.06,0.73,0.5c0.31,0.87,0.63,1.77,1.56,2.26
			c0.15,0.08,0.2,0.32,0.42,0.13c0.17-0.14,0.37-0.31,0.06-0.51c-0.19-0.13-0.25-0.29-0.1-0.48c0.2-0.25,0.31,0.01,0.47,0.07
			c0.64,0.25,1.06-0.31,1.6-0.46c0.32-0.09,0.58-0.39,0.87-0.6c0.03-0.19,0.37-0.35,0.2-0.48c-0.64-0.48-0.78-1.28-1.25-1.85
			c-0.12-0.14-0.29-0.26-0.37-0.42c-0.33-0.62-0.79-0.7-1.12-0.1c-0.24,0.43-0.46,0.36-0.67,0.14c-0.29-0.31-0.82-0.32-0.95-0.82
			c-0.04-0.14-0.19-0.18-0.34-0.13c-0.13,0.04-0.31,0.14-0.39,0.09c-0.74-0.52-1.06-0.21-1.26,0.55c-0.07,0.27-0.29,0.05-0.45-0.05
			c-0.52-0.28-0.84-0.79-1.42-1.09c0.15,0.36,0.26,0.75,0.46,1.08c0.17,0.28,0.2,0.49-0.01,0.74c-0.21,0.24-0.17,0.87-0.66,0.63
			c-0.43-0.21-0.77-0.64-1.08-1.03c-0.09-0.11,0.08-0.38,0.35-0.22c0.17,0.1,0.31,0.24,0.56,0.02c-0.28-0.31-0.48-0.62-0.17-1.07
			c0.13-0.19,0.2-0.68-0.32-0.75c-0.43-0.06-0.68,0.11-0.77,0.53c-0.05,0.22,0.09,0.5-0.22,0.73c-0.12-0.43-0.23-0.83-0.35-1.23
			c-0.03-0.11-0.07-0.21,0.02-0.3c0.28-0.27,0.28-1.31-0.01-1.57c-0.23-0.2-0.36,0.01-0.45,0.15c-0.09,0.12-0.17,0.31-0.14,0.45
			c0.21,1.06-0.38,1.07-1.14,0.9c-0.14-0.03-0.37,0.08-0.38-0.16c-0.01-0.16,0.09-0.3,0.24-0.4c0.95-0.65,1.17-1.53,0.62-2.47
			c-0.06-0.12-0.14-0.24-0.17-0.37c-0.05-0.29-0.22-0.68-0.46-0.47c-0.23,0.19-0.9,0.36-0.51,0.95c0.3,0.45,0.38,0.85-0.27,1.18
			c-0.06-0.48-0.17-0.93-0.8-0.96c-0.24-0.01-0.26-0.31-0.27-0.54c-0.02-0.42,0.13-0.89-0.35-1.18c-0.09-0.05-0.13-0.22-0.01-0.28
			c0.62-0.37,0.29-1.24,0.88-1.64c0.19-0.12,0.14-0.39,0.04-0.61c-0.07-0.16-0.09-0.34,0.13-0.39c0.22-0.06,0.25,0.13,0.32,0.28
			c0.11,0.24,0.14,0.61,0.48,0.58c0.36-0.03,0.39-0.41,0.49-0.68c0.12-0.35,0.3-0.61,0.63-0.81c0.68-0.4,1.01-0.95,0.58-1.75
			c-0.09-0.17-0.33-0.38-0.07-0.57c0.19-0.14,0.42-0.01,0.62,0.09c0.33,0.16,0.72,0.36,0.82-0.2c0.06-0.31-0.34-0.51-0.54-0.53
			c-1.4-0.12-0.64-0.82-0.41-1.38c-0.13,0.04-0.31,0.04-0.38,0.12c-0.49,0.57-0.81,0.52-1.01-0.22c-0.05-0.16-0.22-0.25-0.4-0.19
			c-0.21,0.07-0.18,0.25-0.11,0.41c0.1,0.22,0.13,0.49-0.05,0.61c-0.88,0.59-1.19,1.65-1.98,2.3c-0.31,0.26-0.52,0.29-0.66-0.13
			c-0.07-0.21-0.13-0.47-0.43-0.36c-0.27,0.11-0.09,0.31-0.04,0.49c0.2,0.71-0.19,1.05-1.02,0.91c-0.17-0.14-0.33-0.14-0.5,0
			c0.08,0.37,0.14,0.74,0.25,1.1c0.11,0.35,0.03,0.56-0.3,0.74c-0.34,0.18-0.47,0-0.66-0.24c-0.39-0.5-1.02-0.2-1.52-0.36
			c-0.11-0.03-0.21,0.18-0.09,0.31c0.25,0.26,0.1,0.55,0.04,0.81c0.4,0.12,0.58-0.23,0.96-0.27c-0.3,0.38-0.49,0.73-0.28,1.18
			c0.16,0.35-0.12,0.39-0.34,0.27c-0.66-0.37-1.32,0.2-1.42,0.46c-0.2,0.54-0.81,1.2-0.12,1.85c0.14,0.13,0.19,0.29,0.03,0.42
			c-0.19,0.15-0.39,0.32-0.62,0.38c-0.22,0.06-0.2-0.19-0.22-0.34c-0.01-0.11,0-0.27-0.07-0.31c-0.79-0.5-0.69-1.18-0.43-1.9
			c-0.22-0.14-0.44-0.12-0.66,0c-0.27,0-0.55,0-0.82,0c-0.26,0.19-0.53,0.37-0.61,0.72c-0.13,0.55-0.62,0.68-1.03,0.93
			c-0.06,0.17-0.11,0.33-0.17,0.5c-0.4,0.69-0.47,0.03-0.66-0.17c0-0.06,0-0.11,0-0.17c0.11-0.29,0.09-0.67,0.46-0.8
			c0.61-0.2,0.61-0.67,0.52-1.18c0-0.11,0-0.22,0-0.33c-0.68-0.33-0.81,0.5-1.37,0.61c-0.18-0.3-0.3-0.71-0.87-0.64
			c-0.37,0.04-0.69-0.01-0.88,0.37c-0.28,0.27-0.7,0.1-0.99,0.33c-0.06,0.27-0.11,0.55-0.17,0.82c0,0.06,0,0.11,0,0.17
			c0.32,0.74,0.32,0.74,1.18,0.12c0.29,0.36,0.29,1.1,1.07,0.83c0,0.45-0.42,0.87-0.12,1.35c0.18,0.24,0.05,0.46-0.04,0.69
			c-0.04,0.1-0.05,0.22,0.05,0.3c0.09,0.08,0.25,0.11,0.29,0.02c0.47-0.93,1.39-0.5,2.1-0.71C31.89,44.35,31.97,44.35,32.04,44.39z"
			/>
		<path class="st9" d="M27.44,40.78c0.42,0.16,0.78,0.16,0.99-0.33c-0.35,0.09-0.57-0.61-0.99-0.17
			C27.44,40.45,27.44,40.62,27.44,40.78z"/>
		<path class="st8" d="M19.03,49.23c0.32-0.43,1.14-0.7,0.47-1.44c-0.09-0.1,0.09-0.3,0.19-0.31c0.72-0.07,0.5-0.6,0.51-1.01
			c0-0.16,0-0.35-0.2-0.4c-0.18-0.05-0.31,0.07-0.43,0.19c-0.23,0.25-0.35,0.54-0.36,0.89C19.2,47.85,18.85,48.51,19.03,49.23z"/>
		<path class="st8" d="M39.27,36.51c0.17,0,0.33,0,0.5,0c0.15-0.38,0.37-0.77-0.15-1.05c-0.53-0.28-0.65,0.22-0.85,0.5
			c-0.23,0.31-0.83,0.47-0.48,1.05c0.07,0.11,0.12,0.27,0.29,0.22c0.11-0.03,0.19-0.13,0.16-0.25
			C38.62,36.48,38.97,36.53,39.27,36.51z"/>
		<path class="st9" d="M28.43,40.45c0.77-0.46,1.3-0.3,1.49,0.46c0.02,0.1,0.06,0.23,0.13,0.27c0.16,0.08,0.24-0.06,0.32-0.17
			c0.31-0.41,0.56-0.9,1.18-0.88c-0.29-0.5-0.56-0.14-0.77,0.05c-0.28,0.25-0.45,0.24-0.75,0.01
			C29.42,39.74,28.74,39.88,28.43,40.45z"/>
		<path class="st9" d="M31.38,42.26c0.56-0.08,1.06-0.25,1.16-0.91c0.05-0.32,0.38-0.45,0.49-0.74c-0.24,0-0.44,0.12-0.53,0.31
			C32.25,41.48,31.82,41.87,31.38,42.26z"/>
		<path class="st9" d="M31.55,40.45c-0.09,0.5-0.19,0.94-0.74,1.18c-0.3,0.13-0.25,0.5-0.25,0.79c0.22-0.25,0.27-0.61,0.65-0.75
			C31.83,41.44,31.86,40.97,31.55,40.45z"/>
		<path class="st9" d="M30.56,42.59c-0.02,0.31,0.05,0.65,0.37,0.69c0.34,0.05,0.25-0.31,0.28-0.53
			C30.93,42.96,30.77,42.68,30.56,42.59z"/>
		<path class="st8" d="M19.13,51.89c0.09,0.07,0.13,0.14,0.19,0.16c0.05,0.01,0.11-0.06,0.16-0.1c-0.05-0.05-0.09-0.12-0.14-0.13
			C19.29,51.81,19.23,51.86,19.13,51.89z"/>
		<path class="st9" d="M33.85,40.62c0.22,0,0.44,0,0.66,0C34.28,40.2,34.07,40.39,33.85,40.62z"/>
		<path class="st8" d="M16.43,45c-0.03,0.07-0.09,0.13-0.09,0.2c0,0.09,0.09,0.14,0.16,0.08c0.05-0.04,0.06-0.14,0.07-0.21
			C16.57,45.06,16.49,45.03,16.43,45z"/>
		<path class="st21" d="M47.32,42.27c-0.04,0.45,0.22,0.8,0.58,0.88c0.38,0.09,0.65-0.28,0.7-0.63c0.06-0.43,0.36-0.65,0.61-0.93
			c0.25-0.27,0.37-0.58,0.06-0.85c-0.31-0.26-0.64-0.13-0.84,0.18c-0.2,0.31-0.44,0.54-0.78,0.68
			C47.36,41.72,47.3,41.98,47.32,42.27z"/>
		<path class="st12" d="M42.89,39.6c0.06-0.09,0.12-0.14,0.13-0.2c0.01-0.11-0.04-0.21-0.17-0.18c-0.05,0.01-0.09,0.12-0.09,0.19
			C42.76,39.47,42.82,39.52,42.89,39.6z"/>
		<path class="st12" d="M39.93,50.47c-0.01,0.35,0.07,0.63,0.5,0.66c0.12-0.4,0.45-0.56,0.82-0.66c0.12-0.24,0.29-0.44,0.38-0.71
			c0.11-0.32,0.14-0.63-0.13-0.81c-0.32-0.21-0.37,0.19-0.5,0.36c-0.16,0.2-0.57,0.12-0.56,0.5C40.24,50.03,40.01,50.2,39.93,50.47z
			"/>
		<path class="st9" d="M39.93,50.47c0.3-0.12,0.56-0.27,0.5-0.66c-0.17,0-0.33,0-0.5,0c-0.06,0.17-0.11,0.33-0.17,0.5
			C39.81,50.36,39.87,50.42,39.93,50.47z"/>
		<path class="st9" d="M41.24,50.47c-0.47-0.03-0.93-0.04-0.82,0.66c0.3-0.12,0.44-0.51,0.82-0.5
			C41.24,50.59,41.24,50.53,41.24,50.47z"/>
		<path class="st9" d="M29.41,44.07c-0.01-0.47,0.09-0.91,0.39-1.29c0.09-0.12,0.28-0.24,0.09-0.4c-0.18-0.15-0.27,0.04-0.4,0.13
			c-0.46,0.33-0.62,0.02-0.73-0.36c-0.06-0.21,0.13-0.57-0.2-0.62c-0.27-0.04-0.43,0.28-0.59,0.5c-0.06,0.08-0.12,0.18-0.21,0.33
			c-0.23-0.17-0.2-0.53-0.49-0.59c0,0.03-0.01,0.06,0,0.08c0.13,0.37-0.44,0.87,0.05,1.11c0.47,0.23,0.53-0.39,0.79-0.62
			c0.13-0.12,0.31-0.24,0.39-0.03c0.18,0.48,1.05,0.65,0.64,1.41C29.06,43.86,29.26,43.99,29.41,44.07z"/>
		<path class="st9" d="M39.43,50.31c-0.21-0.26-0.57-0.13-0.81-0.32c-0.11-0.08-0.27-0.11-0.35-0.2c-0.53-0.62-0.53-0.62-1.22,0.06
			c-0.01,0.01-0.05,0-0.13-0.01c-0.06-0.65-0.43-1.05-1.09-1.16c-0.27-0.04-0.33-0.23-0.34-0.47c0-0.43-0.28-0.55-0.65-0.53
			c0.33,0.65,0.53,1.43,1.46,1.49c0.05,0,0.11,0.06,0.12,0.1c0.18,0.79,0.43,1.33,1.22,0.43c0.03-0.03,0.24,0.03,0.28,0.09
			C38.28,50.37,38.86,50.32,39.43,50.31z"/>
		<path class="st9" d="M32.04,44.39c-0.91-0.14-1.83-0.31-2.49,0.66c-0.15-0.39,0.23-0.74-0.14-0.99c0,0.08,0,0.17-0.01,0.25
			c-0.03,0.28-0.34,0.62-0.01,0.83c0.37,0.24,0.58-0.1,0.77-0.38c0.16-0.24,0.43-0.19,0.68-0.2C31.24,44.55,31.67,44.63,32.04,44.39
			z"/>
		<path class="st9" d="M33.19,46.04c0.23-0.78,0.01-1.28-0.66-1.48c0.12,0.24,0.45,0.48-0.04,0.68c-0.15,0.06-0.29,0.19-0.22,0.38
			c0.08,0.22,0.26,0.24,0.46,0.16C32.99,45.68,33.03,45.98,33.19,46.04z"/>
		<path class="st9" d="M34.34,47.19c-0.15-0.61-0.59-0.86-1.15-0.99C33.57,46.53,33.96,46.86,34.34,47.19z"/>
		<path class="st11" d="M36.64,53.43c0.33,0.29,0.66,0.55,0.99,0C37.3,53.43,36.97,53.43,36.64,53.43z"/>
		<path class="st9" d="M31.38,45.11c0.05,0.07,0.08,0.17,0.13,0.19c0.14,0.04,0.18-0.08,0.16-0.19c-0.01-0.06-0.08-0.13-0.13-0.14
			C31.49,44.97,31.44,45.06,31.38,45.11z"/>
		<path class="st12" d="M72.95,50.96c-0.63,0.27-0.32,0.72-0.19,1.1c0.16,0.47,0.24,0.87-0.23,1.23c-0.29,0.23-0.31,0.62-0.4,0.96
			c-0.11,0.43-0.19,0.54-0.62,0.17c-0.71-0.61-1.44-1.27-2.51-1.16c0,0.27,0.03,0.52,0.38,0.48c1-0.1,1.42,0.67,1.87,1.32
			c0.17,0.25,0.31,0.44,0.6,0.47c0.26,0.03,0.36-0.19,0.47-0.38c0.4-0.66,0.5-1.49,1.18-2c0.23-0.17,0-0.49-0.15-0.65
			C72.98,52.05,72.91,51.52,72.95,50.96z"/>
		<path class="st2" d="M68.68,53.26c-0.13,0-0.27,0-0.4,0c-0.2,0-0.39,0.04-0.39,0.29c0,0.1,0.03,0.23,0.1,0.28
			c0.15,0.12,0.3,0.03,0.43-0.07c0.08-0.06,0.18-0.12,0.27-0.18C68.68,53.49,68.68,53.38,68.68,53.26z"/>
		<path class="st2" d="M73.82,50.62c-0.05-0.31-0.23-0.44-0.5-0.55C73.27,50.47,73.44,50.61,73.82,50.62z"/>
		<path class="st2" d="M77.06,48.83c-0.5,0.21-0.68,0.43-0.12,0.81c0.29,0.19,0.5,0.5,0.76,0.73c0.24,0.2,0.53,0.56,0.82,0.29
			c0.3-0.27,0.96-0.32,0.77-0.99c-0.08-0.29,0.15-0.51,0.25-0.75c0.23-0.55,0.17-0.91-0.53-0.91c0.03,0.12,0.14,0.28-0.08,0.32
			c-0.27,0.05-0.47-0.09-0.63-0.31c-0.12-0.17-0.08-0.36,0.07-0.43c0.49-0.23,0.29-0.75,0.5-1.12c0.12-0.21,0.09-0.71-0.27-0.84
			c-0.27-0.1-0.62,0.02-0.8,0.27c-0.16,0.23-0.44,0.43-0.4,0.78c0.31,0.19,0.46-0.53,0.73-0.16c0.2,0.28-0.07,0.56-0.19,0.83
			c-0.25,0.54-0.55,1.06,0.32,1.37c0.33,0.12,0.31,0.41,0.09,0.67c-0.21,0.25-0.38,0.17-0.49-0.09
			C77.71,48.95,77.32,49.02,77.06,48.83z"/>
		<path class="st4" d="M76.07,45.87c0.27,0.03,0.55,0.23,0.82,0c0.05-0.16,0.13-0.31,0.12-0.47c0-0.48-0.2-0.87-0.68-0.98
			c-0.45-0.11-0.74,0.25-0.87,0.6C75.3,45.5,75.58,45.79,76.07,45.87z"/>
		<path class="st21" d="M68.51,48.01c-0.26,0.55-0.28,1.05,0.24,1.47c0.19,0.15,0.4,0.25,0.58,0.05c0.41-0.46,0.43-0.98,0.16-1.52
			C69.17,47.95,68.84,47.74,68.51,48.01z"/>
		<path class="st21" d="M77.38,42.76c0,0.4-0.02,0.8,0.55,0.81c0.47,0.01,0.63-0.25,0.6-0.67c-0.03-0.46-0.17-0.92-0.69-0.94
			C77.32,41.94,77.39,42.41,77.38,42.76z"/>
		<path class="st21" d="M74.95,40.97c-0.37,0.12-0.55,0.39-0.51,0.8c0.02,0.27,0.14,0.51,0.44,0.46c0.41-0.07,0.56-0.38,0.54-0.78
			C75.39,41.16,75.27,40.98,74.95,40.97z"/>
		<path class="st0" d="M70.22,31.03c0.08,0.17,0.12,0.38,0.37,0.36c0.16-0.01,0.22-0.14,0.19-0.29c-0.04-0.18-0.15-0.29-0.33-0.31
			C70.29,30.78,70.19,30.84,70.22,31.03z"/>
		<path class="st0" d="M74.04,14.33c-0.19,0.03-0.47,0.06-0.33,0.24c0.23,0.3,0.43,0.7,0.88,0.74c0.14,0.01,0.34-0.08,0.25-0.2
			C74.64,14.78,74.48,14.37,74.04,14.33z"/>
		<path class="st0" d="M79.46,26.56c-0.34-0.54-0.71-0.48-0.95-0.31c-0.26,0.19-0.19,0.52,0.06,0.81
			C78.78,26.77,78.7,26.09,79.46,26.56z"/>
		<path class="st0" d="M75.34,16.71c0.21-0.09,0.34-0.21,0.35-0.37c0.01-0.23-0.15-0.34-0.37-0.33c-0.17,0-0.35,0.08-0.28,0.29
			C75.09,16.44,75.24,16.57,75.34,16.71z"/>
		<path class="st10" d="M56.08,44.72c0.03,0.17,0.12,0.27,0.26,0.27c0.24,0,0.32-0.17,0.32-0.38c0-0.14-0.08-0.29-0.24-0.27
			C56.22,44.37,56.1,44.53,56.08,44.72z"/>
		<path class="st9" d="M32.06,42.82c0.01,0.12,0.07,0.22,0.19,0.19c0.08-0.02,0.19-0.12,0.21-0.21c0.03-0.12-0.07-0.19-0.19-0.19
			C32.15,42.62,32.08,42.7,32.06,42.82z"/>
		<path class="st10" d="M44.81,35.84c0.07,0.04,0.13,0.09,0.2,0.1c0.14,0,0.16-0.11,0.13-0.21c-0.01-0.05-0.1-0.08-0.15-0.12
			C44.95,35.66,44.9,35.71,44.81,35.84z"/>
	</g>
</g>
</svg>
