<?xml version="1.0" encoding="utf-8"?>
<!-- Generator: Adobe Illustrator 25.0.1, SVG Export Plug-In . SVG Version: 6.00 Build 0)  -->
<svg version="1.1" id="Layer_1" xmlns="http://www.w3.org/2000/svg" xmlns:xlink="http://www.w3.org/1999/xlink" x="0px" y="0px"
	 viewBox="0 0 91.73 66.04" style="enable-background:new 0 0 91.73 66.04;" xml:space="preserve">
<style type="text/css">
	.st0{fill:#F1F4F6;}
	.st1{fill:#EFEFF3;}
	.st2{fill:#F4F6F8;}
	.st3{fill:#EFF1F5;}
	.st4{fill:#F9FBFD;}
	.st5{fill:#ECEFF1;}
	.st6{fill:none;}
	.st7{fill:#F1F2F1;}
	.st8{fill:#FCFDFF;}
	.st9{fill:#F7FAFB;}
	.st10{fill:#F5F6F8;}
	.st11{fill:#F9F9FA;}
	.st12{fill:#F5F9FA;}
	.st13{fill:#EEF0F1;}
	.st14{fill:#F0F1F3;}
	.st15{fill:#F2F2F3;}
	.st16{fill:#F7F4F0;}
	.st17{fill:#F0EEF2;}
	.st18{fill:#E7E5E4;}
	.st19{fill:#F2F4F7;}
	.st20{fill:#FBFCFC;}
</style>
<g id="VWJ7lv_1_">
	<g>
		<path class="st0" d="M26.39,17.4c0.93,0.21,0.75,1.12,0.84,1.67c0.22,1.35,1.07,1.94,2.19,2.36c-0.18,0.19-0.38,0.2-0.56,0.07
			c0.53,0.29,1.28,0.33,1.51,1.09c0.02,0.32-0.14,0.6-0.19,0.9c-0.04,0.25-0.08,0.49,0.14,0.7c0.7,0.68,0.58,1.16,0.05,1.95
			c-0.45,0.66-1.18,1.09-1.45,1.9c0.27-0.52,0.7-0.72,1.26-0.79c0.56-0.06,1.12-0.03,1.67,0.03c0.35,0.04,0.34,0.36,0.32,0.66
			c-0.03,0.55,0.07,1,0.8,0.73c0.22-0.08,0.38-0.01,0.51,0.17c0.24,0.35,0.53,0.64,0.85,0.92c0.31,0.27,0.36,0.62,0.18,0.99
			c-0.21,0.43-0.48,0.18-0.77,0.09c-0.61-0.19-1.86,0.62-1.98,1.26c-0.27,1.37-0.04,1.7,1.57,2.11c-0.03-0.53-0.34-0.86-0.67-1.2
			c-0.53-0.55-0.55-1.15-0.06-1.52c0.38-0.3,0.96-0.13,1.37,0.41c0.25,0.33,0.45,0.71,0.72,1.03c0.11,0.13,0.25,0.34,0.15,0.45
			c-0.56,0.63,0.02,0.93,0.35,1.3c0.56,0.64,0.46,1.16-0.36,1.37c-0.62,0.16-0.55,0.41-0.45,0.89c0.11,0.52,0.07,1.06,0.51,1.46
			c0.19,0.41,0.17,0.69-0.37,0.77c-0.65,0.1-0.85,0.5-0.55,1.07c0.05,0.1,0.13,0.18,0.2,0.27c0.28,0.35,0.44,0.74,0.09,1.12
			c-0.27,0.3-1.05,0.19-1.38-0.15c-0.14-0.14-0.2-0.33-0.32-0.49c-0.16-0.23-0.32-0.21-0.43,0.04c-0.18,0.41-0.31,0.83-0.35,1.28
			c-0.05,0.53-0.3,0.9-0.87,0.95c-0.54,0.04-0.44,0.29-0.21,0.59c0.32,0.43,0.83,0.66,1.19,1.05c0.51,0.55,0.48,0.95-0.06,1.31
			c-0.93-0.46-1.19-0.26-1.19,0.87c0.14,0.69-0.01,1.38,0.02,2.07c0.03,0.54-0.33,0.56-0.73,0.32c-0.21-0.29-0.16-0.67-0.36-0.97
			c-0.15-0.3-0.31-0.1-0.46-0.01c-0.29,0.18-0.59,0.33-0.93,0.32c-0.44-0.01-0.77-0.17-0.7-0.7c0.03-0.22,0.03-0.44-0.04-0.66
			c-0.1-0.33-0.2-0.5-0.56-0.21c-0.6,0.48-1.5,0.4-2,1.11c-0.14,0.19-0.46,0.16-0.7,0.01c-0.09-0.09-0.12-0.2-0.14-0.32
			c-0.04-0.51-0.42-0.83-0.7-1.21c-0.65-0.86-0.58-1.33,0.34-1.91c0.28-0.18,0.58-0.33,0.87-0.5c0.35-0.21,0.62-0.42,0.42-0.93
			c-0.14-0.35,0.02-0.78,0.44-0.86c1.09-0.21,1.48-0.94,1.56-1.94c0.01-0.08,0.09-0.14,0.16-0.18c0.15-0.06,0.31-0.02,0.47-0.02
			c0.14,0,0.27-0.05,0.3-0.2c0.04-0.21-0.13-0.26-0.29-0.3c-0.67,0.27-1.33,0.6-2.07,0.16c-0.18-0.11-0.27,0.06-0.36,0.22
			c-0.3,0.54-0.31,0.53-0.95,0.31c0.39,0.46,0.79,0.39,1.23,0.09c0.29-0.2,0.67-0.46,0.95-0.03c0.27,0.41,0.09,0.82-0.26,1.12
			c-0.39,0.33-0.88,0.49-1.31,0.74c-0.44,0.25-0.81,0.51-0.58,1.12c0.11,0.28-0.01,0.55-0.15,0.8c-0.1,0.18-0.23,0.34-0.45,0.33
			c-0.26-0.01-0.43-0.2-0.45-0.43c-0.03-0.57-0.37-0.72-0.85-0.95c-0.55-0.27-0.78-0.93-0.87-1.55c-0.07-0.44-0.01-0.89-0.01-1.34
			c0-0.22,0.02-0.47,0.29-0.55c0.23-0.07,0.36,0.11,0.5,0.24c0.18,0.17,0.32,0.39,0.61,0.58c-0.6-1.17-0.42-2.4-0.66-3.56
			c-0.09-0.45,0.21-0.8,0.46-1.13c0.23-0.31,0.56-0.38,0.9-0.21c0.31,0.15,0.28,0.45,0.21,0.74c-0.11,0.43-0.32,0.88,0.28,1.13
			c0.5,0.03,1.05,0.17,1.31-0.47c0.14-0.73,0.65-1.15,1.23-1.51c0.14-0.08,0.36-0.15,0.31-0.35c-0.06-0.25-0.3-0.19-0.49-0.2
			c-1.09-0.02-1.92-0.45-2.34-1.5c-0.15-0.01-0.23,0.07-0.31,0.15c-0.28,0.29-0.51,0.74-1.02,0.32c-0.45-0.38-0.63-1.04-0.36-1.49
			c0.13-0.22,0.29-0.41,0.45-0.6c0.16-0.19,0.4-0.3,0.57-0.51c-1.08-0.17-1.25-0.49-0.9-1.74c-0.61-0.08-1.29-0.03-1.57-0.81
			c-0.08-0.23-0.4-0.04-0.59,0.08c-0.25,0.15-0.36,0.39-0.21,0.64c0.3,0.49,0.32,1.07,0.53,1.59c0.22,0.55-0.04,0.98-0.45,1.33
			c-0.46,0.39-0.72-0.07-1.09-0.22c-0.91-0.36-1.01-1.2-1.31-1.93c-0.2-0.5,0.33-0.47,0.56-0.67c-0.83,0.07-1.2,1.03-0.69,1.76
			c0.47,0.67,1.05,1.21,1.8,1.57c0.85,0.41,1.03,0.92,0.55,1.71c-0.18,0.3-0.11,0.45,0.09,0.64c0.18,0.17,0.4,0.31,0.6,0.46
			c0.18,0.14,0.46,0.31,0.4,0.5c-0.3,1.1,0.2,2.4-0.81,3.32c-0.28,0.25-0.6,0.31-0.77-0.05c-0.24-0.51-0.6-1.04-0.25-1.66
			c0.15-0.27,0.37-0.66-0.15-0.67c-0.37,0-0.99-0.51-1.15,0.33c-0.02,0.11-0.03,0.22-0.04,0.33c-0.05,0.31-0.21,0.52-0.56,0.51
			c-0.32-0.01-0.53-0.19-0.6-0.49c-0.14-0.59-0.06-1.17,0.08-1.74c0.07-0.28,0.29-0.39,0.58-0.38c0.17,0.01,0.33,0.06,0.5,0.09
			c0.25,0.04,0.44-0.04,0.55-0.28c0.06-0.13,0.04-0.38-0.09-0.3c-0.38,0.21-0.31-0.68-0.77-0.24c-0.48,0.46-0.89,1-1.5,1.33
			c-0.09,0.05-0.1-0.02-0.07,0.03c0.53,0.76-0.43,0.95-0.52,1.39c-0.1,0.52,0.39,0.96,0.96,1.1c0.52,0.13,0.94,0.55,0.69,0.93
			c-0.4,0.62-0.67,1.19-0.78,1.93c-0.07,0.46-1.06,0.48-1.41,0.08c-0.16-0.19-0.28-0.44-0.52-0.53c-0.56-0.23-1.11-0.44-0.09-0.84
			c0.08-0.03,0.19-0.1,0.14-0.16c-0.41-0.53-0.06-1.04-0.04-1.57c0.01-0.3-0.21-0.69-0.62-0.68c-0.39,0.02-0.41,0.39-0.45,0.7
			c-0.08,0.58,0,1.18-0.1,1.75c-0.08,0.43-0.15,1.12-0.71,1.09c-0.54-0.02-0.58-0.66-0.65-1.13c-0.05-0.33,0.03-0.67-0.04-1
			c-0.05-0.22-0.07-0.49-0.34-0.53c-0.37-0.05-0.33,0.3-0.41,0.52c-0.21,0.44-0.29,0.95-0.71,1.27c-0.31,0.21-0.62,0.51-0.89-0.04
			c-0.07-0.13,0.09-0.27,0-0.4c-0.07,0.11-0.16,0.2-0.29,0.23c-0.08,0-0.15-0.03-0.2-0.09c-0.15-0.29-0.26-0.57-0.62-0.74
			c-0.49-0.23-0.56-0.79-0.72-1.26c-0.05-0.14,0-0.29,0.15-0.35c0.18-0.08,0.31,0.04,0.45,0.15c0.18,0.14,0.31,0.44,0.62,0.31
			c0.11-0.05,0.1-0.19,0.06-0.3c-0.12-0.33-0.38-0.46-0.72-0.47c-0.2-0.01-0.46,0-0.55,0.15c-0.47,0.72-1.16,0.31-1.76,0.37
			c-0.17,0.02-0.34-0.05-0.46-0.17c-0.31-0.29-0.53-0.61-0.57-1.08c-0.01-0.11-0.5-0.15-0.55-0.54c-0.06-0.45-0.16-0.85,0.52-0.86
			c0.17,0,0.48-0.15,0.31-0.36c-0.45-0.55-0.07-0.85,0.26-1.2c-0.41,0.32-0.66,0.72-0.84,1.2c-0.24,0.62-0.33,0.63-0.95,0.31
			c-0.08-0.04-0.04,0.05-0.06,0.08c-0.43,0.51-0.8,1.14-1.6,0.5c-0.24-0.19-0.3,0.13-0.44,0.23C1.17,37.03,0.83,37.79,0,37.4
			c0-2.24,0-4.48,0-6.72c0.41-0.1,0.52,0.24,0.69,0.48c0.22,0.31,0.44,0.38,0.61-0.01c0.25-0.58,0.73-0.52,1.21-0.48
			c0.5,0.05,0.7,0.39,0.74,0.64c-0.02-0.06-0.03-0.33-0.07-0.59c-0.04-0.32-0.07-0.67,0.31-0.76C3.86,29.87,4,30.2,4.13,30.49
			c0.08,0.18,0.07,0.38,0.06,0.62c0.03-0.22,0.03-0.41,0.11-0.58c0.13-0.29,0.05-0.79,0.44-0.83c0.44-0.05,0.68,0.4,0.79,0.75
			c0.23,0.77,0.59,0.68,1.08,0.28c0.32-0.26,0.67-0.31,1-0.07c0.31,0.22,0.21,0.47,0.09,0.8c-0.17,0.45,0.33,0.51,0.61,0.57
			c0.47,0.1,0.84-0.24,0.81-0.62c-0.08-0.8,0.24-1.08,0.97-1.09c0.36-0.01,0.41-0.32,0.47-0.6c0.12-0.62,0.13-1.27,0.56-1.77
			c-0.08-0.09-0.13-0.11-0.19-0.09c-0.32,0.13-0.64,0.45-1,0.14c-0.28-0.24-0.17-0.56-0.04-0.85c0.18-0.41,0.42-0.73,0.93-0.7
			c0.35,0.02,0.65,0.13,0.9,0.38c0.59,0.63,0.59,0.63,2.69,1.14c-0.65-0.31-0.76-0.72-0.45-1.16c0.24-0.34-0.13-0.98,0.44-1.07
			c0.59-0.09,0.57,0.59,0.86,0.9c0.21,0.22,0.4,0.46,0.36,0.83c0.11-0.8-0.48-1.64,0.31-2.32c0.33-0.28,0.34-0.3,1.01-0.24
			c-0.14-0.15-0.32-0.24-0.49-0.25c-0.66-0.03-1.1-0.2-0.8-1c0.08-0.22-0.12-0.42-0.21-0.62c-0.11-0.23-0.09-0.44,0.12-0.6
			c0.22-0.16,0.43-0.08,0.62,0.06c0.47,0.34,0.65,0.88,0.9,1.38c-0.33-1.23-1.24-2.17-2.39-2.44c-0.31-0.07-0.57-0.21-0.83-0.38
			c-0.22-0.14-0.64-0.11-0.62-0.46c0.02-0.45,0.5-0.21,0.73-0.38c-0.51-0.59-0.55-0.61-1.2-0.19c-0.37,0.24-0.58,0.13-0.66-0.27
			c-0.07-0.36-0.07-0.73,0.03-1.08c0.2-0.73,0.61-0.85,1.21-0.36c0.17,0.14,0.33,0.3,0.53,0.41c0.47,0.24,0.82-0.06,1.14-0.32
			c0.39-0.31,0-0.54-0.16-0.76c-0.27-0.37-0.48-0.76-0.63-1.18c-0.11-0.33-0.08-0.62,0.29-0.76c0.33-0.12,0.59,0.06,0.67,0.34
			c0.16,0.53,0.38,0.53,0.9,0.44c0.51-0.09,1.23-0.23,1.56,0.53c0.09,0.2,0.25,0.31,0.42,0.02c0.15-0.26,0.33-0.12,0.49,0
			c0.19,0.15,0.37,0.39,0.65,0.21c0.26-0.17,0.21-0.44,0.14-0.68c-0.09-0.29-0.12-0.64-0.53-0.66c-0.34-0.02-0.67,0-1-0.08
			c-0.17-0.04-0.32-0.15-0.33-0.33c-0.01-0.16,0.14-0.22,0.28-0.28c0.16-0.06,0.31-0.13,0.42-0.26c0.56-0.68,0.57-0.68,1.24-0.48
			c0.38-0.77-0.43-1.3-0.38-2.02c0.12-0.18,0.06-0.41,0.13-0.6c0.16-0.01,0.38,0.03,0.45-0.13c0.28-0.64,0.76-1.18,0.89-1.89
			c0.61-0.13,0.55,0.34,0.5,0.65c-0.12,0.66,0.18,1.26,0.17,1.9c0,0.13,0.05,0.31,0.14,0.39c0.61,0.53,0.84,1.07,0.21,1.76
			c-0.14,0.15,0.03,0.42,0.27,0.39c1.04-0.13,1.1,0.49,0.93,1.45c0.38-0.75,0.88-0.67,1.12-0.27C24.45,17.08,25.41,17.22,26.39,17.4
			z"/>
		<path class="st1" d="M11.6,26.98c-0.85-0.55-1.19-0.48-1.56,0.31c-0.1,0.22-0.2,0.44,0,0.61c0.2,0.16,0.42,0.09,0.57-0.13
			c0.16-0.24,0.37-0.33,0.65-0.19c0.23,0.12,0.42,0.3,0.15,0.49c-0.67,0.45-0.51,1.18-0.64,1.8c-0.1,0.49-0.18,0.87-0.84,0.68
			c-0.44-0.12-0.84,0.16-0.64,0.56c0.39,0.75-0.27,1.06-0.58,1.17c-0.58,0.2-1.1-0.22-1.49-0.7c-0.11-0.14-0.09-0.31,0.09-0.3
			c0.33,0.01,0.54-0.06,0.31-0.4c-0.2-0.3-0.61-0.34-0.79-0.09c-0.21,0.29-0.44,0.37-0.74,0.45c-0.38,0.11-0.69,0.25-0.62-0.42
			c0.05-0.46-0.46-0.71-0.74-1.07c0,0.57-0.44,1.01-0.38,1.58c0.02,0.2-0.05,0.45-0.29,0.42c-0.32-0.04-0.12-0.29-0.1-0.46
			c0.03-0.22,0.08-0.46,0.02-0.65c-0.07-0.24-0.13-0.65-0.49-0.54c-0.31,0.09-0.04,0.42-0.07,0.61c-0.08,0.52,0.23,1.02,0.04,1.53
			c-0.36-0.01-0.24-0.27-0.26-0.43c-0.05-0.43-0.1-0.89-0.63-0.95c-0.46-0.06-0.97-0.21-1.15,0.56c-0.12,0.5-0.58,0.51-0.83,0.02
			c-0.16-0.3-0.24-0.62-0.58-0.77c0-2.41,0-4.82,0-7.23c0.08-0.12,0.36,0.04,0.3-0.08c-0.2-0.41-0.01-0.9-0.3-1.27
			c0-0.11,0-0.22,0-0.34c0.52-0.31,0.92-0.02,1.27,0.3c0.34,0.31,0.24,0.7,0.07,1.08c-0.13,0.3-0.28,0.67,0.01,0.94
			c0.32,0.29,0.75,0.06,1.13,0.08c0.22,0.02,0.23-0.2,0.17-0.38c-0.07-0.21-0.23-0.38-0.32-0.59c-0.34-0.72-0.1-1.05,0.74-1.04
			c-0.79-0.64-0.86-1.37-0.2-2.01c0.59-0.58,0.54-1.06-0.12-1.49c-0.13-0.08-0.22-0.03-0.29,0.04c-0.68,0.68-1.2,0.01-1.7-0.26
			c-0.43-0.23-0.03-1.09,0.6-1.34c-0.51-0.4-0.76,0.26-1.15,0.32c-0.31-0.38,0.1-0.85-0.2-1.2c0-1.4,0-2.8,0-4.2
			c0.48,0.1,0.66,0.55,0.97,0.85c0.44,0.41,0.85,0.43,1.44,0.32c0.93-0.17,1.38-0.71,1.93-1.4c0.68-0.84,1.73-1.36,2.63-2
			c0.66-0.47,0.68-0.59,0.17-1.2C7.03,8.44,6.79,8.37,6.89,8.11c0.65-0.34,1.24,0.04,1.86,0.14c0.4,0.07,0.98,0.59,0.98-0.4
			c0-0.24,0.34-0.34,0.61-0.35c0.28-0.02,0.48,0.11,0.59,0.37c0.15,0.36,0.25,0.73,0.39,1.09c0.83-0.63,1.56-0.35,2.05,0.76
			c0.4,0.9,0.4,0.9,1.03,0.16c0.49-0.58,0.81-0.55,1.19,0.15c0.23,0.42,0.74,0.73,0.58,1.32c-0.13,0.13-0.32,0.22-0.45,0.15
			c-0.93-0.48-1.53,0.33-2.27,0.57c-0.28,0.09-0.36,0.59-0.79,0.44c-0.04,0.26-0.42,0.42-0.36,0.63c0.28,1.02-0.46,1.09-1.1,1.26
			c-0.3,0.08-0.54,0.29-0.81,0.44c-0.41,0.22-0.83,0.33-1.23-0.03c-0.11,0.15,0,0.32-0.05,0.48c-0.16,0.44,0.02,0.58,0.46,0.59
			c0.39,0.01,0.78,0.1,1.12,0.32c0.24,0.16,0.45,0.39,0.32,0.7c-0.15,0.37-0.42,0.11-0.64,0.06c-0.11-0.02-0.21-0.09-0.35-0.08
			c-0.09,0.21,0.07,0.58-0.32,0.65c-0.3,0.05-0.52-0.01-0.74-0.25c-0.26-0.29-1.17-0.11-1.34,0.24c-0.07,0.13-0.07,0.28,0.03,0.39
			c0.11,0.11,0.27,0.13,0.39,0.05c0.88-0.62,1.4-0.21,1.9,0.56c0.25,0.38,0.66,0.68,1.13,0.82c0.31,0.09,0.75,0.13,0.55,0.62
			c-0.16,0.38-0.39,0.77-0.94,0.6c-0.41-0.12-0.81-0.14-1.32,0.1c0.38,0.19,0.5,0.7,1,0.2c0.26-0.26,0.69,0.06,1.02,0.19
			c0.35,0.14,0.67,0.42,1.09,0.16c0.17-0.1,0.34-0.01,0.41,0.17c0.19,0.47,0.04,0.87-0.25,1.25c-0.28,0.36-0.59,0.5-1.01,0.26
			c-0.17-0.1-0.34-0.21-0.55-0.18c-0.14,0.02-0.28,0.08-0.36,0.2c-0.1,0.15,0.02,0.26,0.12,0.35c0.29,0.27,0.56,0.55,0.58,0.98
			c-0.21,0.79,0.32,0.84,0.87,0.86c0.4,0.06,0.5,0.37,0.58,0.7c0.02,0.08,0.03,0.16,0.03,0.24c-0.02,0.22-0.15,0.35-0.35,0.4
			c-0.16,0.04-0.34,0.06-0.44,0.23C11.97,26.84,11.88,27.07,11.6,26.98z"/>
		<path class="st2" d="M0,37.4c0.75-0.1,1.39-0.42,1.66-1.15c0.16-0.41,0.27-0.3,0.52-0.12c0.19,0.14,0.32,0.58,0.51,0.44
			c0.3-0.22,0.74-0.27,0.92-0.67c0.12-0.27,0.26-0.55,0.6-0.63c0.03,0.08,0.07,0.14,0.05,0.18c-0.08,0.19-0.43,0.22-0.29,0.52
			C4,36,4.13,36.03,4.2,36.01c0.27-0.06,0.3-0.28,0.35-0.51c0.16-0.75,0.79-1.13,1.25-1.75c0.2,0.4,0.1,0.63-0.07,0.81
			c-0.29,0.31-0.98,0.46-0.03,0.93c0.37,0.18-0.34,0.58-0.49,0.6c-0.8,0.12-0.54,0.58-0.44,1.03c0.4,0.06,0.21-0.61,0.71-0.46
			c-0.09,0.4-0.48,0.78-0.06,1.26c0.29,0.33,0.52,0.56,0.97,0.46c0.45-0.1,0.9,0.12,1.34-0.4c0.43-0.5,1.38-0.13,1.59,0.44
			c0.11,0.28,0.15,0.56-0.15,0.75c-0.28,0.18-0.47-0.03-0.65-0.21c-0.15-0.15-0.29-0.32-0.46-0.51c0.01,0.78,0.24,1.13,0.82,1.38
			C9.3,40,9.24,40.4,9.24,40.76c0.37,0.59,0.84,1.11,1.17,1.73c0.14,0.27,0.29,0.54,0.33,0.85c0.12,0.73,0.65,1.14,1.4,1.04
			c0.31-0.04,0.52,0.02,0.57,0.32c0.16,0.91,0.39,1.82,0.28,2.76c-0.16,0.13-0.31,0.04-0.46-0.03c-0.21-0.11-0.39-0.38-0.66-0.11
			c-0.25,0.25-0.24,0.55-0.12,0.85c0.03,0.08,0.08,0.15,0.12,0.22c0.18,0.29,0.61,0.49,0.43,0.92c-0.18,0.43-0.57,0.21-0.88,0.24
			c-0.3,0.03-0.46,0.3-0.69,0.44c-0.2,0.12-0.42,0.2-0.62,0.03c-0.24-0.2-0.19-0.49,0-0.67c0.41-0.4,0.27-0.64-0.15-0.89
			c-0.45-0.27-0.61-0.69-0.55-1.21c0.12-1.1-0.49-1.56-1.53-1.16c-0.53-0.65-1.6-0.95-1.36-2.11c0.07-0.36-0.03-0.6-0.48-0.54
			c-0.71,0.1-1.08-0.31-1.31-0.91c-0.16-0.42-0.32-0.85-0.89-0.86c-0.12,0-0.29-0.1-0.27-0.15c0.31-0.81-0.81-1.14-0.62-1.9
			c0.07-0.29-0.03-0.55-0.29-0.8C1.93,39.96,0.89,39.05,0,39.25C0,38.63,0,38.01,0,37.4z"/>
		<path class="st3" d="M6.89,8.15C7.1,8.39,7.49,8.37,7.6,8.79c0.12,0.48,0.26,0.75-0.35,1.08c-0.93,0.5-1.71,1.28-2.63,1.84
			c-0.31,0.19-0.48,0.53-0.58,0.9c-0.14,0.55-0.51,0.75-1.05,0.62c-0.1-0.02-0.17-0.11-0.3-0.07c-1.44,0.48-1.87,0.3-2.68-1.14
			c0-2.8,0-5.6,0-8.4C0.59,3.13,0.77,2.5,0.75,1.77C0.74,1.5,0.65,1.1,1.18,1.26C1.52,1.77,1.95,2.19,2.41,2.6
			c0.36,0.33,1.01,0.73,0.26,1.33C2.61,3.98,2.6,4.15,2.61,4.15C3.55,4.44,3.75,5.76,4.88,5.8c0.21,0.1,0.49-0.07,0.67,0.17
			C5.76,6.24,5.94,6,6.13,5.92c0.2-0.08,0.4-0.15,0.49,0.08C6.68,6.17,6.66,6.39,6.6,6.56C6.53,6.75,6.53,6.88,6.72,6.97
			c-0.22,0.17-0.31,0.35-0.1,0.6C6.76,7.74,6.88,7.92,6.89,8.15z"/>
		<path class="st4" d="M0,39.25c0.48-0.23,0.91-0.35,1.47-0.07c0.55,0.28,0.79,0.03,0.99-0.89c0.39,0.5,1.14,0.75,0.63,1.58
			c-0.13,0.21,0.02,0.37,0.27,0.39c0.6,0.05,0.8,0.26,0.34,0.78c-0.19,0.22-0.12,0.54,0.13,0.48c0.84-0.22,0.88,0.42,1.06,0.89
			c0.25,0.66,0.58,1.07,1.37,0.8c0.43-0.15,0.65-0.01,0.54,0.5c-0.06,0.3-0.05,0.61-0.06,0.91c0,0.11,0.03,0.32,0.03,0.32
			c0.76-0.06,0.82,0.64,1.14,1.05c-0.16,0.72,0.01,1.33,0.54,1.88c0.41,0.44,0.43,1.22,1.18,1.38c0.04,0.01,0.07,0.09,0.07,0.14
			c-0.02,1.42,1.3,2.28,1.53,3.64c0.12,0.68,0.51-0.05,0.79-0.1c0.26-0.03,0.55-0.14,0.59,0.28c-0.41,0.23-0.43,0.56-0.18,0.9
			c0.24,0.33,0.21,0.69,0.15,1.04c-0.06,0.38-0.15,0.79-0.63,0.87c-0.46,0.08-0.46-0.39-0.68-0.6c-0.67-0.63-0.86-1.59-1.52-2.22
			c-0.36-0.48-0.73-0.94-1.18-1.34c-0.2-0.23-0.4-0.46-0.6-0.69c-0.37-0.42-0.56-0.81-0.05-1.29c0.32-0.31,0.4-0.68,0.06-1.11
			c-0.36-0.45-0.65-0.97-0.93-1.48c-0.23-0.43-0.76-0.12-1.07-0.57c-0.54-0.77-1.29-1.39-1.54-2.37c-0.08-0.32-1.02-0.24-0.37-0.91
			c-0.41-0.05-0.59,0.56-0.88,0.2c-0.28-0.35-0.69-0.74-0.62-1.23c0.09-0.65-0.05-0.75-0.58-0.39c-0.12,0.08-0.31,0.13-0.39,0.02
			C1.17,41.47,0.55,41.69,0,41.6C0,40.81,0,40.03,0,39.25z"/>
		<path class="st5" d="M0,16.22c0.66,0.2-0.11,0.7,0.27,0.99c0.27-0.49,0.68-0.66,1.21-0.31c0.23,0.15,0.25,0.39,0.12,0.59
			c-0.18,0.27-0.21-0.07-0.31-0.1c-0.45-0.14-0.27,0.34-0.43,0.51c-0.1,0.11-0.32,0.32,0.09,0.47c0.57,0.21,1.09,0.8,1.64-0.05
			c0.09-0.14,0.45-0.01,0.43,0.04c-0.32,0.76,1.03,0.66,0.68,1.31c-0.11,0.2-0.38,0.46-0.64,0.61c-0.4,0.22-0.54,0.46-0.4,0.94
			c0.11,0.36,0.05,0.71,0.61,0.67c0.26-0.02,0.3,0.31,0.21,0.53c-0.1,0.24-0.27,0.09-0.4,0c-0.23-0.15-0.49-0.25-0.66,0.01
			c-0.14,0.21-0.1,0.49,0.07,0.71c0.12,0.16,0.28,0.3,0.33,0.47c0.07,0.23,0.3,0.48,0.13,0.71c-0.17,0.23-0.45,0.11-0.7,0.08
			c-1.44-0.16-1.44-0.15-0.95-1.61c0.12-0.36-0.04-0.62-0.33-0.77C0.67,21.88,0.35,21.74,0,21.77C0,19.92,0,18.07,0,16.22z"/>
		<path class="st6" d="M1.18,1.26C0.82,1.29,0.94,1.5,0.96,1.73C1.1,2.85,0.84,3.33,0,3.61c0-1.29,0-2.58,0-3.87
			C0.5,0.17,0.81,0.74,1.18,1.26z"/>
		<path class="st5" d="M0,22.1c0.59,0.43,0.24,1.2,0.82,1.71c-0.5,0.02-0.58-0.3-0.82-0.36C0,23,0,22.55,0,22.1z"/>
		<path class="st7" d="M64.88,177.91c0.08-0.19-0.29-0.47,0-0.53c0.29-0.06,0.35,0.26,0.33,0.53
			C65.11,177.91,64.99,177.91,64.88,177.91z"/>
		<path class="st8" d="M70.77,38.07c0.06-0.48,0.48-0.74,0.71-1.11c0.25-0.4,0.38-0.73-0.1-1.01c0.13-0.23,0.3-0.21,0.47-0.23
			c0.98-0.15,1-0.15,0.93,0.85c-0.05,0.74,0.28,1.36,0.6,1.97c0.22,0.43,0.57,0.48,0.95,0.09c0.52-0.54,1.02-1.11,1.74-1.41
			c0.61-0.26,1.02-0.17,1.23,0.51c0.05,0.16,0.11,0.32,0.22,0.44c0.16,0.18,0.31,0.44,0.61,0.36c0.25-0.06,0.3-0.31,0.35-0.53
			c0.06-0.26,0.05-0.56,0.35-0.68c0.19,0.07,0.18,0.23,0.18,0.36c-0.02,0.79,0.02,1.52,0.97,1.82c0.22,0.07,0.2,0.37,0.21,0.6
			c0.01,0.32,0.2,0.54,0.48,0.62c0.28,0.07,0.58-0.05,0.76-0.25c0.2-0.23,0.1-0.53-0.03-0.79c-0.19-0.39-0.48-0.84-0.85-0.86
			c-0.85-0.04-0.84-0.47-0.71-1.09c0.07-0.35-0.12-0.65-0.34-0.92c-0.19-0.24-0.8-0.38-0.29-0.82c0.42-0.36,0.93-0.54,1.41-0.04
			c0.1,0.1,0.14,0.25,0.25,0.33c0.26,0.18,0.5,0.12,0.6-0.19c0.06-0.19-0.21-0.57,0.26-0.52c0.38,0.04,0.84,0.15,0.95,0.57
			c0.17,0.62,0.75,0.84,1.14,0.82c0.89-0.03,0.63,0.41,0.53,0.88c-0.29,1.22-0.3,2.47-0.29,3.72c0,0.66,0.36,1.09,0.89,1.42
			c0.19,0.12,0.36,0.27,0.5,0.44c0.22,0.27,0.75,0.47,0.56,0.84c-0.18,0.36-0.59-0.15-0.87-0.07c-0.7,0.19-1.21-0.03-1.7-0.52
			c-0.26-0.26-0.46-0.05-0.45,0.28c0,0.14,0.04,0.29,0.11,0.4c0.46,0.8,0.9,1.61,1.83,2.02c0.5,0.22,0.36,0.6,0.06,0.96
			c-0.15,0.17-0.6,0.19-0.43,0.5c0.19,0.34,0.55,0.17,0.82,0.02c0.44-0.26,0.76-0.04,1.04,0.25c0.61,0.64,1.2,1.3,1.8,1.95
			c0.31,0.34,0.43,0.65,0.12,1.1c-0.33,0.5-0.26,1.03,0.14,1.54c0.36,0.45,0.71,0.91,0.91,1.49c0.16,0.47,0.72,0.55,1.23,0.79
			c-0.64,0.51-1.42,0.01-1.95,0.52c-0.08,0.08-0.19-0.07-0.22-0.19c-0.2-0.73-1.06-0.72-1.36-1.35c-0.19,0.51-0.21,0.92,0.09,1.31
			c0.14,0.19,0.17,0.45-0.02,0.62c-0.28,0.24-0.38-0.08-0.51-0.23c-0.11-0.13-0.2-0.29-0.4-0.2c-0.19,0.09-0.16,0.28-0.13,0.44
			c0.04,0.2,0.25,0.49-0.1,0.54c-0.29,0.05-0.24-0.31-0.33-0.5c-0.32-0.65,0.21-1.38-0.23-2.03c-0.18-0.26,0.03-0.89-0.51-0.74
			c-0.39,0.11-0.72,0.52-0.62,1.06c0.11,0.55,0.17,1.11-0.09,1.64c-0.09,0.19-0.28,0.53-0.45,0.4c-0.8-0.62-1.23,0.16-1.79,0.41
			c-0.53,0.23-1.02,0.69-1.57,0.04c-0.08-0.09-0.23-0.14-0.29-0.04c-0.07,0.1-0.1,0.27-0.07,0.39c0.23,0.85-0.07,1.09-0.89,0.88
			c-0.41-0.11-0.64,0.11-0.65,0.54c0,0.25-0.06,0.53,0.03,0.75c0.19,0.47,0.33,0.82-0.37,0.96c-0.58,0.12-1.07,0.18-1.18-0.59
			c0-0.03,0-0.07-0.02-0.08c-0.91-0.57-0.57-1.15-0.08-1.8c0.24-0.32-0.04-0.59-0.32-0.74c-0.25-0.13-0.52-0.11-0.63,0.19
			c-0.24,0.62-0.8,0.82-1.32,1.09c-0.25,0.13-0.57,0.25-0.68,0.46c-0.52,0.99-1.19,0.52-1.75,0.17c-0.64-0.4-1.15-0.34-1.64,0.18
			c-0.22,0.23-0.44,0.37-0.72,0.14c-0.81-0.68-1.54-0.37-2.26,0.16c-1.05,0.78-1.29,0.76-2.23-0.19c-0.1-0.1-0.19-0.23-0.34-0.18
			c-0.22,0.07-0.27,0.26-0.28,0.47c-0.02,0.54-0.28,0.81-0.91,0.79c0.12-0.46,0.71-0.65,0.57-1.16c-0.62-0.21-1.27-0.34-1.86-0.66
			c-0.28-0.15-0.6-0.16-0.81,0.18c-0.16,0.25-0.36,0.5-0.66,0.23c-0.29-0.27-0.23-0.61,0.02-0.9c0.18-0.22,0.45-0.33,0.7-0.45
			c0.25-0.12,0.51-0.23,0.71-0.44c0.11-0.12,0.23-0.26,0.16-0.44c-0.08-0.19-0.25-0.23-0.42-0.2c-0.82,0.15-0.88-0.41-0.87-0.97
			c0.01-0.62,0.21-1.23,0.43-1.78c0.34-0.83,0.78-0.12,1.16,0.11c0.18-0.95-0.22-1.44-1.1-1.37c-0.48,0.03-0.91-0.44-0.92-1.05
			c-0.01-0.43,0.13-0.83,0.33-1.2c0.23-0.44,0.52-0.67,0.99-0.3c0.39,0.3,0.69,0.19,1.03-0.12c0.73-0.68,0.85-0.65,1.52,0.14
			c0.13,0.15,0.23,0.51,0.48,0.34c0.31-0.21,0.09-0.5-0.06-0.73c-0.13-0.2-0.32-0.29-0.55-0.35c-0.79-0.25-0.88-0.47-0.81-1.54
			c0.04-0.59,0.26-0.87,0.9-0.77c0.33,0.05,0.49-0.22,0.52-0.53c0.03-0.25,0.03-0.54,0.37-0.56c0.37-0.02,0.52,0.26,0.64,0.56
			c0.12,0.31-0.02,0.61-0.01,0.91c0.01,0.23,0.1,0.47,0.34,0.53c0.22,0.06,0.24-0.18,0.29-0.32c0.12-0.36,0.35-0.58,0.74-0.54
			c0.36,0.03,0.5,0.29,0.63,0.59c0.4,0.91,1.47,1.06,2.01,0.26c0.16-0.24,0.4-0.27,0.57-0.41c-0.01-0.15-0.14-0.24-0.22-0.2
			c-1.04,0.46-1.88-0.25-2.81-0.45c-0.17-0.04-0.32-0.14-0.3-0.34c0.01-0.16,0.13-0.26,0.27-0.28c0.46-0.08,0.58-0.35,0.52-0.78
			c-0.07-0.46,0.34-0.74,0.52-1.21c-0.79,0.02-1.16-0.52-1.53-1.07c-0.38-0.55-0.96-0.94-1.36-1.49c-0.16-0.27-0.24-0.55-0.24-0.86
			c0-0.17,0.03-0.34,0.12-0.49c0.25-0.24,0.59-0.31,0.86-0.51c0.24-0.16,0.4-0.07,0.49,0.21c0.21,0.64,0.88,1.17,1.49,1.08
			c0.52-0.08,0.92-0.01,1.05,0.53c0.14,0.58-0.22,0.88-0.74,1.03c-0.06,0.02-0.1,0.06-0.13,0.11c0,0.23,0.19,0.32,0.35,0.41
			c0.97,0.53,1.86,1.21,2.89,1.65c0.27,0.12,0.46,0.29,0.53,0.6c0.1,0.44,0.24,0.86,0.28,1.31c0.08,0.83,0.12,1.68,0.85,2.27
			c0.18,0.14,0.2,0.4,0.15,0.63c-0.05,0.23,0,0.36,0.26,0.43c0.65,0.17,0.53,0.64,0.36,1.07c-0.23,0.57-0.67,0.96-1.23,1.2
			c-0.23,0.1-0.5,0.14-0.66,0.35c-0.2,0.27-0.49,0.61,0.18,0.66c0.08,0.01,0.18,0.01,0.24,0.06c0.61,0.53,1.09,0.62,1.35-0.34
			c0.08-0.29,0.42-0.37,0.71-0.27c0.3,0.1,0.71,0.17,0.68,0.61c-0.04,0.46,0.23,0.42,0.45,0.27c0.46-0.32,0.82-0.12,1.16,0.2
			c0.21-0.28,0.08-0.54,0.08-0.78c0-0.39-0.15-0.67-0.62-0.52c-0.25,0.08-0.45,0.04-0.58-0.18c-0.15-0.26-0.06-0.48,0.16-0.66
			c0.44-0.36,0.19-0.6-0.19-0.7c-0.77-0.2-1.13-0.65-1.28-1.45c-0.18-0.98-0.53-1.91-0.39-2.95c0.05-0.35,0.03-0.61,0.43-0.65
			c0.42-0.04,0.86-0.08,1.04,0.46c0.04,0.12-0.1,0.28,0.09,0.4c0.47-0.15,0.68-0.97,1.4-0.61c-0.07-0.56,0-1.12,0-1.69
			c-0.39-0.07-0.48,0.26-0.67,0.43c-0.24,0.21-0.52,0.24-0.78,0.09c-0.32-0.19-0.14-0.43,0-0.64c0.15-0.23,0.13-0.48,0.07-0.73
			c-0.12-0.52-0.3-0.99,0.37-1.37c0.35-0.2,0.01-0.59-0.2-0.91c-0.08,0.27-0.17,0.49-0.35,0.66c-0.34,0.31-0.36,0.64-0.16,1.06
			c0.23,0.48,0.36,0.82-0.51,0.84c-0.78,0.02-1.38,0.65-1.78,1.37c-0.14,0.25-0.17,0.81-0.61,0.59c-0.42-0.21-0.27-0.66-0.08-1.04
			c0.31-0.62,0.28-1.43,1.12-1.75c0.28-0.11,0.32-0.51,0.23-0.83c-0.05-0.16-0.18-0.38-0.35-0.25c-0.95,0.7-2.36,0.35-3.16,1.42
			c-0.24,0.32-0.59,0.27-0.81-0.13c-0.21-0.38-0.32-0.73,0.17-0.99c0.9-0.47,0.92-0.48,0.29-1.28c-0.33-0.43-0.56-0.91-0.77-1.39
			c-0.27-0.6-0.07-0.94,0.59-1.07C70.41,38.37,70.6,38.27,70.77,38.07z"/>
		<path class="st9" d="M70.77,38.07c0.04,0.42-0.2,0.5-0.57,0.51c-0.65,0.03-0.71,0.36-0.46,0.91c0.31,0.69,0.81,1.25,1.17,1.91
			c0.29,0.53,0.31,0.93-0.48,0.88c-0.25-0.01-0.59-0.02-0.59,0.3c0,0.25,0.15,0.6,0.35,0.71c0.26,0.15,0.38-0.22,0.55-0.39
			c0.34-0.36,0.63-0.82,1.26-0.53c0.22,0.1,0.35-0.1,0.45-0.28c0.12-0.21,0.27-0.39,0.53-0.19c0.29,0.24,0.38,0.12,0.53-0.18
			c0.21-0.42,0.53-0.36,0.76,0.02c0.32,0.52,0.31,1.16-0.2,1.41c-0.61,0.31-0.83,0.71-0.9,1.31c-0.02,0.15-0.15,0.3-0.25,0.43
			c-0.19,0.26-0.18,0.51,0.04,0.86c0.34-0.63,0.51-1.37,1.11-1.63c0.51-0.22,0.86-1.14,1.65-0.49c0.13-0.13,0.11-0.32,0.01-0.44
			c-0.52-0.62-0.49-1.16,0.21-1.59c0.4-0.25-0.05-0.46-0.01-0.74c0.68,0.11,0.89,0.56,0.99,1.14c0.04,0.23,0.01,0.42-0.25,0.42
			c-0.71,0-0.46,0.41-0.38,0.79c0.11,0.5,0.47,1.05-0.44,1.41c1.03,0.47,1.17-1.04,2.04-0.55c-0.24,0.78-0.36,1.62,0.04,2.4
			c-0.14,0.15-0.27,0.11-0.32,0.02c-0.35-0.67-0.68-0.35-0.98,0.02c-0.43,0.53-0.42,0.54-1.1,0.16c-0.03-0.26,0.52-0.18,0.33-0.46
			c-0.27-0.4-0.7-0.2-1.17-0.2c0.21,0.4,0.17,0.74,0.05,1.14c-0.19,0.64,0.27,1.26,0.34,1.91c0.09,0.94,0.53,1.58,1.56,1.66
			c0.21,0.02,0.31,0.22,0.32,0.44c0.01,0.23,0.03,0.47-0.28,0.52c-0.26,0.04-0.46,0.15-0.3,0.44c0.16,0.3,0.3,0.15,0.5-0.02
			c0.31-0.26,0.72,0.15,0.73,0.23c0.1,0.52,0.2,1.08,0.09,1.58c-0.06,0.27-0.54,0.18-0.66-0.11c-0.18-0.47-0.36-0.4-0.64-0.11
			c-0.25,0.26-0.54,0.25-0.84,0.08c-0.39-0.21-0.09-0.34,0.02-0.56c0.13-0.27-0.24-0.27-0.4-0.36c-0.28-0.18-0.54-0.16-0.69,0.18
			c-0.07,0.15-0.06,0.33-0.11,0.49c-0.17,0.54-0.49,0.63-0.94,0.29c-0.28-0.21-0.44-0.64-0.96-0.32c-0.27,0.16-0.41-0.23-0.36-0.49
			c0.1-0.48,0.32-0.85,0.9-0.96c0.71-0.14,1.18-0.65,1.39-1.32c0.09-0.28,0.18-0.72-0.43-0.61c-0.56,0.11-0.61-0.14-0.32-0.55
			c0.16-0.22,0.15-0.47-0.05-0.6c-1.05-0.64-0.83-1.76-0.97-2.7c-0.11-0.76-0.22-1.27-1.09-1.6c-1.01-0.38-1.89-1.11-2.83-1.69
			c-0.18-0.11-0.33-0.23-0.29-0.46c0.05-0.33,0.29-0.22,0.51-0.23c0.48-0.03,0.72-0.36,0.59-0.8c-0.11-0.38-0.33-0.54-0.82-0.29
			c-0.67,0.34-1.85-0.68-1.74-1.52c-0.36,0.25-0.65,0.59-1.1,0.46c-0.33,0.04-0.59,0.3-0.94,0.26c-0.07-0.02-0.14-0.06-0.2-0.11
			c-0.24-0.3-0.63-0.39-0.91-0.25c-0.65,0.33-1.26,0.32-1.91,0.09c-0.06,0.09-0.1,0.18-0.14,0.28c-0.14,0.44-0.05,0.79,0.39,1.02
			c0.33,0.17,0.52,0.46,0.59,0.83c0.01,0.08,0,0.16-0.02,0.24c-0.2,0.31-0.42,0.51-0.79,0.22c-0.13-0.15-0.21-0.33-0.32-0.49
			c-0.66-0.37-0.78-1.29-1.56-1.54c-0.22-0.03-0.45-0.02-0.67-0.08c-0.17,0-0.37-0.27-0.5,0.06c0.54,1.07-0.42,1.68-0.79,2.46
			c-0.13,0.28-0.5,0.02-0.73-0.14c-0.27-0.19-0.49-0.44-0.26-0.77c0.25-0.37,0.22-0.72,0.12-1.11c-0.2-0.75-0.6-1.1-1.37-1.04
			c-0.51,0.04-0.77-0.07-0.66-0.62c0.04-0.23-0.01-0.44-0.09-0.65c-0.14-0.36-0.15-0.63,0.38-0.49c0.22,0.06,0.3-0.07,0.31-0.27
			c0.01-0.25-0.16-0.25-0.34-0.24c-0.34,0.01-0.66,0.07-0.92,0.33c-0.27,0.28-0.57,0.32-0.91,0.1c-0.33-0.21-0.4-0.52-0.34-0.88
			c0.06-0.39,0.18-0.76,0.39-1.09c0.41-0.3,0.64-0.01,0.9,0.25c-0.23-0.47-0.45-1.04-1.02-1.05c-0.43,0-0.13,0.56-0.27,0.84
			c-0.84,0.41-1.38,0-1.31-1.1c-0.43,0.71-0.81,0.46-1.25,0.08c-0.73-0.62-1.05-1.57-1.81-2.16c-0.2-0.16-0.16-0.47-0.23-0.86
			c-0.47,1.08-1.06,0.44-1.63,0.27c-0.44,0.22-0.86,0.23-1.25-0.11c-0.5-0.44-1.15-0.38-1.72-0.55c-0.05-0.02-0.13-0.06-0.16-0.03
			c-1.01,0.93-1.29-0.03-1.7-0.65c-0.05-0.07-0.1-0.13-0.25-0.23c0.16,1.1-0.72,0.91-1.28,1.05c-0.04,0.12-0.03,0.17,0.03,0.2
			c0.3,0.16,0.77,0.13,0.78,0.62c0,0.22-0.22,0.38-0.41,0.33c-0.41-0.11-0.95,0.55-1.22-0.19c-0.14-0.38-0.29-0.24-0.47-0.08
			c-0.33,0.29-0.71,0.52-0.63,1.09c0.07,0.47-0.22,0.81-0.7,0.89c-0.45,0.08-0.75-0.18-0.92-0.57c-0.32-0.73-0.5-1.55-1.32-1.95
			c-0.18-0.09-0.19-0.34-0.16-0.54c0.06-0.35-0.05-0.53-0.41-0.7c-0.47-0.22-0.49-1.35-0.1-1.71c0.18-0.16,0.36-0.18,0.51,0
			c0.24,0.28,0.47,0.22,0.74,0.05c0.34-0.21,0.15-0.39,0.02-0.62c-0.19-0.31,0.05-0.52,0.24-0.73c0.17-0.19,0.35-0.41,0.23-0.67
			c-0.14-0.3-0.39-0.07-0.59-0.05c-0.45,0.04-1.34-0.73-1.46-1.3c-0.13-0.59,0.31-0.77,0.73-0.95c0.08-0.03,0.15-0.08,0.16-0.18
			c-0.1-0.22-0.3-0.2-0.5-0.22c-0.22-0.02-0.49,0.04-0.54-0.26c-0.04-0.3,0.2-0.44,0.42-0.56c0.2-0.11,0.42-0.13,0.65-0.17
			c0.17-0.03,0.36-0.07,0.43-0.23c0.55-1.36,1.56-0.95,2.54-0.67c0.13,0.04,0.26,0.1,0.4,0.1c0.39,0.03,0.86-0.11,0.91-0.41
			c0.05-0.36-0.29-0.7-0.74-0.79c-0.14-0.03-0.26-0.09-0.39-0.14c-0.42-0.14-0.74-0.43-0.88-0.83c-0.08-0.25,0.23-0.36,0.43-0.43
			c0.46-0.15,0.92-0.5,1.38,0.02c0.36,0.4,0.72,0.91,1.08-0.06c0.15-0.39,0.65-0.28,0.97-0.08c0.23,0.14,0.74,0.07,0.66,0.46
			c-0.06,0.3-0.09,0.79-0.67,0.78c-0.22,0-0.74,0.08-0.62,0.35c0.16,0.35,0.57,0.83,1.02,0.69c1.03-0.33,1.53,0.2,2.02,0.94
			c0.27,0.42,0.7,0.66,1.2,0.86c0.75,0.29,1.6,0.55,1.76,1.56c0.05,0.3,0.28,0.49,0.6,0.63c0.9,0.41,1.58,1.07,1.86,2.05
			c0.11,0.41,0.53,0.57,0.68,0.94c0.44,0.65,0.91,1.27,1.75,1.45c0.31,0.07,0.48,0.33,0.54,0.59c0.16,0.64,0.52,1.17,0.79,1.75
			c0.17,0.36,0.32,0.71,0.71,0.89c0.15,0.07,0.29,0.21,0.33,0.36c0.24,0.84,0.61,1.2,1.49,0.61c0.35-0.24,0.73,0.05,0.85,0.43
			c0.09,0.29,0.3,0.33,0.5,0.47c0.34,0.24,0.5,0.23,0.65-0.19c0.18-0.5,0.63-0.58,1.11-0.53c0.15,0.13,0.13,0.28,0.03,0.48
			c0.42-0.28,0.16-0.93,0.67-1.1c0.89,0.02,1.62,0.69,2.63,0.7c-0.24-0.48-0.45-0.79-0.87-0.95c-0.17-0.06-0.26-0.23-0.19-0.41
			c0.08-0.21,0.25-0.17,0.42-0.11c1.8,0.59,3.67,0.85,5.55,0.98c0.03,0,0.06,0.08,0.19,0.24c-0.75-0.22-1.1,0.9-1.9,0.33
			c-0.13-0.09-0.27,0.16-0.3,0.33c-0.06,0.29,0.18,0.23,0.32,0.22c0.39-0.02,0.65,0.03,0.77,0.52c0.13,0.55-0.28,0.59-0.53,0.79
			c-0.12,0.09-0.36,0.07-0.33,0.3c0.03,0.25,0.27,0.17,0.4,0.19c0.49,0.07,1.01,0.23,1.31-0.39c0.08-0.16,0.23-0.21,0.43-0.15
			c0.43,0.14,0.42,0.52,0.44,0.98C69.04,37.45,69.93,38.54,70.77,38.07z"/>
		<path class="st10" d="M39.16,22.94c-0.39,0.23-0.73-0.07-1.09-0.12c-0.71-0.09-1.45-0.25-1.6,0.78c-0.05,0.36-0.31,0.34-0.57,0.34
			c-0.43,0-0.82,0.06-1.12,0.56c0.47,0.06,0.94-0.2,1.25,0.26c0.18,0.27,0.39,0.46-0.14,0.53c-0.43,0.06-1.01,0.08-0.85,0.73
			c0.07,0.32,0.44,0.56,0.64,0.86c0.26,0.39,0.51,0.43,0.89,0.15c0.18-0.13,0.64-0.17,0.63,0.08c-0.02,0.31,0.21,0.75-0.17,0.99
			c-0.45,0.29-0.78,0.53-0.03,0.85c0.1,0.04,0.15,0.22,0.06,0.29c-0.36,0.25-0.72,0.54-1.12,0.69c-0.39,0.14-0.19-0.47-0.48-0.53
			c-0.56,0.8-0.47,1.23,0.29,1.49c0.39,0.13,0.21,0.47,0.2,0.72c-0.01,0.24-0.23,0.57,0.11,0.65c0.96,0.24,0.98,1.11,1.25,1.79
			c0.17,0.42,0.38,0.73,0.84,0.6c0.44-0.12,0.58-0.46,0.45-0.93c-0.1-0.35,0.92-1.5,1.27-1.44c0.57,0.1,0.08,0.56,0.25,0.82
			c0.32,0.03,0.55-0.42,0.92-0.17c0.16,0.11,0.36,0.03,0.37-0.18c0.01-0.17-0.15-0.3-0.33-0.32c-0.16-0.02-0.34,0.05-0.48,0
			c-0.2-0.06-0.29-0.27-0.3-0.47c-0.01-0.28,0.22-0.28,0.41-0.3c0.11-0.01,0.22-0.01,0.34,0c0.55,0.04,0.99,0,0.67-0.76
			c-0.06-0.13,0.01-0.32,0.04-0.61c0.44,0.44,0.86,0.73,1,1.27c0.07,0.25,0.22,0.45,0.54,0.43c0.28-0.01,0.43-0.08,0.32-0.4
			c-0.06-0.16,0.09-0.18,0.2-0.14c0.71,0.31,1.61,0.12,2.19,0.74c0.41,0.44,0.73,0.23,1.08-0.04c0.24,0.16,0.43,0.37,0.53,0.63
			c0.17,0.43,0.17,0.77-0.41,0.85c-0.28,0.04-0.56,0.1-0.68,0.38c0,0.07,0.03,0.13,0.09,0.13c1.29-0.17,1.31-0.17,0.98,1.11
			c-0.14,0.53,0.2,0.78,0.49,1.05c0.26,0.25,0.61,0.42,0.75,0.78c0.22,0.57,0.41,0.95,0.91,0.16c0.2-0.32,0.64-0.19,0.64,0.22
			c0,0.52,0.21,0.92,0.47,1.31c0.63,0.95,0.28,1.93,0.09,2.9c-0.08,0.43-0.46,0.54-0.76,0.72c-0.29,0.17-0.13,0.94-0.77,0.6
			c-0.49-0.26-0.47-0.7-0.27-1.17c0.11-0.27,0.05-0.54-0.22-0.63c-0.31-0.1-0.31,0.24-0.41,0.42c-0.58,1.02-0.53,1.36,0.36,2.34
			c0.21,0.23,0.59,0.47,0.39,0.75c-0.32,0.45-0.92,0.32-1.4,0.34c-0.35,0.02-0.42-0.31-0.46-0.6c-0.04-0.27,0.04-0.56-0.26-0.94
			c-0.13,0.49-0.45,0.75-0.07,1.29c0.34,0.49-0.06,1.07-0.26,1.58c-0.09,0.22-0.33,0.18-0.47-0.02c-0.11-0.16-0.11-0.37-0.16-0.56
			c-0.06-0.23-0.17-0.46-0.44-0.4c-0.3,0.06-0.28,0.34-0.18,0.54c0.16,0.31-0.11,0.85,0.5,0.95c0.12,0.02,0.16,0.22,0.14,0.37
			c-0.03,0.35-1.07,1.21-1.42,1.17c-0.48-0.05-0.94-0.91-0.79-1.48c0.06-0.22,0.17-0.41,0.31-0.69c-0.25,0.24-0.45,0.41-0.66,0.58
			c-0.47,0.37-0.86,0.5-1.2-0.18c-0.16-0.33-1.15-0.29-1.59,0.06c-0.24,0.19-0.5,0.36-0.75,0.54c-0.43,0.31-0.83,0.46-1.21-0.09
			c-0.15-0.21-0.4-0.37-0.63-0.09c-0.67,0.78-1.1,1.72-1.68,2.56c-0.05,0.08,0.02,0.22,0.02,0.33c-0.01,0.08-0.04,0.15-0.08,0.22
			c-0.84,0.05-1.23-0.24-1.04-0.89c0.18-0.6,0.04-0.8-0.55-0.78c-0.16,0-0.33-0.05-0.47-0.14c-0.67-0.52-0.4-1.28-0.46-1.94
			c-0.04-0.44,0.1-0.89,0.14-1.33c0.03-0.27,0.15-0.5,0.44-0.54c0.28-0.04,0.58-0.01,0.76,0.24c0.18,0.24,0.08,0.49-0.1,0.69
			c-0.43,0.47-0.16,0.77,0.19,1.09c0.12-0.09,0.13-0.18,0.1-0.26c-0.2-0.6-0.11-0.92,0.64-0.76c0.65,0.14,1.08-0.51,1.71-0.56
			c0.21-0.02,0.27-0.47,0.16-0.74c-0.1-0.25-0.3-0.18-0.49-0.1c-0.73,0.29-0.65-0.36-0.79-0.71c-0.05,0-0.08-0.02-0.1-0.01
			c-0.38,0.25-0.73,0.74-1.21,0.19c-0.34-0.38-0.21-1.47,0.25-1.77c0.42-0.27,0.76-0.56,0.91-1.04c0.04-0.13,0.15-0.24,0.29-0.29
			c0.79-0.32,0.79-0.32,1.04-0.91c-0.44-0.26-0.78-0.09-1.1,0.23c-0.41,0.41-0.68,0.28-0.82-0.25c-0.04-0.16-0.07-0.33-0.11-0.49
			c-0.22-0.96-0.22-0.96-1.1-0.71c-0.46-0.08-0.62-0.52-0.59-0.81c0.05-0.42-0.06-0.74-0.18-1.11c-0.13-0.4,0-0.72,0.54-0.59
			c0.39,0.09,0.64-0.18,0.81-0.43c0.17-0.26-0.15-0.48-0.3-0.62c-0.29-0.27-0.57-0.52-0.77-0.87c-0.08-0.15-0.23-0.34,0.02-0.4
			c0.79-0.17,0.26-0.44,0.08-0.7c-0.24-0.34-0.45-0.71-0.71-1.03c-0.27-0.33-0.67-0.54-1-0.18c-0.3,0.32-0.45,0.79,0.04,1.14
			c0.59,0.42,0.88,0.98,0.9,1.8c-0.9-0.36-2.04-0.46-2.22-1.47c-0.09-0.49-0.24-1.6,0.58-1.84c0.68-0.2,1.23-1.51,2.16-0.42
			c0.44-0.61,0.45-0.68-0.1-1.08c-0.38-0.27-0.59-0.66-0.83-1.04c-0.31,0.07-0.54,0.61-0.87,0.23c-0.27-0.31-0.75-0.64-0.34-1.19
			c0.15-0.21,0.04-0.39-0.23-0.38c-0.66,0.02-1.32,0.03-1.97,0.09c-0.26,0.03-0.57,0.13-0.51,0.52c0.03,0.16,0.15,0.33-0.09,0.42
			c-0.17,0.06-0.33,0.03-0.47-0.1c-0.16-0.15-0.2-0.37-0.1-0.54c0.14-0.24,0.31-0.57,0.53-0.63c0.78-0.21,0.56-1.33,1.43-1.48
			c0.21-0.04-0.25-0.46,0.02-0.81c0.35-0.46-0.16-0.41-0.42-0.47c-0.25-0.06-0.25-0.26-0.26-0.46c-0.04-0.49,0.15-0.93,0.34-1.37
			c0.74-0.25,1.24,0.41,1.91,0.5c0.44,0.06,0.81,0.44,1.11-0.24c0.14-0.32,0.58-0.26,0.91-0.22c0.18,0.02,0.3,0.02,0.27-0.2
			c0.29-0.02,0.68-0.01,0.29-0.44c-0.25-0.28-0.59-0.48-0.89-0.72c0.18-0.42,0.59,0.18,0.77-0.18c0.28-0.27-0.31-0.71,0.12-0.87
			c0.39-0.15,0.62,0.28,0.91,0.47c0.05,0.03,0.1,0.05,0.15,0.07c0.55,0.09,0.71,0.68,1.16,0.97C37.67,22.19,38.53,22.38,39.16,22.94
			z"/>
		<path class="st11" d="M36.48,50.17c0-0.06,0-0.11,0-0.17c0.63-0.03,0.97,0.6,1.58,0.68c0.37,0.05,0.68,0.23,1.11,0.14
			c0.7-0.14,0.52,0.43,0.47,0.83c0.97-0.26,1.21-1.13,1.54-1.9c0.21-0.47,0.45-0.82,1.01-0.86c0.56-0.04,0.79,0.32,1.02,0.72
			c0.16,0.29,0.37,0.56,0.61,0.8c0.14,0.15,0.3,0.28,0.5,0.11c0.16-0.14,0.07-0.28-0.01-0.44c-0.37-0.83-0.33-0.94,0.53-1.26
			c0.26-0.09,0.47-0.19,0.52-0.48c0.09-0.54,0.7-0.6,0.93-1.03c0.08-0.15,0.42-0.04,0.63,0.05c0.24,0.11,0.36,0.34,0.26,0.55
			c-0.44,0.93,0.48,1.17,0.83,1.7c0.09,0.13,0.26,0.13,0.33-0.04c0.17-0.37,0.36-0.69,0.79-0.3c0.39,0.36,0.18,0.7-0.08,1.03
			c-0.05,0.06-0.13,0.1-0.17,0.17c-0.01,0.07,0.03,0.01,0.09,0.03c0.87,0.21,1.14-0.18,1.2-1c0.04-0.65,0.59-1.05,1.06-1.46
			c0.32-0.27,0.68-0.49,0.94-0.83c0.28-0.37,0.66-0.33,0.8,0.05c0.3,0.85,0.96,1.71,0.19,2.64c-0.14,0.1-0.3,0.1-0.46,0.06
			c-0.36-0.18-0.67-0.44-1.06-0.73c-0.13,0.53,0.15,0.85,0.3,1.2c0.04,0.07,0.06,0.14,0.09,0.22c0.2,0.63,0.42,1.07,1.28,0.8
			c0.61-0.19,1.3,0.74,1.35,1.64c-0.15,0.17-0.42,0.12-0.56,0.32c0.75,0.27,0.81,0.47,0.31,1.01c-0.19,0.2-0.46,0.34-0.52,0.64
			c-0.06,0.33-0.11,0.64-0.55,0.54c-0.41-0.1-0.84-0.2-0.82-0.77c0.01-0.39-0.09-0.77-0.11-1.17c-0.69-0.09-0.71,1.18-1.56,0.71
			c-0.53-0.29-1.21-0.38-1.22-0.91c0.25,0.56-0.1,0.99-0.87,1.22c-0.35,0.1-0.63,0.33-0.92,0.57c-0.57,0.47-1.41,0.38-1.85-0.22
			c-0.36-0.5-0.95-0.41-1.42-0.62c-0.86-0.57-1.32,0.21-1.79,0.63c-0.34,0.31-0.66,0.52-1,0.28c-0.36-0.25-0.87-0.48-0.83-1.05
			c0.02-0.29,0.24-0.7-0.19-0.73c-0.38-0.02-0.41,0.48-0.49,0.78c-0.04,0.16,0.07,0.37,0.16,0.54c0.15,0.31-0.04,0.5-0.26,0.62
			c-0.28,0.15-0.39-0.07-0.47-0.3c-0.08-0.23-0.11-0.56-0.41-0.56c-0.39,0.01-0.21,0.38-0.27,0.59c-0.08,0.3-0.93,0.72-1.2,0.59
			c-0.21-0.09-0.33-0.22-0.16-0.45c0.13-0.16,0.2-0.33,0.19-0.54c-0.02-0.24,0.08-0.6-0.25-0.62c-0.28-0.02-0.25,0.31-0.26,0.53
			c-0.01,0.39-0.21,0.43-0.56,0.38c-0.45-0.08-0.65,0.13-0.4,0.58c0.32,0.59-0.25,0.77-0.49,1.1c-0.3,0.4-0.51,0.12-0.74-0.08
			c-0.06-0.05-0.15-0.06-0.23-0.09c-0.01,0.74-1.11,0.5-1.11,1.25c0,0.23-0.03,0.47-0.31,0.51c-0.24,0.03-0.29-0.21-0.41-0.36
			c-0.48-0.62-0.49-1.41-0.79-2.1c0.02-0.07,0.05-0.14,0.09-0.21c0.03-0.5-0.06-0.98-0.24-1.45c-0.24-0.64-0.04-0.97,0.64-0.95
			c0.38,0.01,0.62,0.02,0.75-0.41c0.11-0.37,0.51-0.26,0.8-0.31c0.97-0.19,1.07-0.27,1.15-1.27C35.5,50.62,36.15,50.55,36.48,50.17z
			"/>
		<path class="st9" d="M54.63,53.03c-0.17-0.31-0.31-0.66-0.53-0.93c-0.31-0.37-0.61-0.81-1.22-0.33c-0.29,0.23-0.63,0.09-0.77-0.33
			c-0.09-0.26-0.22-0.51-0.33-0.76c0.38-0.27,0.57,0.17,0.87,0.22c0.27-0.01,0.29-0.27,0.41-0.43c0.07-0.1,0.16-0.18,0.26-0.23
			c0.11-0.05,0.23-0.08,0.35-0.09c0.39-0.03,0.83,0.06,1.12-0.24c0.49-0.51,0.92-0.41,1.41,0.16c0.2-0.75,0.6-1.16,1.27-1.37
			c0.46-0.14,0.37-0.78,0.68-1.11c0.15-0.23,0.35-0.43,0.58-0.59c0.38-0.3,0.78-0.58,1.1-0.95c0.04-0.06,0.08-0.13,0.12-0.19
			c0.17-0.31,0.9-0.37,0.4-0.99c-0.12-0.15,0.15-0.38,0.33-0.52c0.17-0.1,0.35-0.17,0.56-0.18c0.81,0.18,1.75-0.16,2.37,0.67
			c0.32-0.23,0.06-0.5,0.14-0.72c0.01-0.08,0.03-0.15,0.06-0.23c0.19-0.52,0.06-1.1,0.59-1.56c0.49-0.42,0.78-0.56,1.19,0
			c0.06,0.09,0.14,0.18,0.28,0.16c0.18-0.27-0.05-0.59,0.08-0.87c0.03-0.08,0.08-0.14,0.14-0.19c0.66,0.52,1.27,1.1,1.72,1.81
			c0.22,0.35,0.41,0.69,0.91,0.42c0.16-0.08,0.34-0.02,0.45,0.13c0.16,0.22,0,0.37-0.15,0.5c-0.4,0.36-0.58,0.74-0.44,1.33
			c0.19,0.75-0.64,0.36-0.94,0.72c0.71,0.24,1.37,0.46,2.04,0.69c0.2,0.07,0.38,0.11,0.53-0.06c0.51-0.59,0.75-0.02,1.05,0.25
			c0.16,0.14,0.1,0.41-0.06,0.37c-0.55-0.15-0.57,0.3-0.82,0.55c-0.71,0.72-2,0.31-2.28-0.7c-0.08-0.29-0.22-0.45-0.52-0.44
			c-0.3,0.01-0.46,0.17-0.48,0.47c-0.03,0.34-0.08,0.83-0.51,0.6c-0.29-0.15-0.79-0.55-0.56-1.06c0.13-0.29,0.16-0.5,0.06-0.78
			c-0.08-0.23-0.18-0.45-0.45-0.39c-0.33,0.07-0.04,0.32-0.09,0.47c-0.16,0.49-0.32,0.99-1.02,0.69c-0.1-0.04-0.22-0.16-0.29-0.05
			c-0.33,0.48-0.13,1.03-0.14,1.54c-0.01,0.31,0.23,0.43,0.52,0.38c0.74-0.12,0.85,0.54,1.08,0.95c0.15,0.26-0.08,0.61-0.36,0.77
			c-0.37,0.2-0.37-0.17-0.5-0.37c-0.1-0.16-0.27-0.29-0.36-0.46c-0.3-0.58-0.62-0.46-0.94-0.03c-0.43,0.58-0.88,0.9-1.48,0.2
			c-0.1-0.12-0.22-0.24-0.42-0.08c-0.48,0.38-0.62,1.75-0.22,2.24c0.09,0.11,0.19,0.25,0.34,0.17c0.19-0.09,0.14-0.56,0.6-0.28
			c0.69,0.43,0.89,1.1,1.09,1.78c0.05,0.16-0.14,0.3-0.3,0.36c-0.24,0.09-0.35-0.11-0.48-0.25c-0.16-0.17-0.2-0.54-0.53-0.44
			c-0.34,0.11-0.28,0.46-0.26,0.72c0.04,0.52-0.48,0.89-0.35,1.43c0.09,0.38,0.02,0.85,0.68,0.55c0.33-0.16,0.61,0.05,0.77,0.33
			c0.17,0.28-0.09,0.45-0.24,0.65c-0.29,0.39-0.76,0.45-1.14,0.66c-0.24,0.13-0.54,0.21-0.55,0.56c-0.01,0.17,0,0.35,0.18,0.43
			c0.17,0.08,0.25-0.08,0.31-0.2c0.27-0.58,0.77-0.6,1.18-0.32c0.53,0.36,1.25,0.29,1.69,0.82c-0.66,0.12-1.26,0.12-1.84-0.36
			c-0.48-0.4-0.73,0-0.84,0.47c-0.05,0.22,0.26,0.56-0.11,0.65c-0.36,0.08-0.49-0.27-0.59-0.57c-0.02-0.07-0.1-0.13-0.15-0.19
			c-0.45-0.27-0.71-0.7-0.61-1.19c0.1-0.53-0.16-0.77-0.5-1.03c-0.63-0.47-1.19-0.98-1.53-1.73c-0.29-0.63-0.02-1.27-0.18-1.89
			c-0.04-0.15,0.04-0.33-0.05-0.51c-0.55,0.29-0.96,0.78-1.56,0.97c-0.3,0.06-0.6,0.06-0.91,0C55.17,53.54,54.71,53.52,54.63,53.03z
			"/>
		<path class="st8" d="M54.63,53.03c0.28,0.17,0.56,0.34,0.84,0.5c0.34,0.26,0.67,0.16,1.01,0c0.37-0.4,0.98-0.5,1.25-1.05
			c0.08-0.17,0.3-0.16,0.45-0.07c0.2,0.13,0.11,0.33,0.11,0.53c0,0.82-0.16,1.66,0.24,2.43c0.36,0.69,1.04,1.06,1.6,1.55
			c0.26,0.23,0.55,0.38,0.31,0.86c-0.24,0.48,0.28,0.85,0.42,1.29c-0.71,0.13-1.27,0.8-2.16,0.44c-0.35-0.14-0.66,0.51-0.5,0.99
			c0.08,0.24,0.14,0.47,0.15,0.72c0.02,0.52-0.12,0.76-0.68,0.46c-0.75-0.4-1.76-0.39-2.11-1.42c-0.1-0.28-0.45-0.44-0.79-0.3
			c-0.36,0.16-0.35,0.51-0.25,0.8c0.23,0.7,0.1,0.74-0.66,0.78c-0.72,0.04-1.61-0.16-2.17,0.19c-0.7,0.44-1.32,0.27-1.99,0.29
			c-0.26,0.01-0.27-0.17-0.25-0.33c0.03-0.27-0.14-0.59,0.29-0.77c0.96-0.4,1.97-0.79,2.1-2.06c0.01-0.1,0.11-0.19,0.19-0.27
			c0.8-0.94,0.8-0.94-0.09-1.93c-0.29,0.11-0.26,0.45-0.41,0.65c-0.08-0.03-0.17-0.04-0.17-0.06c-0.08-0.48-0.13-1.02-0.83-0.85
			c-0.72,0.18-0.63,0.65-0.34,1.16c0.09,0.15,0.12,0.34-0.07,0.44c-0.18,0.1-0.43,0.08-0.54-0.09c-0.99-1.47-2.31-0.73-3.5-0.46
			c-0.43,0.1-0.91,0.2-1.33,0.42c-0.25,0.14-0.5,0.2-0.59-0.15c-0.09-0.33-0.67-0.56-0.2-1c0.22-0.21,0.43-0.44,0.65-0.66
			c0.58-0.58,0.09-1.14-0.04-1.71c0.66-0.18,1.24-0.06,1.65,0.52c0.25,0.36,1.12,0.55,1.42,0.21c0.24-0.26,0.51-0.44,0.82-0.57
			c0.59-0.24,1.38-0.32,0.85-1.31c-0.12-0.22,0.09-0.47,0.38-0.58c0.26,0.4,0.06,0.93,0.68,1.28c0.93,0.52,1.27-0.08,1.76-0.55
			c0.11-0.11,0.17-0.33,0.38-0.25c0.2,0.08,0.16,0.29,0.13,0.44c-0.09,0.45,0.14,0.86,0.12,1.32c-0.02,0.54,0.56,0.41,1.03,0.66
			c-0.48-0.92,0.27-1.04,0.62-1.39c0.13-0.12,0.26-0.24,0.15-0.42c-0.08-0.13-0.21-0.2-0.35-0.08c-0.17,0.15-0.39,0.36-0.47-0.01
			c-0.04-0.19,0.02-0.53,0.34-0.6C54.23,53.01,54.43,53.03,54.63,53.03z"/>
		<path class="st11" d="M12.61,53.2c-0.18-0.25-0.44-0.14-0.67-0.17c-0.57-0.12-0.54-0.55-0.46-0.96c0.07-0.33,0.32-0.34,0.59-0.21
			c0.27,0.13,0.47,0.4,0.84,0.39c0.09-0.21-0.14-0.39-0.08-0.6c0.1-0.32,0.29-0.54,0.58-0.67c0.3-0.13,0.48,0.06,0.61,0.29
			c0.45,0.76,1.06,0.12,1.59,0.17c0.44,0.04,0.27-0.46,0.31-0.73c0.1-0.62,0.9-1.12,1.5-0.94c0.43,0.13,0.46,0.4,0.34,0.78
			c-0.08,0.24-0.41,0.6,0.19,0.66c0.43-0.35,0.84-0.85,1.43-0.25c0.26,0.54,0.12,1.04-0.18,1.51c-0.25,0.38-0.28,0.72,0.07,1.05
			c0.43,0.4,0.47,1.01,0.76,1.48c0.32,0.5,0.51,0.49,0.84,0.01c0.48-0.72,1.05-1.33,1.99-1.39c0.24-0.01,0.31-0.22,0.48-0.31
			c0.12-0.05,0.24-0.04,0.36,0.02c0.09,0.1,0.13,0.21,0.14,0.34c-0.03,0.55-0.4,0.8-0.83,1.05c-0.32,0.19-1.04,0.14-0.64,0.9
			c0.06,0.12-0.16,0.27-0.3,0.37c-0.29,0.21-0.63,0.35-0.96,0.51c0.65,0.69,0.71,0.68,1.06-0.02c0.05-0.1,0.12-0.28,0.18-0.26
			c0.92,0.37,1.36-1.07,2.3-0.6c0.05,0.02,0.11,0.02,0.17,0.01c0.39-0.03,0.84-0.39,1.17,0.04c0.38,0.49,0.56,1.1,0.51,1.72
			c-0.03,0.36,0.03,0.51,0.37,0.54c0.22,1.19,1.13,2.02,1.63,3.06c0.08,0.17,0.47,0.28,0.19,0.53c-0.24,0.21-0.38-0.09-0.55-0.21
			c-0.17-0.13-0.27-0.36-0.53-0.4c-0.18,0.31,0.23,0.58,0.01,0.94c-0.39-0.18-0.78-0.53-1.27-0.03c-0.28,0.29-0.29-0.13-0.33-0.32
			c-0.22-0.91-0.37-0.99-1.23-0.58c-0.15-0.43-0.26-0.89-0.58-1.24c-0.11-0.11-0.14-0.34-0.35-0.27c-0.18,0.07-0.18,0.26-0.19,0.43
			c0,0.17-0.04,0.35,0.01,0.5c0.26,0.84-0.15,1.18-0.91,1.3c-0.36,0.06-0.36,0.26-0.34,0.6c0.05,0.86,0.59,1.45,1.2,2.28
			c-0.64-0.25-0.93-0.42-1.25-0.81c-0.94-1.14-1.12-2.59-1.77-3.83c-0.09-0.17-0.15-0.4-0.35-0.45c-1.44-0.31-1.7-1.65-2.12-2.7
			c-0.22-0.56-0.39-0.42-0.89-0.32c0.46-0.89,0.5-1.69-0.38-2.13c-0.59-0.3-1.28-0.4-1.93-0.56c-0.18-0.05-0.42,0.04-0.57-0.04
			c-0.67-0.37-0.99-0.24-0.95,0.56c0.01,0.19-0.09,0.34-0.31,0.28c-0.21-0.06-0.22-0.27-0.16-0.42
			C13.17,53.63,12.97,53.38,12.61,53.2z"/>
		<path class="st12" d="M23.7,53.36c-0.11,0-0.22,0-0.34,0c-1,0.27-1.87,0.75-2.61,1.49c-0.22,0.22-0.53,0.12-0.63-0.14
			c-0.25-0.63-0.58-1.2-0.9-1.79c-0.13-0.24,0.04-0.49,0.12-0.72c0.15-0.4,0.28-0.8-0.02-1.19c-0.72-0.56-0.91,0.31-1.34,0.5
			c-0.68-0.56-0.11-1.09,0.04-1.63c0.43-0.38,0.83-1.05,1.43-0.18c0.09,0.12,0.12-0.02,0.17-0.06c0.48-0.49,0.81-0.08,1.13,0.21
			c0.39,0.35,0.12,0.69-0.14,0.93c-0.52,0.46-0.11,0.84,0.07,1.27c0.16-0.09,0.11-0.27,0.16-0.4c0.11-0.3,0.23-0.62,0.63-0.51
			c0.35,0.1,0.27,0.42,0.25,0.71c-0.06,0.9-0.02,0.9,0.96,0.8c0.42-0.04,0.86,0.11,0.88-0.53c0.04-0.07,0.09-0.13,0.16-0.18
			c0.93-0.17,1.52,0.15,1.84,0.99c0.08,0.21,0.12,0.43,0.26,0.61c0.23,0.28,0.46,0.59,0.77,0.76c0.43,0.24,0.51-0.31,0.8-0.43
			c0.44-0.18,0.86-0.4,1.27-0.63c0.26-0.15,0.53-0.23,0.76,0.05c0.21,0.26,0.14,0.52-0.03,0.77c-0.12,0.19-0.31,0.31-0.44,0.48
			c0.65-0.23,1.04-0.51,1.22-1.36c0.19-0.91,0.94-1.76,1.91-2.2c0.33-0.15,0.62-0.28,0.53-0.71c0.47-0.79,0.88-1.63,1.85-1.95
			c0.17,0,0.33-0.01,0.5,0c0.62,0.03,1.28-0.07,0.7,0.97c-0.4,0.72,0.38,0.72,0.82,0.88c0,0.25-0.12,0.47-0.33,0.54
			c-0.5,0.18-0.58,0.48-0.44,0.97c0.19,0.69-0.47,0.77-0.86,0.98c-0.25,0.14-0.59,0.17-0.89,0.15c-0.28-0.02-0.34,0.07-0.34,0.31
			c0.01,0.48-0.12,0.74-0.62,0.38c-0.29-0.21-0.57-0.04-0.76,0.11c-0.28,0.23,0.12,0.43,0.14,0.62c0.04,0.55,0.6,1.08,0.07,1.64
			c-0.18-0.14-0.4-0.26-0.61-0.18c-0.38,0.16-0.74,0.22-1.11-0.03c-0.13-0.09-0.27-0.02-0.35,0.12c-0.11,0.19,0.05,0.22,0.17,0.28
			c0.44,0.22,0.31,0.45,0,0.67c-0.18,0.13-0.35,0.27-0.53,0.41c-0.65,0.53-0.85,0.5-1.35-0.14c-0.47-0.6-0.58-0.6-1.01,0.03
			c-0.17,0.25-0.32,0.52-0.6,0.68c-0.06,0.06-0.11,0.11-0.17,0.17c-0.25,0.07-0.42,0.49-0.72,0.24c-0.21-0.18,0.07-0.4,0.13-0.59
			c0.21-0.62-0.25-1.12-0.32-1.69c-0.02-0.17-2.22-0.21-2.22-0.05c-0.02,0.88-0.43,0.72-1.01,0.48c-0.44-0.18-0.39,0.25-0.4,0.51
			c-0.01,0.39-0.13,0.59-0.56,0.44c-0.46-0.16-0.91-0.33-1.03-0.85c-0.04-0.16,0.19-0.16,0.33-0.16c0.52-0.02,0.79-0.46,1.24-0.57
			c-0.19-0.41-0.55,0.11-0.67-0.35c0.52-0.22,0.87-0.77,1.54-0.9c0.25-0.05,0.5-0.35,0.51-0.7c0.12-0.09,0.25-0.02,0.38-0.03
			C24.04,53.47,23.78,53.53,23.7,53.36z"/>
		<path class="st10" d="M26.39,17.4c-0.64-0.12-1.36,0.3-1.94-0.32c-0.14-0.15-0.35-0.23-0.42-0.47c-0.11-0.39-0.43-0.67-0.79-0.64
			c-0.42,0.04-0.07,0.54-0.31,0.81c-0.4-0.3-0.47-0.7-0.35-1.15c0.14-0.5-0.09-0.63-0.52-0.51c-0.31,0.09-0.63,0.19-0.81-0.17
			c-0.17-0.35,0-0.63,0.25-0.9c0.36-0.38,0.24-0.28-0.16-0.69c-0.28-0.28-0.49-0.82-0.47-1.32c0.01-0.63-0.25-1.26-0.04-1.91
			c0.06-0.18-0.13-0.28-0.32-0.31c0.2-0.31,0.17-0.66,0.17-1.01c0.43-0.24,0.77,0.2,1.17,0.17c0.2,1.08,0.55,2.1,1.01,3.09
			c0.18,0.38,0.23,0.85,0.67,1.07c0-0.48,0-0.91,0-1.34c0-0.38,0.14-0.7,0.52-0.75c0.38-0.05,0.71,0.2,0.81,0.58
			c0.2,0.78,0.5,1.52,0.55,2.35c0.03,0.56,0.28,1.11,0.44,1.66c0.12,0.4,0.32,0.81,0.18,1.22C25.89,17.26,26.3,17.2,26.39,17.4z"/>
		<path class="st8" d="M59.17,35.38c-0.5,0.18-1.15,0.21-1.05,1.02c0.01,0.06-0.07,0.17-0.13,0.2c-0.09,0.04-0.29,0.04-0.29,0.03
			c-0.1-0.55-0.85-0.23-0.91-0.62c-0.04-0.31-0.1-0.54-0.34-0.69c-0.27-0.18-0.43,0.02-0.64,0.19c-0.55,0.46-1.02,0.28-1.25-0.43
			c-0.13-0.4-0.25-0.82-0.77-0.87c-0.31-0.03-0.28-0.26-0.35-0.48c-0.26-0.81-0.88-1.47-0.99-2.35c-0.03-0.21-0.21-0.24-0.45-0.25
			c-0.66-0.04-1.52-0.97-1.57-1.63c0.61-0.22,1-0.27,1.31,0.57c0.18,0.47,0.8,0.93,1.24,1.37c0.42,0.42,0.5-0.1,0.54-0.35
			c0.14-0.86,0.29-0.95,0.98-0.47c0.55,0.39,1.29,0.53,1.43,1.46c0.05,0.33,0.77,0.82,1.36,0.86c0.82,0.05,1.56,0.5,1.87,1.27
			C59.23,34.59,59.53,34.99,59.17,35.38z"/>
		<path class="st11" d="M27.06,57.73c0.21-0.36,0.42-0.72,0.62-1.09c0.33-0.61,0.67-0.48,1-0.02c0.62,0.85,0.61,0.85,1.4,0.19
			c0.18-0.15,0.39-0.27,0.6-0.41c-0.18-0.35-0.63-0.03-0.8-0.38c0.02-0.21,0.35-0.18,0.38-0.45c0.04-0.45,0.28-0.44,0.53-0.11
			c0.2,0.26,0.53,0.39,0.72,0.17c0.55-0.62,0.69-0.08,0.92,0.26c-0.06,0-0.11,0-0.17,0c-0.42,0.84-0.82,1.69-1.43,2.42
			c-0.1,0.12,0.04,0.26,0.06,0.39c0.03,0.24,0.57,0.45,0.16,0.67c-0.4,0.21-0.75-0.02-0.89-0.61c-0.25,0.52-0.53,0.74-0.97,0.32
			c-0.18-0.18-0.46-0.17-0.72-0.16c-0.61,0.04-0.98-0.11-0.84-0.85C27.73,57.55,27.28,57.81,27.06,57.73z"/>
		<path class="st2" d="M10.09,7.14C9.49,7.02,9.32,7.62,8.91,7.81c0.32-0.79-0.32-1.27-0.63-1.84c-0.29-0.54-0.19-0.7,0.38-0.68
			C8.97,5.3,9.27,5.27,9.58,5.3c0.8,0.09,1,0.46,0.49,1.07C9.78,6.71,9.9,6.89,10.09,7.14z"/>
		<path class="st13" d="M34.46,22.44c0.48,0.57-0.27,0.27-0.33,0.46c-0.49-0.22-0.79-0.03-0.97,0.44c-0.09,0.24-0.27,0.27-0.47,0.15
			c-0.63-0.39-1.49-0.19-2.03-0.82c-0.07-0.08-0.26-0.05-0.4-0.07c-0.32-0.62-1.02-0.67-1.61-1.03c0.26-0.23,0.53-0.12,0.77-0.15
			c1.08,0.54,2.09,1.21,3.22,1.66c0.35,0.14,0.26-0.12,0.37-0.23C33.42,22.48,33.82,22.04,34.46,22.44z"/>
		<path class="st14" d="M35.8,20.76c-0.54,0.33-0.56-0.48-1.04-0.4c-0.1,0.2,0.17,0.37,0.18,0.59c0.01,0.3-0.17,0.19-0.32,0.14
			c-0.15-0.37-0.39-0.66-0.67-0.93c-0.15-0.14-0.41-0.29-0.23-0.55c0.17-0.24,0.54-0.38,0.73-0.23
			C34.95,19.78,35.65,20.01,35.8,20.76z"/>
		<path class="st12" d="M8.57,51.85c0.62,0.24,1.1,0.62,1.18,1.34C9.06,53.01,8.8,52.44,8.57,51.85z"/>
		<path class="st15" d="M142.37,84.29c0.08,0.29,0.44,0.31,0.63,0.65c-0.51-0.04-1.13,0.23-0.79-0.65
			C142.26,84.29,142.31,84.29,142.37,84.29z"/>
		<path class="st16" d="M159.97-7.84c-0.17,0.01-0.26-0.08-0.26-0.24c0-0.13,0.09-0.2,0.21-0.21c0.15-0.01,0.3,0.05,0.31,0.21
			C160.26-7.93,160.12-7.86,159.97-7.84z"/>
		<path class="st17" d="M44.82,108.2c-0.05,0.14-0.13,0.25-0.29,0.24c-0.12-0.01-0.23-0.08-0.22-0.2c0.02-0.15,0.14-0.23,0.29-0.23
			C44.72,108.01,44.82,108.06,44.82,108.2z"/>
		<path class="st18" d="M44.84,109.16c-0.03,0.23-0.08,0.31-0.17,0.27c-0.09-0.04-0.19-0.12-0.22-0.2c-0.04-0.12,0.06-0.2,0.19-0.16
			C44.73,109.1,44.82,109.16,44.84,109.16z"/>
		<path class="st19" d="M12.94,47.48c-0.21-0.88-0.22-1.8-0.43-2.69c-0.12-0.49-0.21-0.38-0.42-0.13c-0.29,0.36-0.41,0.03-0.67-0.04
			c-1.01-0.28-0.72-1.19-1.06-1.78c-0.31-0.52-0.48-1.14-1.05-1.48c-0.28-0.16-0.04-0.41-0.06-0.61c0.06,0,0.11,0,0.17,0
			c0.14,0,0.25,0.06,0.34,0.17c0.22,0.51,0.45,0.07,0.67,0c0.28,0.15,0.07,0.71,0.44,0.69c0.41-0.03,0.45-0.5,0.58-0.82
			c0.19-0.44,0.07-0.8-0.35-1.05c0-0.4-0.03-0.81,0.55-0.84c0.59-0.03,0.48,0.48,0.56,0.77c0.1,0.39,0.07,0.82,0.06,1.23
			c0,0.4,0.17,0.67,0.47,0.91c0.75-0.83,0.39-1.85,0.53-2.77c0.07-0.45,0.13-0.83,0.59-1c0.41-0.16,0.61,0.2,0.69,0.43
			c0.13,0.35,0.81,0.7,0.06,1.16c-0.36,0.22,0.05,0.47,0.14,0.71c0.07,0.2,0.38,0.34,0.24,0.58c-0.16,0.27-0.4,0.01-0.61,0.01
			c-0.15,0-0.27,0.07-0.36,0.28c0.57,0.11,1.02,0.34,1.28,0.92c0.22,0.49,0.56-0.07,0.86-0.06c0.31,0.01,0.34-0.24,0.28-0.48
			c-0.06-0.24-0.16-0.48-0.23-0.72c-0.08-0.26-0.08-0.47,0.3-0.36c0.39,0.11,0.62-0.03,0.63-0.42c0-0.32-0.1-0.69-0.48-0.66
			c-0.61,0.05-0.82-0.4-1.11-0.75c-0.43-0.53-0.57-0.99,0.35-1.14c0.49-0.08,0.34-0.33,0.07-0.55c-0.16-0.13-0.42-0.18-0.44-0.46
			c1.15,0.09,1.46-1.02,2.19-1.5c0.15-0.1,0.21-0.39,0.45-0.27c0.29,0.15,0.05,0.39,0.04,0.61c0.24,0.14,0.55-0.41,0.69-0.02
			c0.08,0.23-0.13,0.57-0.23,0.86c-0.11,0.29-0.31,0.31-0.61,0.24c-0.3-0.07-0.8-0.51-0.93,0.02c-0.15,0.61-0.35,1.31,0,1.95
			c0.09,0.16,0.28,0.17,0.45,0.13c0.26-0.06,0.24-0.28,0.24-0.47c0.01-0.36,0.02-0.97,0.34-0.91c0.5,0.1,1.04-0.03,1.49,0.2
			c0.28,0.14,0.28,0.53,0.05,0.73c-0.74,0.62,0.04,1.17,0.05,1.75c0,0.13,0.19,0.17,0.34,0.11c0.24-0.1,0.84-1.39,0.72-1.61
			c-0.21-0.38-0.11-0.71,0.09-1.03c0.34-0.5,0.15-0.81-0.3-1.09c-0.28-0.18-0.54-0.4-0.79-0.62c-0.27-0.24-0.39-0.45,0.03-0.71
			c0.41-0.25,0.42-0.98,0.06-1.25c-0.1-0.08-0.27-0.05-0.39-0.11c-1.11-0.51-2.46-1.81-2.19-2.89c0.19-0.75,0.82-1.26,1.31-0.92
			c0.12,0.08,0.36,0.14,0.27,0.35c-0.04,0.09-0.22,0.17-0.35,0.18c-0.43,0.02-0.7-0.16-0.36,0.57c0.31,0.67,0.45,1.29,1.22,1.58
			c0.23,0.09,0.29,0.64,0.69,0.28c0.3-0.27,0.72-0.58,0.47-1.05c-0.28-0.53-0.22-1.13-0.59-1.65c-0.48-0.68,0.24-0.88,0.65-1.16
			c0.53-0.35,0.65,0.07,0.72,0.43c0.11,0.63,0.58,0.38,0.92,0.42c0.43,0.05,1.1-0.12,0.42,0.65c-0.24,0.28-0.21,0.63,0.01,0.93
			c0.22,0.3,0.45,0.25,0.71,0.04c0.14-0.11,0.34-0.13,0.42,0.07c0.09,0.24-0.03,0.5-0.22,0.58c-0.38,0.17-0.58,0.48-0.86,0.75
			c-0.43,0.43-0.31,0.77-0.05,1.18c0.26,0.41,0.49,0.74,0.85,0.06c0.11-0.2,0.36-0.35,0.57-0.47c0.19-0.11,0.35-0.1,0.37,0.22
			c0.05,0.82,0.98,1.53,1.81,1.44c0.22-0.02,0.44-0.05,0.66-0.04c0.3,0.02,0.29,0.31,0.36,0.5c0.08,0.22-0.08,0.26-0.25,0.32
			c-0.73,0.27-1.27,0.74-1.5,1.51c-0.28-0.2-0.15-0.84-0.75-0.71c-0.59,0.13-0.67,0.58-0.65,1.08c0,0.11-0.03,0.22-0.12,0.3
			c-0.67-0.25-0.77-0.71-0.47-1.31c0.12-0.24,0.24-0.5-0.05-0.65c-0.25-0.13-0.53-0.09-0.72,0.22c-0.28,0.46-0.38,0.86-0.3,1.46
			c0.18,1.18,0.23,2.38,0.75,3.5c-0.07,0.03-0.14,0.06-0.21,0.09c-0.39-0.41-0.78-0.83-1.27-1.35c-0.14,1.2-0.19,2.21,0.45,3.14
			c0.12,0.18,0.26,0.32,0.48,0.25c0.61-0.22,0.65,0.16,0.67,0.6c0.01,0.27-0.08,0.68,0.28,0.68c0.37-0.01,0.58-0.55,0.48-0.75
			c-0.66-1.26,0.48-1.34,1.1-1.75c0.28-0.18,0.62-0.28,0.88-0.49c0.26-0.22,0.44-0.58,0.19-0.89c-0.26-0.32-0.47,0.06-0.71,0.15
			c-0.32,0.11-0.53,0.66-1.01,0.27c-0.33-0.27-0.83-0.41-0.65-1c0.18-0.03,0.26,0.1,0.36,0.19c0.17,0.14,0.3,0.39,0.56,0.3
			c0.34-0.11,0.11-0.36,0.1-0.56c-0.02-0.28,0.25-0.5,0.41-0.36c0.83,0.7,1.6,0.2,2.39-0.05c0.01,0.39-0.3,0.58-0.5,0.84
			c0.04,0.64-0.18,1.16-0.62,1.66c-0.28,0.31-0.46,0.53-0.92,0.55c-0.58,0.02-0.76,0.38-0.34,0.83c0.31,0.34-0.03,0.42-0.15,0.59
			c-0.4,0.61-1.19,0.64-1.7,1.14c-0.53,0.52-0.38,0.84-0.04,1.32c0.29,0.41,0.88,0.66,0.74,1.31c-0.09,0.09-0.2,0.13-0.32,0.14
			c-0.35-0.06-0.69,0-1.04-0.01c-0.13-0.02-0.24-0.04-0.34,0.12c-0.56,0.95-1.25,1-1.88,0.12c-0.17,0.39-0.37,0.74-0.87,0.53
			c-0.27-0.11-0.5-0.27-0.53-0.59c-0.03-0.3,0.17-0.46,0.4-0.58c0.36-0.19,0.82-0.32,0.52-0.95c-0.32,0.14-0.37,0.49-0.59,0.67
			c-0.27,0.23-0.48,0.56-0.91,0.21c-0.37-0.29-0.67,0.11-1,0.2c-0.38,0.1-0.67,0.02-0.84-0.33c-0.17-0.36,0.09-0.5,0.38-0.59
			c-0.44-0.3-0.89-0.59-1.08-1.12c0.17-0.33,0.7-0.57,0.28-1.05c-0.15-0.18-0.36-0.28-0.59-0.15c-0.49,0.28-0.41,0.72-0.27,1.16
			c0.32,0.58,0.27,1.21,0.21,1.84c-0.38,0.32-0.55,0.73-0.52,1.23c-0.19,0.3-0.54,0.39-0.77,0.63c-0.25,0.27-0.53,0.31-0.78,0
			c-0.23-0.28-0.24-0.62,0.05-0.81c0.63-0.41,0.53-0.87,0.26-1.43c-0.19-0.4-0.39-0.91,0.38-1.02c-0.13-0.22-0.34-0.45-0.64-0.34
			c-0.34,0.13-0.21,0.46-0.16,0.73c0.06,0.34,0.2,0.63,0.39,0.91c0.24,0.36,0.07,0.66-0.26,0.83c-0.34,0.18-0.72,0.27-0.8-0.31
			C12.89,47.85,12.82,47.66,12.94,47.48z"/>
		<path class="st3" d="M16.14,11.34c0.54-0.05,1.05,0,1.43,0.46c0.42,0.5,1.1,0.24,1.59,0.55c-0.11,0.59,0.25,0.87,0.74,1.04
			c-0.06,0.35-0.69,0.62-0.08,0.99c0.15,0.09,0.13,0.22-0.02,0.33c-0.18,0.11-0.34,0.17-0.53,0.01c-0.42-0.33-0.76-0.52-0.81,0.3
			c-0.03,0.47-0.58,0.28-1,0.49c0.53,0.18,0.94,0.27,1.32,0.17c0.86-0.23,0.6,0.52,0.78,0.85c0.21,0.36,0.19,0.72-0.27,0.98
			c-0.64,0.36-0.71-0.31-0.99-0.55c-0.27,0.23,0.07,0.45-0.1,0.7c-0.29-0.04-0.48-0.28-0.71-0.45c-0.17-0.12-0.06-1.08-0.63-0.26
			c-0.05,0.08-0.16-0.08-0.22-0.18c-0.19-0.36-0.46-0.26-0.7-0.09c-0.5,0.37-0.8,0.4-0.82-0.35c-0.01-0.29-0.17-0.6-0.52-0.5
			c-0.47,0.13-0.26,0.47-0.12,0.74c0.18,0.34,0.32,0.71,0.59,1.01c0.22,0.24,0.73,0.61,0.34,0.85c-0.46,0.27-0.9,0.97-1.62,0.52
			c-0.16-0.1-0.29-0.27-0.46-0.36c-0.24-0.12-0.29-0.6-0.63-0.43c-0.36,0.17-0.42,0.57-0.42,0.94c0,0.17,0,0.34,0,0.5
			c0.01,0.13-0.03,0.3,0.12,0.37c0.21,0.09,0.28-0.1,0.38-0.23c0.12-0.16,0.23-0.58,0.41-0.41c0.36,0.35,1.01,0.25,1.2,0.8
			c0.1,0.29-0.11,0.41-0.37,0.42c-0.21,0.01-0.4-0.21-0.72-0.01c0.82,0.41,1.56,0.81,2.42,0.91c0.3,0.04,0.55,0.22,0.58,0.4
			c0.11,0.76,0.75,1.15,1.11,1.73c0.14,0.23,0.35,0.42,0.02,0.61c-0.29,0.16-0.47-0.02-0.6-0.26c-0.21-0.41-0.18-0.94-0.64-1.23
			c-0.18-0.11-0.32-0.37-0.56-0.13c-0.2,0.2-0.05,0.37,0.1,0.5c0.48,0.42,0.21,0.84-0.06,1.31c0.84-0.29,1.29,0.34,2.02,0.57
			c-0.34,0.21-0.59,0.16-0.81,0.13c-0.75-0.08-1.16,0.4-1.11,1.15c0.04,0.56,0.34,1.2-0.23,1.72c0.24-0.9-0.73-1.26-0.83-1.99
			c-0.01-0.06-0.18-0.12-0.27-0.12c-0.11,0-0.24,0.14-0.17,0.22c0.35,0.41-0.01,0.63-0.19,0.93c-0.16,0.26-0.17,0.55,0.25,0.63
			c0.27,0.05,0.56,0.16,0.44,0.47c-0.14,0.37-0.49,0.09-0.64,0.02c-0.82-0.41-1.97-0.12-2.5-1.15c0.22-0.09,0.34-0.26,0.34-0.5
			c0.15-0.11,0.44,0.19,0.5-0.17c0.22-0.01,0.33-0.12,0.34-0.35c0.28-0.36,0.51-0.21,0.73-0.06c-0.26-0.19-0.52-0.32-0.73,0.06
			c-0.29-0.13-0.04-0.67-0.51-0.66c-0.29-0.38-0.47-0.88-1.01-1.01c-0.06-0.38-0.29-0.66-0.59-0.87c-0.22-0.16-0.64-0.35-0.3-0.58
			c0.24-0.16,0.51-0.59,0.96-0.36c0.29,0.15,0.53,0.64,0.91,0.28c0.38-0.36,0.74-0.78,0.37-1.46c-0.33,0.49-0.61,0.38-1.07,0.12
			c-0.36-0.2-0.92-0.95-1.48-0.07C9.97,21.51,9.68,21,9.34,21.01c-0.19,0.01-0.27-0.26-0.24-0.47c0.04-0.32,0.32-0.12,0.47-0.19
			c0.34-0.16,0.77-0.22,1.05-0.03c0.47,0.3,0.57-0.08,0.77-0.29c0.2-0.21,0.23-0.38-0.14-0.45c-0.79-0.15-1.35-0.56-1.73-1.31
			c-0.2-0.38-0.64-0.76-1.16-0.26c-0.26,0.25-0.54,0.41-0.89,0.17c-0.18-0.12-0.26-0.28-0.21-0.5c0.09-0.37,0.25-0.62,0.7-0.7
			c0.23-0.04,0.51,0.11,0.7-0.14c0.27-0.36,0.36-0.1,0.4,0.14c0.04,0.26,0.13,0.43,0.41,0.41c0.13-0.01,0.3,0.03,0.35-0.15
			c0.07-0.27-0.3-0.3-0.34-0.58c0.53-0.24,0.92,0.17,1.53,0.31c-0.53-1.1-1.5-0.79-2.33-0.99c0.31-0.41,0.2-0.89,0.24-1.34
			C8.94,14.47,9,14.29,9.2,14.28c0.23,0,0.09,0.2,0.12,0.3c0.19,0.51,0.58,0.32,0.85,0.14c0.51-0.36,1.04-0.62,1.66-0.7
			c0.08-0.01,0.22-0.08,0.22-0.08c-0.17-0.64,0.2-1.22,0.37-1.84c0.14,0.05,0.59,0.74,0.77-0.22c0.03-0.15,0.76-0.37,1.17-0.49
			c0.37-0.11,0.54-0.34,0.84-0.69C15.24,11.42,15.69,11.37,16.14,11.34z"/>
		<path class="st19" d="M34.46,48.32c-0.63,0.36-0.77,1.2-1.47,1.51c-0.12,0.05-0.14,0.33-0.21,0.51c-0.35,0.55-1,0.67-1.69,0.27
			c-0.29-0.16-0.52-0.38-0.91-0.23c-0.28,0.11-0.49-0.1-0.55-0.36c-0.07-0.28-0.16-0.61,0.29-0.69c0.38,0.16,0.73,0.36,0.54-0.37
			c-0.17-0.64,0.17-1.32-0.03-1.98c0.76,0.23,1.12-0.2,1.35-0.84c0.67-0.33,0.32-0.71,0.03-1.05c-0.42-0.48-1.04-0.72-1.42-1.26
			c-0.11-0.15-0.33-0.26-0.21-0.49c0.11-0.21,0.25-0.33,0.54-0.27c0.62,0.12,0.92-0.22,0.88-0.79c-0.04-0.51,0.3-0.9,0.35-1.37
			c0.03-0.25,0.13-0.44,0.4-0.46c0.27-0.01,0.38,0.18,0.45,0.42c0.12,0.43,0.31,0.79,0.86,0.73c0.24-0.03,0.54,0.08,0.62-0.26
			c0.06-0.25,0.04-0.52-0.21-0.67c-0.67-0.41-0.48-0.99-0.28-1.55c0.09-0.26,0.25-0.41,0.58-0.23c0.74,0.41,0.44-0.18,0.44-0.48
			c0.24-0.21,0.36-0.6,0.8-0.48c0.46,0.12,0.33,0.52,0.41,0.82c0.1,0.42,0.21,0.83,0.38,1.5c0.44-1.18,1.23-1.02,2.07-0.86
			c-0.3,0.37-0.67,0.69-0.55,1.28c0.05,0.22-0.36,0.32-0.6,0.13c-0.43-0.34-0.57,0-0.62,0.3c-0.06,0.37-0.21,0.6-0.55,0.76
			c-0.6,0.28-0.91,1.02-0.62,1.58c0.31,0.6,0.63,0.19,0.9-0.08c0.12-0.12,0.07-0.44,0.36-0.38c0.29,0.06,0.31,0.37,0.28,0.54
			c-0.1,0.67,0.09,0.74,0.59,0.36c0.13-0.1,0.26-0.27,0.39-0.02c0.11,0.23,0.58,0.4,0.34,0.67c-0.25,0.29-0.07,0.57-0.15,0.88
			c-0.5-0.09-0.94-0.24-1.34,0.31c-0.25,0.35-0.81,0.02-1.23-0.03c-0.02,0.07-0.06,0.12-0.05,0.16c0.14,0.36,0.34,0.72,0.09,1.11
			c-0.03,0.05-0.19,0.08-0.21,0.06c-0.28-0.34-0.6-0.66-0.8-1.05c-0.15-0.3,0.26-0.37,0.41-0.55c0.13-0.16,0.3-0.35,0.12-0.5
			c-0.15-0.13-0.41-0.16-0.62-0.18c-0.21-0.02-0.31,0.18-0.28,0.34c0.15,0.64-0.31,1.24-0.03,1.97
			C34.38,47.3,34.38,47.89,34.46,48.32z"/>
		<path class="st2" d="M16.14,45.8c0.51,0.27,0.66,1.19,1.57,0.73c0,0.42-0.21,0.55-0.49,0.61c-0.19,0.04-0.45,0.03-0.3,0.33
			c0.1,0.19,0.27,0.38,0.54,0.26c0.23-0.1,0.45-0.23,0.68-0.33c0.15-0.06,0.41-0.19,0.45-0.14c0.77,0.96,0.79-0.17,1.12-0.4
			c0.17-0.12,0.04-0.5,0.36-0.48c0.2,0.01,0.35,0.2,0.39,0.4c0.06,0.29,0.16,0.62-0.14,0.85c-0.15,0.11-0.36,0.14-0.53,0.23
			c-0.19,0.09-0.47,0.14-0.42,0.44c0.05,0.33,0.36,0.42,0.62,0.49c0.32,0.08,0.35-0.19,0.36-0.42c0.01-0.23,0.11-0.37,0.36-0.36
			c0.16,0.01,0.25,0.09,0.29,0.24c0.07,0.23-0.04,0.76,0.32,0.57c0.37-0.19,1.35,0.02,0.99-0.97c-0.01-0.03,0.03-0.09,0.07-0.17
			c0.17,0.1,0.33,0.2,0.49,0.3c0.15,0.28,0,0.59,0.08,0.88c0.05,0.19,0.1,0.39,0.32,0.43c0.26,0.04,0.38-0.15,0.49-0.35
			c0.16-0.3-0.05-0.65,0.12-0.96c0.11,0,0.22,0,0.34,0c0,0.11,0,0.22,0,0.34c0.27,0.28,0.18,0.62,0.15,0.95
			c-0.02,0.22,0.02,0.41,0.3,0.37c0.3-0.04,0.71-0.18,0.59,0.34c-0.08,0.35-0.3,0.77-0.8,0.68c-0.37-0.07-0.79-0.48-1.09-0.17
			c-0.29,0.31,0.18,0.69,0.27,1.06c0.05,0.21-0.14,0.45,0.07,0.63c-0.15,0.21,0.01,0.44-0.03,0.65c-0.04,0.21-0.28,0.44-0.39,0.27
			c-0.36-0.55-0.7-0.16-1.06-0.07c-0.52,0.14-0.88-0.35-0.79-1.02c0.03-0.26,0.41-0.67-0.07-0.75c-0.41-0.07-0.32,0.42-0.37,0.7
			c-0.04,0.21-0.18,0.34-0.34,0.46c-0.1,0.07-0.21,0.07-0.3-0.01c-0.22-0.21-0.13-1.48,0.11-1.78c0.13-0.16,0.45-0.29,0.26-0.53
			c-0.18-0.23-0.46-0.45-0.73-0.52c-0.26-0.07-0.31,0.25-0.34,0.47c-0.02,0.12-0.08,0.24-0.2,0.21c-0.09-0.02-0.23-0.14-0.23-0.21
			c0.12-1.15-0.5-0.41-0.85-0.33c-0.08,0.02-0.15,0.07-0.23,0.11c-0.03,0-0.08,0.01-0.08,0.01c-0.27-1.28-1.51-1.45-2.36-2.05
			c-0.04-0.03-0.06-0.09-0.08-0.15c-0.22-0.6,0.07-1.29-0.34-1.85C15.58,45.69,15.86,45.61,16.14,45.8z"/>
		<path class="st2" d="M29.92,49.33c-0.26,0.26-0.25,0.58-0.05,0.82c0.34,0.38,0.32-0.17,0.49-0.23c0.26-0.09,0.38,0.17,0.53,0.31
			c0.6,0.57,1.23,0.51,1.88,0.11c0.11,0.37,0.17,0.6-0.38,0.74c-0.81,0.21-1.29,0.88-1.69,1.61c-0.21,0.38-0.63,0.61-0.33,1.15
			c0.09,0.16-0.19,0.39-0.39,0.49c-0.49,0.23-1,0.42-1.6,0.67c0.13-0.57,0.61-0.68,0.83-1.01c0.14-0.2,0.26-0.38,0.09-0.6
			c-0.2-0.26-0.39-0.09-0.57,0.05c-0.58,0.44-1.47,0.44-1.78,1.26c-0.05,0.12-0.19,0.12-0.28,0.03c-0.43-0.47-1.05-0.79-1.27-1.42
			c-0.36-1.07-0.57-1.26-1.71-1.28c0.11-0.4-0.08-0.74-0.22-1.09c-0.06-0.16-0.07-0.34,0.1-0.45c0.13-0.09,0.27-0.03,0.39,0.04
			c0.05,0.03,0.09,0.07,0.14,0.09c1.4,0.69,1.9,0.51,2.52-0.9c0.35-0.79,0.39-0.81,1-0.24c0.29,0.27,0.67,0.41,0.94,0.69
			c0.42,0.44,0.39,0.76-0.14,1.05c-0.55,0.3-0.95,0.75-1.29,1.29c0.55,0.01,0.56,0.02,0.74-0.48c0.09-0.24,0.14-0.52,0.45-0.52
			c0.27,0.01,0.34,0.25,0.35,0.49c0,0.33,0.23,0.33,0.46,0.34c0.26,0.01,0.31-0.11,0.35-0.35c0.07-0.41,0.2-0.77-0.07-1.19
			c-0.31-0.48-0.25-1.08-0.3-1.63c-0.03-0.38,0.12-0.72,0.62-0.68C29.97,48.74,30.04,49.01,29.92,49.33z"/>
		<path class="st19" d="M29.75,48.49c-0.47,0.41-0.54,2-0.02,2.44c0.32,0.26,0.3,0.37,0.09,0.63c-0.24,0.32-0.32,0.66,0.35,1.06
			c-0.65-0.05-0.97-0.12-1.27-0.08c-0.41,0.05-0.61,0-0.44-0.45c0.07-0.2,0.13-0.44-0.15-0.44c-0.24-0.01-0.23,0.26-0.24,0.46
			c-0.03,0.31,0.08,0.76-0.46,0.69c-0.28-0.04-0.52,0.46-0.73,0.08c-0.17-0.31,0.08-0.77,0.28-0.88c0.48-0.27,0.66-0.88,1.29-1.01
			c0.52-0.1,0.21-0.45,0-0.66c-0.36-0.37-0.97-0.43-1.2-0.98c-0.07-0.17-0.35-0.14-0.34,0.09c0.04,0.59-0.44,0.89-0.67,1.31
			c-0.29,0.54-0.74,0.78-1.37,0.38c-0.38-0.24-0.99,0.04-1.17-0.82c-0.26,0.78,0.76,1.21-0.02,1.72c0,0.06,0,0.11,0,0.17
			c-0.26-0.55-0.74-1.11-0.73-1.66c0.01-0.6,0.74-0.45,1.07-0.23c0.71,0.46,0.86-0.06,1.14-0.46c-0.23-0.21-0.33,0-0.47,0.05
			c-0.5,0.21-0.73,0-0.61-0.49c0.09-0.36,0.08-0.72,0.1-1.08c0.11,0,0.28,0.04,0.33-0.01c0.6-0.8,1.69-0.7,2.36-1.35
			c0.14-0.14,0.23-0.33,0.46-0.28c0.26,0.06,0.18,0.3,0.22,0.48c0.07,0.37,0.45,0.69,0.07,1.14c-0.13,0.16,0.2,0.34,0.44,0.35
			c0.45,0.02,0.8-0.19,1.12-0.47c0.14-0.12,0.21-0.4,0.44-0.24C29.83,48.05,29.73,48.3,29.75,48.49z"/>
		<path class="st9" d="M24.04,38.07c-0.19-0.47-0.2-0.96,0.14-1.33c0.26-0.28,0.68-0.44,1.07-0.3c0.45,0.16,0.27,0.61,0.31,0.95
			C25.41,38.44,24.59,37.96,24.04,38.07z"/>
		<path class="st2" d="M11.09,39.75c0.4-0.25,0.56,0,0.64,0.33c0.15,0.65-0.19,1.17-0.53,1.65c-0.08,0.11-0.31,0.41-0.54,0.27
			c-0.42-0.26-0.18-0.71-0.24-1.07C10.81,40.63,10.76,40.08,11.09,39.75z"/>
		<path class="st4" d="M31.77,46.14c0,0.41,0.07,0.84-0.38,1.09c-0.4,0.23-0.67-0.08-0.96-0.25c-0.03-0.49-0.01-0.95,0.53-1.19
			C31.37,45.6,31.65,45.67,31.77,46.14z"/>
		<path class="st4" d="M13.28,31.89c0.05,0.53-0.34,0.74-0.82,0.78c-0.47,0.04-0.66-0.37-0.65-0.72c0.01-0.58,0.56-0.65,0.98-0.73
			C13.21,31.14,13.27,31.49,13.28,31.89z"/>
		<path class="st20" d="M25.88,30.16c-0.02,0.16-0.02,0.45-0.27,0.39c-0.32-0.09-0.59-0.36-0.66-0.68
			c-0.06-0.26,0.21-0.36,0.45-0.35C25.8,29.52,25.89,29.79,25.88,30.16z"/>
		<path class="st4" d="M27.23,40.59c-0.09-0.44,0.26-0.6,0.5-0.84c0.43,0.04,0.6,0.32,0.46,0.68
			C27.99,40.94,27.59,40.75,27.23,40.59z"/>
		<path class="st2" d="M9.75,40.93c-0.14,0-0.26-0.03-0.34-0.17c0.04-0.07,0.06-0.16,0.11-0.22c0.1-0.13,0.01-0.47,0.31-0.37
			c0.33,0.12,0.09,0.35,0.03,0.54C9.83,40.78,9.79,40.85,9.75,40.93z"/>
		<path class="st11" d="M11.26,24.29c0.96-0.28,0.87,0.48,1.01,1.01C11.12,25.28,10.98,25.14,11.26,24.29z"/>
		<path class="st0" d="M12.44,26.3c0.05,0.17,0.27,0.38,0.04,0.5c-0.3,0.17-0.28-0.35-0.54-0.33C12.06,26.27,12.25,26.31,12.44,26.3
			z"/>
		<path class="st12" d="M15.63,47.65c0.85,0,1.3,0.98,2.21,0.9c0.25-0.02,0.29,0.26,0.21,0.52c-0.09,0.26-0.15,0.54,0.11,0.77
			c-0.05,0.56-0.57,1.07-0.17,1.68c-0.67-0.08-0.79-0.41-0.45-0.97c0.09-0.15,0.3-0.36,0.08-0.5c-0.16-0.11-0.38-0.22-0.63-0.12
			c-0.57,0.22-1.02,0.48-0.87,1.23c0.1,0.49-0.07,0.77-0.62,0.52c-0.23-0.11-0.39,0.01-0.6,0.11c-0.38,0.18-0.79,0.23-0.99-0.32
			c-0.09-0.25-0.21-0.61-0.57-0.26c-0.21,0.22-0.73,0.45-0.12,0.81c0.13,0.08,0.23,0.16,0.16,0.33c-0.06,0.16-0.21,0.16-0.35,0.16
			c-0.22,0.01-0.43,0-0.64-0.13c-0.24-0.14-0.41-0.67-0.7-0.39c-0.29,0.29-0.07,0.73,0.23,1.02c-0.04,0.3-0.15,0.58-0.49,0.56
			c-0.29-0.02-0.5-0.22-0.52-0.56c-0.04-0.89-0.55-1.57-1.03-2.25c-0.33-0.46-0.59-0.86-0.26-1.52c-0.7,0.17-1-0.17-1.04-0.69
			c-0.04-0.49-0.43-0.7-0.67-1.02C7.51,47,7.42,46.5,7.9,45.97c0.32-0.14,0.61-0.71,0.97-0.23c0.31,0.42,1.31,0.48,0.76,1.43
			c-0.22,0.38-0.06,0.87,0.42,1.14c0.29,0.16,0.54,0.37,0.85,0.57c-0.27,0.24-0.51,0.43-0.71,0.64c-0.1,0.1-0.12,0.26-0.01,0.38
			c0.12,0.12,0.26,0.09,0.38,0.01c0.43-0.28,0.7-1.03,1.44-0.49c0.08,0.05,0.28-0.17,0.2-0.37c-0.04-0.1-0.12-0.19-0.21-0.26
			c-0.53-0.44-0.8-0.99-0.34-1.58c0.53-0.7,0.88,0.1,1.3,0.26c0.06,0.17,0.11,0.34,0.17,0.5c-0.13,0.1-0.31,0.14-0.36,0.32
			c-0.11,0.34,0.37,1.77,0.66,1.99c0.14,0.1,0.27,0.19,0.45,0.19c0.54-0.02,1.37-1.11,1.26-1.66C14.9,48.26,14.88,47.79,15.63,47.65
			z"/>
		<path class="st12" d="M61.18,44.29c-0.17,0.06-0.34,0.11-0.5,0.17c-0.66,0.31-0.52,0.98-0.67,1.51c0,0.06,0,0.11,0,0.17
			c-0.46,0.26-0.91,0.53-1.18,1.01c-0.23,0.11-0.39,0.28-0.5,0.5c-0.43,0.81-1.33,1.16-1.85,1.83c-0.3,0.39-0.3,0.78-0.78,0.19
			c-0.18-0.22-0.45-0.42-0.69,0.07c-0.27,0.54-0.91,0.43-1.39,0.59c-0.11,0-0.22,0-0.34,0c-0.17-0.13-0.28-0.28-0.17-0.5
			c0.38-0.8-0.1-1.54-0.19-2.3c-0.02-0.2-0.15-0.38-0.35-0.43c-0.22-0.05-0.23,0.17-0.31,0.31c-0.29,0.5-0.87,0.67-1.26,1.07
			c-0.48,0.49-0.77,1.01-0.75,1.7c0.02,0.51,0.01,0.95-0.7,0.54c-0.15-0.08-0.42-0.21-0.62-0.02c-0.14,0.14-0.24,0.36-0.41,0.02
			c-0.14-0.26,0.03-0.31,0.22-0.42c0.16-0.09,0.27-0.27,0.38-0.43c0.21-0.31-0.02-0.5-0.24-0.59c-0.31-0.14-0.28,0.15-0.3,0.33
			c-0.02,0.23-0.04,0.47-0.33,0.5c-0.22,0.02-0.35-0.17-0.45-0.33c-0.21-0.34-0.44-0.62-0.83-0.8c-0.48-0.22-0.17-0.56-0.07-0.85
			c0.08-0.22,0.31-0.49-0.09-0.61c-0.21-0.06-0.46-0.24-0.66,0.21c-0.16,0.36-0.71,0.49-0.69,1.07c0.01,0.29-0.41,0.16-0.64,0.21
			c-0.25,0.05-0.51,0.1-0.6,0.39c-0.08,0.28,0.06,0.48,0.3,0.62c0.25,0.14,0.45,0.38,0.12,0.56c-0.23,0.13-0.47,0.72-0.87,0.16
			c-0.29-0.41-0.65-0.77-0.89-1.2c-0.17-0.31-0.33-0.54-0.69-0.44c-0.28,0.08-0.58,0.06-0.75,0.51c-0.32,0.88-0.65,1.82-1.6,2.31
			c-0.15,0.08-0.21,0.33-0.43,0.13c-0.17-0.15-0.37-0.32-0.07-0.53c0.2-0.14,0.25-0.3,0.1-0.49c-0.2-0.25-0.32,0.01-0.48,0.08
			c-0.65,0.26-1.09-0.32-1.63-0.47c-0.33-0.09-0.59-0.4-0.89-0.61c-0.03-0.19-0.38-0.36-0.21-0.49c0.66-0.49,0.79-1.31,1.28-1.89
			c0.12-0.15,0.29-0.27,0.38-0.43c0.34-0.63,0.81-0.72,1.15-0.1c0.24,0.44,0.47,0.37,0.68,0.14c0.29-0.32,0.84-0.33,0.97-0.84
			c0.04-0.15,0.19-0.18,0.35-0.13c0.13,0.04,0.32,0.15,0.4,0.09c0.76-0.53,1.08-0.22,1.29,0.56c0.07,0.28,0.29,0.05,0.46-0.05
			c0.53-0.29,0.86-0.81,1.45-1.11c-0.15,0.37-0.27,0.76-0.47,1.1c-0.17,0.28-0.21,0.5,0.01,0.75c0.21,0.24,0.17,0.89,0.67,0.65
			c0.44-0.21,0.79-0.65,1.11-1.05c0.09-0.11-0.09-0.39-0.36-0.23c-0.17,0.1-0.32,0.24-0.57,0.02c0.29-0.31,0.49-0.63,0.17-1.1
			c-0.13-0.2-0.21-0.69,0.33-0.77c0.43-0.06,0.69,0.11,0.79,0.55c0.05,0.23-0.09,0.51,0.23,0.74c0.13-0.44,0.24-0.85,0.36-1.25
			c0.03-0.11,0.07-0.21-0.02-0.3c-0.29-0.28-0.28-1.35,0.01-1.61c0.23-0.21,0.37,0.01,0.47,0.15c0.09,0.13,0.17,0.32,0.14,0.46
			c-0.21,1.09,0.39,1.1,1.17,0.92c0.14-0.03,0.38,0.08,0.39-0.17c0.01-0.16-0.09-0.3-0.25-0.41c-0.97-0.67-1.19-1.56-0.64-2.52
			c0.07-0.12,0.15-0.24,0.17-0.37c0.05-0.3,0.22-0.69,0.47-0.48c0.24,0.2,0.93,0.37,0.53,0.97c-0.3,0.46-0.39,0.87,0.28,1.2
			c0.07-0.49,0.17-0.95,0.81-0.98c0.24-0.01,0.26-0.32,0.28-0.55c0.02-0.43-0.14-0.91,0.36-1.21c0.09-0.05,0.13-0.22,0.02-0.29
			c-0.64-0.38-0.29-1.27-0.9-1.68c-0.19-0.13-0.14-0.4-0.04-0.62c0.07-0.16,0.09-0.35-0.13-0.4c-0.23-0.06-0.25,0.14-0.33,0.29
			c-0.11,0.24-0.15,0.62-0.49,0.6c-0.36-0.03-0.4-0.42-0.5-0.7c-0.12-0.36-0.3-0.62-0.65-0.82c-0.7-0.41-1.04-0.97-0.6-1.79
			c0.09-0.17,0.34-0.39,0.07-0.58c-0.2-0.14-0.43-0.01-0.63,0.09c-0.34,0.16-0.73,0.37-0.84-0.21c-0.06-0.32,0.35-0.53,0.55-0.54
			c1.44-0.12,0.65-0.84,0.42-1.42c0.13,0.04,0.31,0.04,0.39,0.13c0.5,0.58,0.82,0.53,1.03-0.22c0.05-0.17,0.23-0.26,0.41-0.19
			c0.21,0.08,0.18,0.26,0.11,0.42c-0.1,0.23-0.14,0.5,0.05,0.62c0.9,0.6,1.22,1.69,2.03,2.36c0.32,0.26,0.53,0.3,0.67-0.14
			c0.07-0.22,0.14-0.48,0.44-0.36c0.28,0.11,0.09,0.32,0.04,0.5c-0.21,0.72,0.19,1.08,1.04,0.93c0.17-0.14,0.34-0.15,0.5,0
			c-0.08,0.38-0.14,0.76-0.26,1.12c-0.11,0.36-0.03,0.57,0.3,0.75c0.35,0.18,0.48,0,0.67-0.25c0.4-0.51,1.04-0.21,1.55-0.37
			c0.11-0.03,0.22,0.18,0.09,0.31c-0.25,0.26-0.1,0.57-0.04,0.83c-0.41,0.13-0.59-0.24-0.99-0.27c0.3,0.39,0.5,0.74,0.29,1.21
			c-0.17,0.36,0.12,0.4,0.35,0.27c0.68-0.38,1.35,0.21,1.45,0.47c0.2,0.55,0.83,1.23,0.13,1.89c-0.14,0.13-0.2,0.3-0.03,0.43
			c0.19,0.16,0.4,0.33,0.63,0.39c0.23,0.06,0.2-0.19,0.23-0.35c0.02-0.11,0-0.28,0.07-0.32c0.8-0.51,0.71-1.2,0.43-1.94
			c0.22-0.14,0.45-0.13,0.67,0c0.28,0,0.56,0,0.84,0c0.27,0.19,0.54,0.38,0.63,0.73c0.13,0.56,0.64,0.7,1.06,0.95
			c0.06,0.17,0.11,0.34,0.17,0.5c0.41,0.7,0.48,0.03,0.67-0.17c0-0.06,0-0.11,0-0.17c-0.11-0.3-0.09-0.68-0.47-0.81
			c-0.62-0.21-0.62-0.68-0.53-1.2c0-0.11,0-0.22,0-0.34c0.69-0.34,0.83,0.51,1.4,0.62c0.18-0.3,0.3-0.72,0.9-0.66
			c0.38,0.04,0.7-0.01,0.9,0.38c0.28,0.27,0.71,0.1,1.01,0.34c0.06,0.28,0.11,0.56,0.17,0.84c0,0.06,0,0.11,0,0.17
			c-0.33,0.76-0.33,0.76-1.21,0.12c-0.29,0.37-0.29,1.13-1.1,0.85c0.01,0.47,0.43,0.89,0.12,1.38c-0.18,0.25-0.05,0.47,0.04,0.7
			c0.04,0.11,0.05,0.22-0.05,0.31c-0.09,0.08-0.25,0.11-0.3,0.02c-0.48-0.95-1.42-0.51-2.15-0.72
			C61.34,44.24,61.26,44.24,61.18,44.29z"/>
		<path class="st9" d="M65.89,40.59c-0.43,0.17-0.8,0.17-1.01-0.34c0.36,0.09,0.59-0.62,1.01-0.17
			C65.89,40.25,65.89,40.42,65.89,40.59z"/>
		<path class="st8" d="M74.5,49.24c-0.33-0.44-1.17-0.72-0.48-1.47c0.1-0.11-0.09-0.3-0.2-0.31c-0.74-0.07-0.51-0.62-0.53-1.04
			c-0.01-0.17,0-0.35,0.21-0.41c0.19-0.05,0.32,0.07,0.43,0.2c0.23,0.26,0.36,0.56,0.37,0.91C74.32,47.82,74.68,48.49,74.5,49.24z"
			/>
		<path class="st8" d="M53.79,36.22c-0.17,0-0.34,0-0.5,0c-0.16-0.39-0.38-0.79,0.15-1.07c0.54-0.29,0.66,0.22,0.87,0.5
			c0.23,0.32,0.85,0.48,0.49,1.07c-0.07,0.11-0.12,0.27-0.3,0.23c-0.11-0.03-0.19-0.13-0.16-0.25
			C54.45,36.19,54.09,36.24,53.79,36.22z"/>
		<path class="st9" d="M64.88,40.25c-0.79-0.47-1.32-0.31-1.52,0.47c-0.02,0.1-0.06,0.23-0.14,0.27c-0.16,0.08-0.25-0.07-0.33-0.18
			c-0.31-0.42-0.57-0.92-1.21-0.9c0.29-0.51,0.57-0.15,0.79,0.05c0.28,0.26,0.46,0.25,0.77,0.01
			C63.87,39.52,64.56,39.67,64.88,40.25z"/>
		<path class="st9" d="M61.86,42.1c-0.57-0.09-1.08-0.25-1.18-0.93c-0.05-0.33-0.39-0.46-0.5-0.75c0.24,0,0.45,0.12,0.54,0.32
			C60.97,41.31,61.41,41.7,61.86,42.1z"/>
		<path class="st9" d="M61.69,40.25c0.09,0.5,0.2,0.97,0.76,1.21c0.31,0.13,0.25,0.51,0.25,0.81c-0.23-0.25-0.28-0.62-0.67-0.77
			C61.4,41.26,61.37,40.79,61.69,40.25z"/>
		<path class="st9" d="M62.7,42.44c0.02,0.32-0.05,0.67-0.38,0.71c-0.35,0.05-0.26-0.32-0.29-0.54
			C62.32,42.82,62.48,42.53,62.7,42.44z"/>
		<path class="st8" d="M74.39,51.96c-0.09,0.07-0.14,0.15-0.2,0.16c-0.05,0.01-0.11-0.06-0.16-0.1c0.05-0.05,0.09-0.12,0.15-0.14
			C74.23,51.87,74.29,51.92,74.39,51.96z"/>
		<path class="st9" d="M59.34,40.42c-0.22,0-0.45,0-0.67,0C58.89,39.99,59.11,40.19,59.34,40.42z"/>
		<path class="st8" d="M77.16,44.91c0.03,0.07,0.1,0.14,0.1,0.21c0,0.09-0.1,0.14-0.17,0.09c-0.05-0.04-0.06-0.14-0.07-0.22
			C77.02,44.97,77.1,44.94,77.16,44.91z"/>
		<path class="st20" d="M45.55,42.12c0.04,0.46-0.22,0.81-0.59,0.9c-0.39,0.1-0.67-0.29-0.72-0.65c-0.06-0.45-0.37-0.67-0.63-0.95
			c-0.26-0.28-0.39-0.6-0.07-0.87c0.31-0.27,0.65-0.13,0.86,0.18c0.21,0.32,0.45,0.55,0.8,0.7C45.51,41.56,45.57,41.82,45.55,42.12z
			"/>
		<path class="st12" d="M50.09,39.39c-0.06-0.09-0.13-0.15-0.13-0.21C49.95,39.07,50,38.96,50.13,39c0.05,0.01,0.09,0.12,0.09,0.19
			C50.22,39.24,50.15,39.3,50.09,39.39z"/>
		<path class="st12" d="M53.12,50.51c0.02,0.36-0.07,0.65-0.5,0.67c-0.13-0.41-0.47-0.57-0.84-0.67c-0.13-0.24-0.3-0.45-0.39-0.73
			c-0.11-0.33-0.15-0.65,0.13-0.83c0.33-0.21,0.38,0.2,0.52,0.37c0.17,0.21,0.59,0.12,0.58,0.51C52.8,50.05,53.03,50.22,53.12,50.51
			z"/>
		<path class="st9" d="M53.12,50.51c-0.3-0.12-0.57-0.27-0.5-0.67c0.17,0,0.34,0,0.5,0c0.06,0.17,0.11,0.34,0.17,0.5
			C53.23,50.39,53.17,50.45,53.12,50.51z"/>
		<path class="st9" d="M51.77,50.51c0.48-0.03,0.95-0.04,0.84,0.67c-0.31-0.12-0.45-0.52-0.84-0.5
			C51.77,50.62,51.77,50.56,51.77,50.51z"/>
		<path class="st9" d="M63.87,43.95c0.01-0.48-0.09-0.93-0.4-1.32c-0.09-0.12-0.29-0.24-0.09-0.41c0.18-0.16,0.28,0.04,0.41,0.13
			c0.47,0.34,0.63,0.02,0.75-0.37c0.07-0.22-0.13-0.59,0.2-0.63c0.28-0.04,0.44,0.29,0.61,0.51c0.07,0.09,0.12,0.18,0.21,0.34
			c0.23-0.17,0.21-0.55,0.5-0.61c0,0.03,0.01,0.06,0,0.08c-0.13,0.38,0.45,0.89-0.05,1.14c-0.48,0.24-0.55-0.4-0.81-0.64
			c-0.13-0.12-0.32-0.24-0.4-0.03c-0.18,0.49-1.07,0.66-0.65,1.44C64.23,43.74,64.03,43.87,63.87,43.95z"/>
		<path class="st9" d="M53.62,50.34c0.21-0.27,0.59-0.13,0.83-0.33c0.11-0.09,0.27-0.11,0.36-0.21c0.55-0.63,0.54-0.64,1.25,0.07
			c0.01,0.01,0.05,0,0.14-0.01c0.06-0.66,0.44-1.08,1.12-1.19c0.28-0.04,0.34-0.24,0.34-0.48c0-0.45,0.29-0.56,0.67-0.54
			c-0.34,0.66-0.54,1.46-1.49,1.52c-0.05,0-0.12,0.06-0.13,0.1c-0.18,0.81-0.45,1.36-1.25,0.44c-0.03-0.03-0.24,0.03-0.28,0.09
			C54.8,50.4,54.2,50.35,53.62,50.34z"/>
		<path class="st9" d="M61.18,44.29c0.93-0.15,1.87-0.32,2.55,0.68c0.16-0.4-0.23-0.75,0.14-1.01c0,0.08,0,0.17,0.01,0.25
			c0.03,0.29,0.35,0.63,0.01,0.85c-0.38,0.24-0.59-0.1-0.79-0.39c-0.17-0.24-0.44-0.19-0.69-0.2C62,44.44,61.57,44.53,61.18,44.29z"
			/>
		<path class="st9" d="M60.01,45.97c-0.23-0.8-0.01-1.31,0.67-1.51c-0.12,0.24-0.46,0.49,0.04,0.7c0.16,0.07,0.29,0.19,0.22,0.39
			c-0.09,0.23-0.26,0.25-0.48,0.16C60.21,45.6,60.18,45.9,60.01,45.97z"/>
		<path class="st9" d="M58.83,47.15c0.15-0.62,0.6-0.88,1.18-1.01C59.62,46.47,59.22,46.81,58.83,47.15z"/>
		<path class="st11" d="M56.48,53.53c-0.34,0.3-0.67,0.56-1.01,0C55.81,53.53,56.14,53.53,56.48,53.53z"/>
		<path class="st9" d="M61.86,45.02c-0.05,0.08-0.08,0.18-0.14,0.19c-0.14,0.04-0.18-0.08-0.17-0.19c0.01-0.06,0.09-0.14,0.14-0.14
			C61.74,44.88,61.79,44.96,61.86,45.02z"/>
		<path class="st12" d="M19.33,51.01c0.64,0.27,0.33,0.74,0.19,1.12c-0.17,0.48-0.24,0.89,0.24,1.26c0.3,0.23,0.32,0.63,0.41,0.98
			c0.11,0.44,0.19,0.55,0.63,0.18c0.72-0.63,1.48-1.3,2.56-1.19c0.01,0.27-0.03,0.53-0.39,0.49c-1.03-0.11-1.45,0.68-1.92,1.35
			c-0.17,0.25-0.32,0.45-0.61,0.48c-0.27,0.03-0.37-0.19-0.48-0.39c-0.41-0.68-0.51-1.52-1.21-2.05c-0.23-0.18,0-0.5,0.15-0.67
			C19.3,52.11,19.37,51.58,19.33,51.01z"/>
		<path class="st2" d="M23.7,53.36c0.14,0,0.27,0,0.41,0c0.2,0,0.4,0.04,0.4,0.3c0,0.1-0.03,0.24-0.1,0.29
			c-0.15,0.12-0.31,0.03-0.45-0.07c-0.09-0.07-0.18-0.12-0.27-0.18C23.7,53.59,23.7,53.48,23.7,53.36z"/>
		<path class="st2" d="M18.44,50.66c0.05-0.32,0.24-0.45,0.52-0.56C19,50.5,18.83,50.65,18.44,50.66z"/>
		<path class="st2" d="M15.13,48.83c0.5,0.21,0.7,0.44,0.12,0.83c-0.29,0.2-0.51,0.51-0.78,0.75c-0.24,0.21-0.54,0.58-0.84,0.3
			c-0.3-0.28-0.98-0.33-0.79-1.01c0.08-0.3-0.16-0.52-0.26-0.77c-0.24-0.56-0.17-0.93,0.54-0.93c-0.03,0.12-0.14,0.28,0.08,0.32
			c0.28,0.05,0.48-0.1,0.64-0.31c0.13-0.17,0.08-0.36-0.07-0.44c-0.5-0.23-0.3-0.77-0.51-1.14c-0.12-0.21-0.09-0.72,0.28-0.86
			c0.28-0.11,0.64,0.02,0.82,0.28c0.17,0.23,0.45,0.44,0.41,0.8c-0.31,0.19-0.47-0.54-0.74-0.17c-0.21,0.28,0.07,0.58,0.19,0.85
			c0.25,0.55,0.56,1.09-0.33,1.4c-0.33,0.12-0.32,0.42-0.09,0.68c0.22,0.25,0.39,0.17,0.5-0.09C14.45,48.95,14.86,49.01,15.13,48.83
			z"/>
		<path class="st4" d="M16.14,45.8c-0.28,0.03-0.56,0.24-0.84,0c-0.05-0.16-0.13-0.32-0.13-0.48c0-0.49,0.21-0.89,0.7-1
			c0.46-0.11,0.76,0.25,0.88,0.61C16.92,45.42,16.63,45.71,16.14,45.8z"/>
		<path class="st20" d="M23.87,47.99c0.27,0.56,0.29,1.07-0.25,1.5c-0.19,0.16-0.41,0.25-0.6,0.05c-0.42-0.47-0.44-1-0.17-1.55
			C23.2,47.93,23.53,47.71,23.87,47.99z"/>
		<path class="st20" d="M14.79,42.61c0,0.41,0.02,0.81-0.56,0.83c-0.48,0.02-0.65-0.25-0.62-0.68c0.03-0.47,0.18-0.94,0.71-0.96
			C14.86,41.78,14.78,42.26,14.79,42.61z"/>
		<path class="st20" d="M17.29,40.78c0.38,0.13,0.56,0.4,0.53,0.82c-0.02,0.28-0.14,0.52-0.45,0.47c-0.42-0.07-0.57-0.39-0.55-0.8
			C16.83,40.98,16.95,40.79,17.29,40.78z"/>
		<path class="st0" d="M22.12,30.61c-0.08,0.17-0.13,0.39-0.37,0.37c-0.17-0.01-0.23-0.14-0.19-0.3c0.04-0.18,0.15-0.29,0.33-0.31
			C22.05,30.35,22.15,30.42,22.12,30.61z"/>
		<path class="st0" d="M18.21,13.52c0.19,0.03,0.48,0.06,0.34,0.24c-0.23,0.31-0.43,0.72-0.9,0.76c-0.15,0.01-0.34-0.08-0.26-0.21
			C17.6,13.99,17.76,13.57,18.21,13.52z"/>
		<path class="st0" d="M12.67,26.05c0.35-0.55,0.73-0.49,0.97-0.32c0.27,0.2,0.2,0.53-0.06,0.82
			C13.36,26.25,13.44,25.55,12.67,26.05z"/>
		<path class="st0" d="M16.89,15.96c-0.21-0.09-0.35-0.22-0.36-0.38c-0.01-0.23,0.16-0.35,0.38-0.34c0.17,0,0.36,0.08,0.29,0.29
			C17.13,15.69,16.99,15.82,16.89,15.96z"/>
		<path class="st10" d="M36.59,44.62c-0.03,0.17-0.12,0.28-0.27,0.28c-0.24,0-0.33-0.17-0.33-0.39c0.01-0.15,0.09-0.3,0.24-0.27
			C36.44,44.26,36.56,44.42,36.59,44.62z"/>
		<path class="st9" d="M61.16,42.68c-0.01,0.12-0.07,0.23-0.19,0.19c-0.09-0.02-0.19-0.13-0.21-0.21c-0.03-0.12,0.08-0.19,0.2-0.19
			C61.07,42.47,61.14,42.56,61.16,42.68z"/>
		<path class="st10" d="M48.12,35.53c-0.07,0.04-0.14,0.1-0.2,0.1c-0.15,0.01-0.17-0.11-0.14-0.21c0.02-0.05,0.1-0.08,0.16-0.13
			C47.98,35.35,48.02,35.4,48.12,35.53z"/>
	</g>
</g>
</svg>
