<?xml version="1.0" encoding="utf-8"?>
<!-- Generator: Adobe Illustrator 25.0.1, SVG Export Plug-In . SVG Version: 6.00 Build 0)  -->
<svg version="1.1" id="Layer_1" xmlns="http://www.w3.org/2000/svg" xmlns:xlink="http://www.w3.org/1999/xlink" x="0px" y="0px"
	 viewBox="0 0 14.73 40.04" style="enable-background:new 0 0 14.73 40.04;" xml:space="preserve">
<style type="text/css">
	.st0{fill:#426067;}
</style>
<path class="st0" d="M10.22,3.67c-1,0.86-1.79,2.06-2.09,3.36c-0.7,0.36-1.35,0.76-1.94,1.2c0.78-1.75,0.94-3.72,0.48-5.67
	C6.64,2.42,6.43,2.31,6.3,2.41C4.05,4.14,3.14,7.14,4.25,9.79c0.03,0.07,0.08,0.12,0.14,0.14c-1.58,1.95-2.15,4.42-1.04,7.37
	c0.79,2.11,2.31,3.85,3.86,5.43c1.07,1.1,2.21,2.16,3.01,3.48c0.64,1.07,1.06,2.56,0.8,3.82c-0.2,0.94-0.96,1.5-1.83,1.7
	c-0.33-1.66-1.41-2.99-3.46-2.63c-0.36,0.06-0.27,0.62,0.08,0.62h0.01c-0.49,1.45,0.42,3.1,2.06,3.4c0.27,0.05,0.54,0.06,0.79,0.03
	c-0.4,2.92-3.39,6.14-5.71,2.69c-0.1-0.14-0.38-0.06-0.3,0.13c1.29,3.16,4.94,1.91,6.13-0.62C9.11,34.68,9.28,33.84,9.3,33
	c1.45-0.5,2.46-2.11,2.58-3.6c0.24-3.18-2.43-5.45-4.4-7.52c-1.91-2-3.77-4.37-3.94-7.27c-0.03-0.5,0.01-0.97,0.08-1.41
	c0.05,0.02,0.1,0.02,0.16,0.01c0.03-0.01,0.06-0.01,0.08-0.02c1,0.66,2.19,0.91,3.39,0.72c0.86-0.13,3.13-0.89,3.08-2.05
	c0-0.39-0.37-0.53-0.69-0.69c-0.9-0.44-2.09-0.68-3.09-0.64c-0.9,0.03-1.78,0.37-2.38,1C5,9.93,6.54,8.77,8.21,7.77
	C8.35,7.84,8.53,7.8,8.59,7.6C8.6,7.58,8.61,7.55,8.61,7.53c0,0,0,0,0.01,0c1.33,0.36,2.63-0.46,3.44-1.49
	c0.52-0.66,0.9-1.42,1.22-2.19c0.17-0.41,0.39-0.95,0-1.32C12.52,1.81,10.79,3.19,10.22,3.67z M6.33,29.78
	c1.41,0.16,2.11,1,2.32,2.05C7.3,31.93,5.97,31.21,6.33,29.78z M8.8,12.74c-1.33,0.86-2.92,0.9-4.32,0.33
	c1.58-0.35,3.18-0.45,4.77-0.7C9.16,12.48,9.02,12.6,8.8,12.74z M6.79,11.14c0.5,0.01,1.29,0.09,1.78,0.33
	c0.28,0.14,0.5,0.27,0.63,0.4c-1.64-0.14-3.43,0.23-5,0.66C4.72,11.59,5.71,11.13,6.79,11.14z M4.7,9.58
	C3.93,7.53,4.29,5.3,5.68,3.69C5.31,5.6,4.97,7.6,4.76,9.52C4.74,9.54,4.72,9.56,4.7,9.58z M5.17,9.1c0.59-1.85,0.94-3.97,1-5.87
	c0-0.01,0-0.03-0.01-0.04c0.04-0.03,0.07-0.07,0.1-0.1c0.39,2.02,0.08,3.99-0.83,5.76C5.34,8.93,5.25,9.02,5.17,9.1z M9.83,4.99
	c0.52-0.65,1.35-1.47,2.19-1.77c-0.99,1.17-2,2.27-3.08,3.35C9.17,6,9.45,5.47,9.83,4.99z M12.45,4.12
	c-0.21,0.43-0.43,0.87-0.71,1.27C11.04,6.41,10.07,7,8.88,7.1c1.46-1.05,2.81-2.45,3.79-3.95C12.9,3.28,12.62,3.75,12.45,4.12z"/>
</svg>
