<?xml version="1.0" encoding="utf-8"?>
<!-- Generator: Adobe Illustrator 25.0.1, SVG Export Plug-In . SVG Version: 6.00 Build 0)  -->
<svg version="1.1" xmlns="http://www.w3.org/2000/svg" xmlns:xlink="http://www.w3.org/1999/xlink" x="0px" y="0px"
	 viewBox="0 0 32 32" style="enable-background:new 0 0 32 32;" xml:space="preserve">
<style type="text/css">
	.st0{display:none;}
	.st1{display:inline;}
	.st2{fill:#426067;}
</style>
<g id="Layer_1">
	<g id="Layer_6" class="st0">
		<g class="st1">
			<g>
				<path class="st2" d="M17,30.7c-6.9,0-12.9-5.1-13.9-12.1C2,10.9,7.4,3.8,15,2.8C22.7,1.7,29.8,7,30.9,14.7
					c1.1,7.7-4.3,14.8-11.9,15.8C18.3,30.6,17.6,30.7,17,30.7z M17,2.9c-0.6,0-1.3,0-1.9,0.1C7.5,4.1,2.3,11,3.3,18.6
					s8,12.8,15.6,11.7c7.5-1.1,12.8-8,11.7-15.6C29.7,7.9,23.7,2.9,17,2.9z"/>
			</g>
		</g>
	</g>
	<g id="Layer_5" class="st0">
		<g class="st1">
			<g>
				<g>
					<g>
						<path class="st2" d="M6.7,26.2C6.5,26.1,6.3,26,6,25.9c-0.5-0.2-0.7-0.5-0.8-1.1c0-0.5-0.1-0.9-0.1-1.4c0-0.3-0.2-0.6-0.4-0.9
							c-0.2-0.2-0.4-0.3-0.6-0.2c-0.2,0.1-0.2,0.3-0.3,0.5c-0.1,0.6,0.1,1.2,0.3,1.7c-0.5-0.5-0.8-1-1.2-1.6
							c-0.2-0.4-0.5-0.7-0.5-1.1c0-0.6-0.2-1.1-0.4-1.6c-0.2-0.7-0.6-1.3-1.2-1.6c-0.2-0.1-0.4-0.2-0.6,0c-0.2,0.2-0.2,0.4-0.1,0.6
							c0.2,0.4,0.3,0.8,0.6,1.1c0.2,0.2,0.4,0.5,0.7,0.8c0,0,0.1,0.1,0,0.1c0,0-0.1,0-0.1-0.1C1.2,21,1,20.9,0.8,20.8
							c-0.2,0-0.4-0.1-0.5,0.1c-0.1,0.2-0.1,0.3,0,0.5c0.1,0.2,0.2,0.4,0.4,0.5c0.3,0.2,0.6,0.4,0.9,0.5c0.6,0.2,1,0.6,1.4,1
							c0.5,0.7,1.1,1.4,1.8,2c0.1,0.1,0.2,0.1,0.2,0.2c-0.1,0.1-0.2,0.1-0.3,0.1c-0.4-0.1-0.8-0.2-1.1-0.5c-0.4-0.3-0.8-0.4-1.3-0.5
							c-0.2,0-0.4,0-0.6,0.2c-0.1,0.2,0,0.4,0.1,0.6c0.2,0.3,0.5,0.5,0.9,0.6c0.8,0.2,1.6,0.1,2.3-0.2c0.2-0.1,0.3-0.1,0.5,0
							c0.4,0.3,0.9,0.5,1.4,0.7c0,0,0.1,0,0.1,0C6.9,26.5,6.9,26.4,6.7,26.2C6.8,26.3,6.8,26.3,6.7,26.2z"/>
					</g>
				</g>
			</g>
			<g>
				<g>
					<path class="st2" d="M13,29.7c-0.3-0.1-0.6-0.2-0.8-0.2c-0.5-0.1-0.7-0.3-0.7-0.8c0-0.1,0-0.2,0-0.3c0-0.4-0.1-0.9-0.3-1.3
						c-0.2-0.7-0.6-1.3-1.3-1.7C9.4,25.2,9,25.4,8.9,26c0,0.5,0.1,0.9,0.3,1.3c0.3,0.5,0.7,1,1.1,1.4c0.1,0.1,0.2,0.1,0.1,0.2
						c-0.1,0.1-0.2,0-0.2-0.1c-0.8-0.4-1.6-0.9-2.4-1.5C7.4,27,7.2,26.6,7.2,26c0-0.2,0-0.4-0.1-0.6c0-0.6-0.1-1.2-0.4-1.8
						c-0.1-0.3-0.3-0.5-0.5-0.6c-0.4-0.2-0.7-0.1-0.8,0.4c0,0.1,0,0.2,0,0.3c0.1,0.5,0.2,1,0.5,1.4c0.2,0.3,0.3,0.5,0.5,0.7
						c0.1,0.1,0.2,0.3,0.2,0.4c0,0.1-0.1,0.1-0.2,0.1c-0.1,0-0.2-0.1-0.2-0.1c0,0-0.1,0-0.1,0c0,0,0,0,0,0.1
						c0.2,0.2,0.4,0.3,0.5,0.4C6.8,26.8,7,26.9,7.1,27c0.3,0.2,0.6,0.4,0.9,0.6c0,0,0.1,0.1,0.1,0.1c0,0.1-0.1,0-0.1,0
						c-0.4,0-0.7-0.1-1.1-0.1c-0.5,0-1,0-1.5,0.3C5.2,28.1,5,28.3,5,28.5c0,0.3,0.1,0.4,0.4,0.5c0.5,0.3,0.9,0.2,1.4,0
						c0.4-0.2,0.8-0.5,1.3-0.6c0.3-0.1,0.7-0.2,1,0c0.7,0.4,1.5,0.7,2.2,1.1c0.5,0.3,1.1,0.4,1.7,0.5c0.1,0,0.3,0.1,0.3-0.1
						C13.3,29.8,13.1,29.8,13,29.7z"/>
				</g>
			</g>
		</g>
	</g>
	<g id="Layer_4" class="st0">
		<g class="st1">
			<g>
				<g>
					<path class="st2" d="M24.6,6.3c-0.5,0-0.9,0-1.4-0.2C23,6,22.8,5.9,22.7,5.7c-0.1-0.1-0.1-0.2-0.1-0.3s0.1-0.1,0.2-0.2
						c0.4-0.1,0.7-0.1,1,0l0,0c0.5,0.1,0.9,0.3,1.3,0.5c0.2,0.1,0.4,0.2,0.5,0.3c0,0,0,0,0.1,0C25.9,6,26,6.1,26,6.2
						c0,0.1-0.1,0.1-0.2,0.1c0,0-0.1,0-0.1,0c-0.1,0-0.2,0-0.3,0c0,0,0,0-0.1,0c-0.1,0-0.1,0-0.2,0C25,6.3,24.8,6.3,24.6,6.3z
						 M23.3,5.2c-0.1,0-0.3,0-0.4,0.1c-0.1,0-0.2,0.1-0.2,0.2c0,0.1,0,0.1,0.1,0.3C22.8,5.8,23,5.9,23.2,6c0.6,0.2,1.3,0.2,1.9,0.2
						c0.1,0,0.1,0,0.2,0l0,0c0,0,0,0,0.1,0c0.1,0,0.2,0,0.3,0c0,0,0.1,0,0.1,0c0.1,0,0.1,0,0.1,0c0,0,0-0.1-0.1-0.1c0,0,0,0-0.1,0
						c-0.2-0.1-0.4-0.2-0.6-0.3c-0.4-0.2-0.8-0.4-1.3-0.5l0,0C23.7,5.2,23.5,5.2,23.3,5.2z"/>
				</g>
			</g>
			<g>
				<g>
					<path class="st2" d="M27.7,4.5c0-0.1,0.1-0.2,0.2-0.3c0.2-0.2,0.6,0,0.7,0.3c0.1,0.4,0.1,0.7,0,1.1c-0.2,0.5-0.5,1-0.5,1.5
						c0,0,0,0.1,0,0.1c0,0-0.1,0-0.1-0.1C27.6,6.3,27.4,5.4,27.7,4.5z"/>
					<path class="st2" d="M27.9,7.3C27.9,7.3,27.9,7.2,27.9,7.3L27.9,7.3c-0.4-1-0.6-1.9-0.3-2.8l0,0c0-0.1,0.1-0.2,0.2-0.3
						c0.1-0.1,0.2-0.1,0.4-0.1c0.2,0.1,0.3,0.2,0.4,0.4c0.1,0.4,0.1,0.8,0,1.1c-0.2,0.4-0.5,1-0.5,1.5C28,7.2,28,7.3,27.9,7.3
						C27.9,7.3,27.9,7.3,27.9,7.3z M27.7,4.5c-0.3,0.9-0.1,1.8,0.2,2.7l0,0c0,0,0,0,0,0c0,0,0,0,0-0.1c0.1-0.6,0.3-1.1,0.5-1.5
						c0.2-0.3,0.2-0.7,0-1.1c-0.1-0.2-0.2-0.3-0.3-0.4c-0.1,0-0.2,0-0.3,0C27.8,4.3,27.7,4.3,27.7,4.5L27.7,4.5z"/>
				</g>
			</g>
			<g>
				<g>
					<path class="st2" d="M28.5,9.4c0,0-0.1,0-0.1-0.1c-0.5-0.3-1.1-0.4-1.7-0.4c-0.3,0-0.7-0.1-1-0.2c-0.1,0-0.2-0.1-0.2-0.1
						c0-0.1,0.1-0.1,0.2-0.2c0.3-0.1,0.5-0.1,0.8-0.1c0.7,0.1,1.3,0.5,1.9,0.9C28.5,9.3,28.5,9.3,28.5,9.4z"/>
					<path class="st2" d="M28.5,9.4L28.5,9.4c-0.1,0-0.1-0.1-0.1-0.1c-0.6-0.3-1.2-0.4-1.7-0.4l-0.1,0c-0.3,0-0.6-0.1-0.9-0.2
						c0,0,0,0,0,0c-0.1,0-0.1-0.1-0.1-0.1c0-0.1,0.1-0.2,0.2-0.2l0,0c0.3-0.1,0.5-0.1,0.8-0.1c0.7,0.1,1.3,0.5,1.9,0.9c0,0,0,0,0,0
						C28.5,9.3,28.6,9.3,28.5,9.4L28.5,9.4z M26.3,8.3c-0.2,0-0.3,0-0.5,0.1l0,0c-0.1,0-0.1,0.1-0.1,0.1c0,0.1,0,0.1,0.1,0.1
						c0,0,0,0,0,0c0.3,0.1,0.6,0.2,0.9,0.2l0.1,0c0.5,0,1.1,0.1,1.7,0.4c0,0,0,0,0.1,0l0,0c0,0,0,0,0,0c0,0,0,0,0,0
						c-0.6-0.4-1.2-0.8-1.9-0.9C26.4,8.3,26.4,8.3,26.3,8.3z"/>
				</g>
			</g>
			<g>
				<g>
					<path class="st2" d="M29.3,10.2C29.3,10.2,29.3,10.2,29.3,10.2L29.3,10.2c-0.3-0.1-0.5-0.1-0.8-0.1c-0.4,0-0.9,0-1.4-0.1
						c-0.6-0.1-1.1-0.4-1.4-0.8l0,0v0c0,0,0,0,0-0.1c0,0-0.1-0.1,0-0.2c0-0.1,0.1,0,0.2,0c0,0,0,0,0.1,0c0.3,0.1,0.6,0.1,0.9,0.1
						c1,0,1.8,0.5,2.5,1c0,0,0,0,0,0C29.4,10.1,29.4,10.1,29.3,10.2L29.3,10.2C29.4,10.2,29.4,10.2,29.3,10.2z M28.6,10.1
						c0.2,0,0.4,0,0.6,0.1l0,0c0.1,0,0.1,0,0.1,0c0,0,0,0-0.1-0.1c0,0,0,0,0,0c-0.7-0.5-1.5-1-2.5-1c-0.3,0-0.6-0.1-0.9-0.1
						c0,0,0,0-0.1,0c-0.1,0-0.1,0-0.1,0c0,0,0,0.1,0,0.1c0,0,0,0.1,0.1,0.1c0.3,0.4,0.8,0.7,1.4,0.8C27.7,10.1,28.2,10.1,28.6,10.1
						C28.6,10.1,28.6,10.1,28.6,10.1z"/>
				</g>
			</g>
			<g>
				<g>
					<g>
						<path class="st2" d="M22.1,4.2C22,4.1,21.9,4,21.9,3.8c0-0.2,0.1-0.2,0.3-0.2c0.1,0,0.2-0.1,0.4-0.1c0.7-0.1,1.3,0.1,1.9,0.5
							c0.1,0.1,0.2,0.1,0.3,0.2c0,0,0.1,0.1,0.1,0.1c0,0-0.1,0-0.1,0c-0.5,0-0.9,0.1-1.4,0.1C22.8,4.4,22.4,4.4,22.1,4.2z"/>
						<path class="st2" d="M23.3,4.4C23.2,4.4,23.2,4.4,23.3,4.4L23.3,4.4c-0.4,0-0.8,0-1.2-0.2c-0.2-0.1-0.2-0.2-0.2-0.4
							c0-0.2,0.2-0.2,0.3-0.3c0.1,0,0.2-0.1,0.4-0.1c0.6-0.1,1.2,0.1,1.9,0.5L24.5,4c0.1,0,0.1,0.1,0.2,0.1c0,0,0.1,0.1,0.1,0.1
							c0,0-0.1,0-0.1,0h0c-0.1,0-0.3,0-0.4,0C23.9,4.4,23.6,4.4,23.3,4.4z M22.8,3.5c-0.1,0-0.2,0-0.3,0c-0.1,0-0.3,0-0.4,0.1
							c-0.1,0-0.2,0.1-0.2,0.2c0,0.1,0.1,0.2,0.2,0.3l0,0c0.3,0.2,0.7,0.2,1.1,0.2h0c0.3,0,0.7,0,1,0c0.1,0,0.3,0,0.4,0h0
							c0,0,0.1,0,0.1,0c0,0,0,0-0.1-0.1c-0.1,0-0.1-0.1-0.2-0.1L24.4,4C23.8,3.7,23.3,3.5,22.8,3.5z"/>
					</g>
				</g>
				<g>
					<g>
						<path class="st2" d="M20.7,1.8c0,0,0.1,0.1,0.1,0.1c0,0.1-0.1,0-0.1,0c-0.6,0-1.3-0.1-1.9-0.3c-0.3-0.1-0.6-0.4-0.9-0.6
							c-0.1-0.1-0.2-0.3-0.1-0.4c0.1-0.2,0.3-0.2,0.4-0.1c0.2,0,0.4,0.1,0.5,0.2c0.4,0.3,0.9,0.4,1.2,0.7
							C20.2,1.5,20.5,1.7,20.7,1.8z"/>
						<path class="st2" d="M20.7,2C20.7,2,20.7,2,20.7,2C20.7,2,20.7,2,20.7,2c-0.6,0-1.3-0.1-1.9-0.4c-0.3-0.1-0.6-0.4-0.9-0.6l0,0
							c-0.2-0.1-0.2-0.3-0.1-0.5c0.1-0.2,0.3-0.2,0.5-0.1c0.2,0,0.4,0.1,0.5,0.2c0.2,0.1,0.4,0.2,0.5,0.3C19.5,1,19.8,1.1,20,1.3
							c0.1,0.1,0.2,0.1,0.3,0.2c0.2,0.1,0.3,0.2,0.4,0.3l0,0C20.8,1.8,20.8,1.8,20.7,2C20.8,1.9,20.8,1.9,20.7,2
							C20.7,2,20.7,2,20.7,2z M18,0.4c-0.1,0-0.2,0-0.2,0.1c-0.1,0.2,0.1,0.3,0.1,0.4l0,0c0.3,0.2,0.5,0.5,0.9,0.6
							c0.6,0.2,1.3,0.3,1.9,0.3c0,0,0,0,0,0c0,0,0.1,0,0.1,0c0,0,0,0,0,0c0,0-0.1-0.1-0.1-0.1l0,0c-0.1-0.1-0.3-0.2-0.4-0.3
							c-0.1-0.1-0.2-0.1-0.3-0.2c-0.2-0.2-0.4-0.3-0.7-0.4c-0.2-0.1-0.4-0.2-0.5-0.3c-0.2-0.1-0.3-0.2-0.5-0.2
							C18.1,0.4,18.1,0.4,18,0.4z"/>
					</g>
				</g>
				<g>
					<g>
						<path class="st2" d="M21.3,1.8c-0.4-0.4-0.9-0.6-1.2-1.1C20,0.6,19.9,0.4,20,0.2c0.1-0.1,0.3-0.1,0.5,0c0.1,0,0.1,0.1,0.2,0.1
							c0.2,0.2,0.4,0.4,0.5,0.7c0.2,0.3,0.3,0.7,0.6,0.9c0,0,0,0.1,0.1,0.1c0,0-0.1,0-0.1,0C21.6,2,21.5,1.9,21.3,1.8z"/>
						<path class="st2" d="M21.9,2.1L21.9,2.1C21.9,2.1,21.9,2.1,21.9,2.1c-0.1,0-0.1,0-0.2,0C21.6,2,21.5,2,21.4,1.9l-0.1-0.1
							c-0.1-0.1-0.2-0.2-0.3-0.3c-0.3-0.2-0.7-0.5-0.9-0.9l0,0c-0.1-0.1-0.2-0.3,0-0.5s0.4-0.1,0.5,0c0.1,0,0.1,0.1,0.2,0.1l0,0
							c0.2,0.2,0.4,0.5,0.5,0.7c0,0.1,0.1,0.1,0.1,0.2c0.1,0.3,0.3,0.5,0.5,0.7C21.9,2,21.9,2,21.9,2.1C21.9,2.1,21.9,2.1,21.9,2.1
							L21.9,2.1z M21.3,1.8L21.3,1.8c0.2,0.1,0.3,0.2,0.5,0.3c0,0,0,0,0,0c0,0,0,0,0,0c-0.2-0.2-0.4-0.5-0.5-0.7
							c0-0.1-0.1-0.1-0.1-0.2c-0.1-0.2-0.3-0.5-0.5-0.7l0,0c0,0-0.1-0.1-0.1-0.1c-0.2-0.1-0.4-0.1-0.5,0c-0.1,0.1,0,0.3,0.1,0.4l0,0
							c0.2,0.4,0.5,0.6,0.9,0.8C21.1,1.6,21.2,1.7,21.3,1.8z"/>
					</g>
				</g>
				<g>
					<g>
						<path class="st2" d="M24.2,2C24.1,1.8,24,1.6,24,1.3c0-0.2,0.1-0.3,0.3-0.2c0.1,0,0.2,0.1,0.2,0.1c0.5,0.3,0.8,1.5,0.7,2.1
							c0,0.1-0.1,0.1-0.1,0C24.8,2.9,24.5,2.5,24.2,2z"/>
						<path class="st2" d="M25.2,3.4C25.1,3.4,25.1,3.4,25.2,3.4C25,3.1,24.8,3,24.7,2.8c-0.2-0.2-0.4-0.5-0.5-0.8l0,0
							C24.1,1.8,24,1.5,24,1.3c0-0.1,0-0.2,0-0.2c0.1,0,0.1,0,0.2,0c0.1,0,0.1,0.1,0.2,0.1c0,0,0,0,0.1,0
							C25.1,1.5,25.4,2.7,25.2,3.4C25.2,3.3,25.2,3.4,25.2,3.4C25.2,3.4,25.2,3.4,25.2,3.4z"/>
					</g>
				</g>
			</g>
			<g>
				<g>
					<path class="st2" d="M30.3,11.7c-0.2-0.6-0.4-1.1-0.7-1.7c-0.4-0.7-0.8-1.4-1.3-2.1c-0.2-0.3-0.2-0.6-0.1-1
						c0.1-0.5,0.3-0.9,0.5-1.3c0.2-0.5,0.2-1-0.1-1.4C28.4,4.1,28.2,3.9,28,4c-0.3,0-0.4,0.2-0.5,0.4c-0.2,0.5-0.2,1-0.1,1.5
						c0.1,0.4,0.1,0.7,0.2,1.1c0,0,0.1,0.1,0,0.1c0,0-0.1,0-0.1-0.1c-0.2-0.3-0.5-0.5-0.7-0.8c-0.5-0.5-0.9-1.1-1.4-1.6
						c-0.2-0.2-0.1-0.3-0.1-0.5c0.2-0.8,0.2-1.6-0.1-2.3C25,1.5,24.8,1.2,24.5,1c-0.2-0.1-0.4-0.2-0.6-0.1c-0.2,0.2-0.2,0.4-0.1,0.6
						c0.1,0.4,0.4,0.8,0.7,1.2c0.3,0.3,0.5,0.7,0.6,1.1c0,0.1,0.1,0.2,0,0.3c-0.1,0.1-0.2-0.1-0.2-0.1c-0.6-0.7-1.4-1.2-2.2-1.6
						c-0.5-0.3-0.9-0.7-1.2-1.2c-0.1-0.3-0.3-0.6-0.6-0.8c-0.2-0.1-0.3-0.3-0.5-0.3c-0.2,0-0.4,0-0.5,0.1c-0.1,0.1-0.1,0.3,0,0.5
						c0.1,0.3,0.3,0.4,0.4,0.6c0,0,0.1,0.1,0.1,0.1c-0.1,0.1-0.1,0-0.2,0c-0.3-0.2-0.6-0.3-0.8-0.6c-0.3-0.3-0.8-0.4-1.1-0.5
						c-0.2-0.1-0.4-0.1-0.6,0.1c-0.2,0.2-0.1,0.4,0.1,0.6c0.4,0.6,1.1,0.9,1.7,1c0.5,0.1,1.1,0.2,1.6,0.2c0.4,0,0.8,0.2,1.2,0.4
						c0.6,0.2,1.2,0.6,1.7,1c-0.6-0.2-1.1-0.3-1.7-0.1c-0.2,0.1-0.4,0.1-0.5,0.3C21.7,4,21.8,4.2,22,4.3c0.3,0.2,0.6,0.3,0.9,0.3
						c0.5,0,1,0,1.4,0c0.4,0,0.8,0.1,1,0.4c0.2,0.2,0.4,0.5,0.6,0.7c0.1,0.1,0.1,0.2-0.1,0.2c-0.2,0-0.3-0.2-0.5-0.2
						c-0.3-0.1-0.5-0.3-0.8-0.4c-0.5-0.2-1-0.3-1.5-0.3c-0.1,0-0.2,0-0.3,0c-0.5,0.1-0.6,0.4-0.3,0.8c0.2,0.2,0.4,0.3,0.6,0.4
						c0.6,0.2,1.2,0.2,1.9,0.2c0.2,0,0.4,0,0.6,0c0.5,0,1,0.1,1.4,0.6c0.6,0.7,1.2,1.4,1.7,2.2c0,0.1,0.2,0.1,0.1,0.2
						c-0.1,0.1-0.1-0.1-0.2-0.1c-0.5-0.4-1-0.7-1.5-0.9c-0.4-0.2-0.9-0.3-1.4-0.2c-0.6,0.1-0.7,0.5-0.4,1c0.4,0.6,1.1,0.9,1.8,1.1
						c0.4,0.1,0.9,0.1,1.3,0.1c0.1,0,0.2,0,0.3,0c0.4,0,0.7,0.2,0.8,0.7c0.1,0.3,0.2,0.5,0.3,0.8c0,0.1,0.1,0.3,0.2,0.2
						C30.4,12,30.3,11.8,30.3,11.7z"/>
				</g>
			</g>
		</g>
	</g>
	<g id="Layer_3" class="st0">
		<g class="st1">
			<g>
				<g>
					<path class="st2" d="M19.1,31.9c0.1-0.1,0.1-0.2,0.1-0.4c-0.1-0.2-0.1-0.3-0.3-0.4c-0.5-0.5-1.1-0.7-1.7-0.9
						c0.4,0.4,0.8,0.9,1.1,1.3c0.1,0.1,0.3,0.3,0.4,0.4C18.8,32,18.9,32,19.1,31.9z"/>
				</g>
			</g>
			<g>
				<g>
					<path class="st2" d="M17.6,28.5c0.1-0.1,0.2-0.2,0.3-0.3c0.1-0.1,0.1-0.2,0.1-0.3c-0.1-0.1-0.2-0.1-0.3-0.1
						c-0.2,0-0.4,0.1-0.5,0.2c-0.4,0.3-0.8,0.7-1.1,1.1c0,0-0.1,0.1,0,0.1c0,0,0.1,0,0.1,0C16.7,29,17.2,28.8,17.6,28.5z"/>
					<path class="st2" d="M16.1,29.3L16.1,29.3C16,29.2,16,29.2,16.1,29.3c-0.1-0.1,0-0.1,0-0.2l0,0c0.1-0.1,0.2-0.2,0.3-0.3
						c0.3-0.3,0.6-0.5,0.9-0.8c0.2-0.1,0.4-0.2,0.5-0.2c0.2,0,0.3,0,0.3,0.1c0.1,0.1,0,0.2-0.1,0.3c-0.1,0.1-0.2,0.2-0.3,0.3
						c-0.5,0.3-1,0.5-1.5,0.7C16.2,29.2,16.1,29.2,16.1,29.3L16.1,29.3z M17.8,27.9C17.8,27.9,17.8,27.9,17.8,27.9
						c-0.2,0-0.4,0.1-0.6,0.2c-0.3,0.3-0.6,0.5-0.9,0.8c-0.1,0.1-0.2,0.2-0.3,0.3l0,0c0,0,0,0,0,0c0,0,0,0,0,0l0,0c0,0,0.1,0,0.1,0
						c0.5-0.2,1-0.4,1.4-0.7l0,0c0.1-0.1,0.2-0.2,0.3-0.3c0.1-0.1,0.1-0.2,0.1-0.2C18,27.9,17.9,27.9,17.8,27.9z"/>
				</g>
			</g>
			<g>
				<g>
					<path class="st2" d="M12.6,30.2c-0.1,0.1-0.2,0.3-0.3,0.4c0.8-0.5,1.8-0.8,2.9-0.8c0.9,0,1.7,0.2,2.1,1.1
						c0.1,0.2,0.3,0.4,0.5,0.7c0.2,0.2,0.4,0.4,0.6,0.6c0.3,0.2,0.6,0.1,0.8,0c0.2-0.2,0.2-0.5,0-0.8c-0.2-0.3-0.5-0.6-0.8-0.7
						c-0.1,0-0.2,0-0.2-0.1c0-0.1,0.1-0.1,0.2-0.1c1.3-0.3,2.2-1,2.7-2.2c0.1-0.3,0.1-0.5,0-0.8C21,27,20.8,27,20.5,27.2
						c-0.1,0.1-0.1,0.1-0.2,0.2c-0.3,0.4-0.4,0.9-0.5,1.3c-0.2,0.4-0.2,1-0.7,1.2c-0.4,0.2-0.9,0.3-1.4,0.2
						c-0.5-0.1-1.1-0.3-1.6-0.4c0,0-0.1,0-0.1-0.1c0,0,0.1-0.1,0.1-0.1c0.1,0,0.1,0,0.2-0.1c0.6-0.3,1.2-0.6,1.7-1.1
						c0.2-0.2,0.3-0.3,0.2-0.6c-0.1-0.2-0.4-0.2-0.6-0.2c-0.3,0.1-0.5,0.2-0.7,0.4c-0.3,0.2-0.5,0.5-0.8,0.7
						c-0.4,0.3-0.8,0.7-1.3,0.8C14.1,29.6,13.3,29.8,12.6,30.2z"/>
				</g>
			</g>
		</g>
	</g>
</g>
<g id="Layer_2">
	<path class="st2" d="M24.7,24.8c-0.2,0.2-0.3,0-0.5-0.1c-0.2,0.1-0.4,0.1-0.6-0.1c-1.5-1.1-2.8-2.3-4-3.8c0.9-0.8,0.9-1.7,0.9-2.7
		c0-3.4-0.8-6.6-2.1-9.6c-0.2-0.4-0.4-0.8-0.7-1.2c-0.5-0.7-1.2-0.7-1.6,0.1c-0.2,0.4-0.3,0.9-0.2,1.4c0.1,1.3,0.2,2.6,0.3,3.8
		c0.2,1.8,0.6,3.6,0.9,5.6c-1.5-1.1-2-2.8-3.3-3.8c-0.5-0.4,0.2-1-0.2-1.5c-0.1-0.1-0.1-0.3-0.2-0.5C12.1,8.8,10,5.8,7.2,3.2
		C6.7,2.7,6.1,2.3,5.5,2C4.8,1.5,4.2,1.4,3.5,2C2.8,2.6,3,3.3,3.2,3.9C3.7,5.4,4.5,6.7,5.1,8c1.4,3.2,3.8,5.5,6.8,6.9
		c1.9,0.9,2.5,2.6,4,3.8c-0.7,0.2-1.1,0.1-1.5,0c-2.3-0.5-4.6-0.7-6.9-0.9c-0.4,0-0.8-0.1-1.2,0c-0.7,0.1-0.9,0.7-1.1,1.2
		c-0.2,0.6,0.3,0.8,0.7,1c1,0.6,2.1,1.2,3.3,1.6c2.6,0.9,5.2,0.9,7.8-0.1c0.5-0.2,1.1-0.6,1.6,0c1.2,1.3,2.6,2.4,3.9,3.6
		c-1.7,0-3.3,0.2-4.8,0.4c-0.7,0.1-1.5,0.2-2.2,0.4c-0.8,0.2-1.2,0.9-1.3,1.7c-0.1,0.9,0.7,1,1.2,1.2c3.3,1.4,6.7,1.4,9.7-0.5
		c1.5-0.9,2.5-0.7,3.8-0.1c0.6,0.3,1.3,0.5,2,0.7c0.3,0.1,0.8,0.3,1.1-0.2c-0.5-0.5-1.1-0.7-1.7-1c-0.7-0.3-1.5-0.5-2.2-0.8
		c-0.7-0.4-1-0.7-0.8-1.6c0.3-1.5,0.2-3-0.1-4.5c-0.4-2-1-3.9-1.7-5.8c-0.1-0.4-0.2-0.8-0.7-0.9c-0.8,0.5-0.8,1.3-0.8,2.2
		c0,2.7,0.2,5.3,0.7,8C24.7,24.5,24.8,24.7,24.7,24.8z"/>
</g>
</svg>
