<?xml version="1.0" encoding="utf-8"?>
<!-- Generator: Adobe Illustrator 25.0.1, SVG Export Plug-In . SVG Version: 6.00 Build 0)  -->
<svg version="1.1" id="Layer_1" xmlns="http://www.w3.org/2000/svg" xmlns:xlink="http://www.w3.org/1999/xlink" x="0px" y="0px"
	 viewBox="0 0 339.84 265.18" style="enable-background:new 0 0 339.84 265.18;" xml:space="preserve">
<style type="text/css">
	.st0{enable-background:new    ;}
	.st1{fill:#426067;}
</style>
<g class="st0">
	<path class="st1" d="M120.63,121.37c-9.97-0.42-12.64-10.81-12.64-23.59c0-14.74,3.51-32.72,3.51-43.11c0-3.51-0.42-6.18-1.54-7.44
		c-12.64,0.42-21.34,44.66-24.01,55.47c-0.28,0.98-2.39,2.11-4.63,2.11c-3.23-0.14-4.21-1.68-4.21-7.02
		c0-6.32,0.42-18.11,0.42-30.33c0-18.4-0.98-37.35-6.32-37.77c-6.88,1.54-12.5,12.22-16.29,23.45
		c-6.04,17.41-10.11,41.29-11.94,59.68c0,1.68-1.54,2.67-3.23,2.67c-1.4,0-2.95-0.84-3.23-2.53c-2.11-12.78-3.37-25.42-3.37-38.62
		c0-11.37,0.84-23.31,2.81-36.09c0.28-2.67,3.09-3.65,5.9-3.65c2.53,0,4.92,1.26,4.92,3.51v0.56c-3.09,16.99-4.35,35.11-4.35,53.22
		l0.14,8.29c2.11-16.01,5.76-33.84,10.53-47.75c4.63-13.34,10.25-23.87,19.24-24.43c12.22,0,14.6,22.75,14.6,41.85
		c0,10.11-0.56,19.1-0.84,23.31c2.39-9.69,10.67-47.89,24.01-47.89c7.16,0.56,9.13,8.71,9.13,24.01c0,13.34-1.83,29.21-1.83,39.46
		c0,6.46,0.7,10.81,2.95,10.81c7.44-1.69,16.71-37.35,20.92-46.2c0.14-0.42,0.56-0.7,0.98-0.7c0.56,0.14,0.98,0.42,0.98,0.98
		l-0.14,0.42c-4.35,9.13-14.46,47.32-22.33,47.32H120.63z"/>
	<path class="st1" d="M164.73,104.8c-6.18,0-7.58-11.37-7.58-19.94c0-2.67,0.14-5.2,0.28-6.88c-2.11,7.58-6.32,17.69-9.83,18.12
		l-0.98,0.14c-5.05,0-7.3-5.48-7.3-12.08c0-10.11,5.2-22.75,12.92-22.75c0.56,0,1.12,0,1.69,0.14c2.25,0.56,4.21,2.25,5.34,4.07
		c0.28-1.12,0.56-2.25,0.98-3.23c0.56-1.26,2.25-1.97,3.79-1.97h0.84c1.83,0.14,3.51,1.26,3.51,3.37v0.7
		c-0.28,1.26-3.93,23.59-3.93,33.56c0,2.67,0.14,4.49,0.84,4.77c4.92-1.54,14.18-23.31,17.55-29.49c0.14-0.42,0.56-0.56,0.84-0.56
		l0.42,0.14c0.28,0.14,0.56,0.42,0.56,0.84l-0.14,0.42c-3.65,6.74-12.78,29.63-18.96,30.61H164.73z M158.13,70.82l0.42-1.97
		c-0.7-2.39-2.39-4.49-4.77-5.34c-2.95,1.54-7.02,20.64-7.02,28.23c0,1.12,0,1.97,0.28,2.53C151.38,93.85,156.58,74.89,158.13,70.82
		z"/>
	<path class="st1" d="M188.6,106.77c-3.09,0-4.35-1.68-4.77-5.05v-1.54c0-7.02,3.79-18.82,3.79-22.33l-0.14-0.7
		c-1.4-3.51-7.02,0.84-9.27-8.57c-0.28-0.98-0.42-2.39-0.42-3.79c0-5.48,1.83-12.92,7.16-12.92h0.7c2.25,0.28,4.07,2.39,4.07,6.74
		c0,1.26-0.14,2.53-0.42,4.07c-0.56,2.53-1.54,5.2-2.67,7.44c3.65,0.7,7.02,1.26,8.29,3.51c0.28,0.56,0.42,1.4,0.42,2.39
		c0,7.02-6.88,23.45-6.88,27.8c0,0.7,0.14,1.12,0.56,1.12c7.02,0,15.45-24.29,18.12-31.46c0.14-0.42,0.42-0.7,0.84-0.7l0.42,0.14
		c0.28,0.14,0.56,0.42,0.56,0.84v0.28c-2.53,7.16-11.23,32.58-19.66,32.72H188.6z M187.47,61.69c0.14-0.7,0.28-2.25,0.28-2.95
		c0-3.23-1.12-4.77-2.53-4.92c-2.67,0-4.21,4.63-4.21,8.85c0,3.65,1.12,6.88,3.51,7.16C185.79,67.73,186.91,64.64,187.47,61.69z"/>
	<path class="st1" d="M215,97.92c-6.88,0-8.29-8.71-8.29-16.57c0-4.49,0.42-8.71,0.7-10.95c0.42-2.39,2.25-3.23,4.21-3.23h0.98
		c1.69,0.28,3.65,1.26,3.65,2.81v0.28c-0.14,2.11-2.95,13.76-2.95,20.64c0,3.09,0.56,5.2,2.11,5.2
		c4.92-0.28,10.25-15.17,13.48-22.75c0.14-0.42,0.42-0.56,0.7-0.56l0.56,0.14c0.42,0.14,0.56,0.42,0.56,0.7
		c0,0.28-0.14,0.56-0.14,0.56c-2.53,5.9-8.43,23.31-15.03,23.73H215z M210.36,59.16c0-0.84,0.42-1.68,0.98-2.39
		c0.56-0.56,1.54-0.98,2.39-0.98c0.98,0,1.83,0.42,2.39,0.98c0.7,0.7,0.98,1.54,0.98,2.39c0,1.83-1.4,3.51-3.37,3.51
		C211.77,62.68,210.36,60.99,210.36,59.16z"/>
	<path class="st1" d="M247.86,93.71c0-10.67,3.37-24.57,3.37-29.35c0-0.7,0-1.12-0.14-1.4c-5.48,2.67-13.76,22.75-16.01,28.93
		c-0.42,1.26-0.84,2.11-1.54,2.39h-0.42c-0.7,0-1.4-0.14-1.83-0.84c-1.54-2.53-2.39-10.53-2.39-16.71c0-2.81,0.14-5.34,0.56-6.74
		c0.42-1.83,2.25-2.81,4.07-2.81h0.28c1.97,0.14,3.65,1.12,3.65,3.09l-0.14,0.98c-0.98,4.35-1.4,9.13-1.83,14.04
		c2.39-6.04,10.11-25.14,17.83-25.14h0.28c3.51,0.14,4.63,3.79,4.63,8.85c0,9.13-3.65,23.03-3.65,30.47c0,3.09,0.7,5.06,2.39,5.06
		l0.7-0.14c4.35-0.84,9.27-26.26,11.8-31.03c0.14-0.42,0.56-0.56,0.84-0.56l0.42,0.14c0.28,0.14,0.56,0.42,0.56,0.84
		c0,0,0,0.14-0.14,0.42c-2.67,5.06-7.16,30.89-13.2,32.58c-0.98,0.28-1.97,0.42-2.81,0.42C249.54,107.19,247.86,101.29,247.86,93.71
		z"/>
	<path class="st1" d="M292.79,104.8c-6.18,0-7.58-11.37-7.58-19.94c0-2.67,0.14-5.2,0.28-6.88c-2.11,7.58-6.32,17.69-9.83,18.12
		l-0.98,0.14c-5.05,0-7.3-5.48-7.3-12.08c0-10.11,5.2-22.75,12.92-22.75c0.56,0,1.12,0,1.69,0.14c2.25,0.56,4.21,2.25,5.34,4.07
		c0.28-1.12,0.56-2.25,0.98-3.23c0.56-1.26,2.25-1.97,3.79-1.97h0.84c1.83,0.14,3.51,1.26,3.51,3.37v0.7
		c-0.28,1.26-3.93,23.59-3.93,33.56c0,2.67,0.14,4.49,0.84,4.77c4.92-1.54,14.18-23.31,17.55-29.49c0.14-0.42,0.56-0.56,0.84-0.56
		l0.42,0.14c0.28,0.14,0.56,0.42,0.56,0.84l-0.14,0.42c-3.65,6.74-12.78,29.63-18.96,30.61H292.79z M286.19,70.82l0.42-1.97
		c-0.7-2.39-2.39-4.49-4.77-5.34c-2.95,1.54-7.02,20.64-7.02,28.23c0,1.12,0,1.97,0.28,2.53C279.45,93.85,284.65,74.89,286.19,70.82
		z"/>
</g>
<g class="st0">
	<path class="st1" d="M175.25,161.17c-8.71,0-12.5-7.58-12.5-15.45c0-8.43,4.21-16.99,11.23-16.99h0.84
		c1.54,0.14,5.48,1.4,5.48,4.77c0,3.79-5.62,10.39-9.41,10.53c-0.14,1.26-0.42,3.51-0.42,6.04c0,5.34,0.98,8.99,4.78,9.13
		c8.71,0,14.46-13.34,16.99-20.08c0.28-0.56,0.56-0.7,0.84-0.7c0.7,0.14,1.12,0.14,1.12,0.84c-2.53,8.15-9.83,21.34-18.25,21.91
		H175.25z M178.34,133.65c0-1.4-0.84-2.39-2.25-2.67c-1.83,0.28-3.79,5.34-4.92,11.09C173.42,141.79,178.06,136.88,178.34,133.65z"
		/>
</g>
<g class="st0">
	<path class="st1" d="M138.46,247.62c-0.84-0.14-6.18-0.28-11.23-0.28c-4.35,0-7.16,0.14-8.57,0.28c-0.84,0-0.84-0.56-0.98-1.4
		c0-1.26,2.53-1.54,8.29-1.54c-0.28-3.23-0.42-8.57-0.42-14.89c0-22.61,1.83-58.84,3.65-68.95c-2.95,0.14-5.48,0.14-7.72,0.56
		c-0.84,0-0.98-0.56-0.98-1.26c0-0.56,0.28-0.98,0.84-0.98l9.41-0.28l14.6,0.28c0.98,0,1.4,0.56,1.4,1.12
		c0,0.42-0.42,0.98-1.12,0.98l-7.3-0.28c-1.54,12.92-5.62,56.59-5.62,77.09c0,2.53,0,4.77,0.14,6.46c6.46,0.28,7.16,0.42,7.16,1.69
		c0,0.56-0.28,1.4-1.26,1.4H138.46z"/>
	<path class="st1" d="M166.26,238.91c-6.18,0-7.3-14.04-7.3-23.31l0.28-6.88c-1.26,4.21-5.62,20.78-10.25,20.78
		c-5.48-0.7-6.74-9.97-6.74-17.83c0-4.78,0.42-9.13,0.7-11.38c0.14-1.97,1.97-2.81,3.79-2.81c2.39,0.28,4.35,0.84,4.35,2.67
		c-0.42,2.67-2.81,15.59-2.81,23.87c0,1.97,0.14,3.37,0.7,3.65c3.79,0,10.39-26.96,10.81-29.35c0.14-1.69,2.39-2.53,4.49-2.53
		c2.53,0.14,4.49,0.98,4.49,2.95c-0.14,3.23-3.37,22.19-3.37,33.14c0,2.81,0.28,4.77,0.98,5.06c5.9-0.42,12.5-25.98,14.18-32.02
		c0.14-0.56,0.42-0.84,0.84-0.84c0.56,0,0.98,0.28,0.98,0.84v0.42c-1.83,6.6-8.71,33.56-16.01,33.56H166.26z"/>
	<path class="st1" d="M186.2,238.07c-3.09,0-4.35-1.68-4.77-5.05v-1.54c0-7.02,3.79-18.82,3.79-22.33l-0.14-0.7
		c-1.4-3.51-7.02,0.84-9.27-8.57c-0.28-0.98-0.42-2.39-0.42-3.79c0-5.48,1.83-12.92,7.16-12.92h0.7c2.25,0.28,4.07,2.39,4.07,6.74
		c0,1.26-0.14,2.53-0.42,4.07c-0.56,2.53-1.54,5.2-2.67,7.44c3.65,0.7,7.02,1.26,8.29,3.51c0.28,0.56,0.42,1.4,0.42,2.39
		c0,7.02-6.88,23.45-6.88,27.8c0,0.7,0.14,1.12,0.56,1.12c7.02,0,15.45-24.29,18.12-31.46c0.14-0.42,0.42-0.7,0.84-0.7l0.42,0.14
		c0.28,0.14,0.56,0.42,0.56,0.84v0.28c-2.53,7.16-11.23,32.58-19.66,32.72H186.2z M185.08,192.99c0.14-0.7,0.28-2.25,0.28-2.95
		c0-3.23-1.12-4.77-2.53-4.92c-2.67,0-4.21,4.63-4.21,8.85c0,3.65,1.12,6.88,3.51,7.16C183.39,199.03,184.51,195.94,185.08,192.99z"
		/>
	<path class="st1" d="M212.6,229.22c-6.88,0-8.29-8.71-8.29-16.57c0-4.49,0.42-8.71,0.7-10.95c0.42-2.39,2.25-3.23,4.21-3.23h0.98
		c1.69,0.28,3.65,1.26,3.65,2.81v0.28c-0.14,2.11-2.95,13.76-2.95,20.64c0,3.09,0.56,5.2,2.11,5.2
		c4.92-0.28,10.25-15.17,13.48-22.75c0.14-0.42,0.42-0.56,0.7-0.56l0.56,0.14c0.42,0.14,0.56,0.42,0.56,0.7
		c0,0.28-0.14,0.56-0.14,0.56c-2.53,5.9-8.43,23.31-15.03,23.73H212.6z M207.96,190.46c0-0.84,0.42-1.68,0.98-2.39
		c0.56-0.56,1.54-0.98,2.39-0.98c0.98,0,1.83,0.42,2.39,0.98c0.7,0.7,0.98,1.54,0.98,2.39c0,1.83-1.4,3.51-3.37,3.51
		C209.37,193.97,207.96,192.29,207.96,190.46z"/>
</g>
<g class="st0">
	<path class="st1" d="M165.1,182.84c-1,1.94-8.05,10.17-9.35,10.83c-0.89,0.39-0.75-0.29-0.58-0.72c-0.02-0.25,2.2-3.62,2.79-4.67
		c1.2-2.47,2.87-4.71,3.46-7.17c0.65-0.73,1.8-0.53,2.2-0.62c1.33,0.21,1.88,1.46,1.59,2.21L165.1,182.84z"/>
</g>
</svg>
