<?xml version="1.0" encoding="utf-8"?>
<!-- Generator: Adobe Illustrator 25.0.1, SVG Export Plug-In . SVG Version: 6.00 Build 0)  -->
<svg version="1.1" id="Layer_1" xmlns="http://www.w3.org/2000/svg" xmlns:xlink="http://www.w3.org/1999/xlink" x="0px" y="0px"
	 viewBox="0 0 91.73 40.04" style="enable-background:new 0 0 91.73 40.04;" xml:space="preserve">
<style type="text/css">
	.st0{fill:#739499;}
	.st1{fill:#426067;}
</style>
<g>
	<g>
		<g>
			<g>
				<g>
					<g>
						<path class="st0" d="M48.34,34.32c-0.93-1.43-4.21-6.8-10.05-9.67c-3.94-1.94-8.11-1.72-10.95-1.44
							c0.16,0.02,3.47,5.11,8.86,7.59C42.81,33.9,46.61,33.91,48.34,34.32z"/>
					</g>
				</g>
			</g>
		</g>
		<g>
			<g>
				<g>
					<g>
						<path class="st1" d="M28.03,23.66c1.45,0.4,2.86,0.9,4.25,1.45c0.7,0.27,1.37,0.56,2.06,0.85c0.68,0.3,1.35,0.61,2.01,0.92
							c0.66,0.33,1.32,0.66,1.97,0.99c0.64,0.35,1.29,0.69,1.92,1.06c1.26,0.73,2.5,1.5,3.67,2.36c-1.33-0.59-2.64-1.22-3.95-1.85
							c-0.66-0.31-1.31-0.64-1.97-0.95c-0.65-0.32-1.31-0.64-1.98-0.95c-0.66-0.32-1.32-0.64-1.98-0.96
							c-0.66-0.33-1.33-0.64-1.99-0.96C30.7,24.99,29.36,24.35,28.03,23.66z"/>
					</g>
				</g>
			</g>
		</g>
	</g>
	<g>
		<g>
			<g>
				<g>
					<path class="st0" d="M76.44,38c-0.58-1.45-2.48-6.76-7.02-10.78c-3.06-2.72-6.76-3.79-9.33-4.43c0.13,0.06,1.86,5.05,6.18,8.69
						C71.55,35.98,74.98,37.16,76.44,38z"/>
				</g>
			</g>
		</g>
		<g>
			<g>
				<g>
					<path class="st1" d="M60.6,23.35c1.19,0.76,2.32,1.58,3.42,2.42c0.55,0.42,1.09,0.86,1.63,1.29c0.53,0.44,1.06,0.89,1.58,1.34
						c0.52,0.46,1.03,0.92,1.54,1.38c0.5,0.47,1,0.94,1.48,1.43c0.97,0.96,1.92,1.96,2.79,3c-1.07-0.88-2.11-1.77-3.15-2.67
						c-0.52-0.45-1.03-0.9-1.56-1.35c-0.51-0.46-1.03-0.91-1.55-1.35c-0.51-0.46-1.03-0.91-1.55-1.36c-0.51-0.46-1.04-0.9-1.55-1.36
						C62.65,25.21,61.61,24.3,60.6,23.35z"/>
				</g>
			</g>
		</g>
	</g>
	<g>
		<g>
			<g>
				<g>
					<path class="st0" d="M51.46,2.07c-1.96,0.57-8.98,2.59-13,7.37c-2.73,3.21-3.07,7.04-3.35,9.73c0.02-0.16,6.59-1.57,10.62-6.04
						C50.66,7.6,50.88,3.67,51.46,2.07z"/>
				</g>
			</g>
		</g>
		<g>
			<g>
				<g>
					<path class="st1" d="M35.75,18.66c0.75-1.21,1.59-2.37,2.47-3.5c0.43-0.57,0.89-1.12,1.35-1.68c0.47-0.55,0.94-1.09,1.41-1.64
						c0.49-0.54,0.98-1.07,1.47-1.6c0.51-0.52,1.01-1.05,1.54-1.56c1.05-1.03,2.13-2.02,3.32-2.95c-0.85,1.16-1.77,2.27-2.71,3.37
						c-0.46,0.55-0.94,1.09-1.41,1.64c-0.48,0.54-0.96,1.08-1.44,1.62c-0.49,0.53-0.98,1.07-1.46,1.61
						c-0.5,0.53-0.98,1.07-1.48,1.59C37.81,16.6,36.81,17.65,35.75,18.66z"/>
				</g>
			</g>
		</g>
	</g>
	<g>
		<g>
			<g>
				<g>
					<path class="st0" d="M80.72,26.45c-0.02-0.01-0.05-0.03-0.08-0.04C51.82,15.2,22,19.06,1.51,32.46
						c-0.11,0.07-0.14,0.22-0.07,0.33c0.08,0.11,0.23,0.14,0.34,0.07c20.41-13.32,50.08-17.14,78.76-5.97
						c0.16,0.06,0.31,0,0.34-0.13C80.9,26.65,80.83,26.53,80.72,26.45z"/>
				</g>
			</g>
		</g>
		<g>
			<g>
				<g>
					<g>
						<path class="st0" d="M27.5,17.37c-1.17,1.18-6.5,3.71-6.45,3.75c-0.01,0,0.6-5.15,1.7-6.46c1.07-1.31,3.12-1.74,4.45-0.96
							C28.53,14.49,28.62,16.14,27.5,17.37z"/>
					</g>
				</g>
			</g>
			<g>
				<g>
					<g>
						<path class="st0" d="M22.63,19.09c-0.08-0.02-0.17,0.01-0.22,0.07c-1.47,1.76-2.87,3.58-4.18,5.41
							c-0.06,0.09-0.03,0.21,0.07,0.27c0.1,0.06,0.23,0.04,0.3-0.05c1.31-1.83,2.71-3.64,4.18-5.39c0.07-0.09,0.05-0.21-0.05-0.28
							C22.7,19.11,22.67,19.1,22.63,19.09z"/>
					</g>
				</g>
			</g>
		</g>
		<g>
			<g>
				<g>
					<g>
						<path class="st0" d="M61.13,16.72c-1.63,0.66-8.01,1.08-7.98,1.14c-0.02,0,2.44-4.58,4.06-5.38c1.59-0.82,3.85-0.47,4.93,0.74
							C63.23,14.43,62.73,15.98,61.13,16.72z"/>
					</g>
				</g>
			</g>
			<g>
				<g>
					<g>
						<path class="st0" d="M55.48,16.53c-0.08-0.03-0.16-0.03-0.23,0c-2.13,1.1-4.22,2.29-6.21,3.54c-0.1,0.06-0.11,0.19-0.03,0.28
							c0.08,0.1,0.23,0.12,0.33,0.06c1.98-1.24,4.07-2.43,6.2-3.52c0.1-0.05,0.12-0.18,0.04-0.28
							C55.56,16.58,55.53,16.55,55.48,16.53z"/>
					</g>
				</g>
			</g>
		</g>
		<g>
			<g>
				<g>
					<g>
						<path class="st0" d="M78.64,21.12c-1.79,0.34-8.42-0.47-8.41-0.4c-0.02-0.01,3.32-4.02,5.14-4.49
							c1.78-0.5,4.04,0.28,4.94,1.67C81.21,19.29,80.41,20.7,78.64,21.12z"/>
					</g>
				</g>
			</g>
			<g>
				<g>
					<g>
						<path class="st0" d="M72.86,19.85c-0.07-0.04-0.15-0.05-0.22-0.03c-2.39,0.67-4.75,1.45-7,2.3c-0.11,0.04-0.14,0.16-0.08,0.27
							c0.07,0.11,0.21,0.16,0.33,0.12c2.25-0.85,4.6-1.62,6.99-2.28c0.12-0.03,0.16-0.15,0.09-0.26
							C72.94,19.91,72.9,19.88,72.86,19.85z"/>
					</g>
				</g>
			</g>
		</g>
		<g>
			<g>
				<g>
					<g>
						<path class="st0" d="M27.9,28.07c-1.57-0.91-7.52-1.06-7.52-1.01c0.05-0.02,3.7,4.14,5.14,4.96c1.51,0.78,3.22,0.59,3.92-0.47
							C30.14,30.48,29.48,28.91,27.9,28.07z"/>
					</g>
				</g>
			</g>
			<g>
				<g>
					<g>
						<path class="st0" d="M15.87,25.19c-0.11-0.03-0.22,0.03-0.25,0.12c-0.04,0.1,0.03,0.22,0.14,0.25
							c2.36,0.77,4.7,1.65,6.94,2.61c0.11,0.05,0.24,0.01,0.29-0.09c0.05-0.1-0.01-0.22-0.12-0.27c-2.26-0.96-4.61-1.85-6.98-2.63
							C15.88,25.2,15.88,25.19,15.87,25.19z"/>
					</g>
				</g>
			</g>
		</g>
		<g>
			<g>
				<g>
					<g>
						<path class="st0" d="M53.47,25.05c-1.46-1.18-7.57-2.43-7.57-2.37c0.05-0.01,3.11,4.76,4.47,5.82
							c1.42,1.05,3.22,1.18,4.11,0.26C55.36,27.84,54.96,26.17,53.47,25.05z"/>
					</g>
				</g>
			</g>
			<g>
				<g>
					<g>
						<path class="st0" d="M41.55,20.01c-0.1-0.04-0.22-0.01-0.27,0.08c-0.05,0.09-0.01,0.22,0.11,0.28
							c2.29,1.18,4.55,2.47,6.72,3.84c0.11,0.07,0.25,0.05,0.31-0.04s0.03-0.21-0.08-0.28c-2.17-1.37-4.45-2.67-6.75-3.86
							C41.57,20.02,41.56,20.02,41.55,20.01z"/>
					</g>
				</g>
			</g>
		</g>
		<g>
			<g>
				<g>
					<path class="st0" d="M86.77,31.82c-1.8-0.93-6.87-5.49-6.92-5.46c-0.03-0.06,6.31-0.01,8.3,1c1.97,0.92,3.2,2.73,2.76,3.94
						C90.48,32.51,88.63,32.7,86.77,31.82z"/>
				</g>
			</g>
		</g>
	</g>
</g>
</svg>
