<?xml version="1.0" encoding="utf-8"?>
<!-- Generator: Adobe Illustrator 25.0.1, SVG Export Plug-In . SVG Version: 6.00 Build 0)  -->
<svg version="1.1" id="Layer_1" xmlns="http://www.w3.org/2000/svg" xmlns:xlink="http://www.w3.org/1999/xlink" x="0px" y="0px"
	 viewBox="0 0 104.73 171.04" style="enable-background:new 0 0 104.73 171.04;" xml:space="preserve">
<style type="text/css">
	.st0{fill:#B7D5D8;}
	.st1{fill:#A9CBCF;}
	.st2{fill:#9EBFC4;}
	.st3{fill:#95BDBB;}
	.st4{fill:#A7C9C8;}
	.st5{fill:#88B0B0;}
	.st6{fill:#9BBFBE;}
	.st7{fill:#9BC4C7;}
	.st8{fill:#B1D3D6;}
	.st9{fill:#BFD9DE;}
	.st10{fill:#92BAB7;}
	.st11{fill:#81A4A2;}
	.st12{fill:#BAD7DA;}
	.st13{fill:#C8DEE3;}
	.st14{fill:#B9D4D7;}
	.st15{fill:#9FC4C7;}
	.st16{fill:#CBE1E4;}
	.st17{fill:#B0CED2;}
	.st18{fill:#85ABA8;}
	.st19{fill:#83A8AA;}
	.st20{fill:#9EC4C5;}
	.st21{fill:#BDD8DA;}
	.st22{fill:#C6E0E0;}
	.st23{fill:#98C0C1;}
	.st24{fill:#4D5955;}
	.st25{fill:#9AC2C2;}
	.st26{fill:#8EB1B6;}
	.st27{fill:#87AAA7;}
	.st28{fill:#C0D8DB;}
	.st29{fill:#465451;}
	.st30{fill:#6E8F8C;}
	.st31{fill:#DAE9EC;}
	.st32{fill:#9EC0C3;}
	.st33{fill:#A5CBCB;}
	.st34{fill:#99BCBF;}
	.st35{fill:#B1D1D4;}
	.st36{fill:#8BB4B0;}
	.st37{fill:#70898A;}
	.st38{fill:#789592;}
	.st39{fill:#CFE3E5;}
	.st40{fill:#94AFA8;}
	.st41{fill:#99BBC0;}
	.st42{fill:#5F7872;}
	.st43{fill:#9EC3C4;}
	.st44{fill:#B3CFD2;}
	.st45{fill:#739591;}
	.st46{fill:#3A4240;}
	.st47{fill:#9BC1C1;}
	.st48{fill:#64706E;}
	.st49{fill:#536962;}
	.st50{fill:#728986;}
	.st51{fill:#90B7B5;}
	.st52{fill:#E8F3F6;}
	.st53{fill:#4D5956;}
	.st54{fill:#98BEBB;}
	.st55{fill:#8FB4B4;}
	.st56{fill:#789697;}
	.st57{fill:#697E7B;}
	.st58{fill:#4D5957;}
	.st59{fill:#79A2A6;}
	.st60{fill:#A7C8CA;}
	.st61{fill:#4C6764;}
	.st62{fill:#526361;}
	.st63{fill:#83A09F;}
	.st64{fill:#A8C7CB;}
	.st65{fill:#B8D5D8;}
	.st66{fill:#71827D;}
	.st67{fill:#586967;}
	.st68{fill:#596B66;}
	.st69{fill:#94B6B5;}
	.st70{fill:#E1EEF0;}
	.st71{fill:#93BABE;}
	.st72{fill:#6D8F88;}
	.st73{fill:#738D8B;}
	.st74{fill:#627674;}
	.st75{fill:#748B8C;}
	.st76{fill:#6C8381;}
	.st77{fill:#81A7A4;}
	.st78{fill:#ADCACB;}
	.st79{fill:#637673;}
	.st80{fill:#769190;}
	.st81{fill:#9FC1C4;}
	.st82{fill:#718884;}
	.st83{fill:#BED3CF;}
	.st84{fill:#8BA4A9;}
	.st85{fill:#AAC9CB;}
	.st86{fill:#7CA29E;}
	.st87{fill:#97C1C6;}
	.st88{fill:#86AEAB;}
	.st89{fill:#8FB0B2;}
	.st90{fill:#8DA4A2;}
	.st91{fill:#678580;}
	.st92{fill:#90A7A8;}
	.st93{fill:#9ABCBD;}
	.st94{fill:#97A9AB;}
	.st95{fill:#A5C5CA;}
	.st96{fill:#5C6764;}
	.st97{fill:#7C9995;}
	.st98{fill:#81A5A0;}
	.st99{fill:#647A77;}
	.st100{fill:#85A4A3;}
	.st101{fill:#ADCACD;}
	.st102{fill:#6E7D7A;}
	.st103{fill:#7F9C98;}
	.st104{fill:#79908D;}
	.st105{fill:#719C99;}
	.st106{fill:#5F7472;}
	.st107{fill:#A9C2C1;}
	.st108{fill:#81A8A7;}
	.st109{fill:#A8CBCD;}
	.st110{fill:#697A77;}
	.st111{fill:#6F8C88;}
	.st112{fill:#85AAA6;}
	.st113{fill:#94AFAE;}
	.st114{fill:#5B7471;}
	.st115{fill:#5C6D68;}
	.st116{fill:#353D3B;}
	.st117{fill:#8FACAE;}
	.st118{fill:#7B8E8F;}
	.st119{fill:#95B3B2;}
	.st120{fill:#ADC5C5;}
	.st121{fill:#7F9797;}
	.st122{fill:#798C8C;}
	.st123{fill:#7A9499;}
	.st124{fill:#B1C6C4;}
	.st125{fill:#89A8AC;}
	.st126{fill:#5F6D6C;}
	.st127{fill:#647A78;}
	.st128{fill:#799894;}
	.st129{fill:#373F3B;}
	.st130{fill:#758483;}
	.st131{fill:#465C5B;}
	.st132{fill:#819391;}
	.st133{fill:#5F706E;}
	.st134{fill:#77948D;}
	.st135{fill:#789290;}
	.st136{fill:#728383;}
	.st137{fill:#6B7F7E;}
	.st138{fill:#6A827E;}
	.st139{fill:#759397;}
	.st140{fill:#6E807E;}
	.st141{fill:#C3C6C2;}
	.st142{fill:#A1B5B5;}
	.st143{fill:#DFE3E0;}
	.st144{fill:#A1C4C2;}
	.st145{fill:#7C8F8D;}
	.st146{fill:#8DA5A7;}
	.st147{fill:#D6E8E7;}
	.st148{fill:#7BA19B;}
	.st149{fill:#A1BAB7;}
	.st150{fill:#AED0D2;}
	.st151{fill:#C0DCDF;}
	.st152{fill:#AFD0D4;}
	.st153{fill:#C0DDDF;}
	.st154{fill:#B0D1D4;}
	.st155{fill:#9FC5C8;}
	.st156{fill:#8CB1B8;}
	.st157{fill:#B0CCD1;}
	.st158{fill:#8EB7B5;}
	.st159{fill:#7CA5A2;}
	.st160{fill:#82AEAF;}
	.st161{fill:#87AFAA;}
	.st162{fill:#679395;}
	.st163{fill:#A8CDCD;}
	.st164{fill:#80A6A5;}
	.st165{fill:#8EB4B7;}
	.st166{fill:#84ACAB;}
	.st167{fill:#A9CCCB;}
	.st168{fill:#8BABAB;}
	.st169{fill:#A8CFCF;}
	.st170{fill:#7DA5A1;}
	.st171{fill:#A4CAC9;}
	.st172{fill:#84ACA8;}
	.st173{fill:#A1CBCB;}
	.st174{fill:#ACD1D0;}
	.st175{fill:#87B1AD;}
	.st176{fill:#8AB2AE;}
	.st177{fill:#9BC3C0;}
	.st178{fill:#A1C5C3;}
	.st179{fill:#92B4B5;}
	.st180{fill:#92B9B8;}
	.st181{fill:#7BA4A1;}
	.st182{fill:#7DA4A5;}
	.st183{fill:#A3C0C2;}
	.st184{fill:#A8CBCC;}
	.st185{fill:#A9CACE;}
	.st186{fill:#91BBBD;}
	.st187{fill:#A1C6C5;}
	.st188{fill:#BDD7DA;}
	.st189{fill:#8EB6B9;}
	.st190{fill:#99BCB9;}
	.st191{fill:#87B1AE;}
	.st192{fill:#A1C5C8;}
	.st193{fill:#779796;}
	.st194{fill:#7E9D9C;}
	.st195{fill:#85A8A5;}
	.st196{fill:#9BC2C4;}
	.st197{fill:#A3C8C9;}
	.st198{fill:#759B95;}
	.st199{fill:#536360;}
	.st200{fill:#6D8380;}
	.st201{fill:#9EC3C2;}
	.st202{fill:#8CB8B8;}
	.st203{fill:#99BDBF;}
</style>
<g>
	<path class="st0" d="M93.8,84.53c0.36-0.77,0.72-1.55,1.07-2.32c-0.3-0.53,0.01-1.4-0.9-1.58c-1.34,0.03-2.07,0.78-2.18,1.34
		c0.67-1.29,0.51-3.56,1.69-5.47c0.49-0.78,0.79-1.03,1.54-0.46c0.34,0.07,0.62-0.03,0.85-0.28c-0.01-0.19-0.03-0.37-0.07-0.56
		c0.69-1.24,0.98-2.53,0.61-3.93c-0.12-0.33-0.31-0.64-0.48-0.96c-0.99-1.81-2.31-3.54-3.94-4.58c-2.09-1.33-3.05,1.72-4.87,2.08
		c-0.57,0.11-1.12,0.43-1.65,0.7c-2.38,1.21-3.9,3.07-4.31,5.75c0.08,0.63-0.41,1.22-0.16,1.87c2.09,1.08,1.47,3.68,2.86,5.16
		c1.24,0.96,0.41,3.96,3.33,3.36c0.26-0.05-0.33,1.05-0.17,1.57c0.47,1.49,1.02,2.97,2.92,3.16c0.7-0.14,1.14-0.65,1.61-1.12
		C92.26,86.98,92.63,85.51,93.8,84.53z"/>
	<path class="st1" d="M55.93,68.57c-0.8,0.53-0.8,1.34-0.76,2.16c0.85,3.49,2.8,4.32,5.62,2.31c0.52-0.37,1.04-0.49,1.62-0.53
		c4.18-0.08,5.31-1.14,5.65-5.27c-0.91-2.53-1.8-4.95,1.62-6.54c0.82-0.38,1.58-1.45,2.12-2.41c0.98-2.29-0.09-4.77,0.68-7.07
		c0.02-1.06,0.21-2.15-0.52-3.09c-0.67,0.22-1.08,0.74-1.47,1.28c-0.64,1.85-0.52,3.9-1.56,5.64c-3.18,2.67-4.54,2.85-7.29,0.98
		c-2.52,0.09-1.65,2.76-2.92,3.81l0.04-0.04C57.62,62.65,58.11,66.04,55.93,68.57z"/>
	<path class="st2" d="M30.56,15.5c-0.23-2.89-0.7-5.65-3.7-7.1c-2.47,1.67-2.57,2.7-0.54,6c-1.06,0.54-2.22,0.9-3.12,1.72
		c-0.31,0.44-0.35,0.91-0.15,1.41c1.36,1.16,1.22,3.29,2.8,4.31c0.61,0.49,1.29,0.81,2.09,0.74c0.28-0.09,0.53,0.01,0.46,0.24
		c-0.06,0.18-0.36,0.29-0.56,0.43c-1.08,1.23-3.59,2.33-0.29,3.9c1.1,0.52,0.16,1.85,0.8,2.62c0.97,1.24,2.16,1.99,3.81,1.7
		c2.62-0.81,3.31-2.41,1.95-4.83c-0.35-0.63-0.37-1.35-0.56-2.02c-0.08-0.35-0.17-0.69-0.27-1.03
		C32.84,20.74,30.55,18.51,30.56,15.5z"/>
	<path class="st3" d="M28.33,101.06c-3.18-1.62-6.64-2.24-10.11-2.8c-1.44,2.59,0.86,3.36,2.22,4.59c0.73,0.43,1.63,0.74,1.34,1.89
		c-0.2,0.67-0.7,0.91-1.33,0.99c-0.76,0.16-1.56,0.1-2.3,0.4c-0.21,0.25-0.34,0.54-0.4,0.86c-0.01,0.33,0.04,0.64,0.14,0.95
		c0.59,1.16,0.72,2.47,1.26,3.65c0.18,0.29,0.41,0.53,0.7,0.72c0.51,0.2,1,0.17,1.48-0.07c1.53-2,4.21-2.46,5.78-4.69
		c1.05-1.49,3.29-0.43,4.76,0.78c0.22,0.26,0.45,0.5,0.69,0.74c0.73,0.73,1.42,1.52,2.39,1.96c0.34,0.11,0.69,0.15,1.04,0.13
		c3.18-1.54,0.16-3.13,0.04-4.7C32.97,105.38,30.27,103.75,28.33,101.06z"/>
	<path class="st4" d="M61.01,106.97l-0.16,0.16l0.11,0.19c-0.15,1.64-0.18,3.16,2.25,2.32c3.87-3.91,7.74-7.82,11.34-11.98
		c0.22-0.28,0.45-0.56,0.66-0.85c0.79-1.12,3.22-1.4,2.56-3.02c-0.72-1.78-2.97-0.95-4.51-1.01c-1.63-0.07-3.22,0.86-4.94,0.64
		c-0.73,0.1-1.33,0.41-1.75,1.04c-1.15,2.08-2.03,4.29-2.97,6.47c-0.67,0.94-1.01,2.03-1.39,3.09
		C62.06,105.12,61.92,106.2,61.01,106.97z"/>
	<path class="st5" d="M37.1,84.87c-0.48-0.39-0.95-0.77-1.43-1.16c-1.14-0.06-1.74-0.8-2.18-1.73c-0.69-0.4-1.38-0.8-2.06-1.19
		c-2.62,0.9-5.17-0.26-7.76-0.24c-0.33,0.08-0.61,0.26-0.83,0.52c-0.83,1.22-0.34,2.1,0.61,3.01c0.62,0.59,1.45,1.41,0.13,2.22
		c-3.22,2-0.16,2.2,0.85,3c0.31,0.12,0.62,0.21,0.94,0.28c1.14,0.17,2.12,0.74,3.14,1.22c3.92,1.18,6.76-0.64,9.3-3.34
		C38,86.49,37.53,85.68,37.1,84.87z"/>
	<path class="st6" d="M53.82,75.13c-0.25,1.68-2.38,2.74-1.57,4.77c-1.43,2.99-1.69,6.35-3.03,9.37c-0.42,0.81-0.61,1.7-1,2.53
		c-0.11,0.54-0.04,1.06,0.22,1.55c1.17,1.78,3.06-0.04,4.41,0.88c1.51-1.29,1.8-3.51,3.55-4.62c1.8-1.48,3.08-3.37,4.18-5.4
		c0.92-0.95,1.62-2.04,2.13-3.26c0.03-0.34-0.04-0.66-0.21-0.96c-0.39-0.35-0.85-0.54-1.35-0.67c-2.14-0.65-3,1.02-4.09,2.26
		c-1.64,0.9-2.23,2.67-3.49,4.43c-0.31-2.93,2.06-3.16,3.28-4.33c0.36-0.44,1.05-1.31,0.78-1.41
		C55.24,79.33,55.76,76.32,53.82,75.13z"/>
	<path class="st7" d="M78.27,114.13c-1.7,4.24-5.11,7.72-5.61,12.5c0.61,0.63-0.13,1.67,0.67,2.25c1.71-1.38,4.02-1.62,5.72-3.16
		c1.37-1.24,2.55,0.74,3.92,0.78c0.89,0.03,1.73-0.05,2.11-1.05c-1.96-2.9,0.96-4.35,1.89-6.39c0.4-1.16,1.7-2.58,0.41-3.5
		c-1.4-1-3.17-0.47-4.6,0.65c-1.02,0.79-1.65,2-2.86,2.59c-1.59-1.22-0.07-2.72-0.46-4.01C79.23,114.27,78.91,113.9,78.27,114.13z"
		/>
	<path class="st8" d="M101.76,102.05c0.67-0.6,0.62-1.41,0.65-2.2c0.24-1.24,0.86-2.9-1.5-1.64c-0.86,0.46-1.6,0.3-2.41,0.12
		c-5.87,0.62-9.52,4.27-12.32,9.07c1.41,1.04,0.28,3.54,2.39,4.18c1.82-0.13,2.62-1.54,3.37-2.86c0.74-1.31,1.58-2.38,3.13-2.66
		c1.61,0.42,3.23,1.91,4.84,0C101.24,105.04,100.1,102.9,101.76,102.05z"/>
	<path class="st9" d="M22.63,49.63c-0.34-0.54-0.87-0.69-1.47-0.7c-2.47-0.57-4.91-1.45-7.52-0.87c-1,0.93-2.39,1.64-1.99,3.39
		c1.13,2.25,0.78,4.95,2.17,7.12c-0.01,0.19,0.02,0.38,0.09,0.56c1.39,0.91,3.24,0.9,3.94-0.24c1.46-2.37,3.2-4.21,5.69-5.38
		c-0.08-0.6-0.27-1.3-0.74-1.52C21.19,51.25,21.77,50.48,22.63,49.63z"/>
	<path class="st10" d="M35.6,106.26c0.01,1.13,0,2.17,0.87,3.16c0.75,0.85-0.22,1.05-0.88,1.21c-0.54,0.58-0.63,1.23-0.35,1.96
		c0.54,0.83,1.41,0.8,2.21,0.69c3.21-0.45,5.12,0.93,5.93,4c0.39,0.34,0.85,0.51,1.35,0.57c1.76,0.29,3.36-1.08,5.15-0.53
		c0.86-0.57,0.96-1.39,0.79-2.31c-0.27-0.7-0.73-1.18-1.53-1.23c-1.66,0.37-2.91,0.15-2.85-1.97c-0.27-1.22-1.47-1.83-1.93-2.93
		c-0.51-0.37-1.02-0.74-1.53-1.11c-0.47,0.33-1.15,0.09-1.56,0.54c-0.09-0.01,0.04,0.68-0.22,0.09c-0.08-0.19,0.13-0.59,0.08-0.92
		c-0.12-0.31-0.32-0.53-0.61-0.68c-1.16-1.41-1.71-3.59-4.2-3.34C35.54,104.24,35.07,105.12,35.6,106.26z"/>
	<path class="st11" d="M21,70.16c2.98,2.38,6.59,3.25,10.16,4.21c2.85,1.3,5.54,2.87,7.94,4.9c0.9,0.76,1.76,1.76,3.16,1.02
		c0.87-1.21,0.32-2.29-0.34-3.34c-1.46-2.36-2.39-5.02-4.07-7.26c-0.6-0.65-1.2-1.31-2.08-1.57c-3-0.07-0.96,1.83-1.1,2.86
		c-3.19,1.15-5.41-1.92-8.33-1.88c-0.34-0.05-0.69-0.07-1.03-0.1c-1.23-0.17-2.45-0.68-3.71-0.17C21.11,69.14,20.74,69.51,21,70.16z
		"/>
	<path class="st12" d="M69.69,55.51c0.99-1.81,1.31-3.78,1.44-5.8c0.81-1.06-0.02-2.41,0.6-3.51c-0.19-0.91-0.47-1.76-1.31-2.3
		c-1.11-0.82-2.36-0.95-3.67-0.75c-0.44,0.76-0.89,1.52-1.33,2.27c-0.19,1.77-1.18,3.2-2.05,4.68c-0.24,0.93-0.61,1.81-0.81,2.74
		c-0.26,1.18-0.45,2.45,0.6,3.34c1,0.84,1.79-0.05,2.5-0.62C67.02,54.43,68.37,56.63,69.69,55.51z"/>
	<path class="st13" d="M19,74.47c-2.44-0.18-4.78-1.21-7.28-0.88c-1.01-0.26-1.02,0.31-0.59,0.87c0.65,0.85,2.04,0.66,2.67,1.79
		c-0.92-0.75-1.94-1.11-2.95-1.49c-1-0.38-1.89-0.23-2.57,0.61c-0.64,0.79-0.37,1.65,0.19,2.28c1.18,1.32,1.33,2.38-0.44,3.25
		c0.68,0.49,1.37,0.97,2.05,1.46c1.96,2.47,4.29,1.5,6.61,0.72c0.33-0.11,0.64-0.28,0.93-0.48c0.65-0.64,0.95-1.44,1.16-2.3
		C19.25,78.36,20.44,76.46,19,74.47z"/>
	<path class="st14" d="M23.27,53.33c-0.2,0.28-0.41,0.56-0.61,0.85c-2.74-2.24-3.88,0.94-4.07,1.98c-0.56,3.07-2.66,2.76-4.68,2.99
		c0.68,1.23,1.36,2.46,2.04,3.69c0.45,0.03,0.83,0.25,1.22,0.45c0.4,0.23,0.8,0.42,1.26,0.49c0.31-0.02,0.56-0.15,0.77-0.38
		c0.14-0.25,0.22-0.52,0.24-0.8c-0.06-0.18-0.1-0.37-0.12-0.57c0.26-0.01,0.33,0.28,0.56,0.34c0.29,0.06,0.58,0.07,0.87,0.05
		c0.36-0.04,0.71-0.1,1.07-0.14c5.83-0.55,6.04-0.84,4.63-6.48c-0.09-0.32-0.26-0.59-0.48-0.83C25.04,54.49,24.69,53.02,23.27,53.33
		z"/>
	<path class="st15" d="M57.35,81.61c1.29-0.29,1.77-2.59,3.63-1.46c1.7-1.5,3.06-3.15,3.21-5.59c0.09-1.44-0.2-2.3-1.76-2.38
		c-0.79,0.25-2.08-3.09-2.45,0.36c-0.17,1.62-1.22,0.77-2.09,0.68c-1.61-0.16-1.89-1.59-2.73-2.5c-0.92,1.32-1.44,2.77-1.35,4.4
		c0.97,0.85,0.71,2.01,0.57,3.01c-0.2,1.46-0.36,2.14,1.68,1.71c2.02-0.43,0.58,1.07,0.56,1.75C56.87,81.93,57.11,81.91,57.35,81.61
		z"/>
	<path class="st16" d="M8.04,80.89c1.02-0.12,2.39,0.43,2.93-0.7c0.45-0.93-0.93-1.44-1.26-2.29c-0.3-0.77-1.89-1.17-0.89-2.29
		c0.93-1.04,1.98-0.21,2.92,0.24c1.06,0.5,1.79,1.61,3.1,1.65c-0.18-2.16-0.18-2.15-3.2-3.31c-0.07-0.03-0.12-0.21-0.1-0.31
		c0.02-0.11,0.12-0.2,0.19-0.3C9.35,72.89,7,72.1,4.6,71.53c-1.66-0.39-3.23,0.02-3.63,1.95c-0.43,2.13,1.18,2.27,2.69,2.34
		c1.26,0.06,1.92,0.71,2.27,1.89C6.29,78.97,6.71,80.24,8.04,80.89z"/>
	<path class="st17" d="M23.28,16.36c1.79,0.07,3.04-1.57,5-1.35c-2.56-1.92-3.87-3.9-1.41-6.6c-0.72-1.21-1.44-2.43-2.16-3.64
		c-2.11-0.1-2.01,1.54-2.28,2.89c-0.2,0.99,0.2,2.48-1.16,2.68c-1.32,0.19-1.04-1.3-1.39-2.1c-0.33-0.76-0.77-1.2-1.59-0.56
		c-0.29,3.24-0.26,6.43,1.23,9.44c0.66,0.47,1.27,1.1,2.21,0.76C22.43,17.56,22.38,16.48,23.28,16.36z"/>
	<path class="st18" d="M74.04,97.57c-4.02,3.49-7.77,7.25-10.9,11.58c-0.08,1.17-0.15,2.34,0.91,3.19c0.45,0.25,0.93,0.33,1.44,0.27
		c0.32-0.07,0.62-0.2,0.89-0.38c0.71-0.67,1.04-1.6,1.58-2.38c1.16-1.7,2.65-3.16,3.67-4.96c0.47-1.48,0.63-3.22,2.79-3.24
		c0.4,0.22,0.82,0.35,1.26,0.43c0.44-0.34,0.88-0.67,1.31-1.01c0.43-1.2,2.52-1.05,2.26-2.8c-0.81-0.75-1.78-0.29-2.68-0.34
		C75.72,97.9,74.98,97.01,74.04,97.57z"/>
	<path class="st19" d="M27.71,38.09c1.16,4.59,4.55,8.08,6.15,12.46c0.26,0.19,0.55,0.24,0.86,0.15c0.79-0.73,0.48-2.08,1.53-2.67
		c0.23-0.23,0.4-0.5,0.54-0.8c0.34-1.01,0.01-1.97-0.2-2.94c-0.12-0.66-0.28-1.32-0.6-1.92c-0.39-0.63-0.98-1.02-1.59-1.39
		c-1.78-1.08-2.51-2.55-1.68-4.59c-0.97-0.95-2.1-1.31-3.43-0.95C28.08,35.93,27.92,37.03,27.71,38.09z"/>
	<path class="st20" d="M45.12,28.66c-0.97,4.84-1.94,9.69-2.92,14.53c1.4,1.25-0.6,2.73,0.27,4.03c0.19,0.32,0.46,0.48,0.83,0.48
		c0.9-0.35,1.31-1.11,1.62-1.95c-0.67-3.41,2.42-4.37,4.09-6.25c-0.08-0.48-0.29-0.95-0.82-0.96c-2.96-0.08-0.93-1.43-0.61-2.34
		c0.07-0.99,0.07-1.98,0.16-2.97c0.01-1.37,0.8-2.51,1.16-3.78c0.67-1.53,1.95-3.08-0.1-4.55C46,24.59,46.87,27.9,45.12,28.66z"/>
	<path class="st21" d="M86.37,107.72c2.52-2.96,4.96-5.96,8.61-7.74c1.24-0.61,2.37-1.04,3.71-0.97c-1.28-2.98-1.46-3-5.1-0.74
		c-4.96,4.23-10,8.38-13.81,13.76c0.4,1.06,1.23,1.37,2.27,1.28C84.06,111.9,86.57,110.85,86.37,107.72z"/>
	<path class="st22" d="M93.6,98.28c1.71,0.17,3.8-2.33,5.1,0.74c1.01,0.39,2.17,2.26,2.9-0.29c0.08-0.27,0.22-0.84,0.58-0.28
		c0.24,0.36,0.17,0.92,0.23,1.4c0.96-1.12,0.62-2.5,0.68-3.77c0.09-1.84-0.08-3.77-2.05-4.56c-2.14-0.85-2.75,1.25-3.77,2.41
		C96.01,95.35,94.82,96.83,93.6,98.28z"/>
	<path class="st23" d="M62.43,72.18c1.86,1.92,0.81,3.78-0.31,5.46c-0.54,0.82-1.03,1.55-1.15,2.52c0.49,0,0.98,0.01,1.47,0.01
		c0.94,0.51,1.41-0.4,2.09-0.69c0.51-0.51,1.02-1.01,1.53-1.52c1.74-2.92,3.11-6.02,4.31-9.2c-0.11-1.24,0.93-2.4,0.27-3.69
		c-1.96-0.74-2.57,0.61-3.12,2.03c-0.3,2.83-1.18,4.97-4.72,4.14C62.76,71.24,62.56,71.86,62.43,72.18z"/>
	<path class="st24" d="M80.72,158.18c-1.52-2.54-2.95-5.14-4.59-7.59c-1.51-2.27-1.6-4.35,0.15-6.47c-0.4-1.96-0.4-1.96-2.93-0.39
		c-0.62-0.84-0.22-1.81-0.37-2.71c-0.11-0.71-0.43-1.27-1.08-1.61c-0.34-0.07-0.65-0.01-0.95,0.17c-0.71,0.9-1.18,1.93-1.53,3.01
		c2.25,4.1,4.5,8.19,6.76,12.29c1.64,1.23,1.68,3.87,3.98,4.52C80.7,159.15,81.02,158.81,80.72,158.18z"/>
	<path class="st25" d="M18.19,107c0.01-0.25,0.01-0.5,0.02-0.75c0.24-0.23,0.41-0.5,0.5-0.83c0.03-0.33-0.01-0.66-0.11-0.98
		c-0.58-1.32-2.21-1.35-2.98-2.42c-0.29-1.26,1.87-1.66,1.09-3.09c-1.29,0.31-2.33-0.48-3.49-0.78c-2.52-0.2-2.01,3.2-4.14,3.46
		c-1.89,1.46-0.66,3.08-0.25,4.66c0.76,1.62,2.11,2.67,3.51,3.67c1.99-1.18-0.55-2.13-0.14-3.24
		C14.26,105.16,16.11,108.48,18.19,107z"/>
	<path class="st26" d="M29.08,35.93c1.21,0.24,2.41,0.48,3.62,0.73c0.27,0.28,0.6,0.47,0.97,0.59c0.8,0.15,1.53,0.03,2.15-0.52
		c1.11-1.37-0.27-2.94,0.35-4.35c-0.47-2.44-0.93-4.89-1.4-7.33c-0.73-0.12-1.15-1.15-2.07-0.73c0.03,0.92-0.21,1.92,0.49,2.67
		c1.92,2.05,0.6,3.02-1.22,3.86C30.18,32.07,27.94,33.03,29.08,35.93z"/>
	<path class="st27" d="M40.6,52.63c0,0.69,0.01,1.39,0.01,2.08c-0.51,3.33-2.19,6.61-0.52,10.06c2.28,3.6,2.65,3.53,5.26-0.98
		c0.53-0.76,0.84-1.58,0.62-2.52c-3.68-2.28-3.41-5.36-1.77-8.73c0.16-0.71,0.12-1.41-0.03-2.11c-0.31-1.02-0.44-2.13-1.29-2.92
		l-0.08,0.03c-0.33-0.22-0.63-0.19-0.9,0.11C41.21,49.25,41.97,51.21,40.6,52.63z"/>
	<path class="st28" d="M18.28,7.67c1.8,0.2,0.39,1.5,0.75,2.22c0.48,0.96,0.76,2.09,2.15,2.04c1.51-0.06,1.97-1,2.1-2.37
		c0.16-1.68-0.73-3.7,1.42-4.8c-0.7-1.74-2.38-3.05-3.81-2.55C18.7,2.99,18.9,5.69,18.28,7.67z"/>
	<path class="st29" d="M37.1,69.96c1.81,3.32,3.94,6.49,5,10.19c-0.03,0.55-1.08,0.6-0.67,1.36c0.69,0.6,1.38,1.2,2.06,1.8
		c0.81-1.07,0.47-2.2,0.18-3.33c-0.3-2.11-0.6-4.22-0.9-6.33c-0.96-1.77-1.04-3.79-1.56-5.68c-0.47-1.13-1-2.22-2.29-2.63
		c-0.36-0.03-0.67,0.08-0.95,0.31c-0.08,0.21-0.1,0.43-0.07,0.65c0.06,0.81,0.49,1.75-0.71,2.16C36.66,68.93,36.58,69.43,37.1,69.96
		z"/>
	<path class="st30" d="M44.98,117.18c-0.46-0.03-0.92-0.07-1.37-0.1c-1.87-1.38-4.08-1.22-6.22-1.38c-2.75-0.21-5.49-0.45-8.2-0.95
		c-1.76-0.04-3.52-0.07-5.28-0.01c-0.39,0-0.78,0.04-1.17,0.11c-0.73,0.24-1.59,0.35-1.56,1.42c8.01,1.78,16.23,1.62,24.32,2.64
		c0.83,0.11,1.59,0.4,2.41,0.47c0.57-0.18,0.93-0.53,0.94-1.16C47.94,116.44,46.08,118.23,44.98,117.18z"/>
	<path class="st31" d="M11.72,51.2c0.71-0.98,1.42-1.96,2.13-2.94c1.31-0.54,3.23-0.62,2.18-2.91c-3.07-1.37-4.75-4.64-7.98-5.8
		C6.99,39.29,7.12,40,7.38,40.51c0.66,1.26,1.52,2.42,2.27,3.63c2.06,1.91,0.87,3.08-0.93,4.12c0.81,1.56,1.66,3.1,2.98,4.32
		C12.06,52.13,12.11,51.67,11.72,51.2z"/>
	<path class="st32" d="M19,74.47c0.51,2.01-0.99,3.74-0.77,5.71c1.5,1.57,3.07,2.57,5.05,0.72l0,0c1.62-0.48,3.62-0.51,3.67-2.94
		C24.3,76.79,21.65,75.63,19,74.47z"/>
	<path class="st33" d="M18.19,107c-1.98,0.15-3.24-2.06-5.45-1.58c-0.59,0.13-1.49-0.65-2.09,0.24c-0.62,0.94,0.27,1.45,0.7,2.12
		c0.42,0.66,1.86,0.9,0.99,2.15c0.86,1.08,1.59,2.29,2.92,2.9c1.34-0.14,2.75,0.37,4.03-0.4c0.12-0.13,0.23-0.25,0.35-0.38
		c0-0.24,0-0.47,0-0.71c-0.99-1.16-2.18-1.64-3.17-1.19c0.85-0.2,1.75-0.91,1.72-2.44C18.2,107.48,18.19,107.24,18.19,107z"/>
	<path class="st34" d="M48.66,25.05c1.59,1.76-0.39,2.92-0.72,4.35c0.23,0.22,0.44,0.46,0.64,0.72c0.64,1.57,3.34,1.37,3.15,3.65
		c-0.02,1.28,0.35,2.48,0.67,3.69c0.11,0.29,0.28,0.55,0.5,0.77c0.27,0.13,0.56,0.16,0.85,0.1c0.32,0.68-0.13,1.7,0.88,2.08
		c1.21-3.45-0.78-6.86-0.14-10.31c-1.37-1.74-2.43-3.7-3.83-5.43C49.92,24.41,49.24,24.44,48.66,25.05z"/>
	<path class="st35" d="M85.48,68.51c0.94-0.08,2.28,0.21,2.74-0.3c3.63-4.06,4.75-0.47,6.35,1.91c0.22,0.33,0.79,0.43,1.2,0.63
		c1.09-0.85,1.96-1.87,2.51-3.14c0.06-1.04,0.09-2.07-0.11-3.54c-1.92,1.39-3.7,1.21-5.41,0.04C89.71,64.54,87.5,66.37,85.48,68.51z
		"/>
	<path class="st36" d="M95.1,120.81c1.22-1.76,1.68-3.82,2.28-5.82c-0.24-0.25-0.53-0.4-0.86-0.47c-1.03-0.03-1.96,0.34-2.9,0.68
		c-1.09,0.47-1.9,1.26-2.6,2.19c-0.83,0.97-1.53,2.05-2.32,3.06c-0.79,1.05-1.98,1.86-2.01,3.36c0.32,1.34,1.07,2.21,2.54,2.27
		c0.71-0.26,1.11-0.82,1.43-1.46C91.72,122.88,91.3,119.38,95.1,120.81z"/>
	<path class="st37" d="M23.72,91.14c3.3,2.84,7.52,3.69,11.42,5.2c3.24,1.26,6.59,2.24,9.89,3.35c0.27-0.28,0.39-0.61,0.34-1
		c-0.74-2.07-2.78-2.11-4.39-2.83c-2.87-0.8-5.61-1.92-8.27-3.24c-1.22-0.34-2.46-0.6-3.66-1.05C27.29,91.29,25.65,89.4,23.72,91.14
		z"/>
	<path class="st38" d="M50.1,114.97c-0.01,0.81,0.17,1.68-0.69,2.23c-0.26,0.74-0.18,1.49-0.02,2.25c1.45,0.84,2.89,1.7,4.34,2.51
		c1.11,0.62,2.43,1.4,3.36-0.37c0.32-0.85-0.24-1.78,0.4-2.69c0.37-0.53,0.1-1.42-1.01-1.05c-1.81-0.57-3.24-1.73-4.61-2.98
		C51.26,114.64,50.67,114.47,50.1,114.97z"/>
	<path class="st39" d="M8.84,106.27c0.62-1.39-0.87-3.1,0.65-4.36c0.78-2.24-0.31-4.03-1.43-5.81c-1.46-1.45-2.88-0.31-3.81,0.48
		c-0.85,0.72,0.01,2.17,0.57,2.91C6.44,101.6,6.88,104.38,8.84,106.27z"/>
	<path class="st40" d="M79.81,159.23c-1.16-1.49-1.37-3.77-3.63-4.35c1.26,4.17,3.89,7.54,6.44,10.95c0.49,0.35,0.76,0.92,1.21,1.3
		c0.68,0.58,1.34,1.72,2.35,0.76c0.79-0.74-0.29-1.48-0.45-2.23c-0.48-1.78-1.36-3.3-2.94-4.34
		C81.09,161.63,81.41,159.06,79.81,159.23z"/>
	<path class="st41" d="M29.08,35.93c0.07-2.21,1.9-3.41,2.9-5.08c-1.59,0.47-2.25-1.4-3.63-1.45c-0.37,0.55-0.88,0.83-1.53,0.86
		c-1.13,0.31-2.52,0.07-3.18,1.42c0.52,0.94,1.05,1.88,1.57,2.82c0.89,0.51,0.97,1.61,1.67,2.26c0.28,0.44,0.55,0.89,0.83,1.33
		C28.17,37.37,28.63,36.65,29.08,35.93z"/>
	<path class="st42" d="M90.01,124.43c-0.29,0.45-0.57,0.91-0.86,1.36c-1.39,0.68-2.57,1.7-3.9,2.49c-1.17,0.83-2.44,1.51-3.55,2.41
		c-1.01,1.3-1.51,2.89-2.36,4.29c-0.76,1.24-0.57,1.36,1.28,1.77c3.61-3.63,7.22-7.26,10.83-10.89c0.59-0.78,0.38-1.34-0.45-1.76
		C90.61,124.03,90.28,124.14,90.01,124.43z"/>
	<path class="st43" d="M35.6,106.26c0.49-0.87,0.82-1.78,0.74-2.81c-2.57-1.14-4.94-2.96-8.01-2.4
		C29.37,104.73,31.64,106.68,35.6,106.26z"/>
	<path class="st44" d="M50.82,25.05c-0.2,2.72,1.74,3.89,3.67,5.07c0.18-3.05-0.54-5.85-2.3-8.38c-1.7-2.44-3.09-2.2-4.31,0.38
		C50.01,21.94,49.52,24.39,50.82,25.05z"/>
	<path class="st45" d="M66.01,112.03c-0.46,0.02-0.93,0.05-1.39,0.07c-1.27,0.42-2.43-0.18-3.63-0.42c-0.5-0.08-0.96-0.01-1.33,0.38
		c-0.73,1.34-0.39,3.06-1.48,4.27c-0.12,1.93,0.52,3.51,2.17,4.61c0.34,0.06,0.64-0.03,0.9-0.26c0.85-1.23,0.32-3.26,2.24-3.88
		c0.45-0.2,0.8-0.52,1.08-0.92C65.04,114.59,66.5,113.68,66.01,112.03z"/>
	<path class="st46" d="M60.88,121.09c-1.68-1.15-0.91-3.68-2.69-4.77c-0.02-0.22-0.11-0.41-0.25-0.57c-0.73-0.28-1.15,0.07-1.43,0.7
		c-0.01,0.47-0.01,0.94-0.02,1.4c2.08,1.08-1.68,2.5,0.21,3.59c0.31,1.63,1.43,2.83,2.22,4.21c0.4,0.34,0.79,0.67,1.19,1.01
		C62.64,125.61,62.74,124.85,60.88,121.09z"/>
	<path class="st47" d="M66.9,94.69c0.45-0.25,0.9-0.5,1.35-0.75c2.48-1.64,3.63-4.43,5.61-6.5c1.6-0.59,3.69-0.05,4.69-2.03
		c0.13-0.33,0.15-0.66,0.07-1c-0.68-1.12-1.69-1.66-3-1.64c-0.99,0.18-1.35,1.41-2.42,1.48c-2.75,2.95-4.79,6.41-7.03,9.73
		C66.33,94.3,66.41,94.71,66.9,94.69z"/>
	<path class="st48" d="M68.96,138.18c-1.24-4.01-3.62-7.42-5.76-10.95c-0.84,0.17-1.34,0.69-1.5,1.52c0.67,1.23,1.34,2.45,2.02,3.68
		c0.99,0.75,1.53,1.72,1.55,2.97c1.06,1.86,2.12,3.73,3.18,5.59C70.23,140.35,69.26,139.21,68.96,138.18z"/>
	<path class="st49" d="M72.61,141.07c-0.75,1.69-0.98,3.31,0.39,4.72c1.65,0.3,0.68-3.98,3.28-1.67c1.71-1.65,2.59-3.81,3.62-5.88
		c0.03-1.79-0.97-0.67-1.61-0.57c-0.41,0.28-0.77,0.62-1.12,0.97C75.89,139.91,73.96,139.94,72.61,141.07z"/>
	<path class="st50" d="M40.57,67.84c0.15,2.16,0.06,4.41,2.2,5.81c0.56-3.22,1.38-6.35,3.1-9.18c0.18-0.34,0.2-0.69,0.04-1.04
		c-0.33-0.26-0.65-0.24-0.95,0.05c-0.39,0.41-1.02,0.75-1.14,1.23c-0.86,3.36-1.97,1.73-3.1,0.21
		C39.86,65.85,40.3,66.85,40.57,67.84z"/>
	<path class="st51" d="M76.19,98.99c0.97-0.23,1.94-0.47,2.91-0.7c0.97,0.09,1.9-0.13,2.81-0.44c1.09-0.88,2.02-2.01,3.46-2.38
		c0.59-0.46,1.19-0.92,1.78-1.38c0.29-0.33,0.31-0.67,0.06-1.02c-1.46-0.96-3.05-1.36-4.8-1.06c-1.57,0.85-2.29,2.56-3.67,3.59
		C77.91,96.74,75.94,97.03,76.19,98.99z"/>
	<path class="st52" d="M10.23,43.9c-0.72-1.45-1.45-2.91-2.17-4.36c-0.32-0.58-0.87-0.7-1.47-0.71c-1.1,0.33-1.83,1.03-2.14,2.14
		c0.08,1.16,0.49,2.16,1.4,2.93c0.98,0.96,1.46,2.76,3.27,2.39C10.24,46.06,10.26,44.9,10.23,43.9z"/>
	<path class="st53" d="M48.66,101.9c1.21,1.69,2.43,3.39,3.64,5.08c1.73-0.24,1.01-1.29,0.73-2.2c-0.33-0.94-0.66-1.88-0.99-2.82
		c-0.27-1.3,0.08-2.7-0.69-3.91c-0.48-0.73-0.98-1.42-1.92-1.59c-0.74,0-1.28,0.35-1.65,0.97c-0.12,1.26,0.97,2.33,0.55,3.63
		C48.31,101.4,48.43,101.67,48.66,101.9z"/>
	<path class="st54" d="M96.49,114.94c0.3,0.02,0.6,0.03,0.89,0.05c3.63-3.58,3.64-8.39,4.38-12.95c-1.21-0.95-1.37,0.1-1.57,0.88
		c-0.22,0.88,0.2,1.94-0.75,2.62c-1.32,2.12-1.89,4.58-3.11,6.75C95.86,113.16,95.74,114.1,96.49,114.94z"/>
	<path class="st0" d="M92.76,64.1c1.28,2.22,2.94,2.25,5.16,0.92c0,0.9,0,1.9,0,2.89c-0.58,0.96-0.85,1.92,0.07,2.84
		c1.35-2.22,0.84-4.65,0.38-6.87C97.75,60.91,95.77,61.03,92.76,64.1z"/>
	<path class="st55" d="M26.95,77.95c-0.55,1.82-2.95,1.34-3.67,2.94c2.72,0.66,5.46,2.75,8.14-0.1
		C30.78,78.51,28.55,78.72,26.95,77.95z"/>
	<path class="st56" d="M23.72,91.14c2.03-0.55,3.49,1.26,5.37,1.32c0.48-0.96-0.16-1.55-0.73-2.16c-0.56-1.3-1.65-1.52-2.9-1.42
		c-1.29,0.72-2.34-0.03-3.42-0.57c-0.79-0.6-1.65-1.07-2.52-1.52c-0.88-0.32-1.97-1.01-2.62-0.04c-0.77,1.17,0.78,1.46,1.27,2.17
		C20.02,89.66,21.87,90.4,23.72,91.14z"/>
	<path class="st57" d="M58.91,125.66c0.38-1.99-1.05-3.03-2.22-4.21c-3.2,1.02-4.77-2.17-7.33-2.82c-0.2-0.27-0.42-0.28-0.67-0.07
		c-0.27,0.27-0.53,0.55-0.8,0.82C51.57,121.47,55.24,123.56,58.91,125.66z"/>
	<path class="st58" d="M61.7,128.75c0.77-0.25,1.16-0.85,1.5-1.52c-1.93-3.7,0.19-6.84,1.4-10.1c0.51-0.82,0.55-1.42-0.68-1.37
		c-0.21,0.26-0.43,0.52-0.64,0.78c-1.82,0.82-1.41,2.87-2.3,4.2c0,0.13-0.04,0.25-0.1,0.36c-0.6,0.83-0.29,1.36,0.31,2.14
		c1.12,1.46,0.43,2.65-1.09,3.43C60.63,127.36,61.17,128.06,61.7,128.75z"/>
	<path class="st59" d="M18.21,104.82c0,0.23,0.01,0.47,0.03,0.7c2.98,0.03,3.78-0.77,2.88-2.9c-1.05-1.4-3.14-2.1-2.91-4.36
		c-0.66-0.13-1.16,0.09-1.51,0.67c0.17,1.74-3.97,1-2.12,3.7C15.7,103.51,18.46,101.66,18.21,104.82z"/>
	<path class="st41" d="M19.72,18.57c-0.92,3.28,0.81,5.94,2.07,8.71c0.54-1.02,0.89,0.4,1.39,0.1c0.82-0.49,2.02,0.43,2.65-0.72
		c0.18-1.55,0.03-3.03-0.8-4.39C22.06,22.76,21.6,19.65,19.72,18.57z"/>
	<path class="st60" d="M73.19,84.26c2.03,2.01,1.55-0.76,2.3-1.2c1.66-0.53,2.24-2.17,3.37-3.25c1.16-1.12,2.16-2.34,2.42-4
		c0.15-0.53,0.76-1.09-0.11-1.55C77.55,76.83,75.26,80.46,73.19,84.26z"/>
	<path class="st61" d="M40.57,67.84c0.05-0.98,0.09-1.95,0.14-2.93c-0.66-3.4-0.21-6.8-0.09-10.2c-1.52,0.69,0.23,3.28-2.04,3.54
		c-0.76,0.59-0.94,1.42-0.95,2.31c0.15,1.69,0.31,3.38,0.69,5.04C39.54,65.86,39.8,67.11,40.57,67.84z"/>
	<path class="st62" d="M41.43,81.51c-0.1-0.61,1.56-0.36,0.67-1.36c-2.48-0.68-3.81-3.05-6.05-4.1c-1.57-0.74-2.95-2.02-4.89-1.67
		C34.31,77.15,37.83,79.38,41.43,81.51z"/>
	<path class="st63" d="M50.86,98.22c0.39,1.25,0.79,2.49,1.18,3.74c-0.28-2.37,1.06-4.11,2.29-5.9c-0.38-1.43,0.91-2.25,1.27-3.41
		c0.45-1.23,1.57-2.41,0.32-3.78c-1.65,1.29-2.89,2.82-2.93,5.05C51.97,95.2,50.45,96.23,50.86,98.22z"/>
	<path class="st64" d="M19.72,18.57c0.22,0.53,0.58,1.04,0.65,1.59c0.38,3.05,1.69,3.96,4.34,1.98c0.23-0.23,0.37-0.51,0.41-0.84
		c-0.15-0.79-0.74-1.39-0.94-2.16c-0.52-0.61-1.33-0.74-1.93-1.22c-0.14-0.05-0.29-0.09-0.44-0.13c-0.77-0.23-1.54-0.45-2.31-0.68
		C19.58,17.6,19.65,18.08,19.72,18.57z"/>
	<path class="st65" d="M8.07,96.1c-0.11,2.08,0.85,3.9,1.43,5.81c2.43-0.08,2.14-2.85,3.73-3.76C11.78,96.77,9.83,96.67,8.07,96.1z"
		/>
	<path class="st66" d="M53.03,104.78c-0.17,0.76,0.15,1.67-0.73,2.2c0.3,2.7,1.37,5.11,2.82,7.38c1.3-1.04,0.45-2.46,0.66-3.7
		C55.4,108.45,54.73,106.37,53.03,104.78z"/>
	<path class="st67" d="M38.42,60.81c0.05-0.85,0.1-1.71,0.15-2.56c0.02-1.23,0.1-2.48-0.9-3.45c-0.43-0.51-0.87-1.01-1.62-0.99
		c-0.52,0.18-0.89,0.44-0.52,1.06c0.73,3.14,0.86,6.43,2.2,9.43C38.65,63.27,37.67,61.87,38.42,60.81z"/>
	<path class="st68" d="M43.67,79.98c-0.06,1.11-0.12,2.22-0.18,3.33c-0.43,2.54,1.69,4.5,1.57,6.97c0.49,0.69-0.17,1.65,0.55,2.29
		c0.3,0.16,0.62,0.18,0.94,0.06c0.76-0.61,0.25-1.56,0.59-2.28C45.98,86.89,44.83,83.43,43.67,79.98z"/>
	<path class="st69" d="M18.17,88.92c-0.32-0.59-1.05-1.54-0.9-1.7c0.79-0.87,1.53,0.51,2.39,0.26c0.65-1.89-1.03-3-1.51-4.52
		c-0.18-0.29-0.41-0.52-0.71-0.69c-0.22,0.04-0.44,0.07-0.67,0.11c-0.71,0.59-1.22,1.43-2.24,1.59c-2.26,0.36-1.53,1.49-0.66,2.65
		C15.27,87.46,16.42,88.75,18.17,88.92z"/>
	<path class="st70" d="M10.23,43.9c-1.46,3.76-2.92,0.57-4.39,0c0.48,1.77,1.42,3.24,2.89,4.35c1.24-0.11,2.93,0.43,3.34-1.22
		C12.38,45.73,11.49,44.57,10.23,43.9z"/>
	<path class="st71" d="M50.82,25.05c-0.44-1.52-0.2-3.72-2.94-2.93c-1.77,1.82-1.98,4.3-2.76,6.54c2.16-0.24,1.66-3.08,3.53-3.61
		C49.38,25.05,50.1,25.05,50.82,25.05z"/>
	<path class="st72" d="M78.39,138.18c0.51-0.13,1.04-0.86,1.5,0.06c0.24-0.5,0.48-1,0.72-1.49c-1.37-0.09-1.27-1.01-0.58-1.56
		c1.41-1.12,1.51-2.73,2.02-4.21c-1.11-0.94-2.07-0.29-3.04,0.29C77.19,133.43,75.38,135.59,78.39,138.18z"/>
	<path class="st73" d="M37.1,84.87c0,1.08,0,2.15,0,3.23c0.51,0.74,1.31,1.16,1.92,1.79c1.11,1.08,1.27,3.37,3.62,2.89
		c1.03-0.72,0.14-1.71,0.36-2.55C41.24,88.22,39.33,86.37,37.1,84.87z"/>
	<path class="st74" d="M55.92,88.87c-0.26,1.45-0.51,2.9-0.77,4.34c0.22,0.29,0.44,0.28,0.65-0.02c1.79-2.81,3.57-5.61,5.36-8.42
		c0.22-0.84-0.16-1.13-0.95-1.06C58.76,85.42,58.03,87.72,55.92,88.87z"/>
	<path class="st75" d="M69.68,68.54c-0.57,3.38-3.55,5.84-3.62,9.42c3.19-2.63,4.11-6.41,5.17-10.13
		C70.41,67.39,70.1,68.08,69.68,68.54z"/>
	<path class="st76" d="M36.28,54.15c0.46,0.22,0.93,0.44,1.39,0.65c-0.02-1.95-0.05-3.9-0.07-5.85c-0.27-1.2-0.37-2.4,0.06-3.58
		c0.03-1.04,0.57-2.13-0.36-3.06c-2.05-0.29-0.88,1.71-1.65,2.32c0.48,0.91,0.82,1.85,0.6,2.91c-1.08,1.25-0.6,2.76-0.69,4.17
		C35.67,52.56,36.09,53.32,36.28,54.15z"/>
	<path class="st77" d="M90.01,124.43c0.22-0.04,0.44-0.08,0.66-0.13c1.7,0.18,2.37-1.54,3.73-2c0.55-0.35,0.72-0.87,0.7-1.48
		c-0.76-2.18-1.98-2.07-3.39-0.63C90.57,121.35,90.35,122.92,90.01,124.43z"/>
	<path class="st78" d="M13.88,86.62c0.48-0.49-1.58-2.07,0.69-1.72c2.21,0.34,2.09-1.15,2.21-2.52c-2.23,0.24-4.46,1.43-6.69-0.02
		C10.77,84.29,12.33,85.45,13.88,86.62z"/>
	<path class="st79" d="M37.1,69.96c0.17-0.45,0.34-0.9,0.52-1.35c0.75-0.79-0.07-1.13-0.46-1.59c-1.04-2.04-2.89-3.4-4.35-5.08
		c-1.92,0.33-0.68,1.44-0.58,2.28c1.05,1.51,1.65,3.38,3.4,4.34C36.12,69.02,36.61,69.49,37.1,69.96z"/>
	<path class="st80" d="M49.55,89.61c2.07-2.91,2.19-6.36,2.71-9.7c-2.81,2.57-2.33,6.45-3.79,9.56
		C48.78,89.86,49.14,89.9,49.55,89.61z"/>
	<path class="st81" d="M58.73,59.84c1.92-0.44,1.15-3.09,2.97-3.61c0.82-1.97,1.63-3.94,1.76-6.11c-0.11-0.15-0.21-0.29-0.32-0.44
		C60.83,52.69,59.13,55.99,58.73,59.84z"/>
	<path class="st82" d="M42.99,90.24c-1.28,0.67-0.4,1.48-0.15,2.25c-0.06,0.67,0.16,1.26,0.49,1.82c0.72,0.87,1.18,2.1,2.63,2.02
		c0.93-0.29,1.58-0.86,1.82-1.83c0.04-0.96,0.11-1.94-1.23-2.09c-0.23,0.03-0.46,0.05-0.69,0.05c-0.82-0.11-0.77-1.35-1.7-1.32
		C43.78,90.84,43.39,90.54,42.99,90.24z"/>
	<path class="st39" d="M16.03,45.34c0.15,1.63-1.46,1.93-2.18,2.91c2.4,0.63,4.81,1.17,7.31,0.67
		C19.45,47.73,17.74,46.54,16.03,45.34z"/>
	<path class="st83" d="M85.73,165.66c0.04,0.58,0.34,1.42,0.07,1.7c-0.77,0.79-1.14-0.32-1.68-0.62c-0.51-0.29-1-0.61-1.5-0.92
		c0.34,0.61,0.53,1.42,1.04,1.81c1.26,0.96,2.35,3.77,4.17,1.77C89.28,167.8,86.75,166.79,85.73,165.66z"/>
	<path class="st84" d="M30.56,15.5c-2.12,3.44,1.97,5.28,2.09,8.14c0.64-0.3,0.34-1.08,0.75-1.49
		C33.06,19.68,32.17,17.44,30.56,15.5z"/>
	<path class="st85" d="M23.27,53.33c0.92,0.53,1.02,1.9,2.22,2.14c0.76-0.73,0.01-1.5,0.07-2.25c-0.49-1.6-1.72-2.59-2.93-3.6
		C18.97,51.54,22.82,52.14,23.27,53.33z"/>
	<path class="st86" d="M60.98,112.06c1.19,2.11,2.42,0.7,3.65,0.04c-1.18-0.64-0.28-2.32-1.48-2.95c-1.97,0.87-1.59-1.06-2.18-1.83
		c-0.5,0.53-0.73,1.15-0.63,1.88C61.06,110.03,59.96,111.28,60.98,112.06z"/>
	<path class="st87" d="M97.99,70.75c-0.02-0.95-0.05-1.89-0.07-2.84c-1.37,0.45-2.34,1.2-2.15,2.83c0.01,1.48,0.03,2.97,0.04,4.45
		C97.66,74.27,97.83,72.51,97.99,70.75z"/>
	<path class="st88" d="M21.18,116.27c0.47-0.22,0.93-0.44,1.4-0.66c0.78-1.71,1.84-3.54-1.48-3.55c-0.48,0-0.97,0-1.45,0.01
		l-0.01-0.01c-0.61,0.74-1.6,1.19-1.73,2.29C18.68,115.53,19.8,116.11,21.18,116.27z"/>
	<path class="st89" d="M18.2,63.48c-0.24-0.25-0.49-0.49-0.73-0.74c-0.66,0.31-1.17,0.7-0.79,1.54c0.7,2.5,2.29,4.35,4.31,5.88
		c0.29-0.31,0.58-0.63,0.87-0.95C21.97,66.46,19.35,65.44,18.2,63.48z"/>
	<path class="st90" d="M32.76,64.1c0.11-0.72-0.92-1.46,0.05-2.16c-1.49-1.66-2.01-4.19-4.47-4.98c-0.29-0.24-0.58-0.24-0.88-0.01
		c-0.66,2.43,1.76,3.35,2.48,5.11c0.65,0.93,1.05,2.12,2.41,2.31C32.48,64.28,32.62,64.19,32.76,64.1z"/>
	<path class="st91" d="M71.26,132.36c-0.02,0.25-0.05,0.51-0.07,0.76c0.78,0.88-0.22,2.26,0.86,3.06c0.33,0.09,0.65,0.09,0.97,0
		c1.36-0.51,2.23-1.45,2.52-2.9c0.13-1.03,0.64-2.19-0.51-2.91c-1.28-0.8-1.81,0.66-2.69,1.09
		C71.94,131.7,71.59,132.01,71.26,132.36z"/>
	<path class="st19" d="M35.63,36.64c-0.74,0.01-1.47,0.02-2.21,0.02c-0.78,3.77-0.49,4.28,2.26,4c0.74-0.68,0.5-1.85,1.25-2.53
		c-0.01-1.5,0.46-3.05-0.58-4.41C35.53,34.55,36.41,35.8,35.63,36.64z"/>
	<path class="st92" d="M69.68,68.54c0.52-0.24,1.04-0.47,1.56-0.71c1.31-1.48,0.4-3.27,0.7-4.89c0.19-1.16,0.97-2.44-0.66-3.23
		c-1.39,1.55-1.77,3.27-0.9,5.22C70.14,66.13,69.91,67.34,69.68,68.54z"/>
	<path class="st93" d="M55.93,68.57c0.53,0.12,1.25,0.59,1.39-0.36c0.4-2.82,1.85-5.45,1.46-8.41
		C56.8,62.38,57.12,65.72,55.93,68.57z"/>
	<path class="st94" d="M71.16,59.86c1.06,0.83,0.56,2.04,0.77,3.08c1.15-3.86,0.59-7.8,0.55-11.72c-1.55,2.19,0.29,5.02-1.36,7.18
		C70.74,58.9,70.68,59.39,71.16,59.86z"/>
	<path class="st95" d="M25.46,27.22c-0.73-0.54-1.47-1.84-2.19,0.01c-0.02,0.16-0.04,0.32-0.07,0.47c-0.04,1.11,0.24,2.22-0.14,3.32
		c0.19,0.22,0.39,0.44,0.58,0.66c1.09-0.28,2.18-0.56,3.27-0.84c0.23-0.24,0.32-0.52,0.25-0.85c-0.37-0.87-0.81-1.7-1.33-2.49
		C25.71,27.41,25.58,27.31,25.46,27.22z"/>
	<path class="st96" d="M55.79,110.66c-1.14,1.07-0.38,2.48-0.66,3.7c0.23,0.85,0.47,1.69,1.38,2.09c0.48-0.23,0.95-0.46,1.43-0.7
		C57.22,114.06,56.5,112.36,55.79,110.66z"/>
	<path class="st97" d="M48.1,58.44c1.35-2.08,2.65-4.18,3.37-6.59c-0.27-0.56-0.03-1.41-0.93-1.6c-0.54,0.14-0.86,0.52-1.11,0.99
		c-0.99,2.35-2.71,4.48-2.26,7.29C47.49,58.72,47.81,58.69,48.1,58.44z"/>
	<path class="st98" d="M44.36,108.87c-0.31,1.4,0.91,2.13,1.4,3.17c0.8,0.73,1.12,2.16,2.66,1.81c0.5-0.19,0.84-0.51,0.94-1.06
		C48.07,111.02,46.33,109.8,44.36,108.87z"/>
	<path class="st12" d="M82.02,112.8c-0.75-0.25-1.49-0.5-2.24-0.75c-0.84,0.45-1.4,1.11-1.51,2.09c0.28,0.28,0.56,0.56,0.84,0.84
		c0.7,0.92,1.65,1.51,2.68,0.83C82.96,115.01,82.88,113.87,82.02,112.8z"/>
	<path class="st99" d="M71.11,104.79c-1,1.84-2.97,2.98-3.65,5.06c-0.3,0.77,0.07,0.9,0.73,0.77c1.73-2.16,3.47-4.32,5.2-6.49
		c-0.22-0.24-0.5-0.38-0.82-0.42C71.84,103.73,71.43,104.19,71.11,104.79z"/>
	<path class="st100" d="M66.9,94.69c-0.25-0.23-0.49-0.47-0.74-0.7c-1.36,1.74-1.93,3.87-2.82,5.84c0.35,0.42-0.08,1.21,0.67,1.44
		C65.43,99.28,65.93,96.89,66.9,94.69z"/>
	<path class="st101" d="M11.72,51.2c-0.01,0.46-0.01,0.92-0.02,1.38c-0.14,2.3,0.37,4.37,2.12,6C12.97,56.16,14.29,53.13,11.72,51.2
		z"/>
	<path class="st102" d="M68.96,138.18c-0.14,0.94,0.3,1.99-0.52,2.81c0.33,0.53,0.66,1.06,0.99,1.59c1.57-0.38,1.72-1.63,1.79-2.92
		c0.54-0.87,0.61-1.69-0.22-2.43C70.26,137.42,70.98,140.75,68.96,138.18z"/>
	<path class="st103" d="M52.9,48.25c0.29-1.42,0.58-2.85,0.87-4.27c0.57-1.18,0.21-1.8-1.11-1.85c-1.64,1.43-2.55,3.09-1.61,5.31
		C51.51,48.06,52.06,48.5,52.9,48.25z"/>
	<path class="st104" d="M36.93,38.13c-1.46,0.08-1.28,1.19-1.35,2.14c-0.5,0.73-0.5,1.45,0,2.18c0.03,0.73,0.05,1.45,0.08,2.18
		c0.86-0.55,0.5-1.97,1.65-2.32C37.18,40.92,37.06,39.52,36.93,38.13z"/>
	<path class="st25" d="M17.9,114.35c1.08-0.38,1.74-1.08,1.73-2.29c-1.45,0.27-3.11-0.6-4.37,0.78
		C15.96,113.67,16.9,114.06,17.9,114.35z"/>
	<path class="st105" d="M40.6,52.63c2.83-0.99,0.97-3.42,1.56-5.1c0.42-0.72,0.58-1.32-0.57-1.38C41.19,48.3,40.45,50.4,40.6,52.63z
		"/>
	<path class="st106" d="M81.96,97.48c-0.98,0.18-2.1-0.15-2.87,0.8c-0.27,1.25-2.14,1.3-2.1,2.79c2.19-0.71,3.93-2.15,5.73-3.51
		C82.5,97.26,82.25,97.23,81.96,97.48z"/>
	<path class="st107" d="M94.32,80.88c0.19,0.44,0.37,0.89,0.56,1.33c1.01-2.05,1.96-4.11,0.99-6.46c-0.27,0.02-0.53,0.04-0.8,0.07
		C93.84,77.36,93.78,79.08,94.32,80.88z"/>
	<path class="st49" d="M71,137.23c0.07,0.81,0.14,1.62,0.22,2.43c0.22-0.02,0.43-0.03,0.65-0.04c1.83-0.78,1.83-0.78,0.71-3.62
		c-1.16-0.63-0.25-2.25-1.39-2.89C70.63,134.46,71.03,135.86,71,137.23z"/>
	<path class="st108" d="M52.34,42.47c1,0.01,1.37,0.61,1.43,1.5c0.62-0.65,0.7-1.44,0.59-2.28c-0.73-1.12,0.24-2.56-0.68-3.64
		c-0.22,0.01-0.45,0.03-0.67,0.05c-0.89,0.52-1.24,1.38-1.4,2.34C51.57,41.22,51.65,41.96,52.34,42.47z"/>
	<path class="st109" d="M63.9,49.72c2.18-0.84,1.8-2.59,1.53-4.3c-1.04,1.27-2.24,2.45-2.28,4.26l0.01,0.06
		C63.41,50.06,63.66,50.05,63.9,49.72z"/>
	<path class="st110" d="M63.92,115.75c0.62,0.26,0.56,0.86,0.68,1.37c1.11-1.26,1.89-2.69,2.17-4.36c0.26-0.75-0.08-0.89-0.73-0.72
		l-0.03-0.02C65.31,113.27,64.62,114.51,63.92,115.75z"/>
	<path class="st111" d="M94.4,122.3c-1.81-0.39-2.42,1.45-3.73,2c0.64,0.33,0.78,0.91,0.78,1.56C93,125.14,93.73,123.74,94.4,122.3z
		"/>
	<path class="st112" d="M41.58,46.15c0.19,0.46,0.38,0.92,0.57,1.38c0.21,0,0.43,0,0.64,0.01c0.26-1.13,0.58-2.24,0.78-3.38
		c0.2-1.16-0.28-1.52-1.36-0.98C42,44.17,41.79,45.16,41.58,46.15z"/>
	<path class="st113" d="M27.65,56.96L28,56.97h0.35c-0.01-1.93-1.67-2.63-2.78-3.74c-1.01,0.72,0.09,1.5-0.07,2.25
		c0.21,0.03,0.42,0.06,0.63,0.08C26.65,56,26.29,57.41,27.65,56.96z"/>
	<path class="st114" d="M48.1,58.44c-0.29-0.01-0.58-0.01-0.87-0.02c-1.3,0.52-1.85,1.45-1.57,2.84c-0.23,0.74-0.46,1.47-0.7,2.21
		c0.25-0.02,0.51-0.03,0.77-0.05c1.18-0.23,0.92-1.45,1.46-2.12C47.99,60.51,48.05,59.48,48.1,58.44z"/>
	<path class="st115" d="M79.81,159.23c0.65,0.99,1.13,2.16,1.98,2.92c1.22,1.1,0.75-0.42,1-0.83c-0.69-1.04-1.38-2.09-2.07-3.13
		C80.42,158.53,80.12,158.88,79.81,159.23z"/>
	<path class="st116" d="M46.57,92.41c0.72,0.52,0.56,1.38,0.8,2.09c0.82,0.36,1.02-0.29,1.3-0.8c0.02-0.15,0.05-0.3,0.07-0.45
		c0.01-0.47,0.01-0.94,0.02-1.41c0.15-0.83-0.21-1.12-1.01-0.92c-0.2-0.19-0.4-0.39-0.61-0.58C46.36,90.87,46.55,91.66,46.57,92.41z
		"/>
	<path class="st117" d="M36.35,52.6c-0.03-1.69-0.06-3.37-0.09-5.06c-0.22-0.01-0.44-0.01-0.66-0.01c-0.86,0.81-0.27,1.99-0.74,2.9
		c-0.33,0.04-0.67,0.08-1,0.12c0.2,0.25,0.4,0.5,0.61,0.75c0.22,0.69,0.54,1.38,1.05,1.84C36.04,53.63,36.61,53.61,36.35,52.6z"/>
	<path class="st118" d="M52.9,48.25c-0.45-0.24-0.9-0.48-1.36-0.72c-0.94,0.72-1.45,1.56-0.83,2.75c0.25,0.53,0.5,1.05,0.74,1.58
		C51.94,50.65,52.42,49.45,52.9,48.25z"/>
	<path class="st119" d="M87.1,93.24c0.01,0.28,0.03,0.56,0.04,0.84c1.26-0.72,2.1-1.83,2.81-3.06c-0.14-0.1-0.29-0.2-0.43-0.31
		C86.36,90.95,86.02,91.32,87.1,93.24z"/>
	<path class="st120" d="M66.75,43.14c1.11,0.82,2.4,0.71,3.67,0.75C69.49,42.26,68.32,41.75,66.75,43.14z"/>
	<path class="st121" d="M36.35,52.6c-1.19,0.39-1.06-1.15-1.89-1.3c0.1,1.26,0.24,2.52,1.06,3.57c0.25-0.24,0.5-0.48,0.75-0.72
		C36.98,53.66,37.14,53.15,36.35,52.6z"/>
	<path class="st122" d="M60.21,83.72c0.32,0.35,0.64,0.7,0.95,1.06c0.67-1.05,1.35-2.11,2.02-3.16c-0.09-0.47-0.36-0.76-0.84-0.85
		C61.63,81.75,60.92,82.74,60.21,83.72z"/>
	<path class="st123" d="M33.41,22.15c-0.61,0.31-0.69,0.9-0.75,1.49c0.02,0.22,0.04,0.45,0.05,0.67c0.65,0.37,0.98,1.62,2.07,0.73
		C34.32,24.08,33.87,23.12,33.41,22.15z"/>
	<path class="st124" d="M93.8,84.53c-1.71,0.6-2.06,2.09-2.36,3.61c-0.22,0.19-0.29,0.37-0.2,0.55c0.08,0.17,0.17,0.26,0.25,0.26
		C92.55,87.63,93.35,86.17,93.8,84.53z"/>
	<path class="st125" d="M23.27,27.23c-0.48,0.26-1.06-2.3-1.47,0.05c0.27,0.94,0.53,1.89,0.8,2.83
		C24.47,29.53,23.57,28.31,23.27,27.23L23.27,27.23z"/>
	<path class="st126" d="M48.66,101.9c0.02-0.21,0.03-0.43,0-0.64c0.44-0.84-0.13-1.35-0.6-1.9c-0.95-0.59-1.9-1.2-3.05-0.44
		c0.01,0.26,0.02,0.52,0.03,0.78C46.25,100.42,47.46,101.16,48.66,101.9z"/>
	<path class="st127" d="M64.02,101.28c-0.22-0.48-0.45-0.96-0.67-1.44c-0.49,1.19-0.98,2.39-1.47,3.58c0.18,0.31,0.21,0.74,0.68,0.8
		C63.04,103.24,63.53,102.26,64.02,101.28z"/>
	<path class="st128" d="M33.48,81.98c0.13,1.33,0.04,2.94,2.18,1.73C34.94,83.14,34.21,82.56,33.48,81.98z"/>
	<path class="st129" d="M38.42,60.81c-1.26,0.96-0.29,2.36-0.69,3.48c0.08,0.45,0.16,0.9,0.24,1.35l0.35-0.04
		C38.35,64,38.39,62.41,38.42,60.81z"/>
	<path class="st130" d="M55.8,93.2c-0.22,0-0.43,0-0.65,0.02c-1.15,0.7-2.09,1.45-0.82,2.85C54.82,95.11,55.31,94.15,55.8,93.2z"/>
	<path class="st131" d="M62.55,104.22c-0.23-0.27-0.45-0.53-0.68-0.8c-0.29,1.18-0.57,2.37-0.86,3.55
		C63.11,106.93,62.16,105.21,62.55,104.22z"/>
	<path class="st132" d="M81.96,97.48c0.25,0.03,0.51,0.05,0.76,0.08c1.02-0.53,2.01-1.08,2.63-2.1
		C83.63,95.14,82.81,96.32,81.96,97.48z"/>
	<path class="st133" d="M72.46,104.07c0.31,0.02,0.62,0.04,0.93,0.05c0.76-0.68,1.53-1.36,2.29-2.04c-0.3-0.26-0.6-0.53-0.9-0.79
		C73.35,101.66,72.35,102.4,72.46,104.07z"/>
	<path class="st134" d="M49.37,112.8c-0.25,0.25-0.5,0.51-0.75,0.76c-0.16,0.16-0.19,0.31-0.12,0.44c0.07,0.12,0.14,0.19,0.2,0.19
		c0.47,0.26,0.93,0.52,1.4,0.78c0.59-0.03,1.17-0.07,1.76-0.1C51.22,113.95,50.4,113.25,49.37,112.8z"/>
	<path class="st135" d="M53.68,38.05c0.25,1.21-0.41,2.59,0.68,3.64c0.09-0.42,0.17-0.85,0.26-1.27
		C53.89,39.8,55.39,38.28,53.68,38.05z"/>
	<path class="st136" d="M62.35,80.77c0.28,0.28,0.56,0.57,0.84,0.85c0.45-0.72,0.9-1.43,1.35-2.15c-0.7,0.23-1.4,0.46-2.09,0.69
		C62.42,80.37,62.39,80.57,62.35,80.77z"/>
	<path class="st137" d="M60.98,112.06c-0.07-0.99,0.46-2.11-0.65-2.86c-0.22,0.95-0.45,1.91-0.67,2.86
		C60.1,112.05,60.54,112.06,60.98,112.06z"/>
	<path class="st41" d="M23.27,27.23c-0.11,0.99,0.39,2.11-0.67,2.88c0.16,0.3,0.31,0.61,0.47,0.91
		C24.38,29.82,24.41,28.56,23.27,27.23z"/>
	<path class="st138" d="M66.05,112.05c0.24,0.24,0.48,0.48,0.73,0.72c0.47-0.72,0.95-1.44,1.42-2.16c-0.24-0.26-0.48-0.51-0.73-0.77
		C67,110.58,66.52,111.32,66.05,112.05z"/>
	<path class="st49" d="M71.26,132.36c0.44,0.01,0.88,0.01,1.32,0.02c0.59-0.83,0.83-1.71,0.35-2.68c-0.26-0.37-0.59-0.43-0.97-0.2
		C71.72,130.45,71.49,131.4,71.26,132.36z"/>
	<path class="st102" d="M65.27,135.41c0.95-1.76-0.18-2.43-1.55-2.97C63.93,133.58,64.32,134.64,65.27,135.41z"/>
	<path class="st139" d="M35.63,36.64c1.02-0.78,0.52-1.94,0.72-2.92c-0.06-0.45-0.11-0.89-0.17-1.34
		C35.09,33.68,35.81,35.22,35.63,36.64z"/>
	<path class="st140" d="M71.95,129.49c0.22-0.02,0.44-0.03,0.66-0.03c0.43-0.08,0.7-0.33,0.81-0.76c-0.11-0.74,0.25-1.65-0.75-2.07
		C72.46,127.59,71.67,128.41,71.95,129.49z"/>
	<path class="st141" d="M37.16,67.02c0.15,0.53,0.3,1.06,0.46,1.59c1.84-0.56,0.65-1.49,0.28-2.32
		C37.65,66.53,37.4,66.77,37.16,67.02z"/>
	<path class="st104" d="M37.66,45.36c-0.92,1.18-0.93,2.37-0.06,3.58C37.62,47.75,37.64,46.56,37.66,45.36z"/>
	<path class="st142" d="M71.73,46.2c-1.04,1.02-0.46,2.33-0.6,3.51c0.66-0.32,0.7-0.97,0.84-1.57
		C71.89,47.49,71.81,46.84,71.73,46.2z"/>
	<path class="st143" d="M44.18,91.14c0.47,0.56,0.28,1.98,1.7,1.32c-0.14-0.78-0.13-1.62-0.82-2.19
		C44.77,90.56,44.47,90.85,44.18,91.14z"/>
	<path class="st144" d="M16.69,64.28c0.26-0.51,0.52-1.03,0.79-1.54c-0.56-0.81-1.06-0.62-1.53,0.09
		C16.19,63.31,16.44,63.8,16.69,64.28z"/>
	<path class="st68" d="M47.75,90.92c0.34,0.31,0.67,0.62,1.01,0.92c0.78-0.56,0.66-1.44,0.8-2.24c-0.36-0.05-0.72-0.1-1.08-0.14
		C48.23,89.95,47.99,90.43,47.75,90.92z"/>
	<path class="st145" d="M47.18,61.3c-0.49,0.71-0.97,1.42-1.46,2.12c0.05,0.34,0.1,0.69,0.15,1.03
		C46.8,63.62,47.39,62.63,47.18,61.3z"/>
	<path class="st146" d="M26.88,36.76c0.06-1.2-0.49-1.96-1.67-2.26C25.25,35.63,25.56,36.57,26.88,36.76z"/>
	<path class="st147" d="M4.44,40.98c0.71-0.71,1.43-1.43,2.14-2.14C4.97,38.65,4.26,39.37,4.44,40.98z"/>
	<path class="st148" d="M40.54,106.79c0.05,0.31,0.1,0.61,0.14,0.92c0.25,0.23,0.31,0.68,0.76,0.68c0.57,0.03,1.11,0,1.39-0.62
		C42.08,107.41,41.66,106.27,40.54,106.79z"/>
	<path class="st149" d="M91.48,88.94c-0.01-0.27-0.03-0.54-0.04-0.81c-0.47,0.25-0.95,0.49-1.42,0.74c-0.62,0.71-0.6,1.43-0.05,2.16
		l-0.02-0.01C90.46,90.33,90.97,89.64,91.48,88.94z"/>
	<path class="st150" d="M89.97,91.04c0.02-0.72,0.03-1.44,0.05-2.16c-3.06-1.23-1.93-3.61-1.45-5.76c-1.4-0.78-1.62,1.33-3.05,0.84
		c0.51-1.34,0.5-2.67-1.33-3.07c-0.12,0.11-0.25,0.22-0.37,0.33c-0.82,1.76-1.52,3.59-2.65,5.2c-0.28,0.61-0.18,1.25-0.12,1.88
		c0.14,1.23-0.23,2.45-0.04,3.68c0.2,0.45,0.44,0.81,1.02,0.55c1.69,0.24,3.38,0.48,5.07,0.72C86.68,90.71,88.94,91.67,89.97,91.04z
		"/>
	<path class="st151" d="M94.32,80.88c1.05-1.57,0.64-3.36,0.75-5.06c-0.11-1.33-1.15-2.16-2.14-1.85c-1.37,0.43,0.46,1.6,0.12,1.92
		c-2.54,2.43-1.49,5.44-1.59,8.34C92.19,82.84,92.62,81.33,94.32,80.88z"/>
	<path class="st152" d="M81.28,75.8c-0.96,1.21-1.93,2.42-2.89,3.63c0.16,4.25,0.35,4.36,3.86,2.31c0.61-0.36,1.43-0.26,1.95-0.86
		l0,0C83.06,79.28,84.7,76.1,81.28,75.8z"/>
	<path class="st153" d="M86.74,74.5c1.17,0.13,1.68,1.41,2.63,1.67c0.9,0.25,1.27-0.84,1.3-1.71c0.05-1.25-0.38-1.9-1.84-1.92
		C87.52,72.51,87.26,73.3,86.74,74.5z"/>
	<path class="st154" d="M63.9,49.72c-0.25,0.01-0.49,0.01-0.74,0.02c0.18,2.31-1.96,4.1-1.45,6.49c1.42,3.12,5.39,2.76,7.98-0.72
		c-0.24-0.04-0.52,0-0.7-0.12c-2.9-1.94-2.9-1.95-5.33,0.54C62.33,53.75,64.38,51.76,63.9,49.72z"/>
	<path class="st155" d="M71.16,59.86c-0.01-0.49-0.03-0.97-0.04-1.46c-5.83,3.84-5.96,4.15-3.6,8.7c0.95-0.73,1.9-1.45,2.85-2.18
		C70.89,63.28,71.28,61.61,71.16,59.86z"/>
	<path class="st156" d="M26.9,30.12c0,0.24,0.01,0.48,0.01,0.73c0.63,0.03,1.26,0.06,1.9,0.09c-0.15-0.51-0.3-1.02-0.46-1.54
		c0.82-1.77,2.56-3.99-1.61-3.22c-0.24-1.44,1.12-1.74,1.63-2.6c0.42-0.49,0.35-0.95-0.06-1.4c-0.71-0.26-1.42-0.52-2.13-0.78
		c-0.49-0.38-0.97-0.43-1.44,0.03c-0.01,0.24-0.01,0.47-0.02,0.71c0.25,1.69,0.5,3.39,0.75,5.08l0,0
		C26.01,28.15,26.11,29.31,26.9,30.12z"/>
	<path class="st41" d="M24.74,21.43c0.48-0.01,0.96-0.02,1.44-0.03c-1.73-0.59-0.26-3.75-2.9-3.61c-0.05,0.15-0.1,0.29-0.16,0.44
		c0.13,0.48,0.53,0.73,0.88,1.03C24.24,19.98,24.49,20.7,24.74,21.43z"/>
	<path class="st157" d="M28.31,22.18c0.02,0.47,0.04,0.93,0.06,1.4c1.02-0.05,1.46-0.61,1.38-1.6c-0.04-0.49-0.25-1.04-0.78-0.89
		C28.68,21.17,28.53,21.8,28.31,22.18z"/>
	<path class="st64" d="M23.28,16.36c-0.05-0.42-0.13-1.1-0.62-0.91c-1.03,0.41-0.78,1.47-0.84,2.34l0.01,0.01
		c0.48,0.42,0.96,0.45,1.44-0.01l0,0C23.27,17.31,23.28,16.84,23.28,16.36z"/>
	<path class="st158" d="M21.1,112.06c1.99,0.56,1.38,2.21,1.48,3.56l0.34,0.04h0.35c1.15-1.17,2.84-1.59,3.95-2.81
		c0.97-2.54,2.63-4.21,5.49-4.39c-1.14-3.23-4.32-1.72-6.42-2.73c-0.08-0.04-0.51,0.33-0.48,0.41c0.9,2.88-1.66,2.75-3.08,3.69
		C21.99,110.3,21.1,110.92,21.1,112.06z"/>
	<path class="st159" d="M32.7,108.44c-3.04-1.29-5.46,0.5-5.84,4.34c-0.8,2.33,1.37,1.55,2.24,2.13c2.22-0.56,5.22,1.27,6.52-2.13
		c-0.01-0.72-0.02-1.44-0.02-2.16c-0.23-0.01-0.47-0.01-0.7-0.02C33.56,110.51,33.22,109.39,32.7,108.44L32.7,108.44z"/>
	<path class="st25" d="M18.2,107.72c-1.09,0.7-1.27,3.27-3.71,1.38c1.4,2.16,3.61,1.36,5.16,2.25
		C19.08,110.17,19.99,108.41,18.2,107.72z"/>
	<path class="st160" d="M21.12,102.62c0.35,2.27-1.69,2.16-2.88,2.9c-0.01,0.24-0.02,0.49-0.03,0.73c0.72,0.48,1.45,0.45,2.17,0.01
		c0.69-0.47,1.51-0.74,2.1-1.37C23.49,103.26,23.02,102.51,21.12,102.62z"/>
	<path class="st161" d="M32.69,108.46c-0.35,1.82-0.69,3.63,2.2,2.15C34.39,109.65,33.69,108.9,32.69,108.46z"/>
	<path class="st162" d="M22.48,104.89c-1.09-0.15-2.04-0.07-2.1,1.37C22.03,107.25,22.75,106.82,22.48,104.89z"/>
	<path class="st163" d="M76.19,98.99c0.98-0.96,1.95-1.91,2.93-2.87c1.34-2.01,0.25-3.56-0.96-5.08c-1.46-0.97-3.07-1.74-3.23-3.89
		c-0.06-0.85-0.86-1-1.61-0.46c-1.65,2.45-3.89,4.48-5.07,7.25c1.7,1.28,3.11-0.03,4.68-0.39c1.41-0.33,2.83,0.84,4.68-0.12
		c-0.98,2.17-4.12,1.47-3.58,4.14C74.75,98.04,75.47,98.51,76.19,98.99z"/>
	<path class="st164" d="M39.23,89.59c-0.06-1.44-1.11-1.45-2.14-1.48c-1.5,0.99-1.65-1.48-2.91-1.12c-0.66,0.17-0.46,0.62-0.41,1.1
		c0.22,1.96,0.2,1.86-1.94,1.74c-1.14-0.06-2.31,0.3-3.47,0.47c0.24,0.72,0.49,1.44,0.73,2.16c1.1,0.72,2.34,0.78,3.6,0.76
		c1.47,0.4,2.92,0.14,4.41,0.05C40.04,93.1,40.3,91.84,39.23,89.59z"/>
	<path class="st165" d="M17.45,82.27c0.01,0.27,0.02,0.53,0.03,0.8c0.87,0.35,0.97,1.68,2.12,1.67c1.11-0.64,1.9-0.34,2.4,0.82
		c0.51,0.79,1.64,0.92,2.01,1.86c2.86-1.22,1.36-3.19,0.13-3.96c-1.36-0.85-0.87-1.63-0.85-2.56c-1.84,0.86-3.37-0.48-5.05-0.72
		C17.97,80.87,17.71,81.57,17.45,82.27z"/>
	<path class="st166" d="M19.66,84.51c-0.91-0.2-0.42-2.53-2.18-1.44c0.13,1.77,1.78,2.78,2.19,4.41c0.72,0.47,1.44,0.93,2.15,1.4
		c0.97,0.49,1.95,0.57,2.91-0.01c-0.46-0.27-0.95-0.5-1.38-0.81c-0.22-0.16-0.35-0.46-0.51-0.7c0.39,0.02,0.78,0.04,1.16,0.07
		c0.12-1.13-1.01-1.43-1.45-2.18C21.73,84.4,20.74,84.28,19.66,84.51z"/>
	<path class="st164" d="M24.73,88.86c-0.97,0-1.94,0.01-2.91,0.01c1.21,0.69,2.43,2.07,3.65,0.01
		C25.22,88.87,24.98,88.87,24.73,88.86z"/>
	<path class="st167" d="M57.35,81.61c-0.24,0-0.48,0-0.72-0.01c-4.14,0.21-4.68,2.72-3.72,6.29C55.06,86.27,55.61,83.49,57.35,81.61
		z"/>
	<path class="st168" d="M50.86,98.22c0.36-1.61,2.52-2.33,2.13-4.31c-1.28-1.13-2.92,0.08-4.26-0.67l-0.22-0.09
		c-0.24,1.35-1,2.86,1.02,3.57C49.98,97.23,50.42,97.73,50.86,98.22z"/>
	<path class="st169" d="M82.02,112.8c0.34,2.47-0.7,3.09-2.9,2.17c-0.37,0.76-0.81,1.49-1.09,2.28c-0.55,1.54,0.75,2.21,1.65,2.84
		c1.14,0.79,1.19-0.52,1.66-1.12c1.43-1.82,3.11-3.3,5.74-3.12c-0.24,0.93-0.48,1.84-0.72,2.76c0.16,1.79,0.84,2.91,2.9,2.18
		c0.73-0.96,1.46-1.91,2.19-2.87c-0.3-2.49-1.55-4.56-2.92-6.56c-1.11-0.97-0.3-3.1-2.17-3.62
		C85.28,109.72,83.53,111.15,82.02,112.8z"/>
	<path class="st170" d="M73.42,128.7c-0.27,0.25-0.54,0.5-0.81,0.76c-0.01,0.97-0.02,1.94-0.03,2.92c0.71-0.54,1.64-1.66,2.1-1.49
		c1.08,0.38-0.14,1.44,0.1,2.21c2.05,1.35,2.7-1.54,4.34-1.43c0.98-0.23,1.96-0.45,2.94-0.67c1.48-0.29,2.53-1.31,3.65-2.2
		c-0.89-1.06-2.01-1.9-2.98-2.88c-1.77-1.55-3.4-3.3-5.27,0.08C76.68,127.36,73.84,126.36,73.42,128.7z"/>
	<path class="st171" d="M89.27,120.77c-1.4-0.15-1.98-1.39-2.9-2.18c-0.98,1.41-2.06,2.77-2.92,4.25c-0.89,1.52-0.44,2.43,1.46,2.28
		c1.39,0.48,1.7-0.62,2.17-1.48C87.81,122.68,88.54,121.73,89.27,120.77z"/>
	<path class="st172" d="M87.08,123.64c-0.72,0.49-1.44,0.99-2.17,1.48c-0.51,0.87-1.4,0.68-2.18,0.77c0.27,1.71,0.9,3.05,2.98,2.88
		c1.36-0.75,2.85-1.35,3.44-2.99C88.22,125.3,87.52,124.59,87.08,123.64z"/>
	<path class="st173" d="M88.54,111.34c0.03,2.61,1.2,4.71,2.92,6.56c0.72-0.73,1.44-1.46,2.15-2.19c2.42-3,3.16-8.62,1.44-10.89
		C91.37,105.47,91.33,109.79,88.54,111.34z"/>
	<path class="st174" d="M95.07,104.82c0.79,3.8-0.69,7.3-1.45,10.89c1.04,0.07,1.99-0.23,2.87-0.77c0.54-3.27,3.35-5.83,2.96-9.39
		C97.59,107.69,96.61,104.55,95.07,104.82z"/>
	<path class="st175" d="M35.62,112.79c-1.92,1.63-4.36,0.95-6.53,1.44c-0.39,0.49-0.44,0.98-0.01,1.47
		c4.81,0.83,9.65,1.24,14.52,1.39C43.42,112.66,41.3,111.51,35.62,112.79z"/>
	<path class="st176" d="M48.7,118.56c0.22,0.02,0.44,0.04,0.67,0.07c0.78-0.45,0.15-0.95,0.05-1.42c-1.46-3.09-2.96,0.92-4.44-0.02
		C45.94,118.39,47.76,117.28,48.7,118.56z"/>
	<path class="st177" d="M48.71,114.19c-0.01-0.21-0.04-0.42-0.09-0.63c-0.95-0.51-1.91-1.01-2.86-1.52
		c0.15,0.85-0.92,1.84,0.18,2.53C46.9,115.19,47.91,115.21,48.71,114.19z"/>
	<path class="st178" d="M41.44,108.39c-0.25-0.23-0.51-0.45-0.76-0.68c-0.3,0.87-0.6,1.74-0.94,2.7
		C41.57,110.67,41.34,109.4,41.44,108.39z"/>
	<path class="st179" d="M35.63,68.55c-0.86-1.55-1.44-3.28-2.88-4.45l-0.12,0.2c-1.91,0.24-3.65,0.55-1.33,2.82
		c0.58,0.56,1.2,1.16,0.83,2.36c-2.13-0.28-3.62-4.03-6.31-1.45c-0.29,0.74-0.18,1.4,0.36,1.99c2.73-0.46,4.43,2.86,7.36,1.97
		c0.61-0.18,1.5,0.88,2.23,0c0.87-1.05-0.05-1.8-0.64-2.46C34.29,68.57,35.07,68.66,35.63,68.55z"/>
	<path class="st180" d="M26.18,70.01c0-0.73,0-1.46,0.01-2.19c0.36-0.32,0.8-0.5,1.26-0.63c0.78-0.22,1.81-0.27,1.66-1.42
		c-0.12-0.91-0.95-1.29-1.78-1.53c-2.03-0.59-4.05-1.21-6.09-1.77c-0.28-0.16-0.57-0.29-0.88-0.38c-0.24-0.01-0.47-0.02-0.71-0.03
		c-0.29,0.18-0.53,0.42-0.71,0.71c-0.01,0.24,0,0.48,0.01,0.72c1.44,2.9,4.5,4.18,6.5,6.52C25.69,70.01,25.94,70.01,26.18,70.01z"/>
	<path class="st144" d="M25.45,70.01c-1-3.34-4.18-4.5-6.5-6.52c-0.25,0-0.5-0.01-0.75-0.01c-0.23,2.84,2.83,3.58,3.66,5.74
		C23.06,69.48,24.26,69.74,25.45,70.01z"/>
	<path class="st85" d="M20.36,62.08c0,0.23,0.01,0.45,0.02,0.68c2.68,0.34,5.26,1.31,7.99,1.29c1.3-0.01,2.86,0.12,2.19-2.05
		c0.01-2.24-2.91-2.8-2.91-5.04c-0.51-0.47-1.02-0.93-1.52-1.4c-0.23,0.63-1.5,0.88-0.5,1.97c2.78,3.01,0.24,3.37-2,3.76
		C22.52,61.48,21.23,60.93,20.36,62.08z"/>
	<path class="st85" d="M18.94,62.77c0.24-0.24,0.47-0.48,0.71-0.71c-0.18-0.67,0.27-2.11-0.85-1.72
		C17.78,60.69,19.17,61.9,18.94,62.77z"/>
	<path class="st181" d="M72.46,104.07c0.77-0.93,1.55-1.86,2.32-2.78c-0.15-0.68-0.56-1.86-1.16-1.09c-1.06,1.33-3.27,2.22-2.5,4.58
		C71.56,104.55,72.01,104.31,72.46,104.07z"/>
	<path class="st182" d="M35.58,42.45c0-0.73,0-1.45,0-2.18c-0.76,0.3-1.89,0.77-1.7-0.57c0.16-1.16-0.52-2.01-0.45-3.04
		c-0.24-0.01-0.48-0.01-0.72-0.01C30.13,38.88,30.89,40.41,35.58,42.45z"/>
	<path class="st183" d="M34.86,50.44c1.12-0.74,0.62-1.9,0.74-2.9C34.03,48.17,34.25,49.25,34.86,50.44z"/>
	<path class="st184" d="M43.55,50.46c0.01,0.71,0.02,1.43,0.03,2.14c1.66,1.91,2.93,0.87,4.17-0.53c0.92-4.25,2.08-8.44,2.75-12.75
		c-0.45-0.77-1.04-1.03-1.84-0.49c-0.12,0.33-0.25,0.95-0.37,0.94c-4.8-0.07-4.04,3.33-3.98,6.3
		C44.28,47.57,43.07,48.87,43.55,50.46z"/>
	<path class="st185" d="M52.29,33.76c1.1-1.64,0.06-2.52-1.3-2.81c-1.08-0.23-1.57-1.04-2.36-1.52c-0.4,1.23-1.02,2.37-1.43,3.6
		c-0.03,0.97-0.7,1.94,0,2.9c0.37,0.43,0.82,0.44,1.31,0.27C49.24,34.57,52.04,36.13,52.29,33.76z"/>
	<path class="st186" d="M48.65,35.92c-0.48,0-0.96,0.01-1.44,0.01c-0.13,1.35-3.15,0.94-1.96,2.84c0.73,1.15,2.25,0.44,3.42,0.07
		c0.6,0.01,1.14,0.12,1.46,0.71c0.6,0.59,1.17,1.27,2.15,0.74c0.24-0.72,0.49-1.45,0.73-2.17l-0.02-0.04
		C51.45,37.54,50.5,35.82,48.65,35.92z"/>
	<path class="st187" d="M43.55,50.46c0.38-1.44,1.84-2.69,0.76-4.38c-0.48,0.48-0.96,0.96-1.44,1.44
		C42.92,48.54,42.54,49.66,43.55,50.46z"/>
	<path class="st188" d="M47.21,33.02c1.13-0.94,1.53-2.17,1.43-3.6c-0.23-0.02-0.47-0.03-0.7-0.02
		C48.18,30.71,46.37,31.6,47.21,33.02z"/>
	<path class="st91" d="M72.58,136.01c-1.61,0.94,1.45,2.79-0.71,3.62c0.25,0.48,0.5,0.97,0.74,1.45c2.03,0.08,3.94-0.12,5.06-2.16
		c0.04-0.11,0.08-0.22,0.12-0.34l-5.11-2.65L72.58,136.01z"/>
	<path class="st160" d="M18.21,104.82c0.69-2.98,0.34-3.2-3.63-2.18C15.52,103.82,17.4,103.43,18.21,104.82z"/>
	<path class="st189" d="M11.93,101.73c-0.06,0.41-0.2,0.83-0.17,1.25c0.03,0.51,0.34,0.95,0.91,0.68c0.21-0.1,0.35-0.61,0.33-0.93
		C12.96,102.25,12.74,101.8,11.93,101.73z"/>
	<path class="st190" d="M47.21,51.89c-1.06,0.99-2.25,1.32-3.63,0.72c-2.7,3.66-2.11,6.11,2.06,8.66c0.52-0.95,1.05-1.89,1.57-2.84
		c0.96-2.42,1.91-4.85,2.87-7.27C48.93,50.6,48.04,51.13,47.21,51.89z"/>
	<path class="st191" d="M29.08,115.7c0-0.49,0.01-0.98,0.01-1.47c-0.28-1.19-2.37,0.4-2.22-1.45c-1.63,0.42-3.34,0.73-3.6,2.87
		C25.2,115.66,27.14,115.68,29.08,115.7z"/>
	<path class="st192" d="M48.65,35.92c1.37,0.88,2.05,3.13,4.34,2.15c0.29-1.52-0.48-2.87-0.7-4.31c-0.67,0.44-1,1.23-2.25,0.52
		C48.37,33.32,48.09,34.47,48.65,35.92z"/>
	<path class="st193" d="M39.23,89.59c0.44,3.35-2.59,2.46-4.15,3.3c-0.66,0.36-1.58,0.24-2.39,0.34c2.26,2.1,5.32,2.41,8,3.59
		c1.21-0.72,2.33-1.52,2.89-2.89c-0.03-0.59-0.16-1.13-0.74-1.43C40.69,92.71,40.75,90.17,39.23,89.59z"/>
	<path class="st194" d="M43.59,93.93c-1.7,0.22-2.02,1.83-2.89,2.89c1.51,0.55,3.35,0.42,4.31,2.09c0.96,0.24,1.92,0.49,2.88,0.73
		c0.41-0.86-0.45-1.49-0.4-2.29c-0.38-0.68-0.55-1.65-1.71-1.25C45.05,95.38,44.32,94.66,43.59,93.93z"/>
	<path class="st195" d="M60.98,120.73c1.19-1.17,1.65-2.74,2.3-4.2C60.02,116.57,61.29,119.09,60.98,120.73z"/>
	<path class="st12" d="M84.19,80.88c-1.99-0.73-3.53-0.46-3.86,2.82c-0.91-2.01-1.43-3.14-1.94-4.27c-1.49,0.79-1.93,2.42-2.9,3.62
		c0.97,0.49,1.93,0.97,2.9,1.46c0.67,1.15,1.7,1.78,2.94,2.15C83.47,85.33,84.28,83.33,84.19,80.88z"/>
	<path class="st196" d="M81.33,86.67c-0.16-1.83-2-1.38-2.94-2.15c0,0.24,0,0.49-0.01,0.73c-1.47,1.78-2.36,3.62-0.72,5.79
		c0.25,1.76,2.01,3.09,1.45,5.08c1.35-0.89,2.7-1.78,2.92-3.6c-0.23-0.23-0.47-0.46-0.7-0.69c-0.58-1.36-1-2.69,0.64-3.66
		C81.76,87.66,81.54,87.17,81.33,86.67z"/>
	<path class="st197" d="M77.67,91.04c0.24-1.93,0.48-3.86,0.72-5.79c-1.4,1.5-3.53,0.42-5.07,1.44
		C74.76,88.15,74.18,91.63,77.67,91.04z"/>
	<path class="st198" d="M72.69,135.94c1.19,1.79,3.31,2.01,4.98,2.98c0.24-0.25,0.48-0.49,0.72-0.74c-1.45-2.36-0.33-4.44,0.73-6.53
		c-1.87-0.8-2.61,1.82-4.34,1.43C74.91,134.65,73.4,135,72.69,135.94z"/>
	<path class="st199" d="M45.77,96.11c0.46,0.51,0.92,1.03,1.38,1.54c0.26,0.31,0.49,0.28,0.69-0.05c0.56-0.29,1.12-0.57,1.69-0.86
		c-0.9-1.03-0.8-2.34-1.02-3.57c-0.38,0.45-0.76,0.89-1.14,1.34C46.84,95.04,46.3,95.57,45.77,96.11z"/>
	<path class="st200" d="M47.85,97.59c-0.23,0.01-0.46,0.03-0.69,0.05c0.25,0.67,0.49,1.33,0.74,2c0.26,0.54,0.52,1.08,0.78,1.61
		C50.21,99.63,48.98,98.62,47.85,97.59z"/>
	<path class="st2" d="M23.27,17.79c-0.48,0-0.96,0-1.44,0.01c0.06,1.47,1.12,1.45,2.17,1.46C23.75,18.77,23.51,18.28,23.27,17.79z"
		/>
	<path class="st201" d="M30.55,62c-1.35,2.62-3.64,1.08-5.33,0.87c-1.65-0.21-3.23-0.16-4.85-0.11c2.38,1.81,5.47,1.61,8.34,2.71
		c-0.61,1.29-2.31,1.07-2.53,2.35c1.29,0.05,2.76-0.24,3.48,1.24c0.78,1.6,2.47,2.35,3.46,1.45c1.25-1.12,0.17-3.4-0.89-3.92
		c-3.27-1.62,0.28-1.57,0.4-2.29C31.94,63.53,31.25,62.77,30.55,62z"/>
	<path class="st41" d="M26.9,30.12c-0.11-1.15-0.51-2.16-1.45-2.9C25.38,28.47,25.58,29.57,26.9,30.12z"/>
	<path class="st20" d="M47.21,51.89c1.04,0.1,1.98-0.22,2.87-0.73c0.21-0.29,0.42-0.58,0.63-0.88c0.28-0.92,0.55-1.83,0.83-2.75
		c-0.72-1.84,1.17-3.27,0.79-5.05c-0.02-0.73-0.04-1.46-0.06-2.2c-0.72-0.25-1.43-0.49-2.15-0.74
		C47.87,43.35,48.22,47.78,47.21,51.89z"/>
	<path class="st202" d="M81.98,88.16c-0.9,0.09-2.18-0.44-2.55,0.63c-0.54,1.55,1.23,2.03,1.91,3.03
		C81.86,90.66,82.02,89.43,81.98,88.16z"/>
	<path class="st203" d="M19.66,84.51c0.76,1.06,1.89,0.65,2.9,0.72c-0.08-1.04-0.44-1.89-1.6-2.05
		C19.99,83.05,19.75,83.73,19.66,84.51z"/>
</g>
</svg>
