<?xml version="1.0" encoding="utf-8"?>
<!-- Generator: Adobe Illustrator 25.0.1, SVG Export Plug-In . SVG Version: 6.00 Build 0)  -->
<svg version="1.1" id="Layer_1" xmlns="http://www.w3.org/2000/svg" xmlns:xlink="http://www.w3.org/1999/xlink" x="0px" y="0px"
	 viewBox="0 0 500 500" style="enable-background:new 0 0 500 500;" xml:space="preserve">
<style type="text/css">
	.st0{fill:#426067;}
</style>
<path class="st0" d="M127.19,397.95c7.45-45.35,11.67-90.93,11.25-136.96c-0.13-14.52-0.99-27.97-14.21-36.97
	c-8.94,1.58-9.4,9.25-11.77,15.66c-12.1,32.78-22.69,65.96-29.75,100.27c-5.31,25.78-7.15,51.74-1.52,77.26
	c3.28,14.86-1.29,20.58-13.92,26.98c-12.2,6.18-25.26,8.95-37.52,14.27c-9.95,4.31-20.13,8.32-28.57,16.44
	c5,8.45,12.38,4.61,18.2,2.81c11.39-3.54,22.57-7.96,33.49-12.8c22.21-9.86,39.78-13.47,65.28,2.16
	c51.9,31.81,110.16,31.79,167.11,8.53c9.38-3.83,23.46-5.47,21.39-20.66c-1.84-13.46-8.84-25.03-22.62-29.12
	c-12.34-3.67-25.27-5.96-38.11-7.27c-27.32-2.77-54.63-5.95-83.1-6.55c22.42-21.88,47.3-39.46,67.33-62.38
	c8.36-9.56,18.79-3.59,27.76,0c44.68,17.9,89.51,17.15,134.7,2.35c20.04-6.56,38.66-16.06,56.52-27.09
	c6.64-4.1,15.82-7.68,12.59-17.66c-3.05-9.4-8.14-18.9-19.31-20.87c-6.76-1.19-13.95-0.57-20.89-0.06
	c-39.83,2.88-79.51,7-118.58,15.65c-6.79,1.5-13.46,3.88-25.62,0.38c25.72-21.13,36.34-50.68,68.13-65.7
	c52.38-24.75,93.65-63.73,117.03-119.08c10.07-23.83,24.22-45.86,32.55-70.58c3.92-11.65,7.59-22.64-3.98-32.78
	c-11.99-10.5-23.92-8.24-35.68-1.08c-10.18,6.2-20.51,12.68-29.15,20.77c-47.32,44.27-84.19,95.8-106.27,157.22
	c-1.01,2.82-1.21,6.22-2.95,8.43c-6.26,7.97,5.38,18.19-3.06,25.24c-21.29,17.8-30.27,46.21-55.97,65.56
	c5.54-34.75,11.02-65.63,15.21-96.68c2.94-21.72,4.4-43.67,5.94-65.55c0.55-7.89,0.2-16.12-3.89-23.34
	c-7.69-13.56-18.98-14.35-27.85-1.58c-4.53,6.51-8.33,13.7-11.39,21.03c-22.1,52.97-35.87,107.76-36.64,165.55
	c-0.23,17.41,0.27,33.97,15.19,47.05c-21.16,24.88-43.69,46.32-69.09,64.81c-3.72,2.71-7,3.09-10.85,1.04
	c-2.19,2.9-4.91,5.6-8.19,2.24C125.37,403.85,126.86,400.34,127.19,397.95z"/>
</svg>
