<?xml version="1.0" encoding="utf-8"?>
<!-- Generator: Adobe Illustrator 25.0.1, SVG Export Plug-In . SVG Version: 6.00 Build 0)  -->
<svg version="1.1" id="Layer_1" xmlns="http://www.w3.org/2000/svg" xmlns:xlink="http://www.w3.org/1999/xlink" x="0px" y="0px"
	 viewBox="0 0 500 500" style="enable-background:new 0 0 500 500;" xml:space="preserve">
<style type="text/css">
	.st0{fill:#426067;}
</style>
<path class="st0" d="M238.98,287.41c31.74-15.71,54.51-37.39,72.71-70.34c25.68-46.49,68.63-80.98,108.74-116.23
	c10.53-9.25,21.88-17.56,32.84-26.32c10.7-8.55,20.9-12.91,33.66-2.2c13.05,10.95,15.04,22.91,7.63,37.19
	c-25.99,50.1-54.98,98.26-100.68,133.14c-27.86,21.26-57.21,40.38-93.4,45.87c-24.49,3.72-41.78,19.91-61.13,39.1
	c52.27,18.31,117.08-0.03,149.3,58.04c-7.29,11.85-16.18,11.73-24.24,11.59c-62.96-1.09-126.64,4.51-187.74-16.19
	c-15.56-5.27-27.12,0.12-39.43,7.22c-31.72,18.31-64.97,32.97-100.69,41.59c-6.76,1.63-13.66,4.46-20.35,4.09
	c-6.82-0.38-13.59-4.4-14.73-12.42c-0.98-6.96,4.87-8.96,10.06-11.24c28.24-12.41,56.29-25.25,84.66-37.34
	c21.22-9.04,32.28-19.36,36.11-47.2c7.92-57.56,41.58-106.31,74.31-153.84c6.94-10.08,13.96-22.24,29.59-17.23
	c15.45,4.96,29.37,27.23,25.45,43.64c-3.88,16.23-10.94,31.73-16.94,47.42c-4.49,11.74-9.54,23.26-14.34,34.88
	c-1.29,3.38-4.59,8.68-3.52,9.8C231.67,295.45,235.74,291.93,238.98,287.41z"/>
</svg>
