<?xml version="1.0" encoding="utf-8"?>
<!-- Generator: Adobe Illustrator 25.0.1, SVG Export Plug-In . SVG Version: 6.00 Build 0)  -->
<svg version="1.1" id="Layer_1" xmlns="http://www.w3.org/2000/svg" xmlns:xlink="http://www.w3.org/1999/xlink" x="0px" y="0px"
	 viewBox="0 0 98.73 143.04" style="enable-background:new 0 0 98.73 143.04;" xml:space="preserve">
<style type="text/css">
	.st0{fill:#ACD3DF;}
	.st1{fill:#7A9496;}
	.st2{fill:#A0CAD4;}
	.st3{fill:#8DB1C0;}
	.st4{fill:#8CAEBB;}
	.st5{fill:#C4E8F2;}
	.st6{fill:#A7CECF;}
	.st7{fill:#ABD3E1;}
	.st8{fill:#6B7E86;}
	.st9{fill:#84A3AF;}
	.st10{fill:#AFD7E2;}
	.st11{fill:#78949F;}
	.st12{fill:#A2CAD7;}
	.st13{fill:#789094;}
	.st14{fill:#C5E8F2;}
	.st15{fill:#A7C6C9;}
	.st16{fill:#9BC4CE;}
	.st17{fill:#87A6A9;}
	.st18{fill:#819EA7;}
	.st19{fill:#67797B;}
	.st20{fill:#92B7B9;}
	.st21{fill:#9CC8CF;}
	.st22{fill:#A6CFDB;}
	.st23{fill:#DCF2FD;}
	.st24{fill:#8FB4C0;}
	.st25{fill:#8AAFBB;}
	.st26{fill:#769299;}
	.st27{fill:#97C0C7;}
	.st28{fill:#9EC5D3;}
	.st29{fill:#BAE1EA;}
	.st30{fill:#80A4A9;}
	.st31{fill:#899A9B;}
	.st32{fill:#82A1A4;}
	.st33{fill:#A1BDC2;}
	.st34{fill:#B0D9E1;}
	.st35{fill:#90B7C5;}
	.st36{fill:#AFD6DA;}
	.st37{fill:#8FB4C2;}
	.st38{fill:#94BCCA;}
	.st39{fill:#7D9EA5;}
	.st40{fill:#8CAEAD;}
	.st41{fill:#A6D1D6;}
	.st42{fill:#70868C;}
	.st43{fill:#B8DEE0;}
	.st44{fill:#A9D9E2;}
	.st45{fill:#CEEDFC;}
	.st46{fill:#DBF1FD;}
	.st47{fill:#B9E4EE;}
	.st48{fill:#B5DAE3;}
	.st49{fill:#9DC1C9;}
	.st50{fill:#647376;}
	.st51{fill:#B9E0ED;}
	.st52{fill:#708B91;}
	.st53{fill:#B4DCE7;}
	.st54{fill:#7F99A2;}
	.st55{fill:#9BBEC1;}
	.st56{fill:#8BAFAE;}
	.st57{fill:#A9D1DE;}
	.st58{fill:#AACED4;}
	.st59{fill:#9ABFC5;}
	.st60{fill:#A4CCDA;}
	.st61{fill:#A1CACD;}
	.st62{fill:#D9F1FD;}
	.st63{fill:#BCE5EE;}
	.st64{fill:#70868A;}
	.st65{fill:#788E93;}
	.st66{fill:#94B8BE;}
	.st67{fill:#81989A;}
	.st68{fill:#91BBBE;}
	.st69{fill:#8EB1BC;}
	.st70{fill:#D1EEFA;}
	.st71{fill:#9BC1C7;}
	.st72{fill:#AACED2;}
	.st73{fill:#B1D9E6;}
	.st74{fill:#95B1B4;}
	.st75{fill:#AECBCF;}
	.st76{fill:#AFCFD8;}
	.st77{fill:#D6F0FC;}
	.st78{fill:#C5E9F3;}
	.st79{fill:#8FB5BF;}
	.st80{fill:#89AEB9;}
	.st81{fill:#86A3A5;}
	.st82{fill:#88A0A6;}
	.st83{fill:#9CB5B5;}
	.st84{fill:#B0CACB;}
	.st85{fill:#DDF2FD;}
	.st86{fill:#8CAEB8;}
	.st87{fill:#FFFFFF;}
	.st88{fill:#92AAAB;}
	.st89{fill:#96C2D2;}
	.st90{fill:#C9EBF9;}
	.st91{fill:#AED0D2;}
	.st92{fill:#B1CCCB;}
	.st93{fill:#97B1B1;}
	.st94{fill:#C1DEDE;}
	.st95{fill:#88A6B1;}
	.st96{fill:#A1C0C3;}
	.st97{fill:#C7E9F0;}
	.st98{fill:#94B5B9;}
	.st99{fill:#CEECF3;}
	.st100{fill:#8FAFB0;}
	.st101{fill:#98B9BF;}
	.st102{fill:#98BDC0;}
	.st103{fill:#B6D1D0;}
	.st104{fill:#7D979C;}
	.st105{fill:#A2C8CF;}
	.st106{fill:#9CBABF;}
	.st107{fill:#C3D3D6;}
	.st108{fill:#87A2A9;}
	.st109{fill:#EDF8FE;}
	.st110{fill:#9EBBC0;}
	.st111{fill:#8BA3A4;}
	.st112{fill:#B2D9DB;}
	.st113{fill:#ABC5C5;}
	.st114{fill:#B7D1D1;}
	.st115{fill:#7FA3A5;}
	.st116{fill:#98AFB9;}
	.st117{fill:#B2DCE4;}
	.st118{fill:#CAEAF4;}
	.st119{fill:#AAD1D9;}
	.st120{fill:#92A1A3;}
	.st121{fill:#B5E3EE;}
	.st122{fill:#95BEC3;}
	.st123{fill:#819EA2;}
	.st124{fill:#84A1A6;}
	.st125{fill:#CAEBF7;}
	.st126{fill:#BCE5EC;}
	.st127{fill:#AEDADF;}
	.st128{fill:#93BBC7;}
	.st129{fill:#91B9C1;}
	.st130{fill:#CDECF9;}
	.st131{fill:#7B99A3;}
	.st132{fill:#A1CFD4;}
	.st133{fill:#AFD9E1;}
	.st134{fill:#82A6AB;}
	.st135{fill:#C1E7F1;}
	.st136{fill:#DAF1FD;}
	.st137{fill:#D7F0FC;}
</style>
<g>
	<path class="st0" d="M83.18,114.17c3.31-0.34,4.2-2.66,4.45-5.48c0.2-2.34-0.93-4.09-2.9-5.05c-2.63-1.28-4.84-0.29-6.58,1.93
		c-0.87,5.39-0.57,5.69,5.64,5.77c0.61,0.2,0.82,0.5,0.3,1.06C83.62,112.9,82.87,113.27,83.18,114.17z"/>
	<path class="st1" d="M53.97,78.01c0.27-1.32-1.21-1.51-1.57-2.43c-0.99-1.81-3.1-1.67-4.78-2.65c-0.23-0.02,0.49-0.39,0.24-0.02
		c-0.11,0.17-0.04,0.23,0.22,0.23c2.33-0.07,4.3-1.3,6.37-2.13c0.94-0.37,0.83-1.17-0.23-1.56c-0.22-0.02-0.48-0.12-0.65-0.03
		c-6.88,3.69-12.49-0.15-18.25-3.08c-0.3-0.16-0.58-0.13-0.86,0.05c-0.29,1.28,0.49,2.02,1.37,2.7c0.56,0.28,1.2-0.02,1.76,0.23
		c4.96,1.84,8.04,5.68,10.64,10.03c0.86,0.08,0.86-0.56,0.94-1.13c0.03-0.51-0.19-1.09,0.45-1.4c0.58-0.1,1.06,0.11,1.5,0.45
		c0.53,0.42,1.1,0.78,1.75,0.99c0.26,0.07,0.52,0.08,0.79,0.01C53.77,78.19,53.87,78.1,53.97,78.01z"/>
	<path class="st2" d="M4.23,111.62c-0.76,0.52-0.99,1.27-0.94,2.14c1.44,1.76,2.98,1.26,4.4,0.36c2.37,0.73,0.43,5.85,4.88,4.47
		c1.74-1.4,5.02-1.18,4.86-4.59c-0.35-0.36-0.8-0.42-1.27-0.4c-1.07-0.03-2.14,0.44-3.28,0c-0.01-1.53,3.63-1.22,1.84-3.59
		c-0.3-0.16-0.61-0.27-0.95-0.33c-2.1-0.1-4.21-0.54-6.29,0.14C6.31,110.26,5.18,110.79,4.23,111.62z"/>
	<path class="st3" d="M72.07,131.81c-0.89-0.51-0.96-1.83-2.09-2.1c-2.35,0.56-4.75,1.04-5.34,3.97c-0.28,1.2-0.6,2.4-0.48,3.65
		c0.39,0.93,0.76,1.87,1.73,2.38c2.79,0.43,6.96-2.41,7.45-5.01C73.58,133.41,72.29,132.86,72.07,131.81z"/>
	<path class="st4" d="M17.94,125.1c-0.65,2.36-0.29,4.58,0.89,6.69c1.3,0.59,1.91-0.36,2.17-1.26c0.87-3.05,2.83-3.79,5.72-3.12
		c2.62,0.61,3.42-0.6,2.76-3.05c-0.88-2.84-3.24-3.07-5.65-3.2c-2.6,1.29-4.02,3.53-5.06,5.96
		C18.66,126.54,18.96,125.54,17.94,125.1z"/>
	<path class="st5" d="M84.54,83.34c1.7,0.87,3.46,0.94,4.76-0.52c1.01-1.14,1.61-2.65,0.1-4.03c-1.34-0.48-1.63-1.31-0.83-2.5
		c1.44-2.29-0.62-2.49-1.89-3.17c-0.04,0.1-0.12,0.2-0.13,0.3c-0.01,0.1,0.06,0.2,0.09,0.3c-4.27-0.94-5.24-0.02-4.5,4.48
		c0.18,1.1,0.04,2.15-0.03,3.23C82.45,82.64,83.53,82.94,84.54,83.34z"/>
	<path class="st6" d="M11.99,24.68C8.85,17.93,6.77,10.84,5.13,3.6C4.95,2.76,4.67,1.56,3.64,1.78c-1.3,0.27-0.51,1.49-0.36,2.2
		c1.53,7.31,3.87,14.34,7.39,20.96c0.31,0.44,0.69,0.81,1.26,0.52C12.26,25.29,12.16,24.95,11.99,24.68z"/>
	<path class="st7" d="M7.01,70.73c0.2,2.69,1.71,4.13,4.3,3.45c3-0.8,6.38-1.37,7.58-5.02c-2.61-1.35-5.42-0.18-8.1-0.67
		C9.47,69.13,7.99,69.5,7.01,70.73z"/>
	<path class="st8" d="M17.94,125.1c0.2,1.12,0.4,2.23,0.67,3.72c1.28-2.93,2.91-5.14,5.01-7c1.61-2.75,3.79-1.2,5.82-0.76
		c0-1.73,0.06-3.5-1.73-4.55c-0.76-0.24-1.46-0.08-2.13,0.28C22.28,118.89,19.02,120.99,17.94,125.1z"/>
	<path class="st9" d="M19.84,62.4c0.85-1.16,1.69-2.32,2.54-3.48c0.12-0.86-0.31-1.01-1.02-0.8c-2.57,4.54-7.33,5.95-11.59,8.05
		c0.62,2.26,2.97,2.38,4.07,1.81c1.99-1.01,3.67-0.36,5.5-0.23c0.23-0.39,0.46-0.78,0.69-1.16C20.3,65.18,19.65,63.81,19.84,62.4z"
		/>
	<path class="st10" d="M56.54,46.3c-1.7-3.54-4.38-4.19-8.98-2.17c0.76,0.68,1.51,0.69,2.27-0.06c-0.87,1.81-0.76,4-2.25,5.55
		c2.2,0.81,4.43,0.95,6.71,0.34C54.95,48.68,54.8,46.91,56.54,46.3z"/>
	<path class="st11" d="M84.01,120.9c-2.72-1.98-5.38-1.02-8.04,0.14c0.69,1.62,1.07,3.26,1.01,5.07c-0.05,1.45-0.18,3.25,2.02,3.56
		c0.63-0.1,1.15-0.42,1.62-0.84c1.6-1.85,0.64-4.58,2.21-6.43C83.35,122.01,84.27,121.91,84.01,120.9z"/>
	<path class="st12" d="M29.23,124.39c0.19,2,0.15,3.16-2.6,2.11c-3.2-1.22-4.78-0.13-6.08,3.15c-0.35,0.89-0.49,1.95-1.72,2.14
		c0.06,0.56,0.18,1.07,0.83,1.24c0.99,0.26,1.69-0.28,2.15-1c0.66-1.03,1.55-0.9,2.5-0.74c0.31-0.03,0.58-0.16,0.81-0.36
		c1.05-2.34,3.39-0.01,4.72-1.31c0.14-2.42,0.57-4.86-0.3-7.24C28.27,122.86,28.82,123.64,29.23,124.39z"/>
	<path class="st13" d="M14.22,110.31c0.2-0.01,0.4-0.02,0.6-0.03c0.99,0.42,0.07,1.63,0.88,2.12c0.86,0.44,1.73,0.55,2.59,0.02
		c0.39-0.71,0.77-1.42,1.16-2.12c0.35-0.44,0.31-0.83-0.15-1.16c-4.09-1.62-8.21-3.18-12.45-0.52c-1.14,0.71-2.6,1.28-2.63,3.01
		c1.22,0.04,2.3-0.37,3.27-1.1C9.71,109.69,11.93,109.08,14.22,110.31z"/>
	<path class="st14" d="M12.57,118.59c-0.82-0.07-1.93,0.26-2.06-1.02c-0.36-3.39-2.09-4.47-5.32-3.48c-0.55,0.17-1.26-0.21-1.9-0.34
		C3.93,118.85,7.77,120.85,12.57,118.59z"/>
	<path class="st15" d="M40.45,82.24c-5.21,5.7-8.74,12.38-11.4,19.57c0.09,0.1,0.18,0.2,0.27,0.3c0.36,0.22,0.75,0.3,1.16,0.23
		c2.39-5.65,4.83-11.26,8.45-16.27c0.69-0.95,1.04-2.21,2.44-2.45C41.57,82.84,41.15,82.45,40.45,82.24z"/>
	<path class="st16" d="M43.82,31.23c-1.41,1.01-3.34,1.59-3.19,3.88c1.73,0.63,2.28,2.1,2.59,3.72c0.45,0.66,0.99,0.71,1.51,0.12
		c0.69-0.78,1.6-0.89,2.55-0.92c1.23-0.09,1.22-1.47,2.07-1.97c0.85-1.08,0.24-2.2,0.12-3.32c-0.77-0.7-1.62-0.45-2.39-0.08
		c-1.27,0.6-1.74-0.1-2.07-1.14C44.68,31.13,44.31,30.93,43.82,31.23z"/>
	<path class="st17" d="M70.23,70.04c3.46,1.54,5.29,4.57,7.14,7.64c0.92,1.53,1.66,3.36,3.7,3.88c0.34-0.43,0.4-0.93,0.32-1.46
		c-0.43-1.24-0.6-2.55-1.08-3.78c-0.23-0.5-0.51-1.01-0.96-1.31c-1.89-1.24-0.89-1.98,0.43-2.7c0.14-0.18,0.19-0.36,0.13-0.54
		c-0.06-0.18-0.11-0.27-0.16-0.26c-2.9-0.48-5.88-0.66-8.43-2.36C70.43,68.8,69.94,68.93,70.23,70.04z"/>
	<path class="st18" d="M26.47,55.6c0.65-2.23-2.23-3.03-2.04-5.07c-0.81-0.42-1.31-0.36-1.12,0.74c0.71,1.59-1.34,3.06-0.2,4.66
		c-0.05,0.71,0.72,1.22,0.45,1.98c0.13,2.87,0.25,5.74,0.38,8.61c0.68,0.93,1.56,1.26,2.5,0.51c0.88-0.7,0.77-1.72,0.42-2.69
		c-0.3-0.83-1.08-1.35-1.44-2.15c-0.15-1.19-0.3-2.37-0.45-3.56c0.55-1.14-0.73-2.46,0.36-3.55c0.4,0.14,0.79,0.29,1.19,0.43
		L26.47,55.6z"/>
	<path class="st19" d="M79.11,129.46c-2.18-0.92-1.74-3.08-1.39-4.43c0.53-2.09-0.46-2.97-1.75-3.98c-0.8-0.14-1.59-0.29-2.39-0.43
		c-0.72-0.12-0.84,0.26-0.72,0.85c1.31,1.04,1.41,2.64,1.93,4.07c1.02,2.78,2.03,5.64,5.39,6.51c0.08-0.13,0.15-0.26,0.23-0.4
		C80.51,130.6,80.08,129.87,79.11,129.46z"/>
	<path class="st20" d="M31.71,45.5c-3.79-0.38-6.73-3.01-10.35-3.86c-1.27,0.2-2.38,0.57-2.29,2.19c-0.03,0.24,0.05,0.44,0.22,0.6
		c0.95,0.39,1.43,0.21,1.15-0.93c1.25-1.15,2.19,0.13,3.13,0.51c4.49,1.84,8.91,3.82,13.36,5.76c0.31-0.3,0.32-0.62,0.04-0.95
		c-0.39-1.65-3.48-0.47-3.08-2.94C33.4,44.37,32.49,45.29,31.71,45.5z"/>
	<path class="st21" d="M79.2,55.31c-0.3-0.09-0.6-0.19-0.89-0.28c-1.42,0.18-2.86,0.3-4.01,1.32c-2.34,1.8-5.52,2.34-7.35,4.89
		c-0.39,0.65-0.85,1.27-0.99,2.04c1.2,0.42,2.41,0.83,3.61,1.25c0.49-0.4,0.78-0.9,0.83-1.53c1.55-2.8,2.5-2.83,4.76-0.13
		c0.48-0.12,0.8-0.44,1.04-0.84c0.4-0.98,0.67-2.01,1.14-2.97C77.42,57.53,79.56,57.03,79.2,55.31z"/>
	<path class="st22" d="M48.05,120.69c0.1-0.69,0.2-1.39,0.29-2.08c-1.87-1.58-2.26-4.85-5.54-4.81c-1.35,1.58-2.14,3.27-1.16,5.35
		C44.14,122.4,44.88,122.58,48.05,120.69z"/>
	<path class="st23" d="M22.08,135.27c2.7,1.43,5.55,0.68,6.81-1.87c0.48-0.97,0.71-2.06,1.06-3.1c-1.81-0.41-3.64-0.96-5.19,0.68
		l-0.03-0.04C22,131.25,22.91,133.8,22.08,135.27z"/>
	<path class="st24" d="M19.33,67.76c-1.66-0.54-2.88-3.77-5.22-0.47c-0.6,0.85-2.97-0.27-4.36-1.12c-1.65,0.37-2.84,1.18-2.95,3.05
		c-0.04,1.11,0.55,0.94,1.17,0.53c0.89-0.6,1.69-1.38,2.9-0.87c2.64,0.98,5.33,0.46,8.02,0.28C19.36,68.8,19.55,68.34,19.33,67.76z"
		/>
	<path class="st25" d="M82.21,121.74c-1.68,1.99-0.94,4.63-1.85,6.83c-0.95,0.98,0.85,2.23-0.3,3.19l-0.05,0.19l0.17,0.09
		c0.86,1.21,2.05,1.84,3.52,1.99c0.56-0.66,2.03,0.05,2.06-1.39c-0.24-0.61-0.76-0.96-1.27-1.3c-1.62-1.52-1.14-3.48-0.55-5.05
		C84.8,124.03,83.93,122.82,82.21,121.74z"/>
	<path class="st26" d="M83.18,114.17c0.78-0.67,1.65-1.26,2.33-2.02c0.82-0.91,0.63-1.52-0.73-1.44c-2.86,0.16-5.7,1.34-8.59,0.16
		c-0.5-0.1-0.95-0.01-1.29,0.41c-0.43,0.69-0.85,1.38-1.28,2.07c1.9,1.46,4.23,1.49,6.43,1.98
		C81.3,115.52,82.31,115.04,83.18,114.17z"/>
	<path class="st27" d="M38.6,62.02c1.69,1.82,3.33,3.82,6.13,1.75c0.14-1.21-0.91-1.01-1.52-1.18c-1.26-0.35-2.2-0.91-2.27-2.36
		c-0.01-0.86-0.26-1.83,1.07-1.96c1.32-0.13,2.02,0.56,2.33,1.76c0.3,0.51,0.49,1.17,1.32,0.93c0.53-2.67-0.75-4.8-2.05-6.93
		c-0.44-0.35-0.91-0.34-1.41-0.16c-1.44,1.09-3.13,1.91-3.94,3.68C37.8,59.09,38.59,60.52,38.6,62.02z"/>
	<path class="st28" d="M72.07,131.81c0.99,3.92-1.66,7.31-6.18,7.91c2.88,1.68,6.08,1.4,7.58-0.66
		C74.7,137.35,73.99,133.66,72.07,131.81z"/>
	<path class="st29" d="M56.99,80.99c-0.25-0.21-0.49-0.42-0.74-0.63c-0.69-0.77-1.17-1.8-2.39-1.9c-1.13,0.5-1.23,2.17-2.67,2.32
		c-0.89,0.6-0.12,1.53-0.45,2.25c1.58,2.04,3.39,3.61,6.23,3.19C56.38,84.48,57.76,82.74,56.99,80.99z"/>
	<path class="st30" d="M41.95,118.85c-0.47-1.88,0.67-3.33,1.29-4.93c0.17-0.32,0.1-0.58-0.19-0.79c-0.65-0.08-1.31,0.02-1.97-0.06
		c-3.79-0.42-4.52,0.53-3.26,4.18c0.73,0.99,1.12,2.07,0.89,3.32c-0.02,0.23,0.06,0.41,0.23,0.57c1.65,0.93,2.44-0.13,3.16-1.35
		C42.22,119.45,42.17,119.14,41.95,118.85z"/>
	<path class="st31" d="M56.97,106.96c1.14,1.62,2.28,3.25,3.42,4.87c0.84,1.69,0.32,3.68,1.16,5.37c0.19,1.01,0.39,2.02,0.58,3.03
		c0.23,0.17,0.47,0.19,0.71,0.01c0.11-0.25,0.2-0.5,0.29-0.75c-0.48-0.95-0.97-1.88-0.73-3.01c0.15-0.7-0.62-1.63,0.12-2.11
		c0.93-0.61,1.37,0.77,2.18,0.9c0.42-0.13,0.67-0.41,0.73-0.85c-2.67-2.95-5.34-5.9-8.01-8.85
		C56.33,105.71,56.49,106.29,56.97,106.96z"/>
	<path class="st32" d="M54.22,69.45c0.23,0.48,0.58,1.16-0.28,1.19c-2.5,0.08-4.33,1.93-6.85,2.34c1.58,1.57,3.52,1.93,5.31,2.6
		c0.39-0.1,0.79-0.19,1.18-0.29c0.21-2.14,3.35-2.87,2.62-5.46C55.56,69.64,55,68.98,54.22,69.45z"/>
	<path class="st33" d="M56.97,106.96c0.04-0.51-0.05-1.05,0.46-1.4c-2.73-4.24-5.7-8.3-8.93-12.16c-1.18,0.16-0.8,0.77-0.4,1.38
		C50.47,99.27,53.92,102.97,56.97,106.96z"/>
	<path class="st34" d="M80.84,79.92c0.08,0.54,0.15,1.09,0.23,1.63c0.32,0.28,0.63,0.56,0.95,0.84c0.44-0.12,0.97-0.19,0.42-0.82
		c1.34-0.97,0.95-2.45,0.55-3.5c-0.61-1.59-0.93-2.97,0.52-4.11c1.73-1.37,2.54,0.74,3.79,1.24c0.49-0.96-0.45-1.41-0.62-2.1
		c-0.7-0.35-1.4-0.7-2.1-1.05c-0.87,0.25-1.83,0.18-2.64,0.66c-0.28,0.17-0.52,0.39-0.74,0.62C79.5,75.45,80.05,77.68,80.84,79.92z"
		/>
	<path class="st35" d="M47.59,49.62c1.49-0.57,3.68-4.7,2.76-5.38c-0.61-0.46-1.83-0.1-2.78-0.11c-0.91,0.21-1.89,0.27-2.61,0.99
		c0.59,1.23-1.38,1.7-0.87,2.91C45.26,48.56,46.42,49.09,47.59,49.62z"/>
	<path class="st36" d="M57.21,60.91c-3.94-3.03-7.26-6.87-11.91-8.95c-0.3,0.46-0.25,0.87,0.18,1.22c4.1,2.58,6.82,6.85,11.17,9.13
		C57.13,61.95,57.21,61.45,57.21,60.91z"/>
	<path class="st37" d="M76.15,111.15c0.16,0.61,0.28,1.81,0.82,1.55c2.49-1.2,5.51-0.2,7.81-1.98c-3.95-0.85-5.38-1.96-6.63-5.15
		c-0.86,0.5-1.5,1.18-1.63,2.22C77.18,108.99,74.72,109.86,76.15,111.15z"/>
	<path class="st38" d="M82.21,121.74c2.56,2.43,0.67,5.28,0.4,7.8c-0.19,1.77,0.51,2.02,1.56,2.54c0.84-0.78,1.39-1.74,1.78-2.81
		c0.7-2.73-0.51-5.34-0.48-8.04c-0.41-0.44-0.89-0.58-1.45-0.33C83.61,121.61,82.86,121.57,82.21,121.74z"/>
	<path class="st39" d="M38.6,62.02c1.22-1.53-0.05-3.12,0.11-4.68c0.46-1.51,1.14-2.92,1.81-4.34c-0.03-0.3-0.12-0.57-0.26-0.84
		c-0.92-1.06-1.06-2.77-2.65-3.29c-0.21-0.03-0.43-0.05-0.65-0.05c-0.01,0.32-0.02,0.63-0.04,0.95c0.35,1.9,0.46,3.74-0.05,5.7
		C36.28,57.84,36.84,60.14,38.6,62.02z"/>
	<path class="st40" d="M67.15,71c-1.58-0.97-2.92-2.11-3.09-4.13c-0.44-1.69-2.11-2.42-2.93-3.81c-1.88-0.99-2.07-0.95-2.44,0.5
		c3.27,2.42,4.73,5.7,4.58,9.74c-0.14,0.67-0.22,1.32,0.62,1.62c0.73-0.09,1.04-0.63,1.34-1.19C65.41,72.5,66.53,71.92,67.15,71z"/>
	<path class="st41" d="M56.2,69.83c-0.24,2.13-4.1,2.51-2.62,5.46c1.93,0.63,3.56-0.12,4.67-1.53c0.76-0.97,0.24-2.34-0.38-3.42
		C57.51,69.72,56.93,69.43,56.2,69.83z"/>
	<path class="st42" d="M64.16,137.34c1.02-0.98,1.04-2.22,0.92-3.49c0.23-1.66,1.31-3.22,0.66-5c-0.47-1.5-2.35-0.43-2.98-1.63
		C60.97,130.9,62.34,134.15,64.16,137.34z"/>
	<path class="st43" d="M11.99,24.68c-0.3,0.81-0.84,0.35-1.32,0.26c1.94,4.38,2.53,9.32,5.57,13.24c0.44,0.37,0.85,0.32,1.24-0.07
		C14.99,33.91,14.09,29.05,11.99,24.68z"/>
	<path class="st44" d="M75.89,61.9c-0.19,0.25-0.38,0.5-0.56,0.75c-0.15,1.18,0.96,1.11,1.54,1.57c0.24,0.12,0.5,0.21,0.77,0.26
		c0.38-0.12,0.75-0.24,1.13-0.36c1.8-1.6,0.44-3.87,1.2-5.69C80.29,57.65,81,56.95,80.5,56c-0.43-0.23-0.86-0.46-1.28-0.69
		c-0.87,1.22-3.11,1.59-2.33,3.81C76.3,59.96,76.5,61.08,75.89,61.9z"/>
	<path class="st45" d="M92.15,126.32c-0.12-0.5-0.28-0.98-0.85-1.15c-1.9,1.46-3.07,3.52-4.49,5.39c-0.43,2.08,0.44,3.43,2.35,4.2
		c0.24,0.14,0.48,0.27,0.72,0.41c0.19-0.24,0.32-0.51,0.39-0.8c0.29-0.94-0.99-1.79-0.17-2.82c1.67-0.07,1.2,1.96,2.33,2.39
		c0.48,0.13,0.92,0.06,1.33-0.23c0.77-1.25,0.52-2.54-0.28-3.56C92.57,128.98,92.55,127.61,92.15,126.32z"/>
	<path class="st46" d="M24.54,70.27c0.65,2.3,2.83,3.98,4.43,3.08c2-1.12,2.71-3.86,1.05-6.32c-2,0.06-1.93,3.23-4.24,2.82
		C25.32,69.86,24.89,69.95,24.54,70.27z"/>
	<path class="st47" d="M40.36,60.4c0.19,2.45,0.19,2.45,4.37,3.37c1.31-0.6,0.56-1.89,0.93-2.8c-0.22-0.37-0.45-0.74-0.67-1.11
		C43.08,57.23,42.55,57.29,40.36,60.4z"/>
	<path class="st48" d="M67.15,71c-1.33,0.22-2.6,0.5-2.36,2.32c2.35,0.26,4.32,1.02,5.06,3.59c0.17,0.6,0.58,1.16,1.38,1.04
		c0.34-0.29,0.21-0.7,0.27-1.07c0.05,0.42,0.15,0.82,0.62,0.99c0.51-0.17,0.8-0.44,0.45-0.99C72.25,73.54,70.92,71.15,67.15,71z"/>
	<path class="st49" d="M33.57,64.66c-1.24-2.88-3.05-5.42-4.84-7.97c-0.51-0.73-0.98-1.83-2.27-1.1l0.04-0.08
		c1.58,3.88,4.01,7.25,6.51,10.57c0.11-0.08,0.23-0.16,0.34-0.23C33.54,65.48,33.39,65.04,33.57,64.66z"/>
	<path class="st50" d="M62.75,127.21c0.45,0.97,0.1,2.19,0.93,3.08c1.3-0.1,0.54-1.16,0.84-1.71c0.05-0.08,0.16-0.17,0.25-0.18
		c0.1-0.01,0.2,0.08,0.3,0.12c1.21,0.11,2.76,0.58,1.84-1.67c-0.46-1.29-2.26-1.44-2.51-2.91c-0.74-0.98-0.21-2.33-0.94-3.31
		c-0.11-0.38-0.22-0.77-0.33-1.15c-0.14,0.22-0.29,0.45-0.43,0.67c-0.41,1.41-0.09,2.75,0.41,4.07
		C62.38,125.15,62.82,126.21,62.75,127.21z"/>
	<path class="st51" d="M87.27,130.36c1.95-1.26,3.47-2.85,4.03-5.19c-0.23-0.87-0.69-1.55-1.57-1.87c-1.17,1.05-1.27,2.84-2.62,3.76
		c-0.77,0.64-1.12,1.66-1.97,2.23c-0.29,0.94-1.18,1.67-0.97,2.78c0.45,0.19,0.9,0.38,1.35,0.57
		C86.28,132.02,86.39,130.9,87.27,130.36z"/>
	<path class="st52" d="M29.23,124.39c0-0.69-0.2-1.4,0.31-2.01c-0.04-0.44-0.08-0.88-0.12-1.32c-3.26-3.03-4.35-2.89-5.82,0.76
		C25.83,121.9,27.73,122.7,29.23,124.39z"/>
	<path class="st53" d="M41.95,118.85c-0.03,0.21-0.03,0.42-0.02,0.63c-0.76,2.06-0.57,3.74,1.82,4.53c2.39,0.13,4.04-0.69,4.29-3.32
		C45.56,121.6,43.61,120.73,41.95,118.85z"/>
	<path class="st54" d="M66.91,126.87c0.24,1.5-1.31,1.02-1.84,1.67c0,1.77,0.01,3.54,0.01,5.31c1.03-1.66,1.84-3.62,4.43-3.05
		c0.07,0.02,0.31-0.71,0.47-1.08C68.96,128.76,67.93,127.82,66.91,126.87z"/>
	<path class="st55" d="M40.45,82.24c0.31,0.46,0.62,0.93,0.93,1.39c0.86,1.43,1.72,2.86,2.58,4.29c1.2-0.18,0.83-0.9,0.53-1.58
		c-1.06-3.31-3.28-6.02-4.67-9.15c-1.28,0.16-0.7,0.91-0.5,1.55C39.69,79.91,40.07,81.08,40.45,82.24z"/>
	<path class="st56" d="M60.83,63.78c1.07,1.03,2.15,2.06,3.22,3.09c2.06,1.06,4.11,2.11,6.17,3.17c0.16-0.55,0.57-0.78,1.09-0.88
		c-2.83-1.62-5.66-3.24-8.49-4.86c-0.29-0.52-0.64-0.94-1.3-0.94C61.24,63.4,61.01,63.55,60.83,63.78z"/>
	<path class="st57" d="M25.7,70.29c1.29,0.98,2.13,0.55,2.8-0.81c0.42-0.86,1.01-1.64,1.52-2.45c-0.33-1.38-1.15-2.38-2.35-3.11
		C26.65,65.93,25.9,68.03,25.7,70.29z"/>
	<path class="st58" d="M39.31,78.74c0.17-0.52,0.33-1.03,0.5-1.55c-0.95-2.02-1.83-4.08-2.89-6.05c-0.55-1.03-0.45-1.55,0.68-1.82
		c-0.46-0.18-0.92-0.36-1.37-0.54c-0.82-0.04-1.24,0.4-1.43,1.14C35.67,73.19,37.9,75.76,39.31,78.74z"/>
	<path class="st59" d="M37.61,48.87c1.18,0.97,0.58,3.11,2.42,3.64c1.39,0.31,2.75,0.76,4.19,0.75c0.42-0.03,0.84-0.06,1.26-0.08
		c-0.06-0.41-0.12-0.82-0.18-1.22C42.77,50.84,40.43,49.26,37.61,48.87z"/>
	<path class="st60" d="M85.14,129.29c1.15-0.05,1.59-1.15,2.44-1.65c0.29-2.02,0.44-4.01-0.75-5.84c-0.45-0.19-0.91-0.38-1.36-0.58
		c-0.6,1.61-1.31,3.16-0.17,4.92C85.89,127.08,85.54,128.26,85.14,129.29z"/>
	<path class="st61" d="M60.83,63.78c0.23-0.02,0.46-0.05,0.7-0.07c0.85-0.3,1.68-0.76,2.63-0.37c0.42-0.04,0.84-0.09,1.26-0.13
		c0.67-0.57,1.45-1.07,1.42-2.11c-0.07-0.3-0.24-0.53-0.49-0.71c-2.91,2.53-6.03,1.46-9.14,0.52c-0.54,0.33-0.61,0.84-0.55,1.4
		c0.68,0.42,1.36,0.83,2.03,1.25C59.57,62,60.18,63.13,60.83,63.78z"/>
	<path class="st62" d="M92.15,126.32c-0.61,1.24-1.66,2.46,0.23,3.61c1.32,0.8,1.03,2.33,1.31,3.58c0.48,0.39,0.92,0.28,1.32-0.14
		c0.48-0.38,0.51-0.89,0.41-1.43c-0.28-0.81-0.29-1.66-0.36-2.5C94.13,128.35,93.44,127.06,92.15,126.32z"/>
	<path class="st63" d="M22.08,135.27c0.83-0.11,2.16-0.26,1.56-1.31c-0.98-1.71,0.44-2.14,1.09-3.03c-3.03-2.56-3.35,1.48-5.07,2.09
		C20.47,133.77,21.27,134.52,22.08,135.27z"/>
	<path class="st64" d="M80.05,115.36c-1.95-1.29-4.06-2.05-6.43-1.98c-0.53,0.1-0.91,0.37-1.02,0.93c-0.21,0.19-0.31,0.43-0.3,0.71
		c0.15,0.6,0.63,0.84,1.16,1.02C75.63,115.51,77.94,116.41,80.05,115.36z"/>
	<path class="st65" d="M38.35,117.27c-1.12-3.21-0.71-3.73,2.59-3.53c0.72,0.04,1.45-0.3,2.18-0.46c0.2-0.13,0.26-0.24,0.18-0.34
		c-0.08-0.1-0.16-0.15-0.23-0.14c-1.77-0.31-3.53-0.61-5.3-0.91c-3.24,0.39-0.99,2.38-1.08,3.69c0.27,0.86-0.03,1.91,0.83,2.58
		C38.29,118.32,38.56,118.01,38.35,117.27z"/>
	<path class="st66" d="M66.35,60.38c0.04,0.25,0.09,0.49,0.13,0.74c0.23,0.23,0.35,0.6,0.77,0.57c1.81-2.6,5.29-2.69,7.35-4.92
		c-0.46-0.28-1.27-0.31-0.84-1.21C71.28,57.17,68.82,58.78,66.35,60.38z"/>
	<path class="st67" d="M73.46,116.03c-0.26-0.36-0.52-0.72-0.77-1.08c-1.33-0.71-2.7,0.39-4.04-0.08c-1.07-0.15-2.14-0.31-3.22-0.46
		c-0.24,0.28-0.49,0.57-0.73,0.85c0.63,1.19,1.77,1.74,2.89,2.32c0.78,0.26,1.02-0.21,1.12-0.85
		C70.12,115.29,72.04,117.31,73.46,116.03z"/>
	<path class="st68" d="M79.85,72.05c-1.03,0.34-2.63-0.31-2.98,1.2c-0.5,2.18,2.21,1.54,2.82,2.83c0.58-1.13,1.03-2.36,2.27-2.98
		l0.02-0.02c0.29-0.86,2.09,0.17,1.79-1.43c-0.14-0.14-0.29-0.17-0.48-0.1C82.09,71.35,80.92,71.38,79.85,72.05z"/>
	<path class="st69" d="M25.7,70.29c1.79-1.77,1.26-4.26,1.98-6.36c-0.54-0.86-1.35-1.37-2.26-1.73c0.28,0.79,0.64,1.57,0.83,2.38
		c0.52,2.14-0.25,2.83-2.31,1.95c-0.22,1.32,0.1,2.55,0.6,3.75C24.93,70.28,25.31,70.29,25.7,70.29z"/>
	<path class="st70" d="M44.84,31.96c-0.22,0.72-0.81,1.53-0.19,2.16c0.74,0.75,1.34-0.31,2.03-0.48c0.94-0.23,1.85-0.6,2.78-0.9
		c-0.59-1.25-1.21-2.46-2.89-2.37C45.91,30.81,44.94,30.91,44.84,31.96z"/>
	<path class="st71" d="M77.63,64.48c-0.06-0.26-0.12-0.51-0.18-0.77c-2.45-0.22-4.84-1.69-7.37-0.39c-0.46,0.28-0.54,0.72-0.5,1.2
		C72.27,65.68,74.95,65.83,77.63,64.48z"/>
	<path class="st72" d="M20.43,43.5c-0.17,0.57-0.58,0.85-1.15,0.93c1.08,2.43,2.32,4.77,4.01,6.85c0.21-0.49,0.62-0.69,1.12-0.74
		C23.09,48.19,21.76,45.85,20.43,43.5z"/>
	<path class="st73" d="M86.83,121.81c0.36,1.93-0.38,4.01,0.75,5.84c1.53-1.05,2.09-2.58,2.16-4.35
		C88.76,122.8,87.79,122.3,86.83,121.81z"/>
	<path class="st74" d="M17.48,38.11c-0.41,0.02-0.83,0.05-1.24,0.07c0.87,1.92,1.48,3.97,2.83,5.65c0.76-0.73,1.53-1.46,2.29-2.19
		C19.75,40.82,18.69,39.38,17.48,38.11z"/>
	<path class="st75" d="M44.49,86.34c-0.04,0.57,0.03,1.18-0.53,1.58c1.22,2.38,2.43,4.77,4.15,6.86c0.13-0.46,0.27-0.92,0.4-1.38
		C47.49,90.86,46.02,88.58,44.49,86.34z"/>
	<path class="st76" d="M43.76,124.01c-1.42-1.18-1.56-2.88-1.82-4.53c-0.93,0.67-1.58,1.85-2.99,1.66
		C39.92,123.16,41.34,124.43,43.76,124.01z"/>
	<path class="st77" d="M79.37,58.1c-1.5,1.87,0.59,4.11-0.61,6.01c1.86-1.38,3.06-3.09,2.66-5.55
		C80.84,57.97,80.11,57.98,79.37,58.1z"/>
	<path class="st78" d="M87.27,130.36c-2.4-0.63-1.69,1.12-1.76,2.28c-0.61,0.46-1.21,0.93-1.82,1.39c1.92-0.53,3.59,0.86,5.46,0.72
		C87.8,133.61,87.27,132.1,87.27,130.36z"/>
	<path class="st79" d="M47.49,37.55c-1.72-1.06-2.77,0.07-3.84,1.17c-0.63-0.12-0.82,0.27-0.89,0.78c0.12,0.7,0.49,1.16,1.22,1.29
		c0.91-0.14,1.87-0.13,2.5-0.98C46.78,39.04,48.11,38.74,47.49,37.55z"/>
	<path class="st80" d="M43.08,39.46c0.19-0.25,0.39-0.49,0.58-0.74c0.15-2.17,0.16-4.23-3.02-3.61c0.06,0.66,0.12,1.32,0.18,1.98
		C41.6,37.85,40.88,40.05,43.08,39.46z"/>
	<path class="st81" d="M43.08,39.46c-1.4-0.17-1.26-1.82-2.26-2.37c-0.56,1.31,0.04,2.85-0.84,4.1c0.41,1.5,1.28,0.76,2.07,0.43
		c0.64-0.28,1.29-0.55,1.93-0.83C43.68,40.35,43.38,39.91,43.08,39.46z"/>
	<path class="st82" d="M43.08,112.81c0.01,0.16,0.03,0.32,0.04,0.48c0.05,0.21,0.09,0.42,0.12,0.63c2.21,1.01,2.63,3.97,5.11,4.69
		C47.67,115.7,46.07,113.62,43.08,112.81z"/>
	<path class="st83" d="M19.31,109.13c0.05,0.39,0.1,0.78,0.15,1.16c0.22,0,0.45-0.01,0.67-0.01c1.76,0.46,3.43-0.32,5.16-0.33
		c0.65,0,1.63-0.58,1.65,0.79c0.08,0.65,0.16,1.29,0.24,1.94c0.22,0.3,0.39,0.29,0.52-0.07c0.14-1.08,0.28-2.15,0.42-3.23
		c0.06-0.82-0.32-1.03-1.05-0.78C24.52,109.4,21.9,109.09,19.31,109.13z"/>
	<path class="st84" d="M27.06,108.61c0.35,0.26,0.7,0.52,1.05,0.78c0.98-1.33,0.11-3.49,2.01-4.4c0.42-1.21-0.12-2.16-0.86-3.05
		l-0.22-0.13C28.05,103.98,27.37,106.24,27.06,108.61z"/>
	<path class="st85" d="M56.99,80.99c0.23,1.75-2.89,3.48-0.02,5.24C60.33,84.5,57.62,82.74,56.99,80.99z"/>
	<path class="st86" d="M44.09,48.03c0.51-0.51,0.98-1.07,1.55-1.5c0.44-0.33,1.47-0.23,1.06-1.1c-0.14-0.31-1.13-0.22-1.73-0.32
		c-0.98,0.35-1.96,0.7-2.94,1.05c-1.1,0.05-1.18,0.51-0.52,1.28C42.34,47.73,43.14,48.23,44.09,48.03z"/>
	<path class="st87" d="M56.54,46.3c-4.16-0.87-2.35,1.92-2.25,3.66C56.38,49.56,56.91,48.2,56.54,46.3z"/>
	<path class="st88" d="M68.72,116.75c-0.37,0.28-0.75,0.56-1.12,0.85c1.5,1.64,3.18,3.03,5.27,3.88c0.24-0.28,0.48-0.57,0.72-0.85
		C72.21,119.01,69.93,118.55,68.72,116.75z"/>
	<path class="st89" d="M10.87,68.88c-1.58-2.62-2.71,0.19-4.06,0.33c-0.5,0.58-0.24,1.06,0.2,1.52
		C8.48,70.48,10.1,70.56,10.87,68.88z"/>
	<path class="st90" d="M24.76,130.98c1.73-0.22,3.46-0.45,5.19-0.68c-0.03-0.23-0.07-0.45-0.1-0.68
		C28.06,129.74,25.46,126.78,24.76,130.98z"/>
	<path class="st91" d="M41.5,47.45c-0.08-0.53,0.06-0.96,0.52-1.28c-1.82-0.46-3.64-0.92-5.46-1.38c-0.13,0.06-0.26,0.12-0.39,0.18
		c-0.19,0.22-0.3,0.48-0.33,0.77C37.73,46.3,39.62,46.88,41.5,47.45z"/>
	<path class="st92" d="M36.7,115.59c0.38-1.23-1.24-3.03,1.08-3.69c-1.91-0.5-2.56-2.35-3.82-3.55c-0.42,0.16-0.43,0.59-0.62,0.91
		C34.98,111.09,35.77,113.38,36.7,115.59z"/>
	<path class="st93" d="M29.27,101.94c0.29,1.02,0.57,2.03,0.86,3.05c0.6,0.79,1.19,1.59,1.79,2.38c1.09-0.18,0.77-0.74,0.35-1.32
		c-0.59-1.23-1.19-2.46-1.78-3.7C30.17,101.94,29.79,101.74,29.27,101.94z"/>
	<path class="st94" d="M42.05,41.62c-0.7-0.11-1.55,0.51-2.07-0.43c-1.46,0.88-2.92,1.76-4.38,2.64c-0.3,0.78-0.13,1.27,0.8,1.25
		c0.06-0.1,0.11-0.2,0.15-0.3C38.39,43.73,40.22,42.68,42.05,41.62z"/>
	<path class="st95" d="M73.75,55.57c-0.32,0.82-0.21,1.35,0.84,1.21c1.19-0.68,2.69-0.71,3.71-1.75
		C76.71,54.52,75.16,54.42,73.75,55.57z"/>
	<path class="st96" d="M50.74,83.04c1.63-0.45,0.09-1.33,0.27-1.97c-0.01-0.42-0.13-0.81-0.32-1.18c-0.4-0.72-0.64-1.55-1.33-2.09
		c-0.3-0.08-0.54-0.01-0.72,0.25c-0.13,0.44-0.26,0.88-0.39,1.31C48.64,80.88,49.34,82.2,50.74,83.04z"/>
	<path class="st97" d="M72.56,76.88c-0.21,0.27-0.41,0.54-0.62,0.82c-0.47,0.47-0.65,1.28-1.51,1.3c-0.57,0.19-0.99,0.54-1.19,1.12
		c-0.07,0.47,0.05,0.87,0.44,1.17C73.14,81.44,73.26,79.43,72.56,76.88z"/>
	<path class="st98" d="M34.8,69.92c0.48-0.38,0.95-0.76,1.43-1.14c-0.58-0.76-1.15-1.51-1.73-2.27c-0.29-0.44-0.66-0.68-1.2-0.55
		l-0.28,0.13C33.34,67.5,33.71,68.88,34.8,69.92z"/>
	<path class="st99" d="M95,133.37c-0.44,0.05-0.88,0.09-1.32,0.14c-0.45,0.06-0.89,0.13-1.34,0.19c-1.13-0.37-1.87,0.21-2.53,1.01
		c0.02,0.15,0.04,0.31,0.06,0.46C91.77,135.07,93.88,135.62,95,133.37z"/>
	<path class="st100" d="M47.49,37.55c-0.34,0.75-0.68,1.5-1.02,2.25c1.83-0.58,2.96-1.7,2.87-3.76
		C47.75,35.35,48.38,37.38,47.49,37.55z"/>
	<path class="st101" d="M64.12,74.7c-0.28-0.47-0.57-0.94-0.85-1.4c-0.73,1.96,0.32,3.64,0.85,5.4c0.52,0.32,0.98,0.29,1.39-0.19
		C65.6,77.04,65.42,75.66,64.12,74.7z"/>
	<path class="st102" d="M36.41,45.09c-0.27-0.42-0.54-0.84-0.8-1.26c-1.3,0.56-2.59,1.11-3.89,1.67c0.74,0.03,1.54-0.29,2.18,0.38
		c0.65-0.05,1.31-0.1,1.96-0.14C36.03,45.52,36.22,45.3,36.41,45.09z"/>
	<path class="st103" d="M26.93,110.75c0.66-1.21-0.18-1.31-1-1.22c-1.94,0.21-3.87,0.5-5.8,0.76
		C22.31,111.69,24.76,109.21,26.93,110.75z"/>
	<path class="st104" d="M38.35,117.27c-0.27,0.3-0.55,0.6-0.82,0.89c0.45,0.78,0.32,1.84,1.19,2.41
		C41.1,119.19,38.88,118.33,38.35,117.27z"/>
	<path class="st105" d="M18.3,112.42c-0.83-0.33-1.67-0.54-2.57-0.29c-0.5,0.74-0.4,1.41,0.25,2.01c0.48-0.04,0.97-0.09,1.45-0.13
		C17.93,113.59,18.52,113.23,18.3,112.42z"/>
	<path class="st106" d="M23.56,57.92c0.77-0.87,0.49-1.5-0.45-1.98c-1.23,0.2-1.31,1.33-1.75,2.17c0.34,0.27,0.68,0.54,1.02,0.8
		C23.1,58.98,22.44,57.4,23.56,57.92z"/>
	<path class="st107" d="M27.69,112.62l-0.26,0.05l-0.26,0.02c-0.62,1.34-0.08,3.13-1.61,4.11c0.71-0.09,1.42-0.19,2.13-0.28
		C27.69,115.22,27.69,113.92,27.69,112.62z"/>
	<path class="st108" d="M76.15,111.15c-0.59-1.2,1.74-2.08,0.37-3.36c-0.58,1.15-1.98,1.93-1.61,3.51
		C75.32,111.25,75.73,111.2,76.15,111.15z"/>
	<path class="st109" d="M79.37,58.1c0.56,0.73,1.33,0.5,2.06,0.46c-0.15-0.91,0.05-1.96-0.94-2.57C80.11,56.7,79.74,57.4,79.37,58.1
		z"/>
	<path class="st110" d="M54.01,78.66c0.59,0.78,1.22,1.5,2.24,1.7c-0.12-1.41-0.42-2.64-2.28-2.36v-0.03
		c-0.21,0.17-0.27,0.32-0.19,0.47C53.86,78.6,53.94,78.67,54.01,78.66z"/>
	<path class="st111" d="M61.55,117.21c-0.28-1.81,0.12-3.78-1.16-5.37C60.43,113.7,60.88,115.48,61.55,117.21z"/>
	<path class="st112" d="M69.69,81.29c-0.04-0.42-0.08-0.85-0.12-1.27c-0.79-0.62-1.59-0.5-2.39-0.01c-0.1,0.14-0.2,0.28-0.3,0.42
		C67.3,82.35,68.64,81.33,69.69,81.29z"/>
	<path class="st113" d="M32.26,106.05c-0.12,0.44-0.23,0.88-0.35,1.32c0.48,0.63,0.96,1.26,1.44,1.88c0.21-0.3,0.41-0.61,0.62-0.91
		C33.4,107.58,32.83,106.81,32.26,106.05z"/>
	<path class="st114" d="M82.43,81.58c-0.14,0.27-0.28,0.55-0.42,0.82c0.47,1.3,1.36,1.49,2.52,0.94
		C83.84,82.75,83.13,82.16,82.43,81.58z"/>
	<path class="st106" d="M19.84,62.4c-0.75,1.43-0.01,2.8,0.18,4.19C20.75,65.16,19.95,63.79,19.84,62.4z"/>
	<path class="st115" d="M67.25,61.69c-0.26-0.19-0.51-0.38-0.77-0.57c-0.35,0.69-0.71,1.39-1.06,2.08c0.17,0.08,0.35,0.11,0.54,0.07
		C66.76,63.05,67.34,62.64,67.25,61.69z"/>
	<path class="st116" d="M68.65,114.87c1.33,0.92,2.69,0.15,4.04,0.08c-0.03-0.22-0.06-0.43-0.09-0.65
		C71.29,114.49,69.97,114.68,68.65,114.87z"/>
	<path class="st117" d="M65.33,78.53c-0.4,0.06-0.8,0.11-1.21,0.17c0.61,1.06,1.43,1.8,2.75,1.72l0.07-0.06
		C67.13,79.11,66.33,78.73,65.33,78.53z"/>
	<path class="st118" d="M95.04,129.44c-0.7,0.95-0.58,1.79,0.37,2.5C96.09,130.99,95.94,130.16,95.04,129.44z"/>
	<path class="st119" d="M44.84,31.96c0.58-0.53,1.15-1.06,1.73-1.59c-1.16-0.51-1.99,0.06-2.75,0.86
		C44.16,31.47,44.5,31.72,44.84,31.96z"/>
	<path class="st120" d="M63.11,124.23c-0.14-1.36-0.27-2.71-0.41-4.07l-0.28,0.04l-0.28,0.03
		C62.35,121.59,62.27,123.02,63.11,124.23z"/>
	<path class="st121" d="M88.55,76.28c-1.02,1.27-1.38,2.31,0.83,2.5C88.95,78.01,88.39,77.27,88.55,76.28z"/>
	<path class="st120" d="M63.46,120.64c-0.06,1.21-0.19,2.44,0.94,3.31C64.24,122.81,64.32,121.59,63.46,120.64z"/>
	<path class="st122" d="M83.76,71.65c-0.6,0.48-1.19,0.96-1.79,1.44c0.9-0.25,2.04,0.1,2.6-1.03C84.3,71.92,84.03,71.79,83.76,71.65
		z"/>
	<path class="st122" d="M79.85,72.05c1.15-0.17,2.29-0.34,3.44-0.5c-1.17-0.75-2.35-0.24-3.53-0.03
		C79.78,71.7,79.81,71.88,79.85,72.05z"/>
	<path class="st123" d="M33.3,65.96c0.4,0.18,0.8,0.37,1.21,0.55c0.28-0.06,0.55-0.12,0.83-0.18c-0.59-0.56-1.17-1.12-1.76-1.67
		C33.07,65.01,33.09,65.47,33.3,65.96z"/>
	<path class="st124" d="M25.32,55.09c-1.39,1.05-0.38,2.35-0.36,3.55C25.74,57.52,24.9,56.24,25.32,55.09z"/>
	<path class="st125" d="M54.01,78.66c-0.01-0.23-0.03-0.46-0.04-0.69l-0.28,0.05l-0.28,0.02c-2.09-0.53-3.03,0.35-3,2.43
		c0.2,0.2,0.4,0.4,0.61,0.6C53.75,82.44,53.37,79.92,54.01,78.66z"/>
	<path class="st126" d="M50.4,80.46c0.66-1.23,1.3-2.48,3-2.43c-0.53-0.3-1.07-0.61-1.6-0.91c-0.83-0.72-1.77-0.86-2.8-0.51
		c-0.23,0.52-0.11,0.98,0.27,1.39C49.35,78.96,49.73,79.78,50.4,80.46z"/>
	<path class="st32" d="M49.17,76.46c0.78,0.62,1.73,0.56,2.64,0.67c-0.51-1.35-1.59-1.34-2.75-1.15c-0.16,0.15-0.19,0.27-0.11,0.36
		C49.03,76.42,49.1,76.46,49.17,76.46z"/>
	<path class="st127" d="M49.17,76.46c-0.01-0.17-0.05-0.33-0.11-0.48c-2.05,0.3-0.69,1.29-0.41,2.06c0.21-0.02,0.42-0.03,0.63-0.04
		C49.24,77.49,49.2,76.97,49.17,76.46z"/>
	<path class="st128" d="M15.98,114.14c-0.08-0.67-0.17-1.34-0.25-2.01c-0.35-0.76,0.87-1.66-0.19-2.32c-0.1-0.06-0.47,0.3-0.72,0.47
		c0.07,1.46-1.07,1.37-2,1.62c-1.1,0.29-1.78,1.01-1.36,2.17c0.36,1,1.22,1.3,2.09,0.59C14.31,114.04,15.32,114.95,15.98,114.14z"/>
	<path class="st129" d="M14.22,110.31c-2.36-3.54-4.49-0.14-6.72,0.22C9.73,110.45,11.98,110.38,14.22,110.31z"/>
	<path class="st130" d="M87.42,78.97c-0.36-0.94,0.11-2.69-1.4-2.49c-1.57,0.2-1.44,2.03-1.57,3.25c-0.17,1.62,1.28,1.66,2.29,1.54
		C88.41,81.05,87.12,79.73,87.42,78.97z"/>
	<path class="st131" d="M80.05,131.76c2.25-0.86,0.3-2.12,0.3-3.19c-0.56,0.09-1.03,0.32-1.24,0.89
		C79.43,130.23,79.74,130.99,80.05,131.76z"/>
	<path class="st122" d="M81.95,73.1c-1.9,0.12-2.63,1.14-2.27,2.98c0.38,1.28-0.16,2.84,1.15,3.83
		C80.28,77.5,80.57,75.21,81.95,73.1z"/>
	<path class="st132" d="M70.08,63.32c2.43,0.73,4.91,0.29,7.37,0.39c-0.71-0.35-1.42-0.71-2.13-1.06c-1.01-0.5-0.3-1.3-0.37-1.97
		c-0.11-1.13-0.52-2.03-1.8-0.96c-0.62,0.52-1.3,0.74-2.06,0.8C68.74,60.73,69.09,61.9,70.08,63.32z"/>
	<path class="st132" d="M75.89,61.9c1.14-0.64,1.19-1.66,0.98-2.78C75.74,59.77,75.69,60.79,75.89,61.9z"/>
	<path class="st133" d="M40.36,60.4c1.55-0.14,2.73-3.31,4.62-0.54c0.02-2.87-2.34-2.62-3.91-2.47
		C38.95,57.59,40.3,59.29,40.36,60.4z"/>
	<path class="st134" d="M42.27,54.27c-0.74-0.55-1.49-1.11-2.23-1.66c-1.24,1.35-1.94,2.85-1.33,4.73
		C39.89,56.3,41.62,55.92,42.27,54.27z"/>
	<path class="st135" d="M65.33,78.53c0.54,0.61,1.07,1.22,1.61,1.83c0.88-0.12,1.75-0.23,2.63-0.35c0.4-0.27,0.8-0.54,1.2-0.81
		c0.55-0.35,0.96-0.74,0.45-1.42c-1.27-0.96-0.71-2.83-2.1-3.86c-1.44-1.06-2.7-1.69-4.32-0.6c-0.22,0.46-0.44,0.92-0.67,1.39
		C64.49,75.99,64.37,77.43,65.33,78.53z"/>
	<path class="st136" d="M89.82,134.71c0.95-0.06,1.77-0.45,2.53-1.01c-0.29-1.2,0.16-2.72-1.27-3.43c-0.95-0.47-1.67,0.32-2.21,0.9
		C87.37,132.77,90.48,133.25,89.82,134.71z"/>
	<path class="st137" d="M71.21,77.78c-0.15,0.47-0.3,0.95-0.45,1.42c0.1,0.38,0.25,0.99,0.68,0.75c0.9-0.5,0.49-1.46,0.5-2.26
		c-0.12-0.49-0.25-0.97-0.37-1.46c-0.12,0.01-0.24,0.03-0.36,0.05C71.21,76.78,71.21,77.28,71.21,77.78z"/>
</g>
</svg>
