<?xml version="1.0" encoding="utf-8"?>
<!-- Generator: Adobe Illustrator 25.0.1, SVG Export Plug-In . SVG Version: 6.00 Build 0)  -->
<svg version="1.1" id="Layer_1" xmlns="http://www.w3.org/2000/svg" xmlns:xlink="http://www.w3.org/1999/xlink" x="0px" y="0px"
	 viewBox="0 0 800 800" style="enable-background:new 0 0 800 800;" xml:space="preserve">
<style type="text/css">
	.st0{fill:#426067;}
</style>
<g>
	<g>
		<path class="st0" d="M392.5,499.2c-20.5-0.9-26-22.3-26-48.6c0-30.4,7.2-67.4,7.2-88.8c0-7.2-0.9-12.7-3.2-15.3
			c-26,0.9-44,91.9-49.4,114.2c-0.6,2-4.9,4.3-9.5,4.3c-6.6-0.3-8.7-3.5-8.7-14.5c0-13,0.9-37.3,0.9-62.5c0-37.9-2-76.9-13-77.8
			c-14.2,3.2-25.7,25.2-33.5,48.3c-12.4,35.9-20.8,85-24.6,122.9c0,3.5-3.2,5.5-6.6,5.5c-2.9,0-6.1-1.7-6.6-5.2
			c-4.3-26.3-6.9-52.3-6.9-79.5c0-23.4,1.7-48,5.8-74.3c0.6-5.5,6.4-7.5,12.1-7.5c5.2,0,10.1,2.6,10.1,7.2v1.2
			c-6.4,35-9,72.3-9,109.6l0.3,17.1c4.3-33,11.9-69.7,21.7-98.3c9.5-27.5,21.1-49.1,39.6-50.3c25.1,0,30.1,46.8,30.1,86.2
			c0,20.8-1.2,39.3-1.7,48c4.9-20,22-98.6,49.4-98.6c14.8,1.2,18.8,17.9,18.8,49.4c0,27.5-3.8,60.1-3.8,81.2
			c0,13.3,1.5,22.3,6.1,22.3c15.3-3.5,34.4-76.9,43.1-95.1c0.3-0.9,1.2-1.5,2-1.5c1.2,0.3,2,0.9,2,2l-0.3,0.9
			c-9,18.8-29.8,97.4-46,97.4L392.5,499.2L392.5,499.2z"/>
	</g>
</g>
<g>
	<g>
		<path class="st0" d="M581.4,495.4c-1.7-0.3-12.4-0.6-22.6-0.6c-8.7,0-14.4,0.3-17.2,0.6c-1.7,0-1.7-1.1-2-2.8
			c0-2.5,5.1-3.1,16.6-3.1c-0.6-6.5-0.8-17.2-0.8-29.9c0-45.4,3.7-118.2,7.3-138.5c-5.9,0.3-11,0.3-15.5,1.1c-1.7,0-2-1.1-2-2.5
			c0-1.1,0.6-2,1.7-2l18.9-0.6l29.3,0.6c2,0,2.8,1.1,2.8,2.3c0,0.9-0.8,2-2.3,2l-14.7-0.6c-3.1,26-11.3,113.6-11.3,154.8
			c0,5.1,0,9.6,0.3,13c13,0.6,14.4,0.9,14.4,3.4c0,1.1-0.6,2.8-2.5,2.8H581.4L581.4,495.4z"/>
	</g>
</g>
<g>
	<g>
		<path class="st0" d="M470,410.5c1.7-4.5,2-8.7,0.8-13.7c-1.7-7-0.6-14.4,0.1-21.6c0.2-1.9,0.6-3.8,0.8-5.6
			c0.3-1.8,0.9-3.2,3.1-3.3c2.3-0.1,3.6,0.9,4.2,3c2,7.4,3.6,14.8,2.3,22.5c-0.8,4.7-2,9.3-5.1,13.2c-2.1,2.6-2.3,5.8-2.5,9.5
			c6.9-3,11.6-10.8,20.2-8c0.4,1.9-0.5,2.7-1.3,3.4c-6.4,5.7-12.2,12.1-20.2,15.7c-2,0.9-2.7,2.5-3.2,4.4c-1.5,4.7-3.4,9.3-6.2,13.4
			c-0.5,0.8-1,1.7-1.6,2.3c-0.7,0.6-1.8,0.8-2.6,0.1c-0.7-0.6-0.3-1.3,0-2c1.7-3.8,3.3-7.7,5-11.5c1.3-2.9,1.4-4.9-0.8-8
			c-4.5-6.5-5.7-14.4-6.8-22.1c-0.2-1.6-0.7-3.5,1.4-4.4c2-0.9,5.4,0,6.5,2s1.8,4.2,2.7,6.3c0.6,1.6,1.2,3.2,1.8,4.8
			c0.2,0.5,0.3,1.3,0.5,1.3C470,411.9,470.1,411.2,470,410.5z"/>
	</g>
</g>
<g id="Layer_6">
	<g>
		<g>
			<path class="st0" d="M417.9,689.3c-140.3,0-263.2-103.5-283.3-246.4c-22-156.3,87.3-301.4,243.6-323.3
				c156.2-22,301.4,87.3,323.3,243.6c22,156.3-87.3,301.3-243.6,323.3C444.5,688.4,431.1,689.3,417.9,689.3z M418.2,121.6
				c-13,0-26.2,0.9-39.4,2.8c-153.6,21.6-261,164.2-239.4,317.9s164.2,261.1,317.9,239.4c153.6-21.6,261.1-164.2,239.4-317.9
				C676.9,223.4,556.2,121.6,418.2,121.6z"/>
		</g>
	</g>
</g>
<g id="Layer_5">
	<g>
		<g>
			<g>
				<g>
					<path class="st0" d="M222.9,602.5c-4.8-2-9.5-4.4-14.4-6.2c-10.2-3.6-14.7-10.9-15.4-21.3c-0.6-9.4-1.8-18.8-2.9-28.2
						c-0.8-6.5-3-12.5-7.6-17.4c-3.5-3.7-7.2-6.3-12.4-4.5c-4.9,1.7-4.9,6.3-5.5,10.4c-1.8,11.9,1,23,6,33.7
						c-9.4-9.1-16.7-19.6-22.9-30.9c-3.9-7.1-9.4-13.4-10.1-22.1c-0.8-11-4-21.5-7.3-31.9c-4.2-13.3-11.2-24.9-23.7-32.2
						c-4.1-2.4-8.6-3.7-12.4-0.1c-3.5,3.2-3.2,7.5-1.1,11.7c3.7,7.4,6.4,15.3,12.5,21.5c4.7,4.8,8.7,10.2,12.9,15.5
						c0.6,0.7,2.4,1.7,0.9,2.9c-0.8,0.6-1.7-0.7-2.5-1.2c-4-2.9-7.6-6.4-12.7-7.4c-3.5-0.7-7-1.1-9.6,2c-2.5,3-2,6.4-0.8,9.9
						c1.5,4.1,4.4,7.1,7.7,9.8c5.2,4.4,11.4,7.1,17.8,9.1c11.4,3.6,20.2,11,26.8,20.3c10.4,14.7,21.8,28.2,36.2,39
						c1.5,1.1,4.3,2.2,3.4,4.2c-1,2.2-3.6,1.5-5.9,1c-8.1-1.7-15.7-4.7-22.6-9.1c-7.8-5-16.2-8.7-25.3-10.5
						c-4.4-0.9-8.7-0.7-11.2,3.6c-2.6,4.4-0.1,8.1,2.5,11.6c4.3,5.8,10.2,9.2,17.1,11.3c15.7,4.7,30.9,2,46-3.2
						c3.6-1.2,6.6-2.2,10.2,0.7c8.2,6.5,17.8,10.8,27.8,13.9c0.6,0.2,1.3,0.4,2,0.6c-0.1-2.1-0.8-4.1-1.7-6.1
						C223.9,602.9,223.4,602.7,222.9,602.5z"/>
				</g>
			</g>
		</g>
		<g>
			<g>
				<path class="st0" d="M347.3,671.8c-5.5-1.6-11-3.1-16.6-3.9c-9-1.3-13.4-6.5-14.8-15c-0.3-2-0.7-3.9-0.9-5.9
					c-0.9-8.9-2.5-17.7-5-26.3c-4.3-14.3-12.1-26-25.4-33.5c-9.9-5.6-17.3-1.6-18,9.6c-0.6,9.5,2.1,18.1,6.8,26.3
					c5.8,10.2,13.4,19,21.5,27.4c1,1,3.2,2.1,2.3,3.3c-1.4,1.9-3-0.4-4.3-1.1c-16.8-7.7-31.5-18.6-46.8-28.8
					c-9.9-6.6-13.7-15-14.7-25.8c-0.4-4.2-0.7-8.4-1-12.6c-0.8-12.4-2.6-24.7-7.3-36.3c-2-5-5-9.1-9.8-11.8
					c-8.8-4.9-14.4-2.1-15.5,8c-0.2,1.7-0.1,3.5,0.1,5.2c1.2,10.2,4.4,19.9,9.6,28.7c3,5,6.1,9.8,9.1,14.7c1.1,1.8,4.4,5.2,4.6,7.3
					c0.2,2.2-2.1,1.8-4,1c-1.6-0.7-3.2-1.7-4.9-1.6c-0.5,0-1.1,0.2-1.2,0.7c-0.1,0.5,0.2,0.9,0.5,1.2c3.1,3.3,7.1,5.4,10.1,8.5
					c2.6,2.6,5.3,4.6,8.2,6.8c5.7,4.4,11.4,8.7,17.4,12.8c0.7,0.5,1.5,1.9,1.3,2.4c-0.5,1-1.7,0.2-2.6,0.1c-7.2-0.4-14.3-1-21.5-1.3
					c-10-0.3-19.9,0.9-28.9,5.7c-4,2.1-7.3,5-7.4,10.3c-0.1,5.2,2.9,8.2,7.1,10.4c9.3,5.1,18.6,4.6,27.7-0.3
					c8.3-4.5,16.1-10,25.3-12.6c6.4-1.8,13.3-3.8,19.5-0.1c14.1,8.5,29.4,14.5,44.2,21.5c10.9,5.1,22.5,7.7,34.3,9.4
					c2,0.3,5.3,1.6,5.9-1C352.8,673.2,349.3,672.4,347.3,671.8z"/>
			</g>
		</g>
	</g>
</g>
<g id="Layer_4">
	<g>
		<g>
			<g>
				<path class="st0" d="M576.6,206.3c-9,0-18-0.7-26.8-3.7c-5.3-1.8-8.6-4.2-10.9-7.7c-1.6-2.5-2.1-4.4-1.5-6s2.1-2.8,4.8-3.7
					c7-2.4,14-1,20.8,0.4l0.7,0.1c9.1,1.9,17.3,6,25.2,10c3.6,1.8,7.2,3.7,10.9,5.3c0.3,0.1,0.7,0.3,1.1,0.4
					c1.6,0.5,3.5,1.2,3.1,2.9c-0.5,2.1-2.4,1.7-3.7,1.4c-0.6-0.1-1.3-0.3-1.7-0.2c-1.7,0.3-3.5,0.3-5.3,0.3c-0.5,0-0.9,0-1.4,0
					c-1.2,0-2.4,0.1-3.6,0.1C584.5,206.2,580.6,206.3,576.6,206.3z M550.4,184.9c-2.6,0-5.2,0.3-7.9,1.2c-2.4,0.8-3.8,1.8-4.2,3.1
					s0,2.9,1.4,5.1c2.2,3.3,5.4,5.6,10.4,7.3c12.5,4.3,25.5,3.8,38.1,3.4c1.2,0,2.4-0.1,3.6-0.1l0,0c0.5,0,0.9,0,1.4,0
					c1.7,0,3.5-0.1,5.1-0.3c0.7-0.1,1.4,0.1,2.1,0.2c1.6,0.4,2.2,0.4,2.5-0.7c0.2-0.7-0.9-1.1-2.4-1.7c-0.4-0.1-0.8-0.3-1.2-0.4
					c-3.7-1.6-7.4-3.5-11-5.3c-7.9-4-16.1-8.1-25-10l-0.7-0.1C558.7,185.8,554.6,184.9,550.4,184.9z"/>
			</g>
		</g>
		<g>
			<g>
				<path class="st0" d="M638,170.5c0.7-2.1,1.7-4.1,3.8-5.3c4.8-3.3,11.3-0.2,13.6,6.9c2.4,7.3,2.5,14.7-0.8,21.8
					c-4.6,9.7-9.1,19.3-10.2,30.2c-0.1,0.7-0.4,1.7-0.9,1.8c-0.8,0.2-1-0.7-1.2-1.4C636.8,206.8,632.2,189,638,170.5z"/>
				<path class="st0" d="M643.2,226.4c-0.9,0-1.2-1.1-1.4-1.6l-0.1-0.2c-5.6-18-10.1-35.6-4.3-54.2l0,0c0.9-2.7,2.1-4.5,4-5.6
					c2.1-1.4,4.6-1.8,7-1c3.3,1.1,6,4.1,7.4,8.1c2.6,7.9,2.3,15.4-0.9,22.1c-4.2,8.9-9,19-10.2,30c-0.1,0.5-0.4,2-1.2,2.3
					C643.4,226.3,643.3,226.4,643.2,226.4z M638.4,170.7c-5.7,18.3-1.2,35.8,4.3,53.6l0.1,0.2c0.3,0.9,0.4,0.9,0.5,0.9
					c0.2-0.1,0.5-0.8,0.5-1.4c1.2-11.2,6-21.4,10.3-30.3c3.1-6.5,3.4-13.7,0.8-21.4c-1.2-3.7-3.7-6.5-6.7-7.5
					c-2.1-0.7-4.3-0.4-6.2,0.9C640.3,166.6,639.2,168.2,638.4,170.7L638.4,170.7z"/>
			</g>
		</g>
		<g>
			<g>
				<path class="st0" d="M654.4,267.8c-0.7-0.4-1.3-0.7-2-1c-10.4-5.1-21.6-7-33-8c-6.7-0.6-13.4-1-19.5-4.1c-1.3-0.6-3-1-3-2.8
					c-0.1-2.2,1.6-2.7,3.3-3.3c5-1.7,10.1-2,15.4-1.2c14.5,2.3,26.1,10.2,37.6,18.4C653.7,266.1,654.9,266.5,654.4,267.8z"/>
				<path class="st0" d="M654.6,268.5l-1.2-0.6c-0.4-0.2-0.8-0.4-1.2-0.6c-11.3-5.5-23.5-7.2-32.8-8l-1.1-0.1
					c-6.3-0.5-12.7-1.1-18.6-4.1c-0.2-0.1-0.4-0.2-0.7-0.3c-1.1-0.5-2.6-1.1-2.7-2.9c-0.1-2.6,1.8-3.2,3.5-3.7l0.2-0.1
					c5-1.7,10.2-2.1,15.6-1.2c14.3,2.3,25.6,9.7,37.9,18.5c0.1,0.1,0.2,0.1,0.3,0.2c0.6,0.3,1.7,1,1.1,2.5L654.6,268.5z
					 M610.1,247.4c-3.4,0-6.6,0.5-9.8,1.6l-0.2,0.1c-1.8,0.6-2.9,1-2.8,2.7c0.1,1.2,0.8,1.5,2,2.1c0.2,0.1,0.5,0.2,0.7,0.3
					c5.7,2.9,12.1,3.4,18.3,4l1.1,0.1c9.5,0.8,21.8,2.5,33.2,8.1c0.4,0.2,0.8,0.4,1.3,0.7l0.1,0.1c-0.1-0.2-0.3-0.4-0.8-0.7
					c-0.2-0.1-0.3-0.2-0.4-0.2c-12.1-8.7-23.3-16.1-37.4-18.4C613.6,247.5,611.8,247.4,610.1,247.4z"/>
			</g>
		</g>
		<g>
			<g>
				<path class="st0" d="M670.9,284.9c-0.5,0-1.1-0.2-1.6-0.3l-0.2-0.1c-4.1-1.3-8.2-1.4-13.1-1.4c-8.4,0-18.2-0.3-28.1-2.7
					c-12.4-2.9-21.3-8.3-28-16.7l-0.1-0.1v-0.2c0-0.4-0.4-0.8-0.8-1.2c-0.7-0.8-1.6-1.8-0.6-3.2c0.8-1.1,2.3-0.6,3.5-0.1
					c0.4,0.2,0.8,0.3,1.1,0.4c5.1,1.3,11.2,2.6,17.4,2.7c20,0.3,36.5,9.9,50,19.3c0.1,0.1,0.2,0.2,0.4,0.2c0.8,0.5,2,1.3,1.5,2.5
					l0,0C672,284.7,671.4,284.9,670.9,284.9z M656.6,282.1c4.7,0,8.7,0.1,12.7,1.4l0.3,0.1c1,0.3,1.5,0.4,1.7,0.1
					c0.2-0.4-0.2-0.7-1.1-1.3c-0.1-0.1-0.3-0.2-0.4-0.3c-13.4-9.3-29.7-18.9-49.4-19.2c-6.3-0.1-12.5-1.5-17.7-2.8
					c-0.4-0.1-0.8-0.3-1.2-0.4c-1.2-0.4-2-0.7-2.4-0.2c-0.5,0.6-0.2,1,0.6,1.9c0.5,0.5,0.9,1.1,1,1.7c6.6,8.2,15.3,13.4,27.4,16.2
					c9.8,2.3,19.6,2.6,27.9,2.6C656.2,282.1,656.4,282.1,656.6,282.1z"/>
			</g>
		</g>
		<g>
			<g>
				<g>
					<path class="st0" d="M527.4,164.9c-2.5-1.5-4.2-3.6-4-6.6s2.8-4,5.1-4.8s4.8-1.2,7.2-1.6c14-2,26.2,2.7,37,9.1
						c2.5,1.7,4.2,2.7,5.8,3.8c0.8,0.6,1.8,1.2,1.2,2.3c-0.2,0.4-1.3,0.4-2,0.5c-9.3,0.5-18.7,1.5-28.1,1.4
						C542.1,169,534.3,169,527.4,164.9z"/>
					<path class="st0" d="M550.4,169.5c-0.2,0-0.5,0-0.7,0h-0.2c-7.6,0-15.4-0.1-22.3-4.2c-3-1.8-4.4-4.2-4.2-7.1
						c0.3-3.4,3.4-4.5,5.4-5.2c2.4-0.8,4.9-1.2,7.3-1.6c11.9-1.7,23.8,1.2,37.3,9.2l2.5,1.7c1.3,0.8,2.3,1.5,3.3,2.2
						c0.8,0.5,2.2,1.5,1.4,2.9c-0.3,0.6-1.3,0.7-2.2,0.7h-0.2c-2.7,0.2-5.5,0.4-8.2,0.5C563.3,169.1,556.8,169.5,550.4,169.5z
						 M542.2,152c-2.1,0-4.3,0.2-6.4,0.5c-2.7,0.4-5,0.8-7.1,1.5c-2.5,0.9-4.5,1.8-4.7,4.3s1,4.5,3.7,6.1l0,0c6.7,4,14.4,4,21.8,4.1
						h0.2c6.6,0,13.3-0.4,19.8-0.9c2.7-0.2,5.5-0.4,8.2-0.5h0.2c0.4,0,1.3-0.1,1.4-0.2c0.3-0.5,0-0.9-1.1-1.6
						c-1-0.7-2.1-1.4-3.3-2.2l-2.5-1.6C561.6,155,551.8,152,542.2,152z"/>
				</g>
			</g>
			<g>
				<g>
					<path class="st0" d="M498.9,117.6c0.8,0.5,2.1,1.3,2,1.9c-0.1,1.3-1.5,0.9-2.4,0.8c-12.6-0.9-25.2-2.3-37-6.9
						c-6.7-2.6-12.1-7.6-17.4-12.3c-2.5-2.2-4.1-5.3-2.6-8.7c1.7-3.9,5.4-3.1,8.5-2.3c3.6,0.9,7.3,2.1,10.3,4
						c8.6,5.4,18.3,8.8,24.2,14C490.6,112.1,494.8,114.8,498.9,117.6z"/>
					<path class="st0" d="M499.8,120.9c-0.3,0-0.6,0-0.8-0.1c-0.2,0-0.3,0-0.4,0c-11.5-0.8-24.8-2.1-37.2-7
						c-6.7-2.6-12-7.5-17.3-12.2l-0.3-0.3c-3.1-2.8-4.1-6.1-2.7-9.3c2-4.4,6.4-3.3,9.1-2.6c3.4,0.9,7.2,2,10.5,4.1
						c3.5,2.2,7.2,4.1,10.8,5.9c5.1,2.6,9.9,5,13.4,8.1c2.1,1.4,4.1,2.7,5.8,3.8c3.2,2.1,5.9,3.9,8.6,5.7l0.2,0.1
						c1.2,0.8,2.1,1.5,2,2.2c0,0.4-0.2,0.8-0.5,1C500.6,120.8,500.2,120.9,499.8,120.9z M446,89.8c-1.7,0-3.2,0.6-4.1,2.7
						c-1.7,3.8,1.2,6.9,2.5,8.1l0.3,0.3c5.2,4.6,10.5,9.4,17,12c12.3,4.8,25.5,6.1,36.9,6.9c0.1,0,0.3,0,0.5,0
						c0.4,0.1,1,0.1,1.3-0.1c0,0,0.1-0.1,0.1-0.4c-0.1-0.3-1.2-1-1.6-1.3l-0.2-0.1c-2.7-1.8-5.3-3.5-8.6-5.7
						c-1.8-1.2-3.7-2.4-5.9-3.9c-3.4-3.1-8.2-5.5-13.3-8c-3.6-1.8-7.4-3.7-10.9-6c-3.1-2-6.9-3.1-10.2-4
						C448.5,90.1,447.2,89.8,446,89.8z"/>
				</g>
			</g>
			<g>
				<g>
					<path class="st0" d="M511.7,118.3c-8.5-7-18.2-12.4-24-22c-1.8-2.9-4.2-6.5-1.2-9.4c2.7-2.6,6.6-1.3,9.8,0.3
						c1.3,0.7,2.4,1.7,3.5,2.6c4.4,3.8,7.2,8.7,10,13.6c3.6,6.4,6.5,13.3,12.1,18.4c0.5,0.4,0.8,1.1,1.2,1.7c-0.6-0.1-1.3,0-1.8-0.2
						C518.1,121.8,514.8,120,511.7,118.3z"/>
					<path class="st0" d="M524.2,124.3l-1.1-0.1c-0.2,0-0.4,0-0.5,0c-0.5,0-1,0-1.4-0.3c-2.7-1.4-5.3-2.8-7.9-4.2l-1.9-1
						c-2.2-1.8-4.4-3.5-6.6-5.1c-6.4-4.8-13.1-9.8-17.5-17l-0.2-0.4c-1.7-2.8-4-6.6-0.9-9.6s7.4-1.3,10.3,0.2
						c1.2,0.6,2.2,1.5,3.1,2.3l0.5,0.4c4.6,3.9,7.6,9.2,10.1,13.8c0.8,1.3,1.5,2.7,2.2,4.1c2.7,5,5.5,10.2,9.8,14.3
						c0.4,0.4,0.7,0.8,0.9,1.2c0.1,0.2,0.2,0.4,0.3,0.5L524.2,124.3z M512,117.9l1.7,0.9c2.6,1.4,5.2,2.8,7.9,4.2
						c0.2,0.1,0.4,0.1,0.6,0.1c-0.2-0.3-0.4-0.6-0.6-0.8c-4.5-4.1-7.3-9.4-10-14.5c-0.7-1.4-1.4-2.7-2.2-4
						c-2.5-4.5-5.4-9.7-9.9-13.5l-0.5-0.4c-0.9-0.8-1.9-1.6-2.9-2.2c-4.3-2.2-7.2-2.3-9.2-0.4c-2.6,2.5-0.7,5.6,1,8.4l0.2,0.4
						c4.3,7,10.6,11.7,17.2,16.7C507.5,114.4,509.8,116.1,512,117.9z"/>
				</g>
			</g>
			<g>
				<g>
					<path class="st0" d="M569.4,121.8c-2.3-4.2-3.4-8.7-4.1-13.4c-0.7-4.4,1.4-5.4,5.1-4.3c1.6,0.5,3.1,1.5,4.6,2.3
						c10.6,5.6,16.5,28.9,14.2,40.9c-0.5,2.4-1.4,1.2-2.2,0.1C581.3,138.7,574.5,130.9,569.4,121.8z"/>
					<path class="st0" d="M588.4,149.2c-0.7,0-1.3-0.7-1.8-1.5c-2.3-3.5-4.8-6.9-7.2-10.1c-3.6-4.9-7.4-10-10.4-15.5l0,0
						c-2.5-4.5-3.5-9.4-4.2-13.6c-0.3-2.2,0-3.7,0.9-4.6c1-0.9,2.6-0.9,4.8-0.3c1.2,0.4,2.2,1,3.3,1.6c0.5,0.3,0.9,0.5,1.4,0.8
						c11,5.8,16.7,29.6,14.5,41.4c-0.1,0.7-0.4,1.6-1.1,1.8C588.5,149.2,588.5,149.2,588.4,149.2z"/>
				</g>
			</g>
		</g>
		<g>
			<g>
				<path class="st0" d="M690.3,314.3c-3.1-11.5-7-22.8-13.3-33c-8.5-14-16.3-28.5-26.3-41.5c-4.4-5.7-3.2-12.8-2.1-19.4
					c1.5-9.4,6.1-17.8,9.6-26.5c3.8-9.6,3.3-18.9-2.8-27.6c-2.7-3.8-6-6.5-11.2-5.8s-7.7,4.3-9.4,8.5c-3.7,9.5-3.8,19.4-2.4,29.3
					c1,7.1,2.4,14.1,3.7,21.2c0.2,0.9,1.1,2,0.2,2.6c-0.5,0.3-2-0.4-2.5-1c-4.7-5.5-9.6-10.7-14.7-15.9c-9.5-9.7-17.4-21.3-27-30.9
					c-3.2-3.2-2.6-6.4-1.8-10.1c3.4-15.5,4.4-30.9-2.1-46c-2.8-6.6-6.9-12-13.1-15.7c-3.7-2.2-7.7-4.2-11.8-1.1
					c-4,3-3.7,7.3-2.3,11.6c2.8,8.8,7.5,16.7,13.3,23.9c5.2,6.4,9.1,13.6,11.7,21.5c0.7,2.2,1.8,4.8-0.3,6c-1.9,1.1-3.3-1.6-4.6-2.9
					c-12.4-13.1-27.1-22.9-42.9-31.6c-10-5.5-18.3-13.4-23.2-24.3c-2.8-6.1-6.2-11.9-11.1-16.6c-3.1-2.9-6.3-5.5-10.6-6.5
					c-3.6-0.8-7-0.9-9.7,1.9c-2.9,2.9-2,6.3-0.9,9.8c1.6,5,5.5,8.2,8.8,11.8c0.7,0.7,2,1.5,1.5,2.3c-1,1.7-2.2,0-3-0.5
					c-5.7-3.6-11.6-6.9-16.8-11c-6.8-5.3-15-7.2-22.8-10c-4.4-1.6-8.6-1.4-11.5,2.4c-3.1,4.2-1.4,8.5,1.5,12.3
					c8.7,11.6,21,17.2,34.7,19.9c10.7,2.1,21.5,4.1,32.5,3.7c8.7-0.3,15.6,4.4,23.1,7.5c11.9,4.9,23.1,11,33.3,19.3
					c-11.3-3.8-22.6-5.3-34.2-2.2c-4,1.1-8.6,1.6-9.7,6.6c-1.2,5.4,1.8,8.8,5.8,11.9c5.5,4.1,11.6,5.6,18.2,5.6
					c9.4,0.1,18.9,0.1,28.3-0.3c7.6-0.3,14.9,1.7,19.8,7.8c3.9,4.8,8.4,9.4,12.5,13.9c2.5,2.8,2.2,4.2-1.1,4.1
					c-3.5-0.2-6.7-3.2-9.7-4.6c-5.2-2.5-10.4-5.1-15.6-7.4c-9.4-4.2-19.3-6.3-29.6-6.3c-1.7,0-3.5,0.1-5.2,0.4
					c-9.8,2.3-12,8.1-6.2,16.3c3.2,4.4,7.6,6.9,12.8,8.4c12.1,3.4,24.5,3.7,36.9,3.2c4.2-0.2,8.4-0.4,12.7-0.4
					c10.8-0.2,19.6,2.6,27.3,11.7c11.9,14,24.4,27.4,33.9,43.2c0.8,1.3,3.2,2.6,1.5,4.2c-1.1,1-2.5-1.1-3.6-1.9
					c-9.2-7.2-18.9-13.6-29.7-18.3c-8.6-3.7-17.5-5.4-26.9-3.7c-11,2-14.1,9.8-7.5,19c8.9,12.3,21.4,18.8,36.1,21.5
					c8.8,1.6,17.7,2.1,26.7,2c2,0,4,0.1,6,0.2c8.5,0.5,14.3,4.2,16.5,13c1.4,5.5,3.6,10.8,5.8,16.1c0.8,1.9,2,5.2,4,4.6
					C692.5,319.4,690.8,316.3,690.3,314.3z"/>
			</g>
		</g>
	</g>
</g>
<g id="Layer_3">
	<g>
		<g>
			<g>
				<path class="st0" d="M467.2,714.3c2.4-1.9,2.6-4.7,1.7-7.5c-1-3.1-2.8-5.7-5.1-8.1c-9.3-9.5-21.1-14-34.6-17.7
					c8.8,8.3,14.9,17.6,21.9,26.1c2.4,2.9,5.3,5.2,8.4,7.2C461.9,715.9,464.8,716.2,467.2,714.3z"/>
			</g>
		</g>
		<g>
			<g>
				<path class="st0" d="M438.7,647.6c2.5-1.5,4.8-3.6,6.8-5.7c1.3-1.4,2.5-3.5,1.5-5.4c-1.2-2.2-3.6-2.5-5.9-2.1
					c-3.7,0.6-7.5,1.6-10.2,4.1c-7.7,6.9-15.2,14.1-22.8,21.2c-0.6,0.5-1.5,1.3-0.2,2.2c0.7-0.2,1.4-0.4,2.1-0.7
					C420,657.8,429.6,653.1,438.7,647.6z"/>
				<path class="st0" d="M407.8,662.4l-0.2-0.1c-0.6-0.4-0.9-0.8-0.9-1.3c-0.1-0.7,0.5-1.2,0.9-1.6l0.1-0.1c1.8-1.7,3.5-3.3,5.3-5
					c5.7-5.4,11.5-10.9,17.4-16.2c3.1-2.7,7.2-3.7,10.5-4.2c3.1-0.5,5.3,0.3,6.4,2.4c1.3,2.4-0.4,4.8-1.5,6
					c-2.5,2.6-4.7,4.4-6.9,5.8c-9.8,5.9-19.2,10.4-28.8,13.7c-0.5,0.2-1,0.3-1.5,0.5L407.8,662.4z M442.6,634.8c-0.5,0-1,0-1.5,0.1
					c-3.1,0.5-7.1,1.4-10,4c-5.9,5.3-11.8,10.8-17.4,16.2c-1.8,1.7-3.5,3.4-5.3,5l-0.1,0.1c-0.2,0.2-0.6,0.6-0.6,0.8
					c0,0.1,0.1,0.2,0.3,0.4l0.4-0.1c0.5-0.1,1-0.3,1.5-0.5c9.5-3.3,18.9-7.7,28.6-13.6l0,0c2.1-1.3,4.2-3,6.7-5.6c1-1,2.4-3,1.4-4.8
					C445.8,635.4,444.5,634.8,442.6,634.8z"/>
			</g>
		</g>
		<g>
			<g>
				<path class="st0" d="M338.6,680c-1.8,2.4-3.4,5-5,7.7c16.8-10.2,35.4-16.4,57.1-15.9c17.4,0.4,32.8,4.7,42.4,21.1
					c2.8,4.7,6.4,8.8,9.5,13.3c3.2,4.9,7.7,8.4,12.6,11.4c5,3,12.1,2.8,15.2-0.4c3.9-4,4.2-10.2,0.6-15.8
					c-4.1-6.4-9.4-11.5-16.4-14.7c-1.3-0.6-3.5-0.9-3.4-2.3c0.2-1.7,2.4-1,3.8-1.3c25-5.9,43.5-19.6,53.4-43.9
					c2.1-5.1,2.2-10.2-0.1-15.2c-2.7-6.1-6.5-7-11.7-3c-1.3,1-2.4,2.5-3.5,3.8c-6.3,7.5-7.3,17.3-10.7,26c-3.5,8.8-4.9,19-14.8,23.9
					c-8.7,4.4-18.1,6.1-27.5,4.2c-10.6-2.2-21-5.5-31.5-8.5c-0.6-0.2-1-0.8-1.5-1.2c0.5-0.5,1-1.1,1.6-1.4c1.4-0.6,2.8-0.9,4.2-1.5
					c12.3-5.5,24.2-11.5,34.1-20.9c3.3-3.1,5.7-6.7,3.1-11.2c-2.5-4.5-7-3.9-11.3-3.1c-5.2,1.1-9.9,3.4-13.8,7
					c-5.1,4.7-9.8,9.9-15,14.4c-7.6,6.6-14.9,14.6-25.8,15.2C368,668.7,353.1,673.4,338.6,680z"/>
			</g>
		</g>
	</g>
</g>
</svg>
